G04 #@! TF.GenerationSoftware,KiCad,Pcbnew,(6.0.8)*
G04 #@! TF.CreationDate,2023-03-23T08:33:07-06:00*
G04 #@! TF.ProjectId,Havoc6295_2_0.kicad_pro,4861766f-6336-4323-9935-5f325f302e6b,rev?*
G04 #@! TF.SameCoordinates,Original*
G04 #@! TF.FileFunction,Soldermask,Top*
G04 #@! TF.FilePolarity,Negative*
%FSLAX46Y46*%
G04 Gerber Fmt 4.6, Leading zero omitted, Abs format (unit mm)*
G04 Created by KiCad (PCBNEW (6.0.8)) date 2023-03-23 08:33:07*
%MOMM*%
%LPD*%
G01*
G04 APERTURE LIST*
G04 Aperture macros list*
%AMRoundRect*
0 Rectangle with rounded corners*
0 $1 Rounding radius*
0 $2 $3 $4 $5 $6 $7 $8 $9 X,Y pos of 4 corners*
0 Add a 4 corners polygon primitive as box body*
4,1,4,$2,$3,$4,$5,$6,$7,$8,$9,$2,$3,0*
0 Add four circle primitives for the rounded corners*
1,1,$1+$1,$2,$3*
1,1,$1+$1,$4,$5*
1,1,$1+$1,$6,$7*
1,1,$1+$1,$8,$9*
0 Add four rect primitives between the rounded corners*
20,1,$1+$1,$2,$3,$4,$5,0*
20,1,$1+$1,$4,$5,$6,$7,0*
20,1,$1+$1,$6,$7,$8,$9,0*
20,1,$1+$1,$8,$9,$2,$3,0*%
G04 Aperture macros list end*
%ADD10RoundRect,0.101600X0.635000X-0.635000X0.635000X0.635000X-0.635000X0.635000X-0.635000X-0.635000X0*%
%ADD11RoundRect,0.101600X0.647700X1.150000X-0.647700X1.150000X-0.647700X-1.150000X0.647700X-1.150000X0*%
%ADD12RoundRect,0.101600X-0.750000X0.650000X-0.750000X-0.650000X0.750000X-0.650000X0.750000X0.650000X0*%
%ADD13RoundRect,0.101600X-0.300000X-0.600000X0.300000X-0.600000X0.300000X0.600000X-0.300000X0.600000X0*%
%ADD14RoundRect,0.101600X0.650000X0.750000X-0.650000X0.750000X-0.650000X-0.750000X0.650000X-0.750000X0*%
%ADD15RoundRect,0.101600X0.750000X-0.650000X0.750000X0.650000X-0.750000X0.650000X-0.750000X-0.650000X0*%
%ADD16RoundRect,0.101600X-0.650000X-0.750000X0.650000X-0.750000X0.650000X0.750000X-0.650000X0.750000X0*%
%ADD17RoundRect,0.101600X-1.000000X-0.250000X1.000000X-0.250000X1.000000X0.250000X-1.000000X0.250000X0*%
%ADD18RoundRect,0.101600X-0.250000X-1.000000X0.250000X-1.000000X0.250000X1.000000X-0.250000X1.000000X0*%
%ADD19RoundRect,0.101600X-0.750000X-0.800000X0.750000X-0.800000X0.750000X0.800000X-0.750000X0.800000X0*%
%ADD20RoundRect,0.101600X0.750000X0.800000X-0.750000X0.800000X-0.750000X-0.800000X0.750000X-0.800000X0*%
%ADD21C,1.524000*%
G04 APERTURE END LIST*
D10*
X164265100Y-136092600D03*
D11*
X165265100Y-131842600D03*
D10*
X166265100Y-136092600D03*
D12*
X152311100Y-75605600D03*
X152311100Y-77505600D03*
D13*
X159870100Y-132471600D03*
X160820100Y-132471600D03*
X161770100Y-132471600D03*
X161770100Y-129859600D03*
X159870100Y-129859600D03*
D12*
X139738100Y-133263600D03*
X139738100Y-135163600D03*
D14*
X140434100Y-139420600D03*
X138534100Y-139420600D03*
D12*
X135801100Y-131485600D03*
X135801100Y-133385600D03*
X166281100Y-126405600D03*
X166281100Y-128305600D03*
X166281100Y-121325600D03*
X166281100Y-123225600D03*
D15*
X131991100Y-133385600D03*
X131991100Y-131485600D03*
D16*
X162664100Y-139674600D03*
X164564100Y-139674600D03*
D17*
X142301100Y-123355600D03*
X142301100Y-124155600D03*
X142301100Y-124955600D03*
X142301100Y-125755600D03*
X142301100Y-126555600D03*
X142301100Y-127355600D03*
X142301100Y-128155600D03*
X142301100Y-128955600D03*
X142301100Y-129755600D03*
X142301100Y-130555600D03*
X142301100Y-131355600D03*
D18*
X144501100Y-133555600D03*
X145301100Y-133555600D03*
X146101100Y-133555600D03*
X146901100Y-133555600D03*
X147701100Y-133555600D03*
X148501100Y-133555600D03*
X149301100Y-133555600D03*
X150101100Y-133555600D03*
X150901100Y-133555600D03*
X151701100Y-133555600D03*
X152501100Y-133555600D03*
D17*
X154701100Y-131355600D03*
X154701100Y-130555600D03*
X154701100Y-129755600D03*
X154701100Y-128955600D03*
X154701100Y-128155600D03*
X154701100Y-127355600D03*
X154701100Y-126555600D03*
X154701100Y-125755600D03*
X154701100Y-124955600D03*
X154701100Y-124155600D03*
X154701100Y-123355600D03*
D18*
X152501100Y-121155600D03*
X151701100Y-121155600D03*
X150901100Y-121155600D03*
X150101100Y-121155600D03*
X149301100Y-121155600D03*
X148501100Y-121155600D03*
X147701100Y-121155600D03*
X146901100Y-121155600D03*
X146101100Y-121155600D03*
X145301100Y-121155600D03*
X144501100Y-121155600D03*
D19*
X131361100Y-122265600D03*
X131361100Y-127365600D03*
D20*
X135161100Y-127365600D03*
X135161100Y-122265600D03*
D21*
X134531100Y-71475600D03*
X134531100Y-74015600D03*
X134531100Y-76555600D03*
X134531100Y-79095600D03*
X134531100Y-81635600D03*
X134531100Y-84175600D03*
X134531100Y-86715600D03*
X134531100Y-89255600D03*
X134531100Y-91795600D03*
X134531100Y-94335600D03*
X134531100Y-96875600D03*
X134531100Y-99415600D03*
X134531100Y-101955600D03*
X134531100Y-104495600D03*
X134531100Y-107035600D03*
X134531100Y-109575600D03*
X149771100Y-109575600D03*
X149771100Y-107035600D03*
X149771100Y-104495600D03*
X149771100Y-101955600D03*
X149771100Y-99415600D03*
X149771100Y-96875600D03*
X149771100Y-94335600D03*
X149771100Y-91795600D03*
X149771100Y-89255600D03*
X149771100Y-86715600D03*
X149771100Y-84175600D03*
X149771100Y-81635600D03*
X149771100Y-79095600D03*
X149771100Y-76555600D03*
X149771100Y-74015600D03*
X149771100Y-71475600D03*
M02*
