G04 #@! TF.GenerationSoftware,KiCad,Pcbnew,(6.0.8)*
G04 #@! TF.CreationDate,2023-03-23T08:33:06-06:00*
G04 #@! TF.ProjectId,Havoc6295_2_0.kicad_pro,4861766f-6336-4323-9935-5f325f302e6b,rev?*
G04 #@! TF.SameCoordinates,Original*
G04 #@! TF.FileFunction,Copper,L1,Top*
G04 #@! TF.FilePolarity,Positive*
%FSLAX46Y46*%
G04 Gerber Fmt 4.6, Leading zero omitted, Abs format (unit mm)*
G04 Created by KiCad (PCBNEW (6.0.8)) date 2023-03-23 08:33:06*
%MOMM*%
%LPD*%
G01*
G04 APERTURE LIST*
G04 #@! TA.AperFunction,SMDPad,CuDef*
%ADD10R,1.270000X1.270000*%
G04 #@! TD*
G04 #@! TA.AperFunction,SMDPad,CuDef*
%ADD11R,1.295400X2.300000*%
G04 #@! TD*
G04 #@! TA.AperFunction,SMDPad,CuDef*
%ADD12R,1.500000X1.300000*%
G04 #@! TD*
G04 #@! TA.AperFunction,SMDPad,CuDef*
%ADD13R,0.600000X1.200000*%
G04 #@! TD*
G04 #@! TA.AperFunction,SMDPad,CuDef*
%ADD14R,1.300000X1.500000*%
G04 #@! TD*
G04 #@! TA.AperFunction,SMDPad,CuDef*
%ADD15R,2.000000X0.500000*%
G04 #@! TD*
G04 #@! TA.AperFunction,SMDPad,CuDef*
%ADD16R,0.500000X2.000000*%
G04 #@! TD*
G04 #@! TA.AperFunction,SMDPad,CuDef*
%ADD17R,1.500000X1.600000*%
G04 #@! TD*
G04 #@! TA.AperFunction,ComponentPad*
%ADD18C,1.320800*%
G04 #@! TD*
G04 #@! TA.AperFunction,ViaPad*
%ADD19C,1.016000*%
G04 #@! TD*
G04 #@! TA.AperFunction,ViaPad*
%ADD20C,0.800000*%
G04 #@! TD*
G04 #@! TA.AperFunction,Conductor*
%ADD21C,0.304800*%
G04 #@! TD*
G04 #@! TA.AperFunction,Conductor*
%ADD22C,0.254000*%
G04 #@! TD*
G04 #@! TA.AperFunction,Conductor*
%ADD23C,0.250000*%
G04 #@! TD*
G04 #@! TA.AperFunction,Conductor*
%ADD24C,0.609600*%
G04 #@! TD*
G04 #@! TA.AperFunction,Conductor*
%ADD25C,0.406400*%
G04 #@! TD*
G04 APERTURE END LIST*
D10*
X164265100Y-136092600D03*
D11*
X165265100Y-131842600D03*
D10*
X166265100Y-136092600D03*
D12*
X152311100Y-75605600D03*
X152311100Y-77505600D03*
D13*
X159870100Y-132471600D03*
X160820100Y-132471600D03*
X161770100Y-132471600D03*
X161770100Y-129859600D03*
X159870100Y-129859600D03*
D12*
X139738100Y-133263600D03*
X139738100Y-135163600D03*
D14*
X140434100Y-139420600D03*
X138534100Y-139420600D03*
D12*
X135801100Y-131485600D03*
X135801100Y-133385600D03*
X166281100Y-126405600D03*
X166281100Y-128305600D03*
X166281100Y-121325600D03*
X166281100Y-123225600D03*
X131991100Y-133385600D03*
X131991100Y-131485600D03*
D14*
X162664100Y-139674600D03*
X164564100Y-139674600D03*
D15*
X142301100Y-123355600D03*
X142301100Y-124155600D03*
X142301100Y-124955600D03*
X142301100Y-125755600D03*
X142301100Y-126555600D03*
X142301100Y-127355600D03*
X142301100Y-128155600D03*
X142301100Y-128955600D03*
X142301100Y-129755600D03*
X142301100Y-130555600D03*
X142301100Y-131355600D03*
D16*
X144501100Y-133555600D03*
X145301100Y-133555600D03*
X146101100Y-133555600D03*
X146901100Y-133555600D03*
X147701100Y-133555600D03*
X148501100Y-133555600D03*
X149301100Y-133555600D03*
X150101100Y-133555600D03*
X150901100Y-133555600D03*
X151701100Y-133555600D03*
X152501100Y-133555600D03*
D15*
X154701100Y-131355600D03*
X154701100Y-130555600D03*
X154701100Y-129755600D03*
X154701100Y-128955600D03*
X154701100Y-128155600D03*
X154701100Y-127355600D03*
X154701100Y-126555600D03*
X154701100Y-125755600D03*
X154701100Y-124955600D03*
X154701100Y-124155600D03*
X154701100Y-123355600D03*
D16*
X152501100Y-121155600D03*
X151701100Y-121155600D03*
X150901100Y-121155600D03*
X150101100Y-121155600D03*
X149301100Y-121155600D03*
X148501100Y-121155600D03*
X147701100Y-121155600D03*
X146901100Y-121155600D03*
X146101100Y-121155600D03*
X145301100Y-121155600D03*
X144501100Y-121155600D03*
D17*
X131361100Y-122265600D03*
X131361100Y-127365600D03*
X135161100Y-127365600D03*
X135161100Y-122265600D03*
D18*
X134531100Y-71475600D03*
X134531100Y-74015600D03*
X134531100Y-76555600D03*
X134531100Y-79095600D03*
X134531100Y-81635600D03*
X134531100Y-84175600D03*
X134531100Y-86715600D03*
X134531100Y-89255600D03*
X134531100Y-91795600D03*
X134531100Y-94335600D03*
X134531100Y-96875600D03*
X134531100Y-99415600D03*
X134531100Y-101955600D03*
X134531100Y-104495600D03*
X134531100Y-107035600D03*
X134531100Y-109575600D03*
X149771100Y-109575600D03*
X149771100Y-107035600D03*
X149771100Y-104495600D03*
X149771100Y-101955600D03*
X149771100Y-99415600D03*
X149771100Y-96875600D03*
X149771100Y-94335600D03*
X149771100Y-91795600D03*
X149771100Y-89255600D03*
X149771100Y-86715600D03*
X149771100Y-84175600D03*
X149771100Y-81635600D03*
X149771100Y-79095600D03*
X149771100Y-76555600D03*
X149771100Y-74015600D03*
X149771100Y-71475600D03*
D19*
X164757100Y-117576600D03*
X137071100Y-94335600D03*
D20*
X159000000Y-134000000D03*
D19*
X165265100Y-134086600D03*
X138264900Y-137172700D03*
X151066500Y-129971800D03*
X137071100Y-84175600D03*
X146977100Y-81635600D03*
X135864600Y-134772400D03*
X159000000Y-136500000D03*
X161201100Y-141325600D03*
X161442400Y-115176300D03*
X146265900Y-110540800D03*
X145351500Y-109626400D03*
X144437100Y-108712000D03*
X153466800Y-108483400D03*
X153009600Y-109740700D03*
X155181300Y-120256300D03*
X151980900Y-127342900D03*
X157353000Y-118084600D03*
X152552400Y-111455200D03*
X140779500Y-101854000D03*
X136436100Y-120027700D03*
X147408900Y-85852000D03*
X140550900Y-131000500D03*
X140550900Y-114312700D03*
X137350500Y-109855000D03*
X142265400Y-132372100D03*
X138468100Y-77825600D03*
X139611100Y-87985600D03*
X147751800Y-124371100D03*
X147751800Y-111683800D03*
X152895300Y-128257300D03*
X165150800Y-112826800D03*
X148666200Y-129171700D03*
X147751800Y-130086100D03*
X147866100Y-131457700D03*
X149009100Y-135343900D03*
X144322800Y-136258300D03*
X145237200Y-137172700D03*
X143751300Y-138087100D03*
X142494000Y-138087100D03*
X154038300Y-132372100D03*
X154038300Y-133743700D03*
X153123900Y-135686800D03*
X163639500Y-120942100D03*
X167335200Y-112344200D03*
X159867600Y-120027700D03*
X165696900Y-107797600D03*
X147980400Y-100393500D03*
X149123400Y-123228100D03*
X154038300Y-115570000D03*
X152895300Y-125742700D03*
X157353000Y-119341900D03*
X148894800Y-72936100D03*
X156895800Y-123456700D03*
X156438600Y-120256300D03*
X163410900Y-88938100D03*
X162496500Y-88023700D03*
X152552400Y-118313200D03*
X155524200Y-122313700D03*
D21*
X134531100Y-136245600D02*
X131991100Y-133705600D01*
X137782300Y-134264400D02*
X135801100Y-136245600D01*
X135801100Y-136245600D02*
X134531100Y-136245600D01*
D22*
X137782300Y-134226300D02*
X137782300Y-132511800D01*
X138480800Y-131813300D02*
X141236700Y-129057400D01*
X142265400Y-129057400D02*
X142301100Y-128955600D01*
X137782300Y-132511800D02*
X138480800Y-131813300D01*
D21*
X141236700Y-129057400D02*
X142265400Y-129057400D01*
D22*
X139738100Y-133263600D02*
X138480800Y-131813300D01*
D21*
X131991100Y-133705600D02*
X131991100Y-133385600D01*
X137782300Y-134226300D02*
X137782300Y-134264400D01*
D22*
X155867100Y-114655600D02*
X161239200Y-119989600D01*
X153695400Y-114655600D02*
X155867100Y-114655600D01*
X150952200Y-117398800D02*
X153695400Y-114655600D01*
X161239200Y-119989600D02*
X165519100Y-119989600D01*
X165519100Y-119989600D02*
X166281100Y-121325600D01*
X150952200Y-121056400D02*
X150952200Y-117398800D01*
X150952200Y-121056400D02*
X150901100Y-121155600D01*
D21*
X166281100Y-128305600D02*
X167363100Y-128305600D01*
D23*
X161770100Y-128860200D02*
X162324700Y-128305600D01*
X162324700Y-128305600D02*
X166281100Y-128305600D01*
D21*
X167678100Y-127736600D02*
X167678100Y-124053600D01*
D23*
X162664100Y-130753600D02*
X162664100Y-139674600D01*
D21*
X167678100Y-124053600D02*
X166281100Y-123225600D01*
X167363100Y-128305600D02*
X167678100Y-127736600D01*
D23*
X161770100Y-129859600D02*
X161770100Y-128860200D01*
X161770100Y-129859600D02*
X162664100Y-130753600D01*
D22*
X166281100Y-112115600D02*
X166281100Y-115925600D01*
D21*
X165265100Y-134086600D02*
X165265100Y-132842600D01*
D22*
X159931100Y-105765600D02*
X166281100Y-112115600D01*
D23*
X159870100Y-132471600D02*
X159870100Y-133129900D01*
X159870100Y-133129900D02*
X159000000Y-134000000D01*
D22*
X159931100Y-105765600D02*
X140881100Y-105765600D01*
X140881100Y-105765600D02*
X137071100Y-101955600D01*
X164757100Y-117449600D02*
X166281100Y-115925600D01*
X164757100Y-117576600D02*
X164757100Y-117449600D01*
X137071100Y-101955600D02*
X137071100Y-94335600D01*
D21*
X141465300Y-137744200D02*
X140893800Y-137172700D01*
X144322800Y-135001000D02*
X141579600Y-137744200D01*
X148551900Y-133400800D02*
X148551900Y-132486400D01*
X141579600Y-138430000D02*
X142722600Y-139573000D01*
X141579600Y-137744200D02*
X141579600Y-138430000D01*
X135750300Y-133400800D02*
X133921500Y-131572000D01*
D24*
X152311100Y-75605600D02*
X152311100Y-75031600D01*
D21*
X141465300Y-137744200D02*
X141579600Y-137744200D01*
D24*
X138341100Y-90525600D02*
X137071100Y-89255600D01*
D21*
X148437600Y-134658100D02*
X148094700Y-135001000D01*
D24*
X139611100Y-90525600D02*
X138341100Y-90525600D01*
X150533100Y-72110600D02*
X150406100Y-72110600D01*
D21*
X157391100Y-132338600D02*
X159870100Y-129859600D01*
D24*
X152311100Y-75031600D02*
X150533100Y-73253600D01*
D21*
X140893800Y-137172700D02*
X138264900Y-137172700D01*
D24*
X150533100Y-73253600D02*
X150533100Y-72110600D01*
D21*
X157391100Y-134200900D02*
X157391100Y-132338600D01*
D24*
X149809200Y-73964800D02*
X149821900Y-73964800D01*
D21*
X135064500Y-122313700D02*
X133921500Y-123456700D01*
X152019000Y-139573000D02*
X157391100Y-134200900D01*
X148437600Y-133629400D02*
X148501100Y-133555600D01*
X142722600Y-139573000D02*
X152019000Y-139573000D01*
X135064500Y-122313700D02*
X135161100Y-122265600D01*
D25*
X149694900Y-71450200D02*
X134607300Y-71450200D01*
D21*
X135864600Y-134772400D02*
X135864600Y-133515100D01*
X135750300Y-133400800D02*
X135801100Y-133385600D01*
D24*
X150406100Y-72110600D02*
X149771100Y-71475600D01*
D21*
X149809200Y-73964800D02*
X149771100Y-74015600D01*
X135864600Y-133515100D02*
X135801100Y-133385600D01*
X148437600Y-133629400D02*
X148437600Y-134658100D01*
X132092700Y-131572000D02*
X131991100Y-131485600D01*
X140434100Y-139420600D02*
X141579600Y-138430000D01*
D24*
X146977100Y-83159600D02*
X139611100Y-90525600D01*
X146977100Y-81635600D02*
X146977100Y-83159600D01*
D21*
X133921500Y-123456700D02*
X133921500Y-131572000D01*
X134607300Y-71450200D02*
X134531100Y-71475600D01*
X148094700Y-135001000D02*
X144322800Y-135001000D01*
X148551900Y-133400800D02*
X148501100Y-133555600D01*
X133921500Y-131572000D02*
X132092700Y-131572000D01*
D24*
X149821900Y-73964800D02*
X150533100Y-73253600D01*
D21*
X148551900Y-132486400D02*
X151066500Y-129971800D01*
D24*
X137071100Y-89255600D02*
X137071100Y-84175600D01*
D21*
X149694900Y-71450200D02*
X149771100Y-71475600D01*
X142301100Y-123355600D02*
X134176540Y-115228350D01*
X134531100Y-114655600D02*
X134531100Y-109575600D01*
X137350500Y-140716000D02*
X137350500Y-135966200D01*
X137350500Y-135966200D02*
X138153100Y-135163600D01*
X154784000Y-140716000D02*
X137350500Y-140716000D01*
X133057900Y-116840000D02*
X134176540Y-115228350D01*
X152311100Y-89255600D02*
X152311100Y-77505600D01*
X149771100Y-91795600D02*
X152311100Y-89255600D01*
X134176540Y-115228350D02*
X134531100Y-114655600D01*
X138153100Y-135163600D02*
X139738100Y-135163600D01*
X159000000Y-136500000D02*
X154784000Y-140716000D01*
X133057900Y-116840000D02*
X133057900Y-123101100D01*
X149809200Y-91795600D02*
X149771100Y-91795600D01*
D22*
X154266900Y-113398300D02*
X150152100Y-117513100D01*
X159664400Y-113398300D02*
X161442400Y-115176300D01*
X154266900Y-113398300D02*
X159664400Y-113398300D01*
X150152100Y-121056400D02*
X150101100Y-121155600D01*
X150152100Y-117513100D02*
X150152100Y-121056400D01*
X146151600Y-121056400D02*
X146101100Y-121155600D01*
X146265900Y-110540800D02*
X146151600Y-110655100D01*
X146151600Y-110655100D02*
X146151600Y-121056400D01*
X145351500Y-121056400D02*
X145301100Y-121155600D01*
X145351500Y-109626400D02*
X145351500Y-121056400D01*
X144437100Y-121056400D02*
X144501100Y-121155600D01*
X144437100Y-108712000D02*
X144437100Y-121056400D01*
X146951700Y-114541300D02*
X146951700Y-121056400D01*
X146951700Y-121056400D02*
X146901100Y-121155600D01*
X153466800Y-108483400D02*
X153009600Y-108483400D01*
X153009600Y-108483400D02*
X146951700Y-114541300D01*
X147751800Y-114998500D02*
X147751800Y-121056400D01*
X153009600Y-109740700D02*
X147751800Y-114998500D01*
X147751800Y-121056400D02*
X147701100Y-121155600D01*
X148437600Y-121170700D02*
X148501100Y-121155600D01*
X148209000Y-123571000D02*
X148209000Y-122885200D01*
X157353000Y-118084600D02*
X155181300Y-120256300D01*
X148437600Y-122656600D02*
X148437600Y-121170700D01*
X151980900Y-127342900D02*
X148209000Y-123571000D01*
X148209000Y-122885200D02*
X148437600Y-122656600D01*
X149352000Y-114655600D02*
X149352000Y-121056400D01*
X152552400Y-111455200D02*
X149352000Y-114655600D01*
X149352000Y-121056400D02*
X149301100Y-121155600D01*
X147408900Y-85852000D02*
X140779500Y-92481400D01*
X142379700Y-125056900D02*
X142379700Y-125742700D01*
X136436100Y-120027700D02*
X141236700Y-124828300D01*
X142265400Y-124828300D02*
X142301100Y-124955600D01*
X141236700Y-124828300D02*
X142265400Y-124828300D01*
X142379700Y-125056900D02*
X142301100Y-124955600D01*
X142379700Y-125742700D02*
X142301100Y-125755600D01*
X140779500Y-92481400D02*
X140779500Y-101854000D01*
X142265400Y-126657100D02*
X142301100Y-126555600D01*
D21*
X142265400Y-126657100D02*
X140347700Y-126657100D01*
X140347700Y-126657100D02*
X139534900Y-127342900D01*
X139534900Y-127342900D02*
X135178800Y-127342900D01*
D22*
X135178800Y-127342900D02*
X135161100Y-127365600D01*
X142379700Y-128143000D02*
X142301100Y-128155600D01*
X135864600Y-131457700D02*
X135801100Y-131485600D01*
X143408400Y-124256800D02*
X142379700Y-124256800D01*
X141236700Y-128257300D02*
X138036300Y-131457700D01*
X138036300Y-131457700D02*
X135864600Y-131457700D01*
X142379700Y-124256800D02*
X142301100Y-124155600D01*
X142379700Y-128143000D02*
X143294100Y-128143000D01*
X143637000Y-124485400D02*
X143408400Y-124256800D01*
X142265400Y-128257300D02*
X142301100Y-128155600D01*
X142265400Y-128257300D02*
X141236700Y-128257300D01*
X143637000Y-127800100D02*
X143637000Y-124485400D01*
X143294100Y-128143000D02*
X143637000Y-127800100D01*
D21*
X164564100Y-139674600D02*
X164564100Y-136391600D01*
X164564100Y-136391600D02*
X164265100Y-136092600D01*
D22*
X134607300Y-101968300D02*
X140550900Y-107911900D01*
X140550900Y-131000500D02*
X140550900Y-130543300D01*
X140550900Y-107911900D02*
X140550900Y-114312700D01*
X134607300Y-101968300D02*
X134531100Y-101955600D01*
X141236700Y-129857500D02*
X142265400Y-129857500D01*
X140550900Y-130543300D02*
X141236700Y-129857500D01*
X142265400Y-129857500D02*
X142301100Y-129755600D01*
X138264900Y-117094000D02*
X144094200Y-122923300D01*
X144094200Y-122923300D02*
X144094200Y-129743200D01*
X144094200Y-129743200D02*
X143294100Y-130543300D01*
X134607300Y-104597200D02*
X134531100Y-104495600D01*
X143294100Y-130543300D02*
X142379700Y-130543300D01*
X142379700Y-130543300D02*
X142301100Y-130555600D01*
X138264900Y-108254800D02*
X138264900Y-117094000D01*
X134607300Y-104597200D02*
X138264900Y-108254800D01*
X142265400Y-132372100D02*
X142265400Y-131457700D01*
X134531100Y-107035600D02*
X137350500Y-109855000D01*
X142265400Y-131457700D02*
X142301100Y-131355600D01*
D24*
X139611100Y-78968600D02*
X138468100Y-77825600D01*
X160820100Y-139420600D02*
X158661100Y-141579600D01*
X139611100Y-87985600D02*
X139611100Y-78968600D01*
X136309100Y-141579600D02*
X129705100Y-134975600D01*
X160820100Y-132471600D02*
X160820100Y-139420600D01*
X158661100Y-141579600D02*
X136309100Y-141579600D01*
X129705100Y-134975600D02*
X129705100Y-80111600D01*
X131991100Y-77825600D02*
X138468100Y-77825600D01*
X129705100Y-80111600D02*
X131991100Y-77825600D01*
D22*
X149809200Y-109626400D02*
X147751800Y-111683800D01*
X149809200Y-109626400D02*
X149771100Y-109575600D01*
X144551400Y-127571500D02*
X144551400Y-133515100D01*
X147751800Y-124371100D02*
X144551400Y-127571500D01*
X144551400Y-133515100D02*
X144501100Y-133555600D01*
X149809200Y-107111800D02*
X149771100Y-107035600D01*
X149809200Y-107111800D02*
X158496000Y-107111800D01*
X145351500Y-133515100D02*
X145301100Y-133555600D01*
X152895300Y-128257300D02*
X147637500Y-128257300D01*
X147637500Y-128257300D02*
X145351500Y-130543300D01*
X164211000Y-112826800D02*
X165150800Y-112826800D01*
X145351500Y-130543300D02*
X145351500Y-133515100D01*
X158496000Y-107111800D02*
X164211000Y-112826800D01*
X148666200Y-129171700D02*
X147408900Y-129171700D01*
X146151600Y-130429000D02*
X146151600Y-133515100D01*
X147408900Y-129171700D02*
X146151600Y-130429000D01*
X146151600Y-133515100D02*
X146101100Y-133555600D01*
X146951700Y-130886200D02*
X146951700Y-133515100D01*
X147751800Y-130086100D02*
X146951700Y-130886200D01*
X146951700Y-133515100D02*
X146901100Y-133555600D01*
X147751800Y-131572000D02*
X147751800Y-133515100D01*
X147751800Y-133515100D02*
X147701100Y-133555600D01*
X147866100Y-131457700D02*
X147751800Y-131572000D01*
X149009100Y-135343900D02*
X149237700Y-135115300D01*
X149237700Y-135115300D02*
X149237700Y-133629400D01*
X149237700Y-133629400D02*
X149301100Y-133555600D01*
X150037800Y-133629400D02*
X150101100Y-133555600D01*
X144322800Y-136258300D02*
X149352000Y-136258300D01*
X149352000Y-136258300D02*
X150037800Y-135572500D01*
X150037800Y-135572500D02*
X150037800Y-133629400D01*
X149123400Y-137172700D02*
X150837900Y-135458200D01*
X145237200Y-137172700D02*
X149123400Y-137172700D01*
X150837900Y-133629400D02*
X150901100Y-133555600D01*
X150837900Y-135458200D02*
X150837900Y-133629400D01*
X151638000Y-135343900D02*
X151638000Y-133629400D01*
X151638000Y-133629400D02*
X151701100Y-133555600D01*
X143751300Y-138087100D02*
X148894800Y-138087100D01*
X148894800Y-138087100D02*
X151638000Y-135343900D01*
X152095200Y-135572500D02*
X152095200Y-135458200D01*
X148666200Y-139001500D02*
X152095200Y-135572500D01*
X143408400Y-139001500D02*
X148666200Y-139001500D01*
X152438100Y-133629400D02*
X152501100Y-133555600D01*
X152095200Y-135458200D02*
X152438100Y-135115300D01*
X142494000Y-138087100D02*
X143408400Y-139001500D01*
X152438100Y-135115300D02*
X152438100Y-133629400D01*
X154038300Y-132372100D02*
X154609800Y-131800600D01*
X154609800Y-131800600D02*
X154609800Y-131457700D01*
X154609800Y-131457700D02*
X154701100Y-131355600D01*
X154038300Y-133743700D02*
X156095700Y-131686300D01*
X154724100Y-130657600D02*
X154701100Y-130555600D01*
X156095700Y-131686300D02*
X156095700Y-131000500D01*
X156095700Y-131000500D02*
X155752800Y-130657600D01*
X155752800Y-130657600D02*
X154724100Y-130657600D01*
X154609800Y-129857500D02*
X154701100Y-129755600D01*
X153581100Y-129857500D02*
X154609800Y-129857500D01*
X153123900Y-130314700D02*
X153581100Y-129857500D01*
X153123900Y-135686800D02*
X153123900Y-130314700D01*
X167398700Y-111963200D02*
X158661100Y-103225600D01*
X163639500Y-120942100D02*
X155638500Y-128943100D01*
X148501100Y-103225600D02*
X145961100Y-100685600D01*
X154724100Y-128943100D02*
X154701100Y-128955600D01*
X158661100Y-103225600D02*
X148501100Y-103225600D01*
X167335200Y-112344200D02*
X167398700Y-111963200D01*
X155638500Y-128943100D02*
X154724100Y-128943100D01*
X148501100Y-85445600D02*
X149771100Y-84175600D01*
X145961100Y-89255600D02*
X148501100Y-86715600D01*
X148501100Y-86715600D02*
X148501100Y-85445600D01*
X145961100Y-100685600D02*
X145961100Y-89255600D01*
X148780500Y-87680800D02*
X148780500Y-92633800D01*
X154724100Y-128143000D02*
X154701100Y-128155600D01*
X149479000Y-93332300D02*
X150634700Y-93332300D01*
X155638500Y-128143000D02*
X154724100Y-128143000D01*
X150634700Y-93332300D02*
X165354000Y-107797600D01*
X159867600Y-123913900D02*
X155638500Y-128143000D01*
X149694900Y-86766400D02*
X148780500Y-87680800D01*
X165354000Y-107797600D02*
X165696900Y-107797600D01*
X149694900Y-86766400D02*
X149771100Y-86715600D01*
X148780500Y-92633800D02*
X149479000Y-93332300D01*
X159867600Y-120027700D02*
X159867600Y-123913900D01*
X149694900Y-94424500D02*
X147980400Y-96139000D01*
X154609800Y-127342900D02*
X154701100Y-127355600D01*
X153238200Y-127342900D02*
X154609800Y-127342900D01*
X147980400Y-96139000D02*
X147980400Y-100393500D01*
X149123400Y-123228100D02*
X153238200Y-127342900D01*
X149694900Y-94424500D02*
X149771100Y-94335600D01*
X158267400Y-117741700D02*
X158267400Y-124028200D01*
X154724100Y-126542800D02*
X154701100Y-126555600D01*
X158267400Y-124028200D02*
X155752800Y-126542800D01*
X154038300Y-115570000D02*
X156095700Y-115570000D01*
X156095700Y-115570000D02*
X158267400Y-117741700D01*
X155752800Y-126542800D02*
X154724100Y-126542800D01*
X152895300Y-125742700D02*
X154609800Y-125742700D01*
X154609800Y-125742700D02*
X154701100Y-125755600D01*
X157810200Y-123799600D02*
X156667200Y-124942600D01*
X156667200Y-124942600D02*
X154724100Y-124942600D01*
X157810200Y-119799100D02*
X157810200Y-123799600D01*
X154724100Y-124942600D02*
X154701100Y-124955600D01*
X157353000Y-119341900D02*
X157810200Y-119799100D01*
X156210000Y-124142500D02*
X154724100Y-124142500D01*
X148780500Y-78079600D02*
X148780500Y-73507600D01*
X148894800Y-73393300D02*
X148894800Y-72936100D01*
X149694900Y-78994000D02*
X148780500Y-78079600D01*
X154724100Y-124142500D02*
X154701100Y-124155600D01*
X149694900Y-78994000D02*
X149771100Y-79095600D01*
X156895800Y-123456700D02*
X156210000Y-124142500D01*
X148780500Y-73507600D02*
X148894800Y-73393300D01*
X155752800Y-123342400D02*
X154724100Y-123342400D01*
X134493000Y-76479400D02*
X134531100Y-76555600D01*
X133921500Y-69964300D02*
X150380700Y-69964300D01*
X156438600Y-120256300D02*
X156438600Y-122656600D01*
X133007100Y-70878700D02*
X133921500Y-69964300D01*
X163410900Y-82994500D02*
X163410900Y-88938100D01*
X156438600Y-122656600D02*
X155752800Y-123342400D01*
X134493000Y-76479400D02*
X133007100Y-74993500D01*
X150380700Y-69964300D02*
X163410900Y-82994500D01*
X154724100Y-123342400D02*
X154701100Y-123355600D01*
X133007100Y-74993500D02*
X133007100Y-70878700D01*
X134150100Y-70421500D02*
X150152100Y-70421500D01*
X152552400Y-118313200D02*
X152552400Y-121056400D01*
X133464300Y-71107300D02*
X134150100Y-70421500D01*
X134493000Y-73964800D02*
X134531100Y-74015600D01*
X150152100Y-70421500D02*
X162496500Y-82765900D01*
X162496500Y-82765900D02*
X162496500Y-88023700D01*
X152552400Y-121056400D02*
X152501100Y-121155600D01*
X133464300Y-72936100D02*
X133464300Y-71107300D01*
X134493000Y-73964800D02*
X133464300Y-72936100D01*
X155524200Y-122313700D02*
X155295600Y-122542300D01*
X155295600Y-122542300D02*
X152095200Y-122542300D01*
X152095200Y-122542300D02*
X151752300Y-122199400D01*
X151752300Y-122199400D02*
X151752300Y-121170700D01*
X151752300Y-121170700D02*
X151701100Y-121155600D01*
G04 #@! TA.AperFunction,Conductor*
G36*
X169149338Y-67530793D02*
G01*
X169175058Y-67575342D01*
X169176200Y-67588400D01*
X169176200Y-142621500D01*
X169158607Y-142669838D01*
X169114058Y-142695558D01*
X169101000Y-142696700D01*
X128103900Y-142696700D01*
X128055562Y-142679107D01*
X128029842Y-142634558D01*
X128028700Y-142621500D01*
X128028700Y-135013121D01*
X128989155Y-135013121D01*
X128989935Y-135017590D01*
X129000423Y-135077684D01*
X129000998Y-135081578D01*
X129008868Y-135146611D01*
X129010470Y-135150851D01*
X129010472Y-135150858D01*
X129013018Y-135157594D01*
X129016753Y-135171243D01*
X129018772Y-135182815D01*
X129033218Y-135215723D01*
X129045118Y-135242832D01*
X129046588Y-135246435D01*
X129069757Y-135307749D01*
X129076408Y-135317427D01*
X129083291Y-135329794D01*
X129086186Y-135336391D01*
X129086190Y-135336398D01*
X129088011Y-135340546D01*
X129090770Y-135344142D01*
X129090772Y-135344145D01*
X129091196Y-135344697D01*
X129127910Y-135392544D01*
X129130204Y-135395701D01*
X129167325Y-135449712D01*
X129170710Y-135452728D01*
X129170711Y-135452729D01*
X129215165Y-135492336D01*
X129218314Y-135495309D01*
X135786545Y-142063541D01*
X135790039Y-142067281D01*
X135829382Y-142112381D01*
X135836488Y-142117375D01*
X135882986Y-142150054D01*
X135886147Y-142152401D01*
X135891757Y-142156800D01*
X135937712Y-142192833D01*
X135941840Y-142194697D01*
X135941842Y-142194698D01*
X135948410Y-142197663D01*
X135960708Y-142204677D01*
X135970316Y-142211430D01*
X135974539Y-142213077D01*
X135974542Y-142213078D01*
X136031363Y-142235231D01*
X136034993Y-142236757D01*
X136094709Y-142263720D01*
X136106252Y-142265859D01*
X136119867Y-142269737D01*
X136130808Y-142274003D01*
X136195785Y-142282558D01*
X136199644Y-142283169D01*
X136264083Y-142295112D01*
X136268611Y-142294851D01*
X136268613Y-142294851D01*
X136328027Y-142291425D01*
X136332356Y-142291300D01*
X158633794Y-142291300D01*
X158638909Y-142291474D01*
X158694097Y-142295237D01*
X158694101Y-142295237D01*
X158698621Y-142295545D01*
X158703090Y-142294765D01*
X158763184Y-142284277D01*
X158767078Y-142283702D01*
X158807192Y-142278848D01*
X158832111Y-142275832D01*
X158836351Y-142274230D01*
X158836358Y-142274228D01*
X158843094Y-142271682D01*
X158856743Y-142267947D01*
X158868315Y-142265928D01*
X158928342Y-142239578D01*
X158931935Y-142238112D01*
X158993249Y-142214943D01*
X159002927Y-142208292D01*
X159015294Y-142201409D01*
X159021891Y-142198514D01*
X159021898Y-142198510D01*
X159026046Y-142196689D01*
X159029642Y-142193930D01*
X159029645Y-142193928D01*
X159054555Y-142174813D01*
X159078044Y-142156790D01*
X159081201Y-142154496D01*
X159135212Y-142117375D01*
X159177836Y-142069535D01*
X159180809Y-142066386D01*
X161304041Y-139943155D01*
X161307781Y-139939661D01*
X161349463Y-139903300D01*
X161349464Y-139903299D01*
X161352881Y-139900318D01*
X161367439Y-139879604D01*
X161390566Y-139846697D01*
X161392913Y-139843536D01*
X161433333Y-139791987D01*
X161438164Y-139781288D01*
X161445176Y-139768995D01*
X161449320Y-139763099D01*
X161449323Y-139763093D01*
X161451930Y-139759384D01*
X161453577Y-139755160D01*
X161453579Y-139755156D01*
X161461937Y-139733717D01*
X161495887Y-139695072D01*
X161546735Y-139687291D01*
X161590688Y-139714014D01*
X161607200Y-139761033D01*
X161607200Y-140456624D01*
X161607662Y-140459540D01*
X161607662Y-140459542D01*
X161608656Y-140465816D01*
X161622291Y-140551906D01*
X161680808Y-140666751D01*
X161771949Y-140757892D01*
X161886794Y-140816409D01*
X161892641Y-140817335D01*
X161979158Y-140831038D01*
X161979160Y-140831038D01*
X161982076Y-140831500D01*
X163346124Y-140831500D01*
X163349040Y-140831038D01*
X163349042Y-140831038D01*
X163435559Y-140817335D01*
X163441406Y-140816409D01*
X163556251Y-140757892D01*
X163560926Y-140753217D01*
X163561436Y-140752979D01*
X163565221Y-140750229D01*
X163565756Y-140750965D01*
X163607546Y-140731477D01*
X163657233Y-140744791D01*
X163667274Y-140753217D01*
X163671949Y-140757892D01*
X163786794Y-140816409D01*
X163792641Y-140817335D01*
X163879158Y-140831038D01*
X163879160Y-140831038D01*
X163882076Y-140831500D01*
X165246124Y-140831500D01*
X165249040Y-140831038D01*
X165249042Y-140831038D01*
X165335559Y-140817335D01*
X165341406Y-140816409D01*
X165456251Y-140757892D01*
X165547392Y-140666751D01*
X165605909Y-140551906D01*
X165619544Y-140465816D01*
X165620538Y-140459542D01*
X165620538Y-140459540D01*
X165621000Y-140456624D01*
X165621000Y-138892576D01*
X165605909Y-138797294D01*
X165554196Y-138695803D01*
X165550081Y-138687726D01*
X165550080Y-138687725D01*
X165547392Y-138682449D01*
X165456251Y-138591308D01*
X165341406Y-138532791D01*
X165311296Y-138528022D01*
X165249042Y-138518162D01*
X165249040Y-138518162D01*
X165246124Y-138517700D01*
X165198600Y-138517700D01*
X165150262Y-138500107D01*
X165124542Y-138455558D01*
X165123400Y-138442500D01*
X165123400Y-137110891D01*
X165140993Y-137062553D01*
X165145426Y-137057717D01*
X165211926Y-136991217D01*
X165258546Y-136969477D01*
X165308233Y-136982791D01*
X165318274Y-136991217D01*
X165387949Y-137060892D01*
X165393225Y-137063580D01*
X165393226Y-137063581D01*
X165423109Y-137078807D01*
X165502794Y-137119409D01*
X165508641Y-137120335D01*
X165595158Y-137134038D01*
X165595160Y-137134038D01*
X165598076Y-137134500D01*
X166932124Y-137134500D01*
X166935040Y-137134038D01*
X166935042Y-137134038D01*
X167021559Y-137120335D01*
X167027406Y-137119409D01*
X167107091Y-137078807D01*
X167136974Y-137063581D01*
X167136975Y-137063580D01*
X167142251Y-137060892D01*
X167233392Y-136969751D01*
X167291909Y-136854906D01*
X167296678Y-136824796D01*
X167306538Y-136762542D01*
X167306538Y-136762540D01*
X167307000Y-136759624D01*
X167307000Y-135425576D01*
X167302014Y-135394092D01*
X167292835Y-135336141D01*
X167291909Y-135330294D01*
X167248256Y-135244621D01*
X167236081Y-135220726D01*
X167236080Y-135220725D01*
X167233392Y-135215449D01*
X167142251Y-135124308D01*
X167122610Y-135114300D01*
X167032679Y-135068478D01*
X167032680Y-135068478D01*
X167027406Y-135065791D01*
X166997296Y-135061022D01*
X166935042Y-135051162D01*
X166935040Y-135051162D01*
X166932124Y-135050700D01*
X165702853Y-135050700D01*
X165654515Y-135033107D01*
X165628795Y-134988558D01*
X165637728Y-134937900D01*
X165672266Y-134906801D01*
X165675175Y-134905506D01*
X165725070Y-134883291D01*
X165728254Y-134880978D01*
X165728257Y-134880976D01*
X165855619Y-134788442D01*
X165880660Y-134770249D01*
X165883293Y-134767325D01*
X165883296Y-134767322D01*
X165952537Y-134690421D01*
X166009347Y-134627327D01*
X166011316Y-134623917D01*
X166011318Y-134623914D01*
X166095993Y-134477251D01*
X166105507Y-134460773D01*
X166158399Y-134297989D01*
X166163719Y-134281615D01*
X166163719Y-134281614D01*
X166164937Y-134277866D01*
X166165501Y-134272505D01*
X166184628Y-134090520D01*
X166185040Y-134086600D01*
X166179623Y-134035059D01*
X166165349Y-133899252D01*
X166165349Y-133899250D01*
X166164937Y-133895334D01*
X166105507Y-133712427D01*
X166065371Y-133642909D01*
X166011318Y-133549286D01*
X166011316Y-133549283D01*
X166009347Y-133545873D01*
X166006712Y-133542947D01*
X166006708Y-133542941D01*
X165978625Y-133511752D01*
X165959355Y-133464058D01*
X165975250Y-133415136D01*
X166022744Y-133387159D01*
X166034260Y-133385335D01*
X166034261Y-133385335D01*
X166040106Y-133384409D01*
X166154951Y-133325892D01*
X166246092Y-133234751D01*
X166266970Y-133193777D01*
X166301922Y-133125179D01*
X166304609Y-133119906D01*
X166319700Y-133024624D01*
X166319700Y-130660576D01*
X166318425Y-130652522D01*
X166305535Y-130571141D01*
X166304609Y-130565294D01*
X166261237Y-130480172D01*
X166248781Y-130455726D01*
X166248780Y-130455725D01*
X166246092Y-130450449D01*
X166154951Y-130359308D01*
X166040106Y-130300791D01*
X166009996Y-130296022D01*
X165947742Y-130286162D01*
X165947740Y-130286162D01*
X165944824Y-130285700D01*
X164585376Y-130285700D01*
X164582460Y-130286162D01*
X164582458Y-130286162D01*
X164520204Y-130296022D01*
X164490094Y-130300791D01*
X164375249Y-130359308D01*
X164284108Y-130450449D01*
X164281420Y-130455725D01*
X164281419Y-130455726D01*
X164268963Y-130480172D01*
X164225591Y-130565294D01*
X164224665Y-130571141D01*
X164211776Y-130652522D01*
X164210500Y-130660576D01*
X164210500Y-133024624D01*
X164225591Y-133119906D01*
X164228278Y-133125179D01*
X164263231Y-133193777D01*
X164284108Y-133234751D01*
X164375249Y-133325892D01*
X164490094Y-133384409D01*
X164495939Y-133385335D01*
X164495940Y-133385335D01*
X164507456Y-133387159D01*
X164552446Y-133412098D01*
X164570880Y-133460122D01*
X164551575Y-133511752D01*
X164523492Y-133542941D01*
X164523488Y-133542947D01*
X164520853Y-133545873D01*
X164518884Y-133549283D01*
X164518882Y-133549286D01*
X164464829Y-133642909D01*
X164424693Y-133712427D01*
X164365263Y-133895334D01*
X164364851Y-133899250D01*
X164364851Y-133899252D01*
X164350577Y-134035059D01*
X164345160Y-134086600D01*
X164345572Y-134090520D01*
X164364700Y-134272505D01*
X164365263Y-134277866D01*
X164366481Y-134281614D01*
X164366481Y-134281615D01*
X164371801Y-134297989D01*
X164424693Y-134460773D01*
X164434207Y-134477251D01*
X164518882Y-134623914D01*
X164518884Y-134623917D01*
X164520853Y-134627327D01*
X164577663Y-134690421D01*
X164646904Y-134767322D01*
X164646907Y-134767325D01*
X164649540Y-134770249D01*
X164674581Y-134788442D01*
X164801943Y-134880976D01*
X164801946Y-134880978D01*
X164805130Y-134883291D01*
X164855025Y-134905506D01*
X164857934Y-134906801D01*
X164894936Y-134942535D01*
X164900313Y-134993693D01*
X164871548Y-135036338D01*
X164827347Y-135050700D01*
X163598076Y-135050700D01*
X163595160Y-135051162D01*
X163595158Y-135051162D01*
X163532904Y-135061022D01*
X163502794Y-135065791D01*
X163497520Y-135068478D01*
X163497521Y-135068478D01*
X163407591Y-135114300D01*
X163387949Y-135124308D01*
X163324374Y-135187883D01*
X163277754Y-135209623D01*
X163228067Y-135196309D01*
X163198562Y-135154172D01*
X163196000Y-135134709D01*
X163196000Y-130767117D01*
X163196066Y-130763968D01*
X163197656Y-130726026D01*
X163198618Y-130703074D01*
X163193825Y-130682637D01*
X163188518Y-130660010D01*
X163187227Y-130653045D01*
X163181919Y-130614297D01*
X163181919Y-130614296D01*
X163181223Y-130609217D01*
X163173802Y-130592069D01*
X163169605Y-130579376D01*
X163168567Y-130574949D01*
X163165340Y-130561192D01*
X163144031Y-130522430D01*
X163140916Y-130516072D01*
X163125381Y-130480172D01*
X163125379Y-130480168D01*
X163123346Y-130475471D01*
X163111586Y-130460949D01*
X163104133Y-130449857D01*
X163095133Y-130433486D01*
X163088362Y-130425642D01*
X163062937Y-130400217D01*
X163057680Y-130394380D01*
X163031634Y-130362216D01*
X163013630Y-130349421D01*
X163004018Y-130341298D01*
X162499026Y-129836306D01*
X162477286Y-129789686D01*
X162477000Y-129783132D01*
X162477000Y-129227576D01*
X162471441Y-129192474D01*
X162462835Y-129138141D01*
X162461909Y-129132294D01*
X162436744Y-129082906D01*
X162415262Y-129040744D01*
X162408993Y-128989688D01*
X162429091Y-128953430D01*
X162522994Y-128859526D01*
X162569614Y-128837786D01*
X162576169Y-128837500D01*
X165049000Y-128837500D01*
X165097338Y-128855093D01*
X165123058Y-128899642D01*
X165124200Y-128912700D01*
X165124200Y-128987624D01*
X165124662Y-128990540D01*
X165124662Y-128990542D01*
X165132613Y-129040744D01*
X165139291Y-129082906D01*
X165146414Y-129096885D01*
X165186532Y-129175620D01*
X165197808Y-129197751D01*
X165288949Y-129288892D01*
X165403794Y-129347409D01*
X165409641Y-129348335D01*
X165496158Y-129362038D01*
X165496160Y-129362038D01*
X165499076Y-129362500D01*
X167063124Y-129362500D01*
X167066040Y-129362038D01*
X167066042Y-129362038D01*
X167152559Y-129348335D01*
X167158406Y-129347409D01*
X167273251Y-129288892D01*
X167364392Y-129197751D01*
X167375669Y-129175620D01*
X167415786Y-129096885D01*
X167422909Y-129082906D01*
X167429587Y-129040744D01*
X167437538Y-128990542D01*
X167437538Y-128990540D01*
X167438000Y-128987624D01*
X167438000Y-128925499D01*
X167455593Y-128877161D01*
X167502993Y-128850995D01*
X167509841Y-128850057D01*
X167509842Y-128850057D01*
X167514921Y-128849361D01*
X167535470Y-128840468D01*
X167547616Y-128836401D01*
X167564393Y-128832333D01*
X167564394Y-128832332D01*
X167569378Y-128831124D01*
X167608050Y-128809484D01*
X167614895Y-128806099D01*
X167650850Y-128790540D01*
X167650853Y-128790538D01*
X167655556Y-128788503D01*
X167663874Y-128781768D01*
X167672965Y-128774406D01*
X167683564Y-128767226D01*
X167698632Y-128758794D01*
X167703103Y-128756292D01*
X167706736Y-128752681D01*
X167706738Y-128752679D01*
X167734514Y-128725066D01*
X167740206Y-128719955D01*
X167742405Y-128718174D01*
X167774645Y-128692067D01*
X167787617Y-128673813D01*
X167795894Y-128664049D01*
X167808984Y-128651035D01*
X167808986Y-128651033D01*
X167811779Y-128648256D01*
X167817740Y-128639136D01*
X167835008Y-128607944D01*
X167839499Y-128600809D01*
X167860442Y-128571338D01*
X167860443Y-128571337D01*
X167863413Y-128567157D01*
X167865488Y-128561395D01*
X167872205Y-128542737D01*
X167877168Y-128531788D01*
X167882408Y-128522324D01*
X168159492Y-128021811D01*
X168161368Y-128018612D01*
X168191147Y-127970584D01*
X168193849Y-127966226D01*
X168207547Y-127919079D01*
X168209634Y-127912909D01*
X168225506Y-127871923D01*
X168227359Y-127867138D01*
X168229065Y-127849641D01*
X168231696Y-127835957D01*
X168236602Y-127819072D01*
X168237400Y-127808205D01*
X168237400Y-127767816D01*
X168237755Y-127760518D01*
X168238133Y-127756646D01*
X168242230Y-127714623D01*
X168238548Y-127693808D01*
X168237400Y-127680720D01*
X168237400Y-124074383D01*
X168237553Y-124069589D01*
X168240854Y-124017908D01*
X168241181Y-124012795D01*
X168239790Y-124006217D01*
X168230075Y-123960293D01*
X168229143Y-123954936D01*
X168222557Y-123906856D01*
X168222556Y-123906852D01*
X168221861Y-123901779D01*
X168216705Y-123889863D01*
X168212153Y-123875575D01*
X168209466Y-123862875D01*
X168207093Y-123858325D01*
X168184657Y-123815307D01*
X168182318Y-123810399D01*
X168161003Y-123761144D01*
X168152835Y-123751057D01*
X168144603Y-123738512D01*
X168140972Y-123731551D01*
X168140970Y-123731549D01*
X168138601Y-123727006D01*
X168127141Y-123714778D01*
X168101920Y-123687869D01*
X168098346Y-123683769D01*
X168074628Y-123654479D01*
X168064567Y-123642055D01*
X168060389Y-123639086D01*
X168060387Y-123639084D01*
X168053987Y-123634536D01*
X168042681Y-123624663D01*
X168036503Y-123618071D01*
X168036501Y-123618069D01*
X168033810Y-123615198D01*
X168024869Y-123608971D01*
X167991776Y-123589357D01*
X167986238Y-123586075D01*
X167981018Y-123582681D01*
X167943835Y-123556256D01*
X167943834Y-123556255D01*
X167939657Y-123553287D01*
X167934840Y-123551553D01*
X167934833Y-123551549D01*
X167924117Y-123547691D01*
X167911251Y-123541629D01*
X167663356Y-123394702D01*
X167474857Y-123282979D01*
X167442246Y-123243199D01*
X167438000Y-123218289D01*
X167438000Y-122543576D01*
X167434752Y-122523065D01*
X167423835Y-122454141D01*
X167422909Y-122448294D01*
X167364392Y-122333449D01*
X167359717Y-122328774D01*
X167359479Y-122328264D01*
X167356729Y-122324479D01*
X167357465Y-122323944D01*
X167337977Y-122282154D01*
X167351291Y-122232467D01*
X167359717Y-122222426D01*
X167364392Y-122217751D01*
X167422909Y-122102906D01*
X167438000Y-122007624D01*
X167438000Y-120643576D01*
X167437538Y-120640655D01*
X167426098Y-120568427D01*
X167422909Y-120548294D01*
X167364392Y-120433449D01*
X167273251Y-120342308D01*
X167158406Y-120283791D01*
X167128296Y-120279022D01*
X167066042Y-120269162D01*
X167066040Y-120269162D01*
X167063124Y-120268700D01*
X166336606Y-120268700D01*
X166288268Y-120251107D01*
X166271284Y-120230757D01*
X165990331Y-119738168D01*
X165988649Y-119735051D01*
X165963960Y-119686597D01*
X165961634Y-119682031D01*
X165958167Y-119678261D01*
X165958163Y-119678255D01*
X165930497Y-119648169D01*
X165926190Y-119643045D01*
X165901309Y-119610618D01*
X165901305Y-119610614D01*
X165898183Y-119606545D01*
X165884446Y-119596230D01*
X165874250Y-119587001D01*
X165872561Y-119585165D01*
X165862621Y-119574355D01*
X165858270Y-119571657D01*
X165858265Y-119571653D01*
X165823514Y-119550107D01*
X165817988Y-119546330D01*
X165785305Y-119521790D01*
X165781207Y-119518713D01*
X165776432Y-119516851D01*
X165776430Y-119516850D01*
X165765208Y-119512474D01*
X165752899Y-119506324D01*
X165742657Y-119499974D01*
X165738299Y-119497272D01*
X165733378Y-119495842D01*
X165733375Y-119495841D01*
X165694117Y-119484436D01*
X165687779Y-119482284D01*
X165649703Y-119467437D01*
X165649696Y-119467435D01*
X165644920Y-119465573D01*
X165639818Y-119465064D01*
X165639815Y-119465063D01*
X165632337Y-119464317D01*
X165627833Y-119463867D01*
X165614320Y-119461253D01*
X165601617Y-119457562D01*
X165601616Y-119457562D01*
X165597827Y-119456461D01*
X165593892Y-119456172D01*
X165588828Y-119455800D01*
X165588824Y-119455800D01*
X165587464Y-119455700D01*
X165549767Y-119455700D01*
X165542297Y-119455328D01*
X165504467Y-119451551D01*
X165504464Y-119451551D01*
X165499364Y-119451042D01*
X165494310Y-119451924D01*
X165494308Y-119451924D01*
X165479085Y-119454580D01*
X165466157Y-119455700D01*
X161490229Y-119455700D01*
X161441891Y-119438107D01*
X161437244Y-119433863D01*
X156253646Y-114287029D01*
X156251276Y-114284567D01*
X156214091Y-114244128D01*
X156214089Y-114244126D01*
X156210621Y-114240355D01*
X156206266Y-114237655D01*
X156206264Y-114237653D01*
X156190723Y-114228018D01*
X156171933Y-114216367D01*
X156166338Y-114212536D01*
X156129986Y-114185147D01*
X156125214Y-114183277D01*
X156125212Y-114183276D01*
X156113517Y-114178694D01*
X156101331Y-114172592D01*
X156086299Y-114163272D01*
X156070842Y-114158781D01*
X156042595Y-114150574D01*
X156036153Y-114148381D01*
X155993787Y-114131782D01*
X155988689Y-114131265D01*
X155988687Y-114131264D01*
X155976192Y-114129996D01*
X155962807Y-114127394D01*
X155949618Y-114123562D01*
X155949614Y-114123561D01*
X155945827Y-114122461D01*
X155939850Y-114122022D01*
X155936828Y-114121800D01*
X155936824Y-114121800D01*
X155935464Y-114121700D01*
X155898271Y-114121700D01*
X155890677Y-114121316D01*
X155853353Y-114117527D01*
X155853350Y-114117527D01*
X155848255Y-114117010D01*
X155828333Y-114120453D01*
X155827468Y-114120602D01*
X155814663Y-114121700D01*
X154480096Y-114121700D01*
X154431758Y-114104107D01*
X154406038Y-114059558D01*
X154414971Y-114008900D01*
X154426922Y-113993326D01*
X154466022Y-113954226D01*
X154512642Y-113932486D01*
X154519196Y-113932200D01*
X159412103Y-113932200D01*
X159460441Y-113949793D01*
X159465277Y-113954226D01*
X160512780Y-115001729D01*
X160534520Y-115048349D01*
X160534394Y-115062760D01*
X160522460Y-115176300D01*
X160542563Y-115367566D01*
X160601993Y-115550473D01*
X160603963Y-115553885D01*
X160696182Y-115713614D01*
X160696184Y-115713617D01*
X160698153Y-115717027D01*
X160706662Y-115726477D01*
X160824204Y-115857022D01*
X160824207Y-115857025D01*
X160826840Y-115859949D01*
X160846524Y-115874250D01*
X160979243Y-115970676D01*
X160979246Y-115970678D01*
X160982430Y-115972991D01*
X161158123Y-116051215D01*
X161346240Y-116091200D01*
X161538560Y-116091200D01*
X161726677Y-116051215D01*
X161902370Y-115972991D01*
X161905554Y-115970678D01*
X161905557Y-115970676D01*
X162038276Y-115874250D01*
X162057960Y-115859949D01*
X162060593Y-115857025D01*
X162060596Y-115857022D01*
X162178138Y-115726477D01*
X162186647Y-115717027D01*
X162188616Y-115713617D01*
X162188618Y-115713614D01*
X162280837Y-115553885D01*
X162282807Y-115550473D01*
X162342237Y-115367566D01*
X162362340Y-115176300D01*
X162342237Y-114985034D01*
X162282807Y-114802127D01*
X162214101Y-114683124D01*
X162188618Y-114638986D01*
X162188616Y-114638983D01*
X162186647Y-114635573D01*
X162068148Y-114503966D01*
X162060596Y-114495578D01*
X162060593Y-114495575D01*
X162057960Y-114492651D01*
X161988329Y-114442061D01*
X161905557Y-114381924D01*
X161905554Y-114381922D01*
X161902370Y-114379609D01*
X161726677Y-114301385D01*
X161538560Y-114261400D01*
X161346240Y-114261400D01*
X161342387Y-114262219D01*
X161333649Y-114264076D01*
X161282710Y-114256916D01*
X161264841Y-114243693D01*
X160051545Y-113030397D01*
X160049364Y-113028124D01*
X160011391Y-112986828D01*
X160011389Y-112986826D01*
X160007921Y-112983055D01*
X159990793Y-112972435D01*
X159970173Y-112959650D01*
X159964334Y-112955637D01*
X159933042Y-112931885D01*
X159928958Y-112928785D01*
X159911497Y-112921871D01*
X159899561Y-112915868D01*
X159883599Y-112905972D01*
X159840948Y-112893581D01*
X159834247Y-112891286D01*
X159797717Y-112876823D01*
X159792951Y-112874936D01*
X159787853Y-112874400D01*
X159787852Y-112874400D01*
X159783888Y-112873984D01*
X159774277Y-112872973D01*
X159761167Y-112870402D01*
X159743127Y-112865161D01*
X159737150Y-112864722D01*
X159734128Y-112864500D01*
X159734124Y-112864500D01*
X159732764Y-112864400D01*
X159696645Y-112864400D01*
X159688785Y-112863988D01*
X159669736Y-112861986D01*
X159647472Y-112859646D01*
X159634909Y-112861771D01*
X159625591Y-112863347D01*
X159613050Y-112864400D01*
X154280479Y-112864400D01*
X154277330Y-112864334D01*
X154216183Y-112861771D01*
X154211196Y-112862941D01*
X154211193Y-112862941D01*
X154172937Y-112871914D01*
X154165971Y-112873205D01*
X154127054Y-112878536D01*
X154127053Y-112878536D01*
X154121974Y-112879232D01*
X154104737Y-112886692D01*
X154092050Y-112890887D01*
X154073769Y-112895174D01*
X154069276Y-112897644D01*
X154034841Y-112916574D01*
X154028488Y-112919687D01*
X153987725Y-112937327D01*
X153973129Y-112949146D01*
X153962041Y-112956596D01*
X153949037Y-112963745D01*
X153949034Y-112963747D01*
X153945582Y-112965645D01*
X153942603Y-112968217D01*
X153942598Y-112968220D01*
X153938771Y-112971524D01*
X153937716Y-112972435D01*
X153912177Y-112997974D01*
X153906329Y-113003240D01*
X153874044Y-113029384D01*
X153871077Y-113033559D01*
X153871076Y-113033560D01*
X153861186Y-113047477D01*
X153853062Y-113057089D01*
X151883060Y-115027092D01*
X150014274Y-116895878D01*
X149967654Y-116917618D01*
X149917967Y-116904304D01*
X149888462Y-116862167D01*
X149885900Y-116842704D01*
X149885900Y-114907897D01*
X149903493Y-114859559D01*
X149907926Y-114854723D01*
X151139158Y-113623491D01*
X152374841Y-112387807D01*
X152421461Y-112366067D01*
X152443649Y-112367424D01*
X152451944Y-112369187D01*
X152456240Y-112370100D01*
X152648560Y-112370100D01*
X152836677Y-112330115D01*
X153012370Y-112251891D01*
X153015554Y-112249578D01*
X153015557Y-112249576D01*
X153098329Y-112189439D01*
X153167960Y-112138849D01*
X153170593Y-112135925D01*
X153170596Y-112135922D01*
X153263785Y-112032424D01*
X153296647Y-111995927D01*
X153298616Y-111992517D01*
X153298618Y-111992514D01*
X153390837Y-111832785D01*
X153392807Y-111829373D01*
X153438833Y-111687720D01*
X153451019Y-111650215D01*
X153451019Y-111650214D01*
X153452237Y-111646466D01*
X153472340Y-111455200D01*
X153457040Y-111309627D01*
X153452649Y-111267852D01*
X153452649Y-111267850D01*
X153452237Y-111263934D01*
X153392807Y-111081027D01*
X153346113Y-111000151D01*
X153298618Y-110917886D01*
X153298616Y-110917883D01*
X153296647Y-110914473D01*
X153175626Y-110780065D01*
X153170596Y-110774478D01*
X153170593Y-110774475D01*
X153167960Y-110771551D01*
X153164770Y-110769234D01*
X153161846Y-110766601D01*
X153163167Y-110765134D01*
X153138288Y-110728238D01*
X153143673Y-110677080D01*
X153180681Y-110641353D01*
X153195621Y-110636500D01*
X153225146Y-110630224D01*
X153290022Y-110616435D01*
X153290027Y-110616433D01*
X153293877Y-110615615D01*
X153469570Y-110537391D01*
X153472754Y-110535078D01*
X153472757Y-110535076D01*
X153610990Y-110434644D01*
X153625160Y-110424349D01*
X153627793Y-110421425D01*
X153627796Y-110421422D01*
X153751212Y-110284353D01*
X153753847Y-110281427D01*
X153755816Y-110278017D01*
X153755818Y-110278014D01*
X153848037Y-110118285D01*
X153850007Y-110114873D01*
X153895522Y-109974792D01*
X153908219Y-109935715D01*
X153908219Y-109935714D01*
X153909437Y-109931966D01*
X153910609Y-109920820D01*
X153929128Y-109744620D01*
X153929540Y-109740700D01*
X153921677Y-109665885D01*
X153909849Y-109553352D01*
X153909849Y-109553350D01*
X153909437Y-109549434D01*
X153856096Y-109385267D01*
X153857892Y-109333860D01*
X153897029Y-109293333D01*
X153923167Y-109281695D01*
X153926770Y-109280091D01*
X154082360Y-109167049D01*
X154084993Y-109164125D01*
X154084996Y-109164122D01*
X154155631Y-109085673D01*
X154211047Y-109024127D01*
X154213016Y-109020717D01*
X154213018Y-109020714D01*
X154305237Y-108860985D01*
X154307207Y-108857573D01*
X154354403Y-108712319D01*
X154365419Y-108678415D01*
X154365419Y-108678414D01*
X154366637Y-108674666D01*
X154369844Y-108644160D01*
X154386328Y-108487320D01*
X154386740Y-108483400D01*
X154371440Y-108337827D01*
X154367049Y-108296052D01*
X154367049Y-108296050D01*
X154366637Y-108292134D01*
X154307207Y-108109227D01*
X154265203Y-108036474D01*
X154213018Y-107946086D01*
X154213016Y-107946083D01*
X154211047Y-107942673D01*
X154133183Y-107856196D01*
X154084996Y-107802678D01*
X154084993Y-107802675D01*
X154082360Y-107799751D01*
X154057567Y-107781738D01*
X154028802Y-107739093D01*
X154034179Y-107687935D01*
X154071181Y-107652202D01*
X154101768Y-107645700D01*
X158243703Y-107645700D01*
X158292041Y-107663293D01*
X158296877Y-107667726D01*
X163823867Y-113194716D01*
X163826048Y-113196989D01*
X163864009Y-113238272D01*
X163864011Y-113238274D01*
X163867479Y-113242045D01*
X163871834Y-113244745D01*
X163871836Y-113244747D01*
X163892447Y-113257526D01*
X163905234Y-113265454D01*
X163911053Y-113269454D01*
X163946442Y-113296315D01*
X163951210Y-113298203D01*
X163951212Y-113298204D01*
X163963904Y-113303229D01*
X163975839Y-113309232D01*
X163991801Y-113319128D01*
X163996725Y-113320559D01*
X163996726Y-113320559D01*
X164034450Y-113331519D01*
X164041151Y-113333814D01*
X164077679Y-113348276D01*
X164077685Y-113348277D01*
X164082450Y-113350164D01*
X164087547Y-113350700D01*
X164087548Y-113350700D01*
X164092440Y-113351214D01*
X164101125Y-113352127D01*
X164114233Y-113354698D01*
X164132273Y-113359939D01*
X164138250Y-113360378D01*
X164141272Y-113360600D01*
X164141276Y-113360600D01*
X164142636Y-113360700D01*
X164178756Y-113360700D01*
X164186616Y-113361112D01*
X164227928Y-113365454D01*
X164249810Y-113361753D01*
X164262350Y-113360700D01*
X164366924Y-113360700D01*
X164415262Y-113378293D01*
X164422809Y-113385582D01*
X164532599Y-113507517D01*
X164532604Y-113507522D01*
X164535240Y-113510449D01*
X164564085Y-113531406D01*
X164687643Y-113621176D01*
X164687646Y-113621178D01*
X164690830Y-113623491D01*
X164866523Y-113701715D01*
X165054640Y-113741700D01*
X165246960Y-113741700D01*
X165435077Y-113701715D01*
X165610770Y-113623491D01*
X165627801Y-113611118D01*
X165677247Y-113596940D01*
X165724239Y-113617863D01*
X165746788Y-113664097D01*
X165747200Y-113671957D01*
X165747200Y-115673303D01*
X165729607Y-115721641D01*
X165725174Y-115726477D01*
X164811978Y-116639674D01*
X164765358Y-116661414D01*
X164758804Y-116661700D01*
X164660940Y-116661700D01*
X164472823Y-116701685D01*
X164297130Y-116779909D01*
X164293946Y-116782222D01*
X164293943Y-116782224D01*
X164212076Y-116841704D01*
X164141540Y-116892951D01*
X164138907Y-116895875D01*
X164138904Y-116895878D01*
X164070777Y-116971541D01*
X164012853Y-117035873D01*
X164010884Y-117039283D01*
X164010882Y-117039286D01*
X163987133Y-117080421D01*
X163916693Y-117202427D01*
X163857263Y-117385334D01*
X163856851Y-117389250D01*
X163856851Y-117389252D01*
X163840907Y-117540947D01*
X163837160Y-117576600D01*
X163857263Y-117767866D01*
X163916693Y-117950773D01*
X163918663Y-117954185D01*
X164010882Y-118113914D01*
X164010884Y-118113917D01*
X164012853Y-118117327D01*
X164020529Y-118125852D01*
X164138904Y-118257322D01*
X164138907Y-118257325D01*
X164141540Y-118260249D01*
X164166911Y-118278682D01*
X164293943Y-118370976D01*
X164293946Y-118370978D01*
X164297130Y-118373291D01*
X164472823Y-118451515D01*
X164660940Y-118491500D01*
X164853260Y-118491500D01*
X165041377Y-118451515D01*
X165217070Y-118373291D01*
X165220254Y-118370978D01*
X165220257Y-118370976D01*
X165347289Y-118278682D01*
X165372660Y-118260249D01*
X165375293Y-118257325D01*
X165375296Y-118257322D01*
X165493671Y-118125852D01*
X165501347Y-118117327D01*
X165503316Y-118113917D01*
X165503318Y-118113914D01*
X165595537Y-117954185D01*
X165597507Y-117950773D01*
X165656937Y-117767866D01*
X165677040Y-117576600D01*
X165673293Y-117540947D01*
X165657349Y-117389252D01*
X165657349Y-117389250D01*
X165656937Y-117385334D01*
X165651430Y-117368385D01*
X165653224Y-117316979D01*
X165669775Y-117291974D01*
X166649016Y-116312733D01*
X166651289Y-116310552D01*
X166692572Y-116272591D01*
X166692574Y-116272589D01*
X166696345Y-116269121D01*
X166699045Y-116264767D01*
X166699047Y-116264764D01*
X166719749Y-116231374D01*
X166723762Y-116225535D01*
X166747514Y-116194243D01*
X166750614Y-116190159D01*
X166757525Y-116172704D01*
X166763532Y-116160761D01*
X166770724Y-116149161D01*
X166770725Y-116149158D01*
X166773428Y-116144799D01*
X166778082Y-116128782D01*
X166785821Y-116102142D01*
X166788116Y-116095439D01*
X166802575Y-116058919D01*
X166804463Y-116054151D01*
X166806426Y-116035479D01*
X166808999Y-116022364D01*
X166813138Y-116008115D01*
X166814239Y-116004327D01*
X166815000Y-115993964D01*
X166815000Y-115957843D01*
X166815412Y-115949982D01*
X166819218Y-115913771D01*
X166819754Y-115908672D01*
X166816053Y-115886790D01*
X166815000Y-115874250D01*
X166815000Y-113229873D01*
X166832593Y-113181535D01*
X166877142Y-113155815D01*
X166920787Y-113161175D01*
X167047317Y-113217510D01*
X167047321Y-113217511D01*
X167050923Y-113219115D01*
X167239040Y-113259100D01*
X167431360Y-113259100D01*
X167619477Y-113219115D01*
X167795170Y-113140891D01*
X167798354Y-113138578D01*
X167798357Y-113138576D01*
X167942899Y-113033560D01*
X167950760Y-113027849D01*
X167953393Y-113024925D01*
X167953396Y-113024922D01*
X168041657Y-112926897D01*
X168079447Y-112884927D01*
X168081416Y-112881517D01*
X168081418Y-112881514D01*
X168173637Y-112721785D01*
X168175607Y-112718373D01*
X168227483Y-112558715D01*
X168233819Y-112539215D01*
X168233819Y-112539214D01*
X168235037Y-112535466D01*
X168241059Y-112478176D01*
X168254728Y-112348120D01*
X168255140Y-112344200D01*
X168235037Y-112152934D01*
X168229510Y-112135922D01*
X168176825Y-111973776D01*
X168175607Y-111970027D01*
X168129456Y-111890091D01*
X168081418Y-111806886D01*
X168081416Y-111806883D01*
X168079447Y-111803473D01*
X168021523Y-111739141D01*
X167953396Y-111663478D01*
X167953393Y-111663475D01*
X167950760Y-111660551D01*
X167881129Y-111609961D01*
X167798357Y-111549824D01*
X167798354Y-111549822D01*
X167795170Y-111547509D01*
X167766156Y-111534591D01*
X167704954Y-111507342D01*
X167682366Y-111491817D01*
X159048245Y-102857697D01*
X159046064Y-102855424D01*
X159008091Y-102814128D01*
X159008089Y-102814126D01*
X159004621Y-102810355D01*
X158995566Y-102804740D01*
X158966873Y-102786950D01*
X158961034Y-102782937D01*
X158929742Y-102759185D01*
X158925658Y-102756085D01*
X158908197Y-102749171D01*
X158896261Y-102743168D01*
X158880299Y-102733272D01*
X158837648Y-102720881D01*
X158830947Y-102718586D01*
X158794417Y-102704123D01*
X158789651Y-102702236D01*
X158784553Y-102701700D01*
X158784552Y-102701700D01*
X158780588Y-102701284D01*
X158770977Y-102700273D01*
X158757867Y-102697702D01*
X158739827Y-102692461D01*
X158733850Y-102692022D01*
X158730828Y-102691800D01*
X158730824Y-102691800D01*
X158729464Y-102691700D01*
X158693345Y-102691700D01*
X158685485Y-102691288D01*
X158679386Y-102690647D01*
X158644172Y-102686946D01*
X158639117Y-102687801D01*
X158622291Y-102690647D01*
X158609750Y-102691700D01*
X150708927Y-102691700D01*
X150660589Y-102674107D01*
X150634869Y-102629558D01*
X150643802Y-102578900D01*
X150645929Y-102575575D01*
X150647458Y-102573803D01*
X150750845Y-102391810D01*
X150806527Y-102224424D01*
X150815751Y-102196697D01*
X150815752Y-102196694D01*
X150816913Y-102193203D01*
X150843146Y-101985545D01*
X150843564Y-101955600D01*
X150843359Y-101953507D01*
X150823499Y-101750958D01*
X150823498Y-101750954D01*
X150823139Y-101747291D01*
X150762642Y-101546916D01*
X150726971Y-101479827D01*
X150666102Y-101365350D01*
X150664378Y-101362107D01*
X150532089Y-101199905D01*
X150370814Y-101066487D01*
X150186697Y-100966935D01*
X150090487Y-100937153D01*
X149990262Y-100906128D01*
X149990258Y-100906127D01*
X149986749Y-100905041D01*
X149843018Y-100889934D01*
X149782242Y-100883546D01*
X149782240Y-100883546D01*
X149778587Y-100883162D01*
X149570140Y-100902132D01*
X149369348Y-100961229D01*
X149183858Y-101058200D01*
X149180999Y-101060499D01*
X149180994Y-101060502D01*
X149023607Y-101187045D01*
X149023603Y-101187049D01*
X149020736Y-101189354D01*
X149018368Y-101192176D01*
X149018367Y-101192177D01*
X148888559Y-101346875D01*
X148888556Y-101346879D01*
X148886195Y-101349693D01*
X148785360Y-101533111D01*
X148784247Y-101536620D01*
X148744242Y-101662734D01*
X148722072Y-101732622D01*
X148698741Y-101940626D01*
X148699049Y-101944294D01*
X148699049Y-101944297D01*
X148702336Y-101983442D01*
X148716255Y-102149200D01*
X148773948Y-102350400D01*
X148869623Y-102536563D01*
X148871908Y-102539446D01*
X148895958Y-102569790D01*
X148912195Y-102618600D01*
X148893258Y-102666428D01*
X148848009Y-102690893D01*
X148837024Y-102691700D01*
X148753397Y-102691700D01*
X148705059Y-102674107D01*
X148700223Y-102669674D01*
X146517026Y-100486478D01*
X146495286Y-100439858D01*
X146495000Y-100433304D01*
X146495000Y-89507897D01*
X146512593Y-89459559D01*
X146517026Y-89454723D01*
X148118226Y-87853523D01*
X148164846Y-87831783D01*
X148214533Y-87845097D01*
X148244038Y-87887234D01*
X148246600Y-87906697D01*
X148246600Y-92620221D01*
X148246534Y-92623369D01*
X148243971Y-92684517D01*
X148245141Y-92689504D01*
X148245141Y-92689507D01*
X148254114Y-92727763D01*
X148255405Y-92734729D01*
X148260736Y-92773646D01*
X148261432Y-92778726D01*
X148268892Y-92795963D01*
X148273087Y-92808650D01*
X148277374Y-92826931D01*
X148279844Y-92831424D01*
X148298774Y-92865859D01*
X148301887Y-92872212D01*
X148319527Y-92912975D01*
X148331346Y-92927571D01*
X148338796Y-92938659D01*
X148345945Y-92951663D01*
X148345947Y-92951666D01*
X148347845Y-92955118D01*
X148350417Y-92958097D01*
X148350420Y-92958102D01*
X148353724Y-92961929D01*
X148354635Y-92962984D01*
X148380174Y-92988523D01*
X148385440Y-92994371D01*
X148411584Y-93026656D01*
X148415759Y-93029623D01*
X148415760Y-93029624D01*
X148429677Y-93039514D01*
X148439289Y-93047638D01*
X148944758Y-93553107D01*
X148966498Y-93599727D01*
X148953184Y-93649414D01*
X148949190Y-93654619D01*
X148888559Y-93726875D01*
X148888556Y-93726879D01*
X148886195Y-93729693D01*
X148884424Y-93732915D01*
X148884423Y-93732916D01*
X148850362Y-93794873D01*
X148785360Y-93913111D01*
X148722072Y-94112622D01*
X148698741Y-94320626D01*
X148699049Y-94324294D01*
X148699049Y-94324297D01*
X148709198Y-94445158D01*
X148716255Y-94529200D01*
X148729875Y-94576697D01*
X148730541Y-94579021D01*
X148726953Y-94630336D01*
X148711428Y-94652923D01*
X147612496Y-95751856D01*
X147610223Y-95754037D01*
X147568928Y-95792009D01*
X147568926Y-95792011D01*
X147565155Y-95795479D01*
X147562453Y-95799837D01*
X147541750Y-95833227D01*
X147537737Y-95839066D01*
X147510885Y-95874442D01*
X147506369Y-95885848D01*
X147503971Y-95891904D01*
X147497968Y-95903839D01*
X147488072Y-95919801D01*
X147483915Y-95934109D01*
X147475681Y-95962451D01*
X147473386Y-95969153D01*
X147457036Y-96010449D01*
X147456500Y-96015547D01*
X147456500Y-96015548D01*
X147455074Y-96029120D01*
X147452502Y-96042233D01*
X147447261Y-96060273D01*
X147446500Y-96070636D01*
X147446500Y-96106755D01*
X147446088Y-96114615D01*
X147441746Y-96155928D01*
X147442601Y-96160983D01*
X147445447Y-96177809D01*
X147446500Y-96190350D01*
X147446500Y-99612206D01*
X147428907Y-99660544D01*
X147415501Y-99673044D01*
X147364840Y-99709851D01*
X147362207Y-99712775D01*
X147362204Y-99712778D01*
X147348392Y-99728118D01*
X147236153Y-99852773D01*
X147234184Y-99856183D01*
X147234182Y-99856186D01*
X147155025Y-99993291D01*
X147139993Y-100019327D01*
X147134384Y-100036589D01*
X147084713Y-100189463D01*
X147080563Y-100202234D01*
X147080151Y-100206150D01*
X147080151Y-100206152D01*
X147068068Y-100321111D01*
X147060460Y-100393500D01*
X147080563Y-100584766D01*
X147139993Y-100767673D01*
X147141963Y-100771085D01*
X147234182Y-100930814D01*
X147234184Y-100930817D01*
X147236153Y-100934227D01*
X147267177Y-100968683D01*
X147362204Y-101074222D01*
X147362207Y-101074225D01*
X147364840Y-101077149D01*
X147425257Y-101121044D01*
X147517243Y-101187876D01*
X147517246Y-101187878D01*
X147520430Y-101190191D01*
X147696123Y-101268415D01*
X147884240Y-101308400D01*
X148076560Y-101308400D01*
X148264677Y-101268415D01*
X148440370Y-101190191D01*
X148443554Y-101187878D01*
X148443557Y-101187876D01*
X148535543Y-101121044D01*
X148595960Y-101077149D01*
X148598593Y-101074225D01*
X148598596Y-101074222D01*
X148693623Y-100968683D01*
X148724647Y-100934227D01*
X148726616Y-100930817D01*
X148726618Y-100930814D01*
X148818837Y-100771085D01*
X148820807Y-100767673D01*
X148880237Y-100584766D01*
X148900340Y-100393500D01*
X148883354Y-100231892D01*
X148895798Y-100181981D01*
X148937414Y-100151745D01*
X148988728Y-100155333D01*
X149006881Y-100166764D01*
X149036825Y-100192248D01*
X149159030Y-100296253D01*
X149162231Y-100298042D01*
X149162234Y-100298044D01*
X149240500Y-100341785D01*
X149341740Y-100398366D01*
X149540804Y-100463046D01*
X149616339Y-100472053D01*
X149744982Y-100487393D01*
X149744984Y-100487393D01*
X149748640Y-100487829D01*
X149957331Y-100471771D01*
X150095105Y-100433304D01*
X150155384Y-100416474D01*
X150155386Y-100416473D01*
X150158929Y-100415484D01*
X150345755Y-100321111D01*
X150357897Y-100311625D01*
X150507794Y-100194513D01*
X150507799Y-100194508D01*
X150510692Y-100192248D01*
X150647458Y-100033803D01*
X150750845Y-99851810D01*
X150798840Y-99707533D01*
X150815751Y-99656697D01*
X150815752Y-99656694D01*
X150816913Y-99653203D01*
X150843146Y-99445545D01*
X150843564Y-99415600D01*
X150823139Y-99207291D01*
X150762642Y-99006916D01*
X150664378Y-98822107D01*
X150532089Y-98659905D01*
X150370814Y-98526487D01*
X150186697Y-98426935D01*
X150137150Y-98411598D01*
X149990262Y-98366128D01*
X149990258Y-98366127D01*
X149986749Y-98365041D01*
X149843018Y-98349934D01*
X149782242Y-98343546D01*
X149782240Y-98343546D01*
X149778587Y-98343162D01*
X149570140Y-98362132D01*
X149369348Y-98421229D01*
X149183858Y-98518200D01*
X149180999Y-98520499D01*
X149180994Y-98520502D01*
X149023607Y-98647045D01*
X149023603Y-98647049D01*
X149020736Y-98649354D01*
X149018368Y-98652176D01*
X149018367Y-98652177D01*
X148888559Y-98806875D01*
X148888556Y-98806879D01*
X148886195Y-98809693D01*
X148785360Y-98993111D01*
X148722072Y-99192622D01*
X148698741Y-99400626D01*
X148699049Y-99404294D01*
X148699049Y-99404297D01*
X148702336Y-99443442D01*
X148716255Y-99609200D01*
X148725030Y-99639802D01*
X148721442Y-99691115D01*
X148685709Y-99728118D01*
X148634551Y-99733495D01*
X148602559Y-99714277D01*
X148601530Y-99715420D01*
X148598595Y-99712778D01*
X148595960Y-99709851D01*
X148545299Y-99673044D01*
X148516534Y-99630399D01*
X148514300Y-99612206D01*
X148514300Y-97711576D01*
X149191236Y-97711576D01*
X149192178Y-97715091D01*
X149359492Y-97808601D01*
X149366191Y-97811528D01*
X149548556Y-97870781D01*
X149555692Y-97872350D01*
X149746078Y-97895052D01*
X149753410Y-97895205D01*
X149944573Y-97880496D01*
X149951782Y-97879225D01*
X150136453Y-97827665D01*
X150143286Y-97825014D01*
X150314419Y-97738568D01*
X150320602Y-97734644D01*
X150343084Y-97717079D01*
X150348812Y-97707912D01*
X150348204Y-97703586D01*
X149780477Y-97135858D01*
X149770678Y-97131289D01*
X149764687Y-97132894D01*
X149195805Y-97701777D01*
X149191236Y-97711576D01*
X148514300Y-97711576D01*
X148514300Y-96865028D01*
X148751395Y-96865028D01*
X148767439Y-97056083D01*
X148768761Y-97063285D01*
X148821610Y-97247592D01*
X148824306Y-97254401D01*
X148911947Y-97424931D01*
X148915913Y-97431086D01*
X148929263Y-97447930D01*
X148938468Y-97453593D01*
X148942876Y-97452942D01*
X149510842Y-96884977D01*
X149515017Y-96876022D01*
X150026789Y-96876022D01*
X150028394Y-96882013D01*
X150597233Y-97450851D01*
X150607032Y-97455420D01*
X150608969Y-97454901D01*
X150610745Y-97452950D01*
X150701201Y-97293718D01*
X150704181Y-97287023D01*
X150764700Y-97105098D01*
X150766323Y-97097953D01*
X150790550Y-96906174D01*
X150790843Y-96901979D01*
X150791183Y-96877699D01*
X150791007Y-96873507D01*
X150772144Y-96681126D01*
X150770718Y-96673930D01*
X150715304Y-96490387D01*
X150712516Y-96483622D01*
X150622500Y-96314328D01*
X150618447Y-96308227D01*
X150613759Y-96302478D01*
X150604475Y-96296943D01*
X150599897Y-96297685D01*
X150031358Y-96866223D01*
X150026789Y-96876022D01*
X149515017Y-96876022D01*
X149515411Y-96875178D01*
X149513806Y-96869187D01*
X148945383Y-96300765D01*
X148935584Y-96296196D01*
X148931112Y-96297394D01*
X148927618Y-96302496D01*
X148835253Y-96470508D01*
X148832366Y-96477244D01*
X148774393Y-96660000D01*
X148772870Y-96667165D01*
X148751498Y-96857695D01*
X148751395Y-96865028D01*
X148514300Y-96865028D01*
X148514300Y-96391297D01*
X148531893Y-96342959D01*
X148536326Y-96338123D01*
X148831835Y-96042614D01*
X149192793Y-96042614D01*
X149193488Y-96047106D01*
X149761723Y-96615342D01*
X149771522Y-96619911D01*
X149777513Y-96618306D01*
X150345510Y-96050308D01*
X150350079Y-96040509D01*
X150348855Y-96035941D01*
X150344373Y-96032233D01*
X150338301Y-96028138D01*
X150169645Y-95936946D01*
X150162897Y-95934109D01*
X149979735Y-95877411D01*
X149972565Y-95875940D01*
X149781877Y-95855897D01*
X149774564Y-95855846D01*
X149583609Y-95873224D01*
X149576421Y-95874596D01*
X149392489Y-95928730D01*
X149385702Y-95931472D01*
X149215775Y-96020307D01*
X149209664Y-96024307D01*
X149198392Y-96033369D01*
X149192793Y-96042614D01*
X148831835Y-96042614D01*
X149001225Y-95873224D01*
X149471495Y-95402953D01*
X149518115Y-95381213D01*
X149539401Y-95382590D01*
X149540804Y-95383046D01*
X149605680Y-95390782D01*
X149744982Y-95407393D01*
X149744984Y-95407393D01*
X149748640Y-95407829D01*
X149957331Y-95391771D01*
X150078440Y-95357957D01*
X150155384Y-95336474D01*
X150155386Y-95336473D01*
X150158929Y-95335484D01*
X150345755Y-95241111D01*
X150357897Y-95231625D01*
X150507794Y-95114513D01*
X150507799Y-95114508D01*
X150510692Y-95112248D01*
X150647458Y-94953803D01*
X150750845Y-94771810D01*
X150816913Y-94573203D01*
X150833089Y-94445158D01*
X150856602Y-94399406D01*
X150904023Y-94379473D01*
X150953162Y-94394684D01*
X150960405Y-94400947D01*
X152859097Y-96266875D01*
X164788699Y-107990617D01*
X164807508Y-108021014D01*
X164843757Y-108132577D01*
X164856493Y-108171773D01*
X164858463Y-108175185D01*
X164950682Y-108334914D01*
X164950684Y-108334917D01*
X164952653Y-108338327D01*
X165010577Y-108402659D01*
X165078704Y-108478322D01*
X165078707Y-108478325D01*
X165081340Y-108481249D01*
X165135687Y-108520734D01*
X165233743Y-108591976D01*
X165233746Y-108591978D01*
X165236930Y-108594291D01*
X165412623Y-108672515D01*
X165600740Y-108712500D01*
X165793060Y-108712500D01*
X165981177Y-108672515D01*
X166156870Y-108594291D01*
X166160054Y-108591978D01*
X166160057Y-108591976D01*
X166258113Y-108520734D01*
X166312460Y-108481249D01*
X166315093Y-108478325D01*
X166315096Y-108478322D01*
X166383223Y-108402659D01*
X166441147Y-108338327D01*
X166443116Y-108334917D01*
X166443118Y-108334914D01*
X166535337Y-108175185D01*
X166537307Y-108171773D01*
X166585729Y-108022744D01*
X166595519Y-107992615D01*
X166595519Y-107992614D01*
X166596737Y-107988866D01*
X166600211Y-107955819D01*
X166616428Y-107801520D01*
X166616840Y-107797600D01*
X166609079Y-107723757D01*
X166597149Y-107610252D01*
X166597149Y-107610250D01*
X166596737Y-107606334D01*
X166537307Y-107423427D01*
X166473607Y-107313095D01*
X166443118Y-107260286D01*
X166443116Y-107260283D01*
X166441147Y-107256873D01*
X166383223Y-107192541D01*
X166315096Y-107116878D01*
X166315093Y-107116875D01*
X166312460Y-107113951D01*
X166242829Y-107063361D01*
X166160057Y-107003224D01*
X166160054Y-107003222D01*
X166156870Y-107000909D01*
X165981177Y-106922685D01*
X165793060Y-106882700D01*
X165600740Y-106882700D01*
X165412623Y-106922685D01*
X165409021Y-106924289D01*
X165409017Y-106924290D01*
X165330572Y-106959216D01*
X165279257Y-106962805D01*
X165247275Y-106944153D01*
X158776221Y-100584766D01*
X151020384Y-92962765D01*
X151017745Y-92960037D01*
X150992681Y-92932780D01*
X150978221Y-92917055D01*
X150973867Y-92914355D01*
X150973864Y-92914353D01*
X150938211Y-92892248D01*
X150932895Y-92888628D01*
X150899275Y-92863567D01*
X150899276Y-92863567D01*
X150895162Y-92860501D01*
X150880140Y-92854704D01*
X150867590Y-92848460D01*
X150858259Y-92842675D01*
X150858257Y-92842674D01*
X150853899Y-92839972D01*
X150848978Y-92838542D01*
X150848975Y-92838541D01*
X150823968Y-92831276D01*
X150808691Y-92826838D01*
X150802608Y-92824785D01*
X150758691Y-92807837D01*
X150742657Y-92806293D01*
X150728895Y-92803655D01*
X150713427Y-92799161D01*
X150705785Y-92798600D01*
X150704428Y-92798500D01*
X150704424Y-92798500D01*
X150703064Y-92798400D01*
X150664319Y-92798400D01*
X150657110Y-92798054D01*
X150640705Y-92796474D01*
X150613085Y-92793814D01*
X150608043Y-92794712D01*
X150608042Y-92794712D01*
X150593877Y-92797235D01*
X150580691Y-92798400D01*
X150352918Y-92798400D01*
X150304580Y-92780807D01*
X150278860Y-92736258D01*
X150287793Y-92685600D01*
X150312626Y-92659705D01*
X150320605Y-92654642D01*
X150343084Y-92637079D01*
X150348812Y-92627912D01*
X150348204Y-92623586D01*
X149573393Y-91848774D01*
X149551653Y-91802154D01*
X149553296Y-91796022D01*
X150026789Y-91796022D01*
X150028394Y-91802013D01*
X150597233Y-92370851D01*
X150607032Y-92375420D01*
X150608969Y-92374901D01*
X150610745Y-92372950D01*
X150701201Y-92213718D01*
X150704181Y-92207023D01*
X150764700Y-92025098D01*
X150766323Y-92017953D01*
X150790550Y-91826174D01*
X150790843Y-91821979D01*
X150791183Y-91797699D01*
X150791007Y-91793507D01*
X150772144Y-91601126D01*
X150770718Y-91593930D01*
X150715304Y-91410387D01*
X150712516Y-91403622D01*
X150622500Y-91234328D01*
X150618447Y-91228227D01*
X150613759Y-91222478D01*
X150604475Y-91216943D01*
X150599897Y-91217685D01*
X150031358Y-91786223D01*
X150026789Y-91796022D01*
X149553296Y-91796022D01*
X149564967Y-91752467D01*
X149573393Y-91742426D01*
X149771100Y-91544719D01*
X150345510Y-90970308D01*
X150350079Y-90960509D01*
X150348855Y-90955941D01*
X150344373Y-90952233D01*
X150338301Y-90948138D01*
X150169645Y-90856946D01*
X150162897Y-90854109D01*
X149979735Y-90797411D01*
X149972565Y-90795940D01*
X149781877Y-90775897D01*
X149774564Y-90775846D01*
X149583609Y-90793224D01*
X149576421Y-90794596D01*
X149410832Y-90843331D01*
X149359494Y-90840101D01*
X149322242Y-90804628D01*
X149314400Y-90771191D01*
X149314400Y-90332986D01*
X149331993Y-90284648D01*
X149376542Y-90258928D01*
X149412837Y-90261467D01*
X149540804Y-90303046D01*
X149616339Y-90312053D01*
X149744982Y-90327393D01*
X149744984Y-90327393D01*
X149748640Y-90327829D01*
X149957331Y-90311771D01*
X150078440Y-90277957D01*
X150155384Y-90256474D01*
X150155386Y-90256473D01*
X150158929Y-90255484D01*
X150345755Y-90161111D01*
X150357897Y-90151625D01*
X150507794Y-90034513D01*
X150507799Y-90034508D01*
X150510692Y-90032248D01*
X150647458Y-89873803D01*
X150727600Y-89732729D01*
X150749028Y-89695009D01*
X150749029Y-89695007D01*
X150750845Y-89691810D01*
X150816913Y-89493203D01*
X150843146Y-89285545D01*
X150843564Y-89255600D01*
X150840789Y-89227295D01*
X150823499Y-89050958D01*
X150823498Y-89050954D01*
X150823139Y-89047291D01*
X150762642Y-88846916D01*
X150749390Y-88821991D01*
X150666102Y-88665350D01*
X150664378Y-88662107D01*
X150532089Y-88499905D01*
X150370814Y-88366487D01*
X150186697Y-88266935D01*
X150118385Y-88245789D01*
X149990262Y-88206128D01*
X149990258Y-88206127D01*
X149986749Y-88205041D01*
X149843018Y-88189934D01*
X149782242Y-88183546D01*
X149782240Y-88183546D01*
X149778587Y-88183162D01*
X149570140Y-88202132D01*
X149498849Y-88223114D01*
X149410832Y-88249019D01*
X149359494Y-88245789D01*
X149322242Y-88210316D01*
X149314400Y-88176879D01*
X149314400Y-87933098D01*
X149331993Y-87884760D01*
X149336426Y-87879924D01*
X149442177Y-87774173D01*
X149488797Y-87752433D01*
X149518585Y-87755827D01*
X149540804Y-87763046D01*
X149616339Y-87772053D01*
X149744982Y-87787393D01*
X149744984Y-87787393D01*
X149748640Y-87787829D01*
X149957331Y-87771771D01*
X150121856Y-87725835D01*
X150155384Y-87716474D01*
X150155386Y-87716473D01*
X150158929Y-87715484D01*
X150345755Y-87621111D01*
X150362517Y-87608015D01*
X150507794Y-87494513D01*
X150507799Y-87494508D01*
X150510692Y-87492248D01*
X150647458Y-87333803D01*
X150750845Y-87151810D01*
X150816913Y-86953203D01*
X150843146Y-86745545D01*
X150843564Y-86715600D01*
X150823139Y-86507291D01*
X150762642Y-86306916D01*
X150664378Y-86122107D01*
X150532089Y-85959905D01*
X150370814Y-85826487D01*
X150186697Y-85726935D01*
X150092890Y-85697897D01*
X149990262Y-85666128D01*
X149990258Y-85666127D01*
X149986749Y-85665041D01*
X149839450Y-85649559D01*
X149782242Y-85643546D01*
X149782240Y-85643546D01*
X149778587Y-85643162D01*
X149570140Y-85662132D01*
X149369348Y-85721229D01*
X149183858Y-85818200D01*
X149180994Y-85820502D01*
X149180995Y-85820502D01*
X149157320Y-85839537D01*
X149108625Y-85856113D01*
X149060666Y-85837511D01*
X149035885Y-85792434D01*
X149035000Y-85780930D01*
X149035000Y-85697897D01*
X149052593Y-85649559D01*
X149057026Y-85644723D01*
X149461346Y-85240402D01*
X149507966Y-85218662D01*
X149533612Y-85221583D01*
X149533714Y-85221120D01*
X149537310Y-85221911D01*
X149540804Y-85223046D01*
X149544450Y-85223481D01*
X149544451Y-85223481D01*
X149744982Y-85247393D01*
X149744984Y-85247393D01*
X149748640Y-85247829D01*
X149957331Y-85231771D01*
X150078440Y-85197957D01*
X150155384Y-85176474D01*
X150155386Y-85176473D01*
X150158929Y-85175484D01*
X150345755Y-85081111D01*
X150374752Y-85058456D01*
X150507794Y-84954513D01*
X150507799Y-84954508D01*
X150510692Y-84952248D01*
X150647458Y-84793803D01*
X150750845Y-84611810D01*
X150801191Y-84460465D01*
X150815751Y-84416697D01*
X150815752Y-84416694D01*
X150816913Y-84413203D01*
X150843146Y-84205545D01*
X150843370Y-84189474D01*
X150843535Y-84177699D01*
X150843535Y-84177694D01*
X150843564Y-84175600D01*
X150841737Y-84156964D01*
X150823499Y-83970958D01*
X150823498Y-83970954D01*
X150823139Y-83967291D01*
X150762642Y-83766916D01*
X150664378Y-83582107D01*
X150532089Y-83419905D01*
X150370814Y-83286487D01*
X150186697Y-83186935D01*
X150137150Y-83171598D01*
X149990262Y-83126128D01*
X149990258Y-83126127D01*
X149986749Y-83125041D01*
X149843018Y-83109934D01*
X149782242Y-83103546D01*
X149782240Y-83103546D01*
X149778587Y-83103162D01*
X149570140Y-83122132D01*
X149369348Y-83181229D01*
X149183858Y-83278200D01*
X149180999Y-83280499D01*
X149180994Y-83280502D01*
X149023607Y-83407045D01*
X149023603Y-83407049D01*
X149020736Y-83409354D01*
X149018368Y-83412176D01*
X149018367Y-83412177D01*
X148888559Y-83566875D01*
X148888556Y-83566879D01*
X148886195Y-83569693D01*
X148884424Y-83572915D01*
X148884423Y-83572916D01*
X148850362Y-83634873D01*
X148785360Y-83753111D01*
X148722072Y-83952622D01*
X148698741Y-84160626D01*
X148699049Y-84164294D01*
X148699049Y-84164297D01*
X148702336Y-84203442D01*
X148716255Y-84369200D01*
X148717269Y-84372736D01*
X148727711Y-84409151D01*
X148724123Y-84460465D01*
X148708598Y-84483053D01*
X148133196Y-85058456D01*
X148130923Y-85060637D01*
X148089628Y-85098609D01*
X148089626Y-85098611D01*
X148085855Y-85102079D01*
X148083154Y-85106436D01*
X148083151Y-85106439D01*
X148081102Y-85109744D01*
X148040678Y-85141556D01*
X147989264Y-85139940D01*
X147972993Y-85130958D01*
X147868870Y-85055309D01*
X147693177Y-84977085D01*
X147505060Y-84937100D01*
X147312740Y-84937100D01*
X147124623Y-84977085D01*
X146948930Y-85055309D01*
X146945746Y-85057622D01*
X146945743Y-85057624D01*
X146913416Y-85081111D01*
X146793340Y-85168351D01*
X146790707Y-85171275D01*
X146790704Y-85171278D01*
X146743701Y-85223481D01*
X146664653Y-85311273D01*
X146662684Y-85314683D01*
X146662682Y-85314686D01*
X146583218Y-85452322D01*
X146568493Y-85477827D01*
X146509063Y-85660734D01*
X146508651Y-85664650D01*
X146508651Y-85664652D01*
X146508610Y-85665041D01*
X146488960Y-85852000D01*
X146500602Y-85962757D01*
X146500894Y-85965537D01*
X146488450Y-86015449D01*
X146479280Y-86026572D01*
X140411597Y-92094255D01*
X140409324Y-92096436D01*
X140368028Y-92134409D01*
X140368026Y-92134411D01*
X140364255Y-92137879D01*
X140361553Y-92142237D01*
X140340850Y-92175627D01*
X140336837Y-92181466D01*
X140317438Y-92207023D01*
X140309985Y-92216842D01*
X140308097Y-92221611D01*
X140303071Y-92234304D01*
X140297068Y-92246239D01*
X140287172Y-92262201D01*
X140285743Y-92267121D01*
X140274781Y-92304851D01*
X140272486Y-92311553D01*
X140256136Y-92352849D01*
X140255600Y-92357947D01*
X140255600Y-92357948D01*
X140254174Y-92371520D01*
X140251602Y-92384633D01*
X140246361Y-92402673D01*
X140246072Y-92406610D01*
X140245779Y-92410604D01*
X140245600Y-92413036D01*
X140245600Y-92449155D01*
X140245188Y-92457015D01*
X140240846Y-92498328D01*
X140241701Y-92503383D01*
X140244547Y-92520209D01*
X140245600Y-92532750D01*
X140245600Y-101072706D01*
X140228007Y-101121044D01*
X140214601Y-101133544D01*
X140163940Y-101170351D01*
X140161307Y-101173275D01*
X140161304Y-101173278D01*
X140093177Y-101248941D01*
X140035253Y-101313273D01*
X140033284Y-101316683D01*
X140033282Y-101316686D01*
X140005186Y-101365350D01*
X139939093Y-101479827D01*
X139879663Y-101662734D01*
X139879251Y-101666650D01*
X139879251Y-101666652D01*
X139870776Y-101747291D01*
X139859560Y-101854000D01*
X139879663Y-102045266D01*
X139880881Y-102049014D01*
X139880881Y-102049015D01*
X139895967Y-102095446D01*
X139939093Y-102228173D01*
X139941063Y-102231585D01*
X140033282Y-102391314D01*
X140033284Y-102391317D01*
X140035253Y-102394727D01*
X140037888Y-102397653D01*
X140161304Y-102534722D01*
X140161307Y-102534725D01*
X140163940Y-102537649D01*
X140208179Y-102569790D01*
X140316343Y-102648376D01*
X140316346Y-102648378D01*
X140319530Y-102650691D01*
X140495223Y-102728915D01*
X140683340Y-102768900D01*
X140875660Y-102768900D01*
X141063777Y-102728915D01*
X141239470Y-102650691D01*
X141242654Y-102648378D01*
X141242657Y-102648376D01*
X141350821Y-102569790D01*
X141395060Y-102537649D01*
X141397693Y-102534725D01*
X141397696Y-102534722D01*
X141521112Y-102397653D01*
X141523747Y-102394727D01*
X141525716Y-102391317D01*
X141525718Y-102391314D01*
X141617937Y-102231585D01*
X141619907Y-102228173D01*
X141663033Y-102095446D01*
X141678119Y-102049015D01*
X141678119Y-102049014D01*
X141679337Y-102045266D01*
X141699440Y-101854000D01*
X141688224Y-101747291D01*
X141679749Y-101666652D01*
X141679749Y-101666650D01*
X141679337Y-101662734D01*
X141619907Y-101479827D01*
X141553814Y-101365350D01*
X141525718Y-101316686D01*
X141525716Y-101316683D01*
X141523747Y-101313273D01*
X141465823Y-101248941D01*
X141397696Y-101173278D01*
X141397693Y-101173275D01*
X141395060Y-101170351D01*
X141344399Y-101133544D01*
X141315634Y-101090899D01*
X141313400Y-101072706D01*
X141313400Y-92733697D01*
X141330993Y-92685359D01*
X141335426Y-92680523D01*
X147231342Y-86784607D01*
X147277962Y-86762867D01*
X147300150Y-86764224D01*
X147305838Y-86765433D01*
X147308891Y-86766082D01*
X147308892Y-86766082D01*
X147312740Y-86766900D01*
X147505060Y-86766900D01*
X147506909Y-86766507D01*
X147556214Y-86778802D01*
X147586448Y-86820420D01*
X147582857Y-86871734D01*
X147567334Y-86894318D01*
X145593197Y-88868455D01*
X145590924Y-88870636D01*
X145549628Y-88908609D01*
X145549626Y-88908611D01*
X145545855Y-88912079D01*
X145543153Y-88916437D01*
X145522450Y-88949827D01*
X145518437Y-88955666D01*
X145491585Y-88991042D01*
X145489697Y-88995811D01*
X145484671Y-89008504D01*
X145478668Y-89020439D01*
X145468772Y-89036401D01*
X145465608Y-89047291D01*
X145456381Y-89079051D01*
X145454086Y-89085753D01*
X145437736Y-89127049D01*
X145437200Y-89132147D01*
X145437200Y-89132148D01*
X145435774Y-89145720D01*
X145433202Y-89158833D01*
X145427961Y-89176873D01*
X145427200Y-89187236D01*
X145427200Y-89223355D01*
X145426788Y-89231215D01*
X145422446Y-89272528D01*
X145423301Y-89277583D01*
X145426147Y-89294409D01*
X145427200Y-89306950D01*
X145427200Y-100672021D01*
X145427134Y-100675169D01*
X145424571Y-100736317D01*
X145425741Y-100741304D01*
X145425741Y-100741307D01*
X145434714Y-100779563D01*
X145436005Y-100786529D01*
X145442032Y-100830526D01*
X145449492Y-100847763D01*
X145453687Y-100860450D01*
X145457974Y-100878731D01*
X145460444Y-100883224D01*
X145479374Y-100917659D01*
X145482487Y-100924012D01*
X145500127Y-100964775D01*
X145511946Y-100979371D01*
X145519396Y-100990459D01*
X145526545Y-101003463D01*
X145526547Y-101003466D01*
X145528445Y-101006918D01*
X145531017Y-101009897D01*
X145531020Y-101009902D01*
X145534324Y-101013729D01*
X145535235Y-101014784D01*
X145560774Y-101040323D01*
X145566040Y-101046171D01*
X145592184Y-101078456D01*
X145596359Y-101081423D01*
X145596360Y-101081424D01*
X145610277Y-101091314D01*
X145619889Y-101099438D01*
X148113967Y-103593516D01*
X148116148Y-103595789D01*
X148154109Y-103637072D01*
X148154111Y-103637074D01*
X148157579Y-103640845D01*
X148161933Y-103643545D01*
X148161936Y-103643547D01*
X148195326Y-103664249D01*
X148201161Y-103668259D01*
X148236541Y-103695114D01*
X148253366Y-103701776D01*
X148253996Y-103702025D01*
X148265939Y-103708032D01*
X148277539Y-103715224D01*
X148277542Y-103715225D01*
X148281901Y-103717928D01*
X148286822Y-103719358D01*
X148286825Y-103719359D01*
X148324558Y-103730321D01*
X148331261Y-103732616D01*
X148349671Y-103739905D01*
X148372549Y-103748963D01*
X148377648Y-103749499D01*
X148391221Y-103750926D01*
X148404336Y-103753499D01*
X148407812Y-103754509D01*
X148422373Y-103758739D01*
X148428350Y-103759178D01*
X148431372Y-103759400D01*
X148431376Y-103759400D01*
X148432736Y-103759500D01*
X148468857Y-103759500D01*
X148476718Y-103759912D01*
X148518028Y-103764254D01*
X148539910Y-103760553D01*
X148552450Y-103759500D01*
X148834172Y-103759500D01*
X148882510Y-103777093D01*
X148908230Y-103821642D01*
X148899297Y-103872300D01*
X148891779Y-103883037D01*
X148888561Y-103886872D01*
X148888556Y-103886879D01*
X148886195Y-103889693D01*
X148785360Y-104073111D01*
X148722072Y-104272622D01*
X148698741Y-104480626D01*
X148699049Y-104484294D01*
X148699049Y-104484297D01*
X148702336Y-104523442D01*
X148716255Y-104689200D01*
X148773948Y-104890400D01*
X148869623Y-105076563D01*
X148871908Y-105079446D01*
X148895958Y-105109790D01*
X148912195Y-105158600D01*
X148893258Y-105206428D01*
X148848009Y-105230893D01*
X148837024Y-105231700D01*
X141133396Y-105231700D01*
X141085058Y-105214107D01*
X141080222Y-105209674D01*
X137627026Y-101756478D01*
X137605286Y-101709858D01*
X137605000Y-101703304D01*
X137605000Y-95116894D01*
X137622593Y-95068556D01*
X137635999Y-95056056D01*
X137686660Y-95019249D01*
X137689293Y-95016325D01*
X137689296Y-95016322D01*
X137757423Y-94940659D01*
X137815347Y-94876327D01*
X137817316Y-94872917D01*
X137817318Y-94872914D01*
X137899598Y-94730400D01*
X137911507Y-94709773D01*
X137955881Y-94573203D01*
X137969719Y-94530615D01*
X137969719Y-94530614D01*
X137970937Y-94526866D01*
X137991040Y-94335600D01*
X137970937Y-94144334D01*
X137965400Y-94127291D01*
X137912725Y-93965176D01*
X137911507Y-93961427D01*
X137881749Y-93909884D01*
X137817318Y-93798286D01*
X137817316Y-93798283D01*
X137815347Y-93794873D01*
X137754122Y-93726875D01*
X137689296Y-93654878D01*
X137689293Y-93654875D01*
X137686660Y-93651951D01*
X137576860Y-93572177D01*
X137534257Y-93541224D01*
X137534254Y-93541222D01*
X137531070Y-93538909D01*
X137355377Y-93460685D01*
X137167260Y-93420700D01*
X136974940Y-93420700D01*
X136786823Y-93460685D01*
X136611130Y-93538909D01*
X136607946Y-93541222D01*
X136607943Y-93541224D01*
X136565340Y-93572177D01*
X136455540Y-93651951D01*
X136452907Y-93654875D01*
X136452904Y-93654878D01*
X136388078Y-93726875D01*
X136326853Y-93794873D01*
X136324884Y-93798283D01*
X136324882Y-93798286D01*
X136260451Y-93909884D01*
X136230693Y-93961427D01*
X136229475Y-93965176D01*
X136176801Y-94127291D01*
X136171263Y-94144334D01*
X136151160Y-94335600D01*
X136171263Y-94526866D01*
X136172481Y-94530614D01*
X136172481Y-94530615D01*
X136186319Y-94573203D01*
X136230693Y-94709773D01*
X136242602Y-94730400D01*
X136324882Y-94872914D01*
X136324884Y-94872917D01*
X136326853Y-94876327D01*
X136384777Y-94940659D01*
X136452904Y-95016322D01*
X136452907Y-95016325D01*
X136455540Y-95019249D01*
X136506201Y-95056056D01*
X136534966Y-95098701D01*
X136537200Y-95116894D01*
X136537200Y-101942021D01*
X136537134Y-101945169D01*
X136534571Y-102006317D01*
X136535741Y-102011304D01*
X136535741Y-102011307D01*
X136544714Y-102049563D01*
X136546005Y-102056529D01*
X136552032Y-102100526D01*
X136559492Y-102117763D01*
X136563687Y-102130450D01*
X136567974Y-102148731D01*
X136570444Y-102153224D01*
X136589374Y-102187659D01*
X136592487Y-102194012D01*
X136610127Y-102234775D01*
X136621946Y-102249371D01*
X136629396Y-102260459D01*
X136636545Y-102273463D01*
X136636547Y-102273466D01*
X136638445Y-102276918D01*
X136641017Y-102279897D01*
X136641020Y-102279902D01*
X136644324Y-102283729D01*
X136645235Y-102284784D01*
X136670774Y-102310323D01*
X136676040Y-102316171D01*
X136702184Y-102348456D01*
X136706359Y-102351423D01*
X136706360Y-102351424D01*
X136720277Y-102361314D01*
X136729889Y-102369438D01*
X140493967Y-106133516D01*
X140496148Y-106135789D01*
X140534109Y-106177072D01*
X140534111Y-106177074D01*
X140537579Y-106180845D01*
X140541934Y-106183545D01*
X140541936Y-106183547D01*
X140562547Y-106196326D01*
X140575334Y-106204254D01*
X140581153Y-106208254D01*
X140616542Y-106235115D01*
X140621310Y-106237003D01*
X140621312Y-106237004D01*
X140634004Y-106242029D01*
X140645939Y-106248032D01*
X140661901Y-106257928D01*
X140666825Y-106259359D01*
X140666826Y-106259359D01*
X140704550Y-106270319D01*
X140711251Y-106272614D01*
X140747779Y-106287076D01*
X140747785Y-106287077D01*
X140752550Y-106288964D01*
X140757647Y-106289500D01*
X140757648Y-106289500D01*
X140762540Y-106290014D01*
X140771225Y-106290927D01*
X140784333Y-106293498D01*
X140802373Y-106298739D01*
X140808350Y-106299178D01*
X140811372Y-106299400D01*
X140811376Y-106299400D01*
X140812736Y-106299500D01*
X140848856Y-106299500D01*
X140856716Y-106299912D01*
X140898028Y-106304254D01*
X140919910Y-106300553D01*
X140932450Y-106299500D01*
X148834172Y-106299500D01*
X148882510Y-106317093D01*
X148908230Y-106361642D01*
X148899297Y-106412300D01*
X148891779Y-106423037D01*
X148888561Y-106426872D01*
X148888556Y-106426879D01*
X148886195Y-106429693D01*
X148785360Y-106613111D01*
X148722072Y-106812622D01*
X148698741Y-107020626D01*
X148699049Y-107024294D01*
X148699049Y-107024297D01*
X148706823Y-107116878D01*
X148716255Y-107229200D01*
X148717269Y-107232736D01*
X148771949Y-107423427D01*
X148773948Y-107430400D01*
X148869623Y-107616563D01*
X148999634Y-107780596D01*
X149002428Y-107782974D01*
X149002429Y-107782975D01*
X149070561Y-107840960D01*
X149159030Y-107916253D01*
X149162231Y-107918042D01*
X149162234Y-107918044D01*
X149229825Y-107955819D01*
X149341740Y-108018366D01*
X149345241Y-108019504D01*
X149345242Y-108019504D01*
X149381479Y-108031278D01*
X149540804Y-108083046D01*
X149655500Y-108096723D01*
X149744982Y-108107393D01*
X149744984Y-108107393D01*
X149748640Y-108107829D01*
X149957331Y-108091771D01*
X150078440Y-108057957D01*
X150155384Y-108036474D01*
X150155386Y-108036473D01*
X150158929Y-108035484D01*
X150285320Y-107971639D01*
X150342471Y-107942770D01*
X150342472Y-107942769D01*
X150345755Y-107941111D01*
X150369794Y-107922330D01*
X150507794Y-107814513D01*
X150507799Y-107814508D01*
X150510692Y-107812248D01*
X150631956Y-107671763D01*
X150676858Y-107646667D01*
X150688881Y-107645700D01*
X152831832Y-107645700D01*
X152880170Y-107663293D01*
X152905890Y-107707842D01*
X152896957Y-107758500D01*
X152876033Y-107781738D01*
X152851240Y-107799751D01*
X152848607Y-107802675D01*
X152848604Y-107802678D01*
X152800417Y-107856196D01*
X152722553Y-107942673D01*
X152720584Y-107946083D01*
X152720582Y-107946086D01*
X152636134Y-108092355D01*
X152623652Y-108106972D01*
X152624237Y-108107521D01*
X152620726Y-108111260D01*
X152616744Y-108114484D01*
X152613777Y-108118659D01*
X152613776Y-108118660D01*
X152603886Y-108132577D01*
X152595762Y-108142189D01*
X150956630Y-109781321D01*
X150910010Y-109803061D01*
X150860323Y-109789747D01*
X150830818Y-109747610D01*
X150828849Y-109718722D01*
X150842882Y-109607635D01*
X150843146Y-109605545D01*
X150843433Y-109584977D01*
X150843535Y-109577699D01*
X150843535Y-109577694D01*
X150843564Y-109575600D01*
X150842645Y-109566223D01*
X150823499Y-109370958D01*
X150823498Y-109370954D01*
X150823139Y-109367291D01*
X150762642Y-109166916D01*
X150719711Y-109086173D01*
X150686082Y-109022926D01*
X150664378Y-108982107D01*
X150532089Y-108819905D01*
X150370814Y-108686487D01*
X150186697Y-108586935D01*
X150137150Y-108571598D01*
X149990262Y-108526128D01*
X149990258Y-108526127D01*
X149986749Y-108525041D01*
X149816026Y-108507097D01*
X149782242Y-108503546D01*
X149782240Y-108503546D01*
X149778587Y-108503162D01*
X149570140Y-108522132D01*
X149369348Y-108581229D01*
X149183858Y-108678200D01*
X149180999Y-108680499D01*
X149180994Y-108680502D01*
X149023607Y-108807045D01*
X149023603Y-108807049D01*
X149020736Y-108809354D01*
X149018368Y-108812176D01*
X149018367Y-108812177D01*
X148888559Y-108966875D01*
X148888556Y-108966879D01*
X148886195Y-108969693D01*
X148884424Y-108972915D01*
X148884423Y-108972916D01*
X148820558Y-109089086D01*
X148785360Y-109153111D01*
X148759237Y-109235462D01*
X148728024Y-109333860D01*
X148722072Y-109352622D01*
X148698741Y-109560626D01*
X148699049Y-109564294D01*
X148699049Y-109564297D01*
X148707714Y-109667487D01*
X148716255Y-109769200D01*
X148747522Y-109878241D01*
X148743934Y-109929554D01*
X148728409Y-109952142D01*
X147929359Y-110751193D01*
X147882739Y-110772933D01*
X147860551Y-110771576D01*
X147851813Y-110769719D01*
X147847960Y-110768900D01*
X147655640Y-110768900D01*
X147467523Y-110808885D01*
X147291830Y-110887109D01*
X147253479Y-110914973D01*
X147248068Y-110918904D01*
X147198621Y-110933083D01*
X147151629Y-110912160D01*
X147129079Y-110865927D01*
X147132347Y-110834831D01*
X147165737Y-110732066D01*
X147174621Y-110647546D01*
X147185428Y-110544720D01*
X147185840Y-110540800D01*
X147175095Y-110438568D01*
X147166149Y-110353452D01*
X147166149Y-110353450D01*
X147165737Y-110349534D01*
X147106307Y-110166627D01*
X147036817Y-110046266D01*
X147012118Y-110003486D01*
X147012116Y-110003483D01*
X147010147Y-110000073D01*
X146900449Y-109878240D01*
X146884096Y-109860078D01*
X146884093Y-109860075D01*
X146881460Y-109857151D01*
X146788686Y-109789747D01*
X146729057Y-109746424D01*
X146729054Y-109746422D01*
X146725870Y-109744109D01*
X146550177Y-109665885D01*
X146362060Y-109625900D01*
X146339097Y-109625900D01*
X146290759Y-109608307D01*
X146265039Y-109563758D01*
X146264309Y-109558560D01*
X146264142Y-109556964D01*
X146251337Y-109435134D01*
X146191907Y-109252227D01*
X146144068Y-109169367D01*
X146097718Y-109089086D01*
X146097716Y-109089083D01*
X146095747Y-109085673D01*
X146026015Y-109008227D01*
X145969696Y-108945678D01*
X145969693Y-108945675D01*
X145967060Y-108942751D01*
X145844662Y-108853824D01*
X145814657Y-108832024D01*
X145814654Y-108832022D01*
X145811470Y-108829709D01*
X145635777Y-108751485D01*
X145447660Y-108711500D01*
X145424697Y-108711500D01*
X145376359Y-108693907D01*
X145350639Y-108649358D01*
X145349909Y-108644160D01*
X145348288Y-108628730D01*
X145337390Y-108525041D01*
X145337349Y-108524651D01*
X145337348Y-108524648D01*
X145336937Y-108520734D01*
X145277507Y-108337827D01*
X145237411Y-108268379D01*
X145183318Y-108174686D01*
X145183316Y-108174683D01*
X145181347Y-108171273D01*
X145102299Y-108083481D01*
X145055296Y-108031278D01*
X145055293Y-108031275D01*
X145052660Y-108028351D01*
X144944732Y-107949937D01*
X144900257Y-107917624D01*
X144900254Y-107917622D01*
X144897070Y-107915309D01*
X144721377Y-107837085D01*
X144533260Y-107797100D01*
X144340940Y-107797100D01*
X144152823Y-107837085D01*
X143977130Y-107915309D01*
X143973946Y-107917622D01*
X143973943Y-107917624D01*
X143929468Y-107949937D01*
X143821540Y-108028351D01*
X143818907Y-108031275D01*
X143818904Y-108031278D01*
X143771901Y-108083481D01*
X143692853Y-108171273D01*
X143690884Y-108174683D01*
X143690882Y-108174686D01*
X143636789Y-108268379D01*
X143596693Y-108337827D01*
X143595475Y-108341576D01*
X143549394Y-108483400D01*
X143537263Y-108520734D01*
X143536851Y-108524650D01*
X143536851Y-108524652D01*
X143524290Y-108644160D01*
X143517160Y-108712000D01*
X143537263Y-108903266D01*
X143538481Y-108907014D01*
X143538481Y-108907015D01*
X143551043Y-108945678D01*
X143596693Y-109086173D01*
X143598663Y-109089585D01*
X143690882Y-109249314D01*
X143690884Y-109249317D01*
X143692853Y-109252727D01*
X143717492Y-109280091D01*
X143818904Y-109392722D01*
X143818907Y-109392725D01*
X143821540Y-109395649D01*
X143870730Y-109431387D01*
X143872201Y-109432456D01*
X143900966Y-109475101D01*
X143903200Y-109493294D01*
X143903200Y-119924066D01*
X143895005Y-119958203D01*
X143859291Y-120028294D01*
X143844200Y-120123576D01*
X143844200Y-121736703D01*
X143826607Y-121785041D01*
X143782058Y-121810761D01*
X143731400Y-121801828D01*
X143715826Y-121789877D01*
X138820826Y-116894878D01*
X138799086Y-116848258D01*
X138798800Y-116841704D01*
X138798800Y-108268379D01*
X138798866Y-108265230D01*
X138801214Y-108209205D01*
X138801429Y-108204084D01*
X138791282Y-108160825D01*
X138789994Y-108153870D01*
X138784664Y-108114954D01*
X138784664Y-108114953D01*
X138783968Y-108109874D01*
X138781934Y-108105174D01*
X138781933Y-108105170D01*
X138776511Y-108092642D01*
X138772313Y-108079948D01*
X138771976Y-108078511D01*
X138768026Y-108061669D01*
X138753631Y-108035484D01*
X138746627Y-108022744D01*
X138743510Y-108016382D01*
X138733225Y-107992615D01*
X138725873Y-107975625D01*
X138714058Y-107961035D01*
X138706601Y-107949937D01*
X138699457Y-107936941D01*
X138699452Y-107936934D01*
X138697555Y-107933483D01*
X138690765Y-107925617D01*
X138665230Y-107900082D01*
X138659963Y-107894233D01*
X138637041Y-107865927D01*
X138633816Y-107861944D01*
X138615719Y-107849083D01*
X138606108Y-107840960D01*
X135590143Y-104824995D01*
X135568403Y-104778375D01*
X135571963Y-104748084D01*
X135576913Y-104733203D01*
X135603146Y-104525545D01*
X135603564Y-104495600D01*
X135583139Y-104287291D01*
X135522642Y-104086916D01*
X135424378Y-103902107D01*
X135292089Y-103739905D01*
X135130814Y-103606487D01*
X134946697Y-103506935D01*
X134897150Y-103491598D01*
X134750262Y-103446128D01*
X134750258Y-103446127D01*
X134746749Y-103445041D01*
X134603018Y-103429934D01*
X134542242Y-103423546D01*
X134542240Y-103423546D01*
X134538587Y-103423162D01*
X134330140Y-103442132D01*
X134129348Y-103501229D01*
X133943858Y-103598200D01*
X133940999Y-103600499D01*
X133940994Y-103600502D01*
X133783607Y-103727045D01*
X133783603Y-103727049D01*
X133780736Y-103729354D01*
X133778368Y-103732176D01*
X133778367Y-103732177D01*
X133648559Y-103886875D01*
X133648556Y-103886879D01*
X133646195Y-103889693D01*
X133545360Y-104073111D01*
X133482072Y-104272622D01*
X133458741Y-104480626D01*
X133459049Y-104484294D01*
X133459049Y-104484297D01*
X133462336Y-104523442D01*
X133476255Y-104689200D01*
X133533948Y-104890400D01*
X133629623Y-105076563D01*
X133759634Y-105240596D01*
X133919030Y-105376253D01*
X133922231Y-105378042D01*
X133922234Y-105378044D01*
X134000500Y-105421785D01*
X134101740Y-105478366D01*
X134300804Y-105543046D01*
X134376339Y-105552053D01*
X134504982Y-105567393D01*
X134504984Y-105567393D01*
X134508640Y-105567829D01*
X134717331Y-105551771D01*
X134744966Y-105544055D01*
X134796252Y-105548001D01*
X134818362Y-105563311D01*
X137708974Y-108453923D01*
X137730714Y-108500543D01*
X137731000Y-108507097D01*
X137731000Y-108908279D01*
X137713407Y-108956617D01*
X137668858Y-108982337D01*
X137634805Y-108979954D01*
X137634777Y-108980085D01*
X137633846Y-108979887D01*
X137633845Y-108979887D01*
X137446660Y-108940100D01*
X137254340Y-108940100D01*
X137250487Y-108940919D01*
X137241749Y-108942776D01*
X137190810Y-108935616D01*
X137172941Y-108922393D01*
X135596125Y-107345577D01*
X135574385Y-107298957D01*
X135575942Y-107276122D01*
X135576913Y-107273203D01*
X135603146Y-107065545D01*
X135603564Y-107035600D01*
X135601737Y-107016964D01*
X135583499Y-106830958D01*
X135583498Y-106830954D01*
X135583139Y-106827291D01*
X135522642Y-106626916D01*
X135517925Y-106618043D01*
X135426102Y-106445350D01*
X135424378Y-106442107D01*
X135292089Y-106279905D01*
X135280502Y-106270319D01*
X135133645Y-106148829D01*
X135130814Y-106146487D01*
X134946697Y-106046935D01*
X134897150Y-106031598D01*
X134750262Y-105986128D01*
X134750258Y-105986127D01*
X134746749Y-105985041D01*
X134603018Y-105969934D01*
X134542242Y-105963546D01*
X134542240Y-105963546D01*
X134538587Y-105963162D01*
X134330140Y-105982132D01*
X134129348Y-106041229D01*
X133943858Y-106138200D01*
X133940999Y-106140499D01*
X133940994Y-106140502D01*
X133783607Y-106267045D01*
X133783603Y-106267049D01*
X133780736Y-106269354D01*
X133778368Y-106272176D01*
X133778367Y-106272177D01*
X133648559Y-106426875D01*
X133648556Y-106426879D01*
X133646195Y-106429693D01*
X133545360Y-106613111D01*
X133482072Y-106812622D01*
X133458741Y-107020626D01*
X133459049Y-107024294D01*
X133459049Y-107024297D01*
X133466823Y-107116878D01*
X133476255Y-107229200D01*
X133477269Y-107232736D01*
X133531949Y-107423427D01*
X133533948Y-107430400D01*
X133629623Y-107616563D01*
X133759634Y-107780596D01*
X133762428Y-107782974D01*
X133762429Y-107782975D01*
X133830561Y-107840960D01*
X133919030Y-107916253D01*
X133922231Y-107918042D01*
X133922234Y-107918044D01*
X133989825Y-107955819D01*
X134101740Y-108018366D01*
X134105241Y-108019504D01*
X134105242Y-108019504D01*
X134141479Y-108031278D01*
X134300804Y-108083046D01*
X134415500Y-108096723D01*
X134504982Y-108107393D01*
X134504984Y-108107393D01*
X134508640Y-108107829D01*
X134717331Y-108091771D01*
X134764822Y-108078511D01*
X134816109Y-108082457D01*
X134838218Y-108097767D01*
X136420880Y-109680429D01*
X136442620Y-109727049D01*
X136442494Y-109741460D01*
X136430560Y-109855000D01*
X136430972Y-109858920D01*
X136446167Y-110003486D01*
X136450663Y-110046266D01*
X136510093Y-110229173D01*
X136512063Y-110232585D01*
X136604282Y-110392314D01*
X136604284Y-110392317D01*
X136606253Y-110395727D01*
X136641294Y-110434644D01*
X136732304Y-110535722D01*
X136732307Y-110535725D01*
X136734940Y-110538649D01*
X136792538Y-110580496D01*
X136887343Y-110649376D01*
X136887346Y-110649378D01*
X136890530Y-110651691D01*
X137066223Y-110729915D01*
X137254340Y-110769900D01*
X137446660Y-110769900D01*
X137633300Y-110730229D01*
X137634777Y-110729915D01*
X137634855Y-110730283D01*
X137683967Y-110731995D01*
X137722196Y-110766413D01*
X137731000Y-110801721D01*
X137731000Y-117080421D01*
X137730934Y-117083569D01*
X137728371Y-117144717D01*
X137729541Y-117149704D01*
X137729541Y-117149707D01*
X137738514Y-117187963D01*
X137739805Y-117194929D01*
X137741346Y-117206176D01*
X137745832Y-117238926D01*
X137753292Y-117256163D01*
X137757487Y-117268850D01*
X137761774Y-117287131D01*
X137764244Y-117291624D01*
X137783174Y-117326059D01*
X137786287Y-117332412D01*
X137803927Y-117373175D01*
X137815746Y-117387771D01*
X137823196Y-117398859D01*
X137830345Y-117411863D01*
X137830347Y-117411866D01*
X137832245Y-117415318D01*
X137834817Y-117418297D01*
X137834820Y-117418302D01*
X137838124Y-117422129D01*
X137839035Y-117423184D01*
X137864574Y-117448723D01*
X137869840Y-117454571D01*
X137895984Y-117486856D01*
X137900159Y-117489823D01*
X137900160Y-117489824D01*
X137914077Y-117499714D01*
X137923689Y-117507838D01*
X140702330Y-120286478D01*
X143038278Y-122622426D01*
X143060018Y-122669046D01*
X143046704Y-122718733D01*
X143004567Y-122748238D01*
X142985104Y-122750800D01*
X142491759Y-122750800D01*
X142481602Y-122754497D01*
X142478500Y-122759869D01*
X142478500Y-123423500D01*
X142460907Y-123471838D01*
X142416358Y-123497558D01*
X142403300Y-123498700D01*
X141269076Y-123498700D01*
X141266160Y-123499162D01*
X141266158Y-123499162D01*
X141179640Y-123512865D01*
X141179639Y-123512865D01*
X141173794Y-123513791D01*
X141152179Y-123524804D01*
X141118041Y-123533000D01*
X140959560Y-123533000D01*
X140949403Y-123536697D01*
X140946301Y-123542069D01*
X140946301Y-123601305D01*
X140928708Y-123649643D01*
X140884159Y-123675363D01*
X140833501Y-123666430D01*
X140817927Y-123654479D01*
X140328389Y-123164941D01*
X140946300Y-123164941D01*
X140949997Y-123175098D01*
X140955369Y-123178200D01*
X142110441Y-123178200D01*
X142120598Y-123174503D01*
X142123700Y-123169131D01*
X142123700Y-122764060D01*
X142120003Y-122753903D01*
X142114631Y-122750801D01*
X141270220Y-122750801D01*
X141264751Y-122751202D01*
X141203516Y-122760215D01*
X141192491Y-122763641D01*
X141097283Y-122810385D01*
X141087318Y-122817519D01*
X141012649Y-122892320D01*
X141005528Y-122902302D01*
X140958948Y-122997595D01*
X140955544Y-123008609D01*
X140946694Y-123069268D01*
X140946300Y-123074701D01*
X140946300Y-123164941D01*
X140328389Y-123164941D01*
X137365720Y-120202272D01*
X137343980Y-120155652D01*
X137344106Y-120141237D01*
X137345963Y-120123576D01*
X137356040Y-120027700D01*
X137335937Y-119836434D01*
X137276507Y-119653527D01*
X137261782Y-119628022D01*
X137182318Y-119490386D01*
X137182316Y-119490383D01*
X137180347Y-119486973D01*
X137059326Y-119352565D01*
X137054296Y-119346978D01*
X137054293Y-119346975D01*
X137051660Y-119344051D01*
X136982029Y-119293461D01*
X136899257Y-119233324D01*
X136899254Y-119233322D01*
X136896070Y-119231009D01*
X136720377Y-119152785D01*
X136532260Y-119112800D01*
X136339940Y-119112800D01*
X136151823Y-119152785D01*
X135976130Y-119231009D01*
X135972946Y-119233322D01*
X135972943Y-119233324D01*
X135890171Y-119293461D01*
X135820540Y-119344051D01*
X135817907Y-119346975D01*
X135817904Y-119346978D01*
X135812874Y-119352565D01*
X135691853Y-119486973D01*
X135689884Y-119490383D01*
X135689882Y-119490386D01*
X135610418Y-119628022D01*
X135595693Y-119653527D01*
X135536263Y-119836434D01*
X135516160Y-120027700D01*
X135516572Y-120031620D01*
X135531843Y-120176909D01*
X135536263Y-120218966D01*
X135537481Y-120222714D01*
X135537481Y-120222715D01*
X135552573Y-120269162D01*
X135595693Y-120401873D01*
X135597663Y-120405285D01*
X135689882Y-120565014D01*
X135689884Y-120565017D01*
X135691853Y-120568427D01*
X135729702Y-120610463D01*
X135817904Y-120708422D01*
X135817907Y-120708425D01*
X135820540Y-120711349D01*
X135869727Y-120747085D01*
X135972943Y-120822076D01*
X135972946Y-120822078D01*
X135976130Y-120824391D01*
X136151823Y-120902615D01*
X136339940Y-120942600D01*
X136532260Y-120942600D01*
X136536108Y-120941782D01*
X136536109Y-120941782D01*
X136539162Y-120941133D01*
X136544849Y-120939924D01*
X136595788Y-120947083D01*
X136613658Y-120960307D01*
X140849567Y-125196216D01*
X140851748Y-125198489D01*
X140880178Y-125229407D01*
X140899097Y-125268544D01*
X140908134Y-125325600D01*
X140909291Y-125332906D01*
X140910088Y-125334470D01*
X140910088Y-125376730D01*
X140909291Y-125378294D01*
X140908366Y-125384136D01*
X140908365Y-125384138D01*
X140903626Y-125414060D01*
X140894200Y-125473576D01*
X140894200Y-126022600D01*
X140876607Y-126070938D01*
X140832058Y-126096658D01*
X140819000Y-126097800D01*
X140388138Y-126097800D01*
X140378656Y-126097200D01*
X140374392Y-126096658D01*
X140342222Y-126092569D01*
X140337157Y-126093313D01*
X140337155Y-126093313D01*
X140269447Y-126103258D01*
X140268725Y-126103360D01*
X140200964Y-126112642D01*
X140200961Y-126112643D01*
X140195879Y-126113339D01*
X140193342Y-126114437D01*
X140190610Y-126114838D01*
X140185920Y-126116922D01*
X140185919Y-126116922D01*
X140123463Y-126144671D01*
X140122796Y-126144964D01*
X140059951Y-126172160D01*
X140055244Y-126174197D01*
X140053097Y-126175936D01*
X140050571Y-126177058D01*
X140047380Y-126179373D01*
X140047376Y-126179375D01*
X140042856Y-126182654D01*
X140042848Y-126182660D01*
X140041751Y-126183456D01*
X140040708Y-126184336D01*
X139993234Y-126224392D01*
X139992065Y-126225358D01*
X139936155Y-126270633D01*
X139933662Y-126274141D01*
X139928735Y-126278813D01*
X139351475Y-126765875D01*
X139302981Y-126783600D01*
X136393200Y-126783600D01*
X136344862Y-126766007D01*
X136319142Y-126721458D01*
X136318000Y-126708400D01*
X136318000Y-126533576D01*
X136302909Y-126438294D01*
X136244392Y-126323449D01*
X136153251Y-126232308D01*
X136135863Y-126223448D01*
X136100186Y-126205270D01*
X136038406Y-126173791D01*
X136008296Y-126169022D01*
X135946042Y-126159162D01*
X135946040Y-126159162D01*
X135943124Y-126158700D01*
X134556000Y-126158700D01*
X134507662Y-126141107D01*
X134481942Y-126096558D01*
X134480800Y-126083500D01*
X134480800Y-123719517D01*
X134498393Y-123671179D01*
X134502826Y-123666343D01*
X134674643Y-123494526D01*
X134721263Y-123472786D01*
X134727817Y-123472500D01*
X135943124Y-123472500D01*
X135946040Y-123472038D01*
X135946042Y-123472038D01*
X136008296Y-123462178D01*
X136038406Y-123457409D01*
X136105719Y-123423111D01*
X136147974Y-123401581D01*
X136147975Y-123401580D01*
X136153251Y-123398892D01*
X136244392Y-123307751D01*
X136302909Y-123192906D01*
X136318000Y-123097624D01*
X136318000Y-121433576D01*
X136302909Y-121338294D01*
X136244392Y-121223449D01*
X136153251Y-121132308D01*
X136038406Y-121073791D01*
X136008296Y-121069022D01*
X135946042Y-121059162D01*
X135946040Y-121059162D01*
X135943124Y-121058700D01*
X134379076Y-121058700D01*
X134376160Y-121059162D01*
X134376158Y-121059162D01*
X134313904Y-121069022D01*
X134283794Y-121073791D01*
X134168949Y-121132308D01*
X134077808Y-121223449D01*
X134019291Y-121338294D01*
X134004200Y-121433576D01*
X134004200Y-122551883D01*
X133986607Y-122600221D01*
X133982174Y-122605057D01*
X133536018Y-123051213D01*
X133533745Y-123053394D01*
X133490274Y-123093367D01*
X133490272Y-123093369D01*
X133486501Y-123096837D01*
X133483801Y-123101191D01*
X133483799Y-123101194D01*
X133461895Y-123136523D01*
X133457885Y-123142358D01*
X133429649Y-123179557D01*
X133427761Y-123184326D01*
X133422288Y-123198148D01*
X133416285Y-123210083D01*
X133405751Y-123227074D01*
X133404320Y-123232000D01*
X133392722Y-123271917D01*
X133390433Y-123278604D01*
X133373238Y-123322034D01*
X133372702Y-123327134D01*
X133371149Y-123341912D01*
X133368575Y-123355031D01*
X133362998Y-123374228D01*
X133362200Y-123385095D01*
X133362200Y-123423111D01*
X133361788Y-123430972D01*
X133357220Y-123474433D01*
X133358075Y-123479488D01*
X133358075Y-123479489D01*
X133361147Y-123497651D01*
X133362200Y-123510192D01*
X133362200Y-130937500D01*
X133344607Y-130985838D01*
X133300058Y-131011558D01*
X133287000Y-131012700D01*
X133223200Y-131012700D01*
X133174862Y-130995107D01*
X133149142Y-130950558D01*
X133148000Y-130937500D01*
X133148000Y-130803576D01*
X133142077Y-130766176D01*
X133133835Y-130714141D01*
X133132909Y-130708294D01*
X133081625Y-130607644D01*
X133077081Y-130598726D01*
X133077080Y-130598725D01*
X133074392Y-130593449D01*
X132983251Y-130502308D01*
X132868406Y-130443791D01*
X132825156Y-130436941D01*
X132776042Y-130429162D01*
X132776040Y-130429162D01*
X132773124Y-130428700D01*
X131209076Y-130428700D01*
X131206160Y-130429162D01*
X131206158Y-130429162D01*
X131157044Y-130436941D01*
X131113794Y-130443791D01*
X130998949Y-130502308D01*
X130907808Y-130593449D01*
X130905120Y-130598725D01*
X130905119Y-130598726D01*
X130900575Y-130607644D01*
X130849291Y-130708294D01*
X130848365Y-130714141D01*
X130840124Y-130766176D01*
X130834200Y-130803576D01*
X130834200Y-132167624D01*
X130834662Y-132170540D01*
X130834662Y-132170542D01*
X130838494Y-132194736D01*
X130849291Y-132262906D01*
X130870745Y-132305011D01*
X130904929Y-132372100D01*
X130907808Y-132377751D01*
X130912483Y-132382426D01*
X130912721Y-132382936D01*
X130915471Y-132386721D01*
X130914735Y-132387256D01*
X130934223Y-132429046D01*
X130920909Y-132478733D01*
X130912483Y-132488774D01*
X130907808Y-132493449D01*
X130849291Y-132608294D01*
X130834200Y-132703576D01*
X130834200Y-134067624D01*
X130834662Y-134070540D01*
X130834662Y-134070542D01*
X130837205Y-134086600D01*
X130849291Y-134162906D01*
X130907808Y-134277751D01*
X130998949Y-134368892D01*
X131004225Y-134371580D01*
X131004226Y-134371581D01*
X131019156Y-134379188D01*
X131113794Y-134427409D01*
X131119641Y-134428335D01*
X131206158Y-134442038D01*
X131206160Y-134442038D01*
X131209076Y-134442500D01*
X131905883Y-134442500D01*
X131954221Y-134460093D01*
X131959057Y-134464526D01*
X134125624Y-136631094D01*
X134127805Y-136633367D01*
X134167767Y-136676826D01*
X134167769Y-136676828D01*
X134171237Y-136680599D01*
X134175593Y-136683300D01*
X134175597Y-136683303D01*
X134210921Y-136705204D01*
X134216757Y-136709214D01*
X134253956Y-136737450D01*
X134272541Y-136744808D01*
X134284484Y-136750815D01*
X134301474Y-136761349D01*
X134306398Y-136762780D01*
X134306399Y-136762780D01*
X134346316Y-136774377D01*
X134353019Y-136776672D01*
X134391666Y-136791974D01*
X134391669Y-136791975D01*
X134396433Y-136793861D01*
X134401530Y-136794397D01*
X134401531Y-136794397D01*
X134416314Y-136795951D01*
X134429425Y-136798523D01*
X134448628Y-136804102D01*
X134456639Y-136804690D01*
X134458131Y-136804800D01*
X134458135Y-136804800D01*
X134459495Y-136804900D01*
X134497520Y-136804900D01*
X134505381Y-136805312D01*
X134548833Y-136809879D01*
X134572045Y-136805953D01*
X134584585Y-136804900D01*
X135786995Y-136804900D01*
X135790143Y-136804966D01*
X135854229Y-136807652D01*
X135859216Y-136806482D01*
X135859219Y-136806482D01*
X135899688Y-136796990D01*
X135906654Y-136795699D01*
X135933845Y-136791974D01*
X135952921Y-136789361D01*
X135971269Y-136781421D01*
X135983956Y-136777225D01*
X136003420Y-136772660D01*
X136044342Y-136750163D01*
X136050703Y-136747047D01*
X136055877Y-136744808D01*
X136093556Y-136728503D01*
X136109091Y-136715923D01*
X136120187Y-136708467D01*
X136134247Y-136700738D01*
X136134251Y-136700736D01*
X136137704Y-136698837D01*
X136144137Y-136693284D01*
X136144910Y-136692617D01*
X136144918Y-136692610D01*
X136145952Y-136691717D01*
X136172830Y-136664839D01*
X136178679Y-136659572D01*
X136208662Y-136635292D01*
X136212645Y-136632067D01*
X136218067Y-136624438D01*
X136226288Y-136612870D01*
X136234412Y-136603257D01*
X136993189Y-135844480D01*
X138633301Y-135844480D01*
X138633702Y-135849949D01*
X138642715Y-135911184D01*
X138646141Y-135922209D01*
X138692885Y-136017417D01*
X138700019Y-136027382D01*
X138774820Y-136102051D01*
X138784802Y-136109172D01*
X138880095Y-136155752D01*
X138891109Y-136159156D01*
X138951768Y-136168006D01*
X138957201Y-136168400D01*
X139547441Y-136168400D01*
X139557598Y-136164703D01*
X139560700Y-136159331D01*
X139560700Y-136155140D01*
X139915500Y-136155140D01*
X139919197Y-136165297D01*
X139924569Y-136168399D01*
X140518980Y-136168399D01*
X140524449Y-136167998D01*
X140585684Y-136158985D01*
X140596709Y-136155559D01*
X140691917Y-136108815D01*
X140701882Y-136101681D01*
X140776551Y-136026880D01*
X140783672Y-136016898D01*
X140830252Y-135921605D01*
X140833656Y-135910591D01*
X140842506Y-135849932D01*
X140842900Y-135844499D01*
X140842900Y-135354259D01*
X140839203Y-135344102D01*
X140833831Y-135341000D01*
X139928759Y-135341000D01*
X139918602Y-135344697D01*
X139915500Y-135350069D01*
X139915500Y-136155140D01*
X139560700Y-136155140D01*
X139560700Y-135354259D01*
X139557003Y-135344102D01*
X139551631Y-135341000D01*
X138646560Y-135341000D01*
X138636403Y-135344697D01*
X138633301Y-135350069D01*
X138633301Y-135844480D01*
X136993189Y-135844480D01*
X138167782Y-134669887D01*
X138170055Y-134667706D01*
X138213526Y-134627733D01*
X138213528Y-134627731D01*
X138217299Y-134624263D01*
X138219999Y-134619909D01*
X138220001Y-134619906D01*
X138241905Y-134584577D01*
X138245918Y-134578738D01*
X138246944Y-134577387D01*
X138274151Y-134541543D01*
X138281512Y-134522952D01*
X138287515Y-134511017D01*
X138298049Y-134494026D01*
X138311078Y-134449183D01*
X138313367Y-134442496D01*
X138330562Y-134399066D01*
X138332651Y-134379185D01*
X138335225Y-134366067D01*
X138339702Y-134350659D01*
X138339702Y-134350657D01*
X138340802Y-134346872D01*
X138341263Y-134340598D01*
X138341500Y-134337369D01*
X138341500Y-134337365D01*
X138341600Y-134336005D01*
X138341600Y-134297989D01*
X138342012Y-134290128D01*
X138342722Y-134283372D01*
X138346580Y-134246667D01*
X138342653Y-134223449D01*
X138341600Y-134210909D01*
X138341600Y-134187916D01*
X138340950Y-134183167D01*
X138326757Y-134079561D01*
X138326061Y-134074479D01*
X138322385Y-134065984D01*
X138316200Y-134036119D01*
X138316200Y-132764097D01*
X138333793Y-132715759D01*
X138338226Y-132710923D01*
X138395833Y-132653316D01*
X138442453Y-132631576D01*
X138492140Y-132644890D01*
X138505822Y-132657226D01*
X138562822Y-132722974D01*
X138581200Y-132772232D01*
X138581200Y-133945624D01*
X138581662Y-133948540D01*
X138581662Y-133948542D01*
X138588017Y-133988663D01*
X138596291Y-134040906D01*
X138621571Y-134090520D01*
X138637247Y-134121285D01*
X138654808Y-134155751D01*
X138696341Y-134197284D01*
X138718081Y-134243904D01*
X138704767Y-134293591D01*
X138702630Y-134296140D01*
X138692528Y-134310302D01*
X138645948Y-134405595D01*
X138642544Y-134416609D01*
X138633694Y-134477268D01*
X138633300Y-134482701D01*
X138633300Y-134972941D01*
X138636997Y-134983098D01*
X138642369Y-134986200D01*
X140829640Y-134986200D01*
X140839797Y-134982503D01*
X140842899Y-134977131D01*
X140842899Y-134482720D01*
X140842498Y-134477251D01*
X140833485Y-134416016D01*
X140830059Y-134404991D01*
X140783316Y-134309786D01*
X140772560Y-134294763D01*
X140775019Y-134293003D01*
X140758196Y-134257004D01*
X140771468Y-134207305D01*
X140779930Y-134197213D01*
X140821392Y-134155751D01*
X140838954Y-134121285D01*
X140854629Y-134090520D01*
X140879909Y-134040906D01*
X140888183Y-133988663D01*
X140894538Y-133948542D01*
X140894538Y-133948540D01*
X140895000Y-133945624D01*
X140895000Y-132581576D01*
X140891082Y-132556835D01*
X140880835Y-132492141D01*
X140879909Y-132486294D01*
X140828692Y-132385775D01*
X140824081Y-132376726D01*
X140824080Y-132376725D01*
X140821392Y-132371449D01*
X140730251Y-132280308D01*
X140711866Y-132270940D01*
X140657341Y-132243158D01*
X140615406Y-132221791D01*
X140585296Y-132217022D01*
X140523042Y-132207162D01*
X140523040Y-132207162D01*
X140520124Y-132206700D01*
X139562777Y-132206700D01*
X139514439Y-132189107D01*
X139505956Y-132180759D01*
X139485545Y-132157215D01*
X139255768Y-131892165D01*
X139237399Y-131844118D01*
X139254211Y-131795503D01*
X139259415Y-131789733D01*
X139628011Y-131421137D01*
X139674631Y-131399397D01*
X139724318Y-131412711D01*
X139746310Y-131436711D01*
X139804682Y-131537814D01*
X139804684Y-131537817D01*
X139806653Y-131541227D01*
X139809288Y-131544153D01*
X139932704Y-131681222D01*
X139932707Y-131681225D01*
X139935340Y-131684149D01*
X139994401Y-131727059D01*
X140087743Y-131794876D01*
X140087746Y-131794878D01*
X140090930Y-131797191D01*
X140266623Y-131875415D01*
X140454740Y-131915400D01*
X140647060Y-131915400D01*
X140768612Y-131889564D01*
X140831325Y-131876234D01*
X140831327Y-131876233D01*
X140835177Y-131875415D01*
X140889639Y-131851167D01*
X140898876Y-131847054D01*
X140950190Y-131843466D01*
X140982636Y-131862579D01*
X141058949Y-131938892D01*
X141064225Y-131941580D01*
X141064226Y-131941581D01*
X141112014Y-131965930D01*
X141173794Y-131997409D01*
X141179641Y-131998335D01*
X141266158Y-132012038D01*
X141266160Y-132012038D01*
X141269076Y-132012500D01*
X141316755Y-132012500D01*
X141365093Y-132030093D01*
X141390813Y-132074642D01*
X141388274Y-132110936D01*
X141381658Y-132131300D01*
X141367344Y-132175354D01*
X141365563Y-132180834D01*
X141365151Y-132184750D01*
X141365151Y-132184752D01*
X141351070Y-132318726D01*
X141345460Y-132372100D01*
X141345872Y-132376020D01*
X141364877Y-132556835D01*
X141365563Y-132563366D01*
X141366781Y-132567114D01*
X141366781Y-132567115D01*
X141378448Y-132603021D01*
X141424993Y-132746273D01*
X141426963Y-132749685D01*
X141519182Y-132909414D01*
X141519184Y-132909417D01*
X141521153Y-132912827D01*
X141523788Y-132915753D01*
X141647204Y-133052822D01*
X141647207Y-133052825D01*
X141649840Y-133055749D01*
X141660707Y-133063644D01*
X141802243Y-133166476D01*
X141802246Y-133166478D01*
X141805430Y-133168791D01*
X141981123Y-133247015D01*
X142169240Y-133287000D01*
X142361560Y-133287000D01*
X142549677Y-133247015D01*
X142725370Y-133168791D01*
X142728554Y-133166478D01*
X142728557Y-133166476D01*
X142870093Y-133063644D01*
X142880960Y-133055749D01*
X142883593Y-133052825D01*
X142883596Y-133052822D01*
X143007012Y-132915753D01*
X143009647Y-132912827D01*
X143011616Y-132909417D01*
X143011618Y-132909414D01*
X143103837Y-132749685D01*
X143105807Y-132746273D01*
X143152352Y-132603021D01*
X143164019Y-132567115D01*
X143164019Y-132567114D01*
X143165237Y-132563366D01*
X143165924Y-132556835D01*
X143184928Y-132376020D01*
X143185340Y-132372100D01*
X143179730Y-132318726D01*
X143165649Y-132184752D01*
X143165649Y-132184750D01*
X143165237Y-132180834D01*
X143163457Y-132175354D01*
X143149142Y-132131300D01*
X143142526Y-132110937D01*
X143144321Y-132059530D01*
X143178740Y-132021303D01*
X143214045Y-132012500D01*
X143333124Y-132012500D01*
X143336040Y-132012038D01*
X143336042Y-132012038D01*
X143422559Y-131998335D01*
X143428406Y-131997409D01*
X143490186Y-131965930D01*
X143537974Y-131941581D01*
X143537975Y-131941580D01*
X143543251Y-131938892D01*
X143634392Y-131847751D01*
X143638558Y-131839576D01*
X143678548Y-131761090D01*
X143692909Y-131732906D01*
X143708000Y-131637624D01*
X143708000Y-131073576D01*
X143698577Y-131014079D01*
X143693835Y-130984138D01*
X143693834Y-130984136D01*
X143692909Y-130978294D01*
X143692112Y-130976730D01*
X143692112Y-130934470D01*
X143692909Y-130932906D01*
X143694352Y-130923800D01*
X143695366Y-130917393D01*
X143716466Y-130875983D01*
X143889126Y-130703323D01*
X143935746Y-130681583D01*
X143985433Y-130694897D01*
X144014938Y-130737034D01*
X144017500Y-130756497D01*
X144017500Y-132182609D01*
X143999907Y-132230947D01*
X143995474Y-132235783D01*
X143917808Y-132313449D01*
X143859291Y-132428294D01*
X143858365Y-132434141D01*
X143848972Y-132493449D01*
X143844200Y-132523576D01*
X143844200Y-134587624D01*
X143846991Y-134605247D01*
X143852016Y-134636978D01*
X143842200Y-134687473D01*
X143830916Y-134701915D01*
X141575624Y-136957207D01*
X141529004Y-136978947D01*
X141479317Y-136965633D01*
X141469276Y-136957207D01*
X141299287Y-136787218D01*
X141297106Y-136784945D01*
X141257133Y-136741474D01*
X141257131Y-136741472D01*
X141253663Y-136737701D01*
X141249309Y-136735001D01*
X141249306Y-136734999D01*
X141224891Y-136719862D01*
X141213973Y-136713092D01*
X141208138Y-136709082D01*
X141205492Y-136707073D01*
X141170943Y-136680849D01*
X141152353Y-136673488D01*
X141140417Y-136667485D01*
X141123426Y-136656951D01*
X141100814Y-136650381D01*
X141078583Y-136643922D01*
X141071896Y-136641633D01*
X141028466Y-136624438D01*
X141008585Y-136622349D01*
X140995469Y-136619775D01*
X140988636Y-136617790D01*
X140980059Y-136615298D01*
X140980057Y-136615298D01*
X140976272Y-136614198D01*
X140972337Y-136613909D01*
X140966769Y-136613500D01*
X140966765Y-136613500D01*
X140965405Y-136613400D01*
X140927389Y-136613400D01*
X140919528Y-136612988D01*
X140913429Y-136612347D01*
X140876067Y-136608420D01*
X140871012Y-136609275D01*
X140871011Y-136609275D01*
X140852849Y-136612347D01*
X140840308Y-136613400D01*
X139025906Y-136613400D01*
X138977568Y-136595807D01*
X138970021Y-136588519D01*
X138883096Y-136491978D01*
X138883093Y-136491976D01*
X138880460Y-136489051D01*
X138810829Y-136438461D01*
X138728057Y-136378324D01*
X138728054Y-136378322D01*
X138724870Y-136376009D01*
X138549177Y-136297785D01*
X138361060Y-136257800D01*
X138168740Y-136257800D01*
X137980623Y-136297785D01*
X137804930Y-136376009D01*
X137801746Y-136378322D01*
X137801743Y-136378324D01*
X137718971Y-136438461D01*
X137649340Y-136489051D01*
X137646707Y-136491975D01*
X137646704Y-136491978D01*
X137585356Y-136560113D01*
X137520653Y-136631973D01*
X137518684Y-136635383D01*
X137518682Y-136635386D01*
X137448659Y-136756670D01*
X137424493Y-136798527D01*
X137365063Y-136981434D01*
X137364651Y-136985350D01*
X137364651Y-136985352D01*
X137350561Y-137119409D01*
X137344960Y-137172700D01*
X137365063Y-137363966D01*
X137424493Y-137546873D01*
X137426463Y-137550285D01*
X137518682Y-137710014D01*
X137518684Y-137710017D01*
X137520653Y-137713427D01*
X137559779Y-137756881D01*
X137646704Y-137853422D01*
X137646707Y-137853425D01*
X137649340Y-137856349D01*
X137718971Y-137906939D01*
X137801743Y-137967076D01*
X137801746Y-137967078D01*
X137804930Y-137969391D01*
X137980623Y-138047615D01*
X138168740Y-138087600D01*
X138361060Y-138087600D01*
X138549177Y-138047615D01*
X138724870Y-137969391D01*
X138728054Y-137967078D01*
X138728057Y-137967076D01*
X138810829Y-137906939D01*
X138880460Y-137856349D01*
X138883093Y-137853424D01*
X138883096Y-137853422D01*
X138970021Y-137756881D01*
X139015440Y-137732732D01*
X139025906Y-137732000D01*
X140630983Y-137732000D01*
X140679321Y-137749593D01*
X140684157Y-137754026D01*
X140998274Y-138068143D01*
X141020014Y-138114763D01*
X141020300Y-138121317D01*
X141020300Y-138139854D01*
X141002707Y-138188192D01*
X140994289Y-138196735D01*
X140938036Y-138245381D01*
X140888847Y-138263700D01*
X139752076Y-138263700D01*
X139749160Y-138264162D01*
X139749158Y-138264162D01*
X139686904Y-138274022D01*
X139656794Y-138278791D01*
X139651520Y-138281478D01*
X139651521Y-138281478D01*
X139558959Y-138328641D01*
X139541949Y-138337308D01*
X139500416Y-138378841D01*
X139453796Y-138400581D01*
X139404109Y-138387267D01*
X139401560Y-138385130D01*
X139387398Y-138375028D01*
X139292105Y-138328448D01*
X139281091Y-138325044D01*
X139220432Y-138316194D01*
X139214999Y-138315800D01*
X138724759Y-138315800D01*
X138714602Y-138319497D01*
X138711500Y-138324869D01*
X138711500Y-140512140D01*
X138715197Y-140522297D01*
X138720569Y-140525399D01*
X139214980Y-140525399D01*
X139220449Y-140524998D01*
X139281684Y-140515985D01*
X139292709Y-140512559D01*
X139387914Y-140465816D01*
X139402937Y-140455060D01*
X139404697Y-140457519D01*
X139440696Y-140440696D01*
X139490395Y-140453968D01*
X139500487Y-140462430D01*
X139541949Y-140503892D01*
X139547225Y-140506580D01*
X139547226Y-140506581D01*
X139583371Y-140524998D01*
X139656794Y-140562409D01*
X139662641Y-140563335D01*
X139749158Y-140577038D01*
X139749160Y-140577038D01*
X139752076Y-140577500D01*
X141116124Y-140577500D01*
X141119040Y-140577038D01*
X141119042Y-140577038D01*
X141205559Y-140563335D01*
X141211406Y-140562409D01*
X141284829Y-140524998D01*
X141320974Y-140506581D01*
X141320975Y-140506580D01*
X141326251Y-140503892D01*
X141417392Y-140412751D01*
X141475909Y-140297906D01*
X141491000Y-140202624D01*
X141491000Y-139313917D01*
X141508593Y-139265579D01*
X141553142Y-139239859D01*
X141603800Y-139248792D01*
X141619374Y-139260743D01*
X142317113Y-139958482D01*
X142319294Y-139960755D01*
X142359267Y-140004226D01*
X142359269Y-140004228D01*
X142362737Y-140007999D01*
X142367095Y-140010701D01*
X142402419Y-140032603D01*
X142408258Y-140036616D01*
X142429415Y-140052675D01*
X142445456Y-140064851D01*
X142463162Y-140071862D01*
X142464045Y-140072211D01*
X142475989Y-140078218D01*
X142492974Y-140088749D01*
X142497898Y-140090180D01*
X142497899Y-140090180D01*
X142537809Y-140101775D01*
X142544512Y-140104070D01*
X142571421Y-140114724D01*
X142587934Y-140121262D01*
X142593031Y-140121798D01*
X142593032Y-140121798D01*
X142599660Y-140122494D01*
X142607815Y-140123351D01*
X142620931Y-140125925D01*
X142627764Y-140127910D01*
X142636341Y-140130402D01*
X142636343Y-140130402D01*
X142640128Y-140131502D01*
X142644063Y-140131791D01*
X142649631Y-140132200D01*
X142649635Y-140132200D01*
X142650995Y-140132300D01*
X142689011Y-140132300D01*
X142696872Y-140132712D01*
X142740333Y-140137280D01*
X142745388Y-140136425D01*
X142745389Y-140136425D01*
X142763551Y-140133353D01*
X142776092Y-140132300D01*
X152004895Y-140132300D01*
X152008043Y-140132366D01*
X152072129Y-140135052D01*
X152077116Y-140133882D01*
X152077119Y-140133882D01*
X152117588Y-140124390D01*
X152124554Y-140123099D01*
X152147764Y-140119919D01*
X152170821Y-140116761D01*
X152189169Y-140108821D01*
X152201856Y-140104625D01*
X152221320Y-140100060D01*
X152262242Y-140077563D01*
X152268603Y-140074447D01*
X152290778Y-140064851D01*
X152311456Y-140055903D01*
X152326991Y-140043323D01*
X152338087Y-140035867D01*
X152352147Y-140028138D01*
X152352151Y-140028136D01*
X152355604Y-140026237D01*
X152360698Y-140021839D01*
X152362810Y-140020017D01*
X152362818Y-140020010D01*
X152363852Y-140019117D01*
X152390730Y-139992239D01*
X152396579Y-139986972D01*
X152426562Y-139962692D01*
X152430545Y-139959467D01*
X152433515Y-139955288D01*
X152444188Y-139940270D01*
X152452312Y-139930657D01*
X157776594Y-134606376D01*
X157778867Y-134604195D01*
X157822326Y-134564233D01*
X157822328Y-134564231D01*
X157826099Y-134560763D01*
X157828800Y-134556406D01*
X157828803Y-134556403D01*
X157850703Y-134521081D01*
X157854716Y-134515241D01*
X157857182Y-134511993D01*
X157882951Y-134478043D01*
X157890312Y-134459452D01*
X157896315Y-134447517D01*
X157906849Y-134430526D01*
X157913419Y-134407914D01*
X157919878Y-134385683D01*
X157922167Y-134378996D01*
X157939362Y-134335566D01*
X157941451Y-134315685D01*
X157944025Y-134302567D01*
X157948502Y-134287159D01*
X157948502Y-134287157D01*
X157949602Y-134283372D01*
X157950400Y-134272505D01*
X157950400Y-134234489D01*
X157950812Y-134226628D01*
X157954844Y-134188266D01*
X157955380Y-134183167D01*
X157951452Y-134159941D01*
X157950400Y-134147409D01*
X157950400Y-132601417D01*
X157967993Y-132553079D01*
X157972426Y-132548243D01*
X159632144Y-130888526D01*
X159678764Y-130866786D01*
X159685318Y-130866500D01*
X160202124Y-130866500D01*
X160205040Y-130866038D01*
X160205042Y-130866038D01*
X160291559Y-130852335D01*
X160297406Y-130851409D01*
X160412251Y-130792892D01*
X160503392Y-130701751D01*
X160506885Y-130694897D01*
X160541568Y-130626827D01*
X160561909Y-130586906D01*
X160577000Y-130491624D01*
X160577000Y-129227576D01*
X160571441Y-129192474D01*
X160562835Y-129138141D01*
X160561909Y-129132294D01*
X160523911Y-129057719D01*
X160506081Y-129022726D01*
X160506080Y-129022725D01*
X160503392Y-129017449D01*
X160412251Y-128926308D01*
X160402001Y-128921085D01*
X160315605Y-128877064D01*
X160297406Y-128867791D01*
X160267049Y-128862983D01*
X160205042Y-128853162D01*
X160205040Y-128853162D01*
X160202124Y-128852700D01*
X159538076Y-128852700D01*
X159535160Y-128853162D01*
X159535158Y-128853162D01*
X159473151Y-128862983D01*
X159442794Y-128867791D01*
X159424595Y-128877064D01*
X159338200Y-128921085D01*
X159327949Y-128926308D01*
X159236808Y-129017449D01*
X159234120Y-129022725D01*
X159234119Y-129022726D01*
X159216289Y-129057719D01*
X159178291Y-129132294D01*
X159177365Y-129138141D01*
X159168760Y-129192474D01*
X159163200Y-129227576D01*
X159163200Y-129744382D01*
X159145607Y-129792720D01*
X159141174Y-129797556D01*
X157005618Y-131933113D01*
X157003345Y-131935294D01*
X156959874Y-131975267D01*
X156959872Y-131975269D01*
X156956101Y-131978737D01*
X156953401Y-131983091D01*
X156953399Y-131983094D01*
X156931495Y-132018423D01*
X156927485Y-132024258D01*
X156899249Y-132061457D01*
X156895367Y-132071262D01*
X156891888Y-132080048D01*
X156885885Y-132091983D01*
X156875351Y-132108974D01*
X156870795Y-132124655D01*
X156862322Y-132153817D01*
X156860033Y-132160504D01*
X156842838Y-132203934D01*
X156842302Y-132209034D01*
X156840749Y-132223812D01*
X156838175Y-132236931D01*
X156832598Y-132256128D01*
X156831800Y-132266995D01*
X156831800Y-132305011D01*
X156831388Y-132312872D01*
X156826820Y-132356333D01*
X156827675Y-132361388D01*
X156827675Y-132361389D01*
X156830747Y-132379551D01*
X156831800Y-132392092D01*
X156831800Y-133938083D01*
X156814207Y-133986421D01*
X156809774Y-133991257D01*
X151809357Y-138991674D01*
X151762737Y-139013414D01*
X151756183Y-139013700D01*
X149590597Y-139013700D01*
X149542259Y-138996107D01*
X149516539Y-138951558D01*
X149525472Y-138900900D01*
X149537423Y-138885326D01*
X152242848Y-136179900D01*
X152289468Y-136158160D01*
X152339155Y-136171474D01*
X152361147Y-136195474D01*
X152379653Y-136227527D01*
X152382288Y-136230453D01*
X152505704Y-136367522D01*
X152505707Y-136367525D01*
X152508340Y-136370449D01*
X152577971Y-136421039D01*
X152660743Y-136481176D01*
X152660746Y-136481178D01*
X152663930Y-136483491D01*
X152839623Y-136561715D01*
X153027740Y-136601700D01*
X153220060Y-136601700D01*
X153408177Y-136561715D01*
X153583870Y-136483491D01*
X153587054Y-136481178D01*
X153587057Y-136481176D01*
X153669829Y-136421039D01*
X153739460Y-136370449D01*
X153742093Y-136367525D01*
X153742096Y-136367522D01*
X153865512Y-136230453D01*
X153868147Y-136227527D01*
X153870116Y-136224117D01*
X153870118Y-136224114D01*
X153962337Y-136064385D01*
X153964307Y-136060973D01*
X154023737Y-135878066D01*
X154043840Y-135686800D01*
X154023737Y-135495534D01*
X153964307Y-135312627D01*
X153911248Y-135220726D01*
X153870118Y-135149486D01*
X153870116Y-135149483D01*
X153868147Y-135146073D01*
X153806570Y-135077684D01*
X153742096Y-135006078D01*
X153742093Y-135006075D01*
X153739460Y-135003151D01*
X153688799Y-134966344D01*
X153660034Y-134923699D01*
X153657800Y-134905506D01*
X153657800Y-134690421D01*
X153675393Y-134642083D01*
X153719942Y-134616363D01*
X153753995Y-134618746D01*
X153754023Y-134618615D01*
X153754954Y-134618813D01*
X153754955Y-134618813D01*
X153942140Y-134658600D01*
X154134460Y-134658600D01*
X154322577Y-134618615D01*
X154498270Y-134540391D01*
X154501454Y-134538078D01*
X154501457Y-134538076D01*
X154606611Y-134461677D01*
X154653860Y-134427349D01*
X154656493Y-134424425D01*
X154656496Y-134424422D01*
X154724623Y-134348759D01*
X154782547Y-134284427D01*
X154784516Y-134281017D01*
X154784518Y-134281014D01*
X154876737Y-134121285D01*
X154878707Y-134117873D01*
X154938137Y-133934966D01*
X154939642Y-133920653D01*
X154957828Y-133747620D01*
X154958240Y-133743700D01*
X154946306Y-133630162D01*
X154958750Y-133580251D01*
X154967920Y-133569128D01*
X156463605Y-132073443D01*
X156465878Y-132071262D01*
X156507172Y-132033291D01*
X156507174Y-132033289D01*
X156510945Y-132029821D01*
X156518012Y-132018423D01*
X156534350Y-131992073D01*
X156538363Y-131986234D01*
X156562115Y-131954942D01*
X156565215Y-131950858D01*
X156572129Y-131933396D01*
X156578132Y-131921461D01*
X156588028Y-131905499D01*
X156600419Y-131862848D01*
X156602714Y-131856147D01*
X156617177Y-131819617D01*
X156619064Y-131814851D01*
X156621027Y-131796177D01*
X156623598Y-131783067D01*
X156628839Y-131765027D01*
X156629600Y-131754664D01*
X156629600Y-131718545D01*
X156630012Y-131710685D01*
X156632801Y-131684149D01*
X156634354Y-131669372D01*
X156630653Y-131647490D01*
X156629600Y-131634950D01*
X156629600Y-131014079D01*
X156629666Y-131010930D01*
X156632014Y-130954905D01*
X156632229Y-130949784D01*
X156622082Y-130906525D01*
X156620794Y-130899570D01*
X156619282Y-130888526D01*
X156616201Y-130866038D01*
X156615464Y-130860654D01*
X156615464Y-130860653D01*
X156614768Y-130855574D01*
X156612734Y-130850874D01*
X156612733Y-130850870D01*
X156607311Y-130838342D01*
X156603113Y-130825648D01*
X156599996Y-130812357D01*
X156599996Y-130812356D01*
X156598826Y-130807369D01*
X156577789Y-130769101D01*
X156577426Y-130768441D01*
X156574310Y-130762081D01*
X156556673Y-130721325D01*
X156544854Y-130706729D01*
X156537404Y-130695641D01*
X156530255Y-130682637D01*
X156530253Y-130682634D01*
X156528355Y-130679182D01*
X156525783Y-130676203D01*
X156525780Y-130676198D01*
X156522476Y-130672371D01*
X156522472Y-130672366D01*
X156521565Y-130671316D01*
X156496026Y-130645777D01*
X156490759Y-130639928D01*
X156464616Y-130607644D01*
X156460442Y-130604678D01*
X156460436Y-130604672D01*
X156446526Y-130594787D01*
X156436914Y-130586665D01*
X156139921Y-130289673D01*
X156137762Y-130287422D01*
X156119822Y-130267913D01*
X156100904Y-130228777D01*
X156099189Y-130217944D01*
X156092909Y-130178294D01*
X156092111Y-130176728D01*
X156092112Y-130134470D01*
X156092909Y-130132906D01*
X156095925Y-130113867D01*
X156107538Y-130040542D01*
X156107538Y-130040540D01*
X156108000Y-130037624D01*
X156108000Y-129473576D01*
X156107538Y-129470658D01*
X156093835Y-129384138D01*
X156093834Y-129384136D01*
X156092909Y-129378294D01*
X156092112Y-129376730D01*
X156092112Y-129334470D01*
X156092909Y-129332906D01*
X156099998Y-129288151D01*
X156105867Y-129251092D01*
X156126967Y-129209682D01*
X159121708Y-126214941D01*
X165176300Y-126214941D01*
X165179997Y-126225098D01*
X165185369Y-126228200D01*
X166090441Y-126228200D01*
X166100598Y-126224503D01*
X166103700Y-126219131D01*
X166103700Y-125414060D01*
X166100003Y-125403903D01*
X166094631Y-125400801D01*
X165500220Y-125400801D01*
X165494751Y-125401202D01*
X165433516Y-125410215D01*
X165422491Y-125413641D01*
X165327283Y-125460385D01*
X165317318Y-125467519D01*
X165242649Y-125542320D01*
X165235528Y-125552302D01*
X165188948Y-125647595D01*
X165185544Y-125658609D01*
X165176694Y-125719268D01*
X165176300Y-125724701D01*
X165176300Y-126214941D01*
X159121708Y-126214941D01*
X163461942Y-121874707D01*
X163508562Y-121852967D01*
X163530750Y-121854324D01*
X163536438Y-121855533D01*
X163539491Y-121856182D01*
X163539492Y-121856182D01*
X163543340Y-121857000D01*
X163735660Y-121857000D01*
X163923777Y-121817015D01*
X164099470Y-121738791D01*
X164102654Y-121736478D01*
X164102657Y-121736476D01*
X164245110Y-121632978D01*
X164255060Y-121625749D01*
X164257693Y-121622825D01*
X164257696Y-121622822D01*
X164350885Y-121519324D01*
X164383747Y-121482827D01*
X164385716Y-121479417D01*
X164385718Y-121479414D01*
X164477937Y-121319685D01*
X164479907Y-121316273D01*
X164539337Y-121133366D01*
X164543758Y-121091309D01*
X164559028Y-120946020D01*
X164559440Y-120942100D01*
X164544192Y-120797027D01*
X164539749Y-120754752D01*
X164539749Y-120754750D01*
X164539337Y-120750834D01*
X164497456Y-120621937D01*
X164499251Y-120570530D01*
X164533671Y-120532302D01*
X164568975Y-120523500D01*
X165055170Y-120523500D01*
X165103508Y-120541093D01*
X165129228Y-120585642D01*
X165129444Y-120610463D01*
X165124662Y-120640655D01*
X165124662Y-120640658D01*
X165124200Y-120643576D01*
X165124200Y-122007624D01*
X165139291Y-122102906D01*
X165197808Y-122217751D01*
X165202483Y-122222426D01*
X165202721Y-122222936D01*
X165205471Y-122226721D01*
X165204735Y-122227256D01*
X165224223Y-122269046D01*
X165210909Y-122318733D01*
X165202483Y-122328774D01*
X165197808Y-122333449D01*
X165139291Y-122448294D01*
X165138365Y-122454141D01*
X165127449Y-122523065D01*
X165124200Y-122543576D01*
X165124200Y-123907624D01*
X165139291Y-124002906D01*
X165146935Y-124017908D01*
X165187013Y-124096564D01*
X165197808Y-124117751D01*
X165288949Y-124208892D01*
X165403794Y-124267409D01*
X165409641Y-124268335D01*
X165496158Y-124282038D01*
X165496160Y-124282038D01*
X165499076Y-124282500D01*
X166946742Y-124282500D01*
X166985084Y-124293009D01*
X167081942Y-124350417D01*
X167114554Y-124390198D01*
X167118800Y-124415108D01*
X167118800Y-125325600D01*
X167101207Y-125373938D01*
X167056658Y-125399658D01*
X167043600Y-125400800D01*
X166471759Y-125400800D01*
X166461602Y-125404497D01*
X166458500Y-125409869D01*
X166458500Y-126507800D01*
X166440907Y-126556138D01*
X166396358Y-126581858D01*
X166383300Y-126583000D01*
X165189560Y-126583000D01*
X165179403Y-126586697D01*
X165176301Y-126592069D01*
X165176301Y-127086480D01*
X165176702Y-127091949D01*
X165185715Y-127153184D01*
X165189141Y-127164209D01*
X165235884Y-127259414D01*
X165246640Y-127274437D01*
X165244181Y-127276197D01*
X165261004Y-127312196D01*
X165247732Y-127361895D01*
X165239270Y-127371987D01*
X165197808Y-127413449D01*
X165139291Y-127528294D01*
X165124200Y-127623576D01*
X165124200Y-127698500D01*
X165106607Y-127746838D01*
X165062058Y-127772558D01*
X165049000Y-127773700D01*
X162338217Y-127773700D01*
X162335068Y-127773634D01*
X162274174Y-127771082D01*
X162263012Y-127773700D01*
X162231110Y-127781182D01*
X162224145Y-127782473D01*
X162185397Y-127787781D01*
X162185396Y-127787781D01*
X162180317Y-127788477D01*
X162163169Y-127795898D01*
X162150476Y-127800095D01*
X162132292Y-127804360D01*
X162127796Y-127806831D01*
X162127795Y-127806832D01*
X162093535Y-127825666D01*
X162087174Y-127828783D01*
X162083135Y-127830531D01*
X162046571Y-127846354D01*
X162032045Y-127858117D01*
X162020954Y-127865569D01*
X162008044Y-127872666D01*
X162008041Y-127872668D01*
X162004587Y-127874567D01*
X161996742Y-127881338D01*
X161971317Y-127906763D01*
X161965480Y-127912020D01*
X161933316Y-127938066D01*
X161921993Y-127953999D01*
X161920521Y-127956070D01*
X161912398Y-127965682D01*
X161403557Y-128474523D01*
X161401284Y-128476703D01*
X161356411Y-128517966D01*
X161344570Y-128537065D01*
X161333105Y-128555556D01*
X161329092Y-128561395D01*
X161305445Y-128592548D01*
X161305443Y-128592552D01*
X161302345Y-128596633D01*
X161300457Y-128601402D01*
X161295468Y-128614002D01*
X161289461Y-128625946D01*
X161279617Y-128641823D01*
X161278186Y-128646747D01*
X161278186Y-128646748D01*
X161267277Y-128684297D01*
X161264982Y-128691000D01*
X161252566Y-128722360D01*
X161248697Y-128732131D01*
X161248161Y-128737236D01*
X161246745Y-128750707D01*
X161244172Y-128763825D01*
X161238959Y-128781768D01*
X161238200Y-128792103D01*
X161238200Y-128828063D01*
X161237788Y-128835924D01*
X161233464Y-128877064D01*
X161234319Y-128882119D01*
X161234449Y-128886262D01*
X161218382Y-128935128D01*
X161212460Y-128941797D01*
X161136808Y-129017449D01*
X161134120Y-129022725D01*
X161134119Y-129022726D01*
X161116289Y-129057719D01*
X161078291Y-129132294D01*
X161077365Y-129138141D01*
X161068760Y-129192474D01*
X161063200Y-129227576D01*
X161063200Y-130491624D01*
X161078291Y-130586906D01*
X161098632Y-130626827D01*
X161133316Y-130694897D01*
X161136808Y-130701751D01*
X161227949Y-130792892D01*
X161342794Y-130851409D01*
X161348641Y-130852335D01*
X161435158Y-130866038D01*
X161435160Y-130866038D01*
X161438076Y-130866500D01*
X161993632Y-130866500D01*
X162041970Y-130884093D01*
X162046806Y-130888526D01*
X162110174Y-130951894D01*
X162131914Y-130998514D01*
X162132200Y-131005068D01*
X162132200Y-131441600D01*
X162114607Y-131489938D01*
X162070058Y-131515658D01*
X162057000Y-131516800D01*
X161960759Y-131516800D01*
X161950602Y-131520497D01*
X161947500Y-131525869D01*
X161947500Y-133413140D01*
X161951197Y-133423297D01*
X161956569Y-133426399D01*
X162057000Y-133426399D01*
X162105338Y-133443992D01*
X162131058Y-133488541D01*
X162132200Y-133501599D01*
X162132200Y-138442500D01*
X162114607Y-138490838D01*
X162070058Y-138516558D01*
X162057000Y-138517700D01*
X161982076Y-138517700D01*
X161979160Y-138518162D01*
X161979158Y-138518162D01*
X161916904Y-138528022D01*
X161886794Y-138532791D01*
X161771949Y-138591308D01*
X161680808Y-138682449D01*
X161678119Y-138687726D01*
X161678117Y-138687729D01*
X161674003Y-138695803D01*
X161636382Y-138730885D01*
X161585012Y-138733576D01*
X161543931Y-138702618D01*
X161531800Y-138661662D01*
X161531800Y-133496395D01*
X161549393Y-133448057D01*
X161581282Y-133425730D01*
X161589598Y-133422703D01*
X161592700Y-133417331D01*
X161592700Y-131530060D01*
X161589003Y-131519903D01*
X161583631Y-131516801D01*
X161439220Y-131516801D01*
X161433753Y-131517201D01*
X161369864Y-131526606D01*
X161324771Y-131519211D01*
X161320827Y-131517201D01*
X161273265Y-131492967D01*
X161252682Y-131482479D01*
X161252679Y-131482478D01*
X161247406Y-131479791D01*
X161217296Y-131475022D01*
X161155042Y-131465162D01*
X161155040Y-131465162D01*
X161152124Y-131464700D01*
X160488076Y-131464700D01*
X160485160Y-131465162D01*
X160485158Y-131465162D01*
X160398640Y-131478865D01*
X160398639Y-131478865D01*
X160392794Y-131479791D01*
X160379240Y-131486697D01*
X160328185Y-131492967D01*
X160310963Y-131486699D01*
X160297406Y-131479791D01*
X160291561Y-131478865D01*
X160291560Y-131478865D01*
X160205042Y-131465162D01*
X160205040Y-131465162D01*
X160202124Y-131464700D01*
X159538076Y-131464700D01*
X159535160Y-131465162D01*
X159535158Y-131465162D01*
X159472904Y-131475022D01*
X159442794Y-131479791D01*
X159422880Y-131489938D01*
X159352362Y-131525869D01*
X159327949Y-131538308D01*
X159236808Y-131629449D01*
X159234120Y-131634725D01*
X159234119Y-131634726D01*
X159231156Y-131640542D01*
X159178291Y-131744294D01*
X159163200Y-131839576D01*
X159163200Y-133053432D01*
X159145607Y-133101770D01*
X159141174Y-133106606D01*
X159079823Y-133167957D01*
X159033203Y-133189697D01*
X159017746Y-133189454D01*
X159005669Y-133188014D01*
X159001492Y-133188453D01*
X159001489Y-133188453D01*
X158829818Y-133206496D01*
X158829816Y-133206496D01*
X158825634Y-133206936D01*
X158654265Y-133265275D01*
X158650688Y-133267476D01*
X158650683Y-133267478D01*
X158551363Y-133328581D01*
X158500079Y-133360131D01*
X158370740Y-133486788D01*
X158368466Y-133490316D01*
X158368464Y-133490319D01*
X158361195Y-133501599D01*
X158272677Y-133638954D01*
X158210762Y-133809063D01*
X158210235Y-133813237D01*
X158189650Y-133976183D01*
X158188073Y-133988663D01*
X158205738Y-134168826D01*
X158262879Y-134340598D01*
X158281392Y-134371166D01*
X158354477Y-134491845D01*
X158354480Y-134491848D01*
X158356656Y-134495442D01*
X158415526Y-134556403D01*
X158479489Y-134622639D01*
X158479492Y-134622642D01*
X158482408Y-134625661D01*
X158633885Y-134724785D01*
X158637816Y-134726247D01*
X158637818Y-134726248D01*
X158772458Y-134776320D01*
X158803558Y-134787886D01*
X158982995Y-134811828D01*
X158987172Y-134811448D01*
X158987176Y-134811448D01*
X159159095Y-134795802D01*
X159159099Y-134795801D01*
X159163276Y-134795421D01*
X159249757Y-134767322D01*
X159331450Y-134740779D01*
X159331455Y-134740777D01*
X159335443Y-134739481D01*
X159357642Y-134726248D01*
X159487330Y-134648938D01*
X159487331Y-134648937D01*
X159490938Y-134646787D01*
X159622033Y-134521947D01*
X159651203Y-134478043D01*
X159719888Y-134374663D01*
X159719889Y-134374660D01*
X159722211Y-134371166D01*
X159786495Y-134201938D01*
X159788417Y-134188266D01*
X159804408Y-134074479D01*
X159811689Y-134022673D01*
X159812006Y-134000000D01*
X159810010Y-133982210D01*
X159822104Y-133932214D01*
X159831567Y-133920653D01*
X159980026Y-133772194D01*
X160026646Y-133750454D01*
X160076333Y-133763768D01*
X160105838Y-133805905D01*
X160108400Y-133825368D01*
X160108400Y-139094657D01*
X160090807Y-139142995D01*
X160086374Y-139147831D01*
X158388330Y-140845874D01*
X158341710Y-140867614D01*
X158335156Y-140867900D01*
X136635044Y-140867900D01*
X136586706Y-140850307D01*
X136581870Y-140845874D01*
X135937476Y-140201480D01*
X137529301Y-140201480D01*
X137529702Y-140206949D01*
X137538715Y-140268184D01*
X137542141Y-140279209D01*
X137588885Y-140374417D01*
X137596019Y-140384382D01*
X137670820Y-140459051D01*
X137680802Y-140466172D01*
X137776095Y-140512752D01*
X137787109Y-140516156D01*
X137847768Y-140525006D01*
X137853201Y-140525400D01*
X138343441Y-140525400D01*
X138353598Y-140521703D01*
X138356700Y-140516331D01*
X138356700Y-139611259D01*
X138353003Y-139601102D01*
X138347631Y-139598000D01*
X137542560Y-139598000D01*
X137532403Y-139601697D01*
X137529301Y-139607069D01*
X137529301Y-140201480D01*
X135937476Y-140201480D01*
X134965937Y-139229941D01*
X137529300Y-139229941D01*
X137532997Y-139240098D01*
X137538369Y-139243200D01*
X138343441Y-139243200D01*
X138353598Y-139239503D01*
X138356700Y-139234131D01*
X138356700Y-138329060D01*
X138353003Y-138318903D01*
X138347631Y-138315801D01*
X137853220Y-138315801D01*
X137847751Y-138316202D01*
X137786516Y-138325215D01*
X137775491Y-138328641D01*
X137680283Y-138375385D01*
X137670318Y-138382519D01*
X137595649Y-138457320D01*
X137588528Y-138467302D01*
X137541948Y-138562595D01*
X137538544Y-138573609D01*
X137529694Y-138634268D01*
X137529300Y-138639701D01*
X137529300Y-139229941D01*
X134965937Y-139229941D01*
X130438826Y-134702830D01*
X130417086Y-134656210D01*
X130416800Y-134649656D01*
X130416800Y-128583032D01*
X130434393Y-128534694D01*
X130478942Y-128508974D01*
X130508263Y-128510813D01*
X130508336Y-128510314D01*
X130574768Y-128520006D01*
X130580201Y-128520400D01*
X131170441Y-128520400D01*
X131180598Y-128516703D01*
X131183700Y-128511331D01*
X131183700Y-128507140D01*
X131538500Y-128507140D01*
X131542197Y-128517297D01*
X131547569Y-128520399D01*
X132141980Y-128520399D01*
X132147449Y-128519998D01*
X132208684Y-128510985D01*
X132219709Y-128507559D01*
X132314917Y-128460815D01*
X132324882Y-128453681D01*
X132399551Y-128378880D01*
X132406672Y-128368898D01*
X132453252Y-128273605D01*
X132456656Y-128262591D01*
X132465506Y-128201932D01*
X132465900Y-128196499D01*
X132465900Y-127556259D01*
X132462203Y-127546102D01*
X132456831Y-127543000D01*
X131551759Y-127543000D01*
X131541602Y-127546697D01*
X131538500Y-127552069D01*
X131538500Y-128507140D01*
X131183700Y-128507140D01*
X131183700Y-127174941D01*
X131538500Y-127174941D01*
X131542197Y-127185098D01*
X131547569Y-127188200D01*
X132452640Y-127188200D01*
X132462797Y-127184503D01*
X132465899Y-127179131D01*
X132465899Y-126534720D01*
X132465498Y-126529251D01*
X132456485Y-126468016D01*
X132453059Y-126456991D01*
X132406315Y-126361783D01*
X132399181Y-126351818D01*
X132324380Y-126277149D01*
X132314398Y-126270028D01*
X132219105Y-126223448D01*
X132208091Y-126220044D01*
X132147432Y-126211194D01*
X132141999Y-126210800D01*
X131551759Y-126210800D01*
X131541602Y-126214497D01*
X131538500Y-126219869D01*
X131538500Y-127174941D01*
X131183700Y-127174941D01*
X131183700Y-126224060D01*
X131180003Y-126213903D01*
X131174631Y-126210801D01*
X130580220Y-126210801D01*
X130574751Y-126211202D01*
X130507735Y-126221066D01*
X130507526Y-126219644D01*
X130462926Y-126217506D01*
X130425149Y-126182593D01*
X130416800Y-126148154D01*
X130416800Y-123534846D01*
X130434393Y-123486508D01*
X130478942Y-123460788D01*
X130503764Y-123460572D01*
X130576158Y-123472038D01*
X130576160Y-123472038D01*
X130579076Y-123472500D01*
X132143124Y-123472500D01*
X132146040Y-123472038D01*
X132146042Y-123472038D01*
X132208296Y-123462178D01*
X132238406Y-123457409D01*
X132305719Y-123423111D01*
X132347974Y-123401581D01*
X132347975Y-123401580D01*
X132353251Y-123398892D01*
X132444392Y-123307751D01*
X132502909Y-123192906D01*
X132518000Y-123097624D01*
X132518000Y-121433576D01*
X132502909Y-121338294D01*
X132444392Y-121223449D01*
X132353251Y-121132308D01*
X132238406Y-121073791D01*
X132208296Y-121069022D01*
X132146042Y-121059162D01*
X132146040Y-121059162D01*
X132143124Y-121058700D01*
X130579076Y-121058700D01*
X130576160Y-121059162D01*
X130576158Y-121059162D01*
X130503764Y-121070628D01*
X130453269Y-121060813D01*
X130420897Y-121020836D01*
X130416800Y-120996354D01*
X130416800Y-110411576D01*
X133951236Y-110411576D01*
X133952178Y-110415091D01*
X134119492Y-110508601D01*
X134126191Y-110511528D01*
X134308556Y-110570781D01*
X134315692Y-110572350D01*
X134506078Y-110595052D01*
X134513410Y-110595205D01*
X134704573Y-110580496D01*
X134711782Y-110579225D01*
X134896453Y-110527665D01*
X134903286Y-110525014D01*
X135074419Y-110438568D01*
X135080602Y-110434644D01*
X135103084Y-110417079D01*
X135108812Y-110407912D01*
X135108204Y-110403586D01*
X134540477Y-109835858D01*
X134530678Y-109831289D01*
X134524687Y-109832894D01*
X133955805Y-110401777D01*
X133951236Y-110411576D01*
X130416800Y-110411576D01*
X130416800Y-109565028D01*
X133511395Y-109565028D01*
X133527439Y-109756083D01*
X133528761Y-109763285D01*
X133581610Y-109947592D01*
X133584306Y-109954401D01*
X133671947Y-110124931D01*
X133675913Y-110131086D01*
X133689263Y-110147930D01*
X133698468Y-110153593D01*
X133702876Y-110152942D01*
X134270842Y-109584977D01*
X134275017Y-109576022D01*
X134786789Y-109576022D01*
X134788394Y-109582013D01*
X135357233Y-110150851D01*
X135367032Y-110155420D01*
X135368969Y-110154901D01*
X135370745Y-110152950D01*
X135461201Y-109993718D01*
X135464181Y-109987023D01*
X135524700Y-109805098D01*
X135526323Y-109797953D01*
X135550550Y-109606174D01*
X135550843Y-109601979D01*
X135551183Y-109577699D01*
X135551007Y-109573507D01*
X135532144Y-109381126D01*
X135530718Y-109373930D01*
X135475304Y-109190387D01*
X135472516Y-109183622D01*
X135382500Y-109014328D01*
X135378447Y-109008227D01*
X135373759Y-109002478D01*
X135364475Y-108996943D01*
X135359897Y-108997685D01*
X134791358Y-109566223D01*
X134786789Y-109576022D01*
X134275017Y-109576022D01*
X134275411Y-109575178D01*
X134273806Y-109569187D01*
X133705383Y-109000765D01*
X133695584Y-108996196D01*
X133691112Y-108997394D01*
X133687618Y-109002496D01*
X133595253Y-109170508D01*
X133592366Y-109177244D01*
X133534393Y-109360000D01*
X133532870Y-109367165D01*
X133511498Y-109557695D01*
X133511395Y-109565028D01*
X130416800Y-109565028D01*
X130416800Y-108742614D01*
X133952793Y-108742614D01*
X133953488Y-108747106D01*
X134521723Y-109315342D01*
X134531522Y-109319911D01*
X134537513Y-109318306D01*
X135105510Y-108750308D01*
X135110079Y-108740509D01*
X135108855Y-108735941D01*
X135104373Y-108732233D01*
X135098301Y-108728138D01*
X134929645Y-108636946D01*
X134922897Y-108634109D01*
X134739735Y-108577411D01*
X134732565Y-108575940D01*
X134541877Y-108555897D01*
X134534564Y-108555846D01*
X134343609Y-108573224D01*
X134336421Y-108574596D01*
X134152489Y-108628730D01*
X134145702Y-108631472D01*
X133975775Y-108720307D01*
X133969664Y-108724307D01*
X133958392Y-108733369D01*
X133952793Y-108742614D01*
X130416800Y-108742614D01*
X130416800Y-101940626D01*
X133458741Y-101940626D01*
X133459049Y-101944294D01*
X133459049Y-101944297D01*
X133462336Y-101983442D01*
X133476255Y-102149200D01*
X133533948Y-102350400D01*
X133629623Y-102536563D01*
X133759634Y-102700596D01*
X133762428Y-102702974D01*
X133762429Y-102702975D01*
X133809651Y-102743164D01*
X133919030Y-102836253D01*
X133922231Y-102838042D01*
X133922234Y-102838044D01*
X134000500Y-102881785D01*
X134101740Y-102938366D01*
X134300804Y-103003046D01*
X134376339Y-103012053D01*
X134504982Y-103027393D01*
X134504984Y-103027393D01*
X134508640Y-103027829D01*
X134717331Y-103011771D01*
X134720872Y-103010782D01*
X134720874Y-103010782D01*
X134814463Y-102984652D01*
X134865751Y-102988599D01*
X134887859Y-103003908D01*
X139994974Y-108111023D01*
X140016714Y-108157643D01*
X140017000Y-108164197D01*
X140017000Y-113531406D01*
X139999407Y-113579744D01*
X139986001Y-113592244D01*
X139935340Y-113629051D01*
X139932707Y-113631975D01*
X139932704Y-113631978D01*
X139896707Y-113671957D01*
X139806653Y-113771973D01*
X139804684Y-113775383D01*
X139804682Y-113775386D01*
X139749535Y-113870904D01*
X139710493Y-113938527D01*
X139651063Y-114121434D01*
X139650651Y-114125350D01*
X139650651Y-114125352D01*
X139645686Y-114172589D01*
X139630960Y-114312700D01*
X139651063Y-114503966D01*
X139710493Y-114686873D01*
X139725218Y-114712378D01*
X139804682Y-114850014D01*
X139804684Y-114850017D01*
X139806653Y-114853427D01*
X139827652Y-114876749D01*
X139932704Y-114993422D01*
X139932707Y-114993425D01*
X139935340Y-114996349D01*
X140004971Y-115046939D01*
X140087743Y-115107076D01*
X140087746Y-115107078D01*
X140090930Y-115109391D01*
X140266623Y-115187615D01*
X140454740Y-115227600D01*
X140647060Y-115227600D01*
X140835177Y-115187615D01*
X141010870Y-115109391D01*
X141014054Y-115107078D01*
X141014057Y-115107076D01*
X141096829Y-115046939D01*
X141166460Y-114996349D01*
X141169093Y-114993425D01*
X141169096Y-114993422D01*
X141274148Y-114876749D01*
X141295147Y-114853427D01*
X141297116Y-114850017D01*
X141297118Y-114850014D01*
X141376582Y-114712378D01*
X141391307Y-114686873D01*
X141450737Y-114503966D01*
X141470840Y-114312700D01*
X141456114Y-114172589D01*
X141451149Y-114125352D01*
X141451149Y-114125350D01*
X141450737Y-114121434D01*
X141391307Y-113938527D01*
X141352265Y-113870904D01*
X141297118Y-113775386D01*
X141297116Y-113775383D01*
X141295147Y-113771973D01*
X141205093Y-113671957D01*
X141169096Y-113631978D01*
X141169093Y-113631975D01*
X141166460Y-113629051D01*
X141115799Y-113592244D01*
X141087034Y-113549599D01*
X141084800Y-113531406D01*
X141084800Y-107925479D01*
X141084866Y-107922330D01*
X141085227Y-107913709D01*
X141087429Y-107861184D01*
X141077282Y-107817925D01*
X141075994Y-107810970D01*
X141074458Y-107799751D01*
X141069968Y-107766974D01*
X141067934Y-107762274D01*
X141067933Y-107762270D01*
X141062511Y-107749742D01*
X141058313Y-107737048D01*
X141055196Y-107723757D01*
X141055196Y-107723756D01*
X141054026Y-107718769D01*
X141032626Y-107679841D01*
X141029510Y-107673481D01*
X141028767Y-107671763D01*
X141011873Y-107632725D01*
X141000054Y-107618129D01*
X140992604Y-107607041D01*
X140985458Y-107594042D01*
X140985454Y-107594037D01*
X140983555Y-107590582D01*
X140979904Y-107586353D01*
X140977666Y-107583760D01*
X140977658Y-107583752D01*
X140976765Y-107582717D01*
X140951230Y-107557182D01*
X140945963Y-107551333D01*
X140923041Y-107523027D01*
X140919816Y-107519044D01*
X140901719Y-107506183D01*
X140892108Y-107498060D01*
X135604123Y-102210075D01*
X135582383Y-102163455D01*
X135582690Y-102147476D01*
X135602882Y-101987635D01*
X135603146Y-101985545D01*
X135603564Y-101955600D01*
X135603359Y-101953507D01*
X135583499Y-101750958D01*
X135583498Y-101750954D01*
X135583139Y-101747291D01*
X135522642Y-101546916D01*
X135486971Y-101479827D01*
X135426102Y-101365350D01*
X135424378Y-101362107D01*
X135292089Y-101199905D01*
X135130814Y-101066487D01*
X134946697Y-100966935D01*
X134850487Y-100937153D01*
X134750262Y-100906128D01*
X134750258Y-100906127D01*
X134746749Y-100905041D01*
X134603018Y-100889934D01*
X134542242Y-100883546D01*
X134542240Y-100883546D01*
X134538587Y-100883162D01*
X134330140Y-100902132D01*
X134129348Y-100961229D01*
X133943858Y-101058200D01*
X133940999Y-101060499D01*
X133940994Y-101060502D01*
X133783607Y-101187045D01*
X133783603Y-101187049D01*
X133780736Y-101189354D01*
X133778368Y-101192176D01*
X133778367Y-101192177D01*
X133648559Y-101346875D01*
X133648556Y-101346879D01*
X133646195Y-101349693D01*
X133545360Y-101533111D01*
X133544247Y-101536620D01*
X133504242Y-101662734D01*
X133482072Y-101732622D01*
X133458741Y-101940626D01*
X130416800Y-101940626D01*
X130416800Y-99400626D01*
X133458741Y-99400626D01*
X133459049Y-99404294D01*
X133459049Y-99404297D01*
X133462336Y-99443442D01*
X133476255Y-99609200D01*
X133533948Y-99810400D01*
X133629623Y-99996563D01*
X133759634Y-100160596D01*
X133762428Y-100162974D01*
X133762429Y-100162975D01*
X133796825Y-100192248D01*
X133919030Y-100296253D01*
X133922231Y-100298042D01*
X133922234Y-100298044D01*
X134000500Y-100341785D01*
X134101740Y-100398366D01*
X134300804Y-100463046D01*
X134376339Y-100472053D01*
X134504982Y-100487393D01*
X134504984Y-100487393D01*
X134508640Y-100487829D01*
X134717331Y-100471771D01*
X134855105Y-100433304D01*
X134915384Y-100416474D01*
X134915386Y-100416473D01*
X134918929Y-100415484D01*
X135105755Y-100321111D01*
X135117897Y-100311625D01*
X135267794Y-100194513D01*
X135267799Y-100194508D01*
X135270692Y-100192248D01*
X135407458Y-100033803D01*
X135510845Y-99851810D01*
X135558840Y-99707533D01*
X135575751Y-99656697D01*
X135575752Y-99656694D01*
X135576913Y-99653203D01*
X135603146Y-99445545D01*
X135603564Y-99415600D01*
X135583139Y-99207291D01*
X135522642Y-99006916D01*
X135424378Y-98822107D01*
X135292089Y-98659905D01*
X135130814Y-98526487D01*
X134946697Y-98426935D01*
X134897150Y-98411598D01*
X134750262Y-98366128D01*
X134750258Y-98366127D01*
X134746749Y-98365041D01*
X134603018Y-98349934D01*
X134542242Y-98343546D01*
X134542240Y-98343546D01*
X134538587Y-98343162D01*
X134330140Y-98362132D01*
X134129348Y-98421229D01*
X133943858Y-98518200D01*
X133940999Y-98520499D01*
X133940994Y-98520502D01*
X133783607Y-98647045D01*
X133783603Y-98647049D01*
X133780736Y-98649354D01*
X133778368Y-98652176D01*
X133778367Y-98652177D01*
X133648559Y-98806875D01*
X133648556Y-98806879D01*
X133646195Y-98809693D01*
X133545360Y-98993111D01*
X133482072Y-99192622D01*
X133458741Y-99400626D01*
X130416800Y-99400626D01*
X130416800Y-96860626D01*
X133458741Y-96860626D01*
X133459049Y-96864294D01*
X133459049Y-96864297D01*
X133462688Y-96907635D01*
X133476255Y-97069200D01*
X133533948Y-97270400D01*
X133629623Y-97456563D01*
X133759634Y-97620596D01*
X133762428Y-97622974D01*
X133762429Y-97622975D01*
X133796825Y-97652248D01*
X133919030Y-97756253D01*
X133922231Y-97758042D01*
X133922234Y-97758044D01*
X134000500Y-97801785D01*
X134101740Y-97858366D01*
X134300804Y-97923046D01*
X134376339Y-97932053D01*
X134504982Y-97947393D01*
X134504984Y-97947393D01*
X134508640Y-97947829D01*
X134717331Y-97931771D01*
X134848844Y-97895052D01*
X134915384Y-97876474D01*
X134915386Y-97876473D01*
X134918929Y-97875484D01*
X135105755Y-97781111D01*
X135117897Y-97771625D01*
X135267794Y-97654513D01*
X135267799Y-97654508D01*
X135270692Y-97652248D01*
X135407458Y-97493803D01*
X135510845Y-97311810D01*
X135576913Y-97113203D01*
X135603146Y-96905545D01*
X135603433Y-96884977D01*
X135603535Y-96877699D01*
X135603535Y-96877694D01*
X135603564Y-96875600D01*
X135602645Y-96866223D01*
X135583499Y-96670958D01*
X135583498Y-96670954D01*
X135583139Y-96667291D01*
X135522642Y-96466916D01*
X135424378Y-96282107D01*
X135292089Y-96119905D01*
X135285695Y-96114615D01*
X135133645Y-95988829D01*
X135130814Y-95986487D01*
X134946697Y-95886935D01*
X134893145Y-95870358D01*
X134750262Y-95826128D01*
X134750258Y-95826127D01*
X134746749Y-95825041D01*
X134603018Y-95809934D01*
X134542242Y-95803546D01*
X134542240Y-95803546D01*
X134538587Y-95803162D01*
X134330140Y-95822132D01*
X134129348Y-95881229D01*
X133943858Y-95978200D01*
X133940999Y-95980499D01*
X133940994Y-95980502D01*
X133783607Y-96107045D01*
X133783603Y-96107049D01*
X133780736Y-96109354D01*
X133778368Y-96112176D01*
X133778367Y-96112177D01*
X133648559Y-96266875D01*
X133648556Y-96266879D01*
X133646195Y-96269693D01*
X133644424Y-96272915D01*
X133644423Y-96272916D01*
X133547134Y-96449884D01*
X133545360Y-96453111D01*
X133519237Y-96535462D01*
X133492958Y-96618306D01*
X133482072Y-96652622D01*
X133458741Y-96860626D01*
X130416800Y-96860626D01*
X130416800Y-94320626D01*
X133458741Y-94320626D01*
X133459049Y-94324294D01*
X133459049Y-94324297D01*
X133469198Y-94445158D01*
X133476255Y-94529200D01*
X133533948Y-94730400D01*
X133629623Y-94916563D01*
X133759634Y-95080596D01*
X133762428Y-95082974D01*
X133762429Y-95082975D01*
X133796825Y-95112248D01*
X133919030Y-95216253D01*
X133922231Y-95218042D01*
X133922234Y-95218044D01*
X134000500Y-95261785D01*
X134101740Y-95318366D01*
X134300804Y-95383046D01*
X134376339Y-95392053D01*
X134504982Y-95407393D01*
X134504984Y-95407393D01*
X134508640Y-95407829D01*
X134717331Y-95391771D01*
X134838440Y-95357957D01*
X134915384Y-95336474D01*
X134915386Y-95336473D01*
X134918929Y-95335484D01*
X135105755Y-95241111D01*
X135117897Y-95231625D01*
X135267794Y-95114513D01*
X135267799Y-95114508D01*
X135270692Y-95112248D01*
X135407458Y-94953803D01*
X135510845Y-94771810D01*
X135576913Y-94573203D01*
X135603146Y-94365545D01*
X135603370Y-94349474D01*
X135603535Y-94337699D01*
X135603535Y-94337694D01*
X135603564Y-94335600D01*
X135601737Y-94316964D01*
X135583499Y-94130958D01*
X135583498Y-94130954D01*
X135583139Y-94127291D01*
X135522642Y-93926916D01*
X135424378Y-93742107D01*
X135292089Y-93579905D01*
X135130814Y-93446487D01*
X134946697Y-93346935D01*
X134897150Y-93331598D01*
X134750262Y-93286128D01*
X134750258Y-93286127D01*
X134746749Y-93285041D01*
X134603018Y-93269934D01*
X134542242Y-93263546D01*
X134542240Y-93263546D01*
X134538587Y-93263162D01*
X134330140Y-93282132D01*
X134129348Y-93341229D01*
X133943858Y-93438200D01*
X133940999Y-93440499D01*
X133940994Y-93440502D01*
X133783607Y-93567045D01*
X133783603Y-93567049D01*
X133780736Y-93569354D01*
X133778368Y-93572176D01*
X133778367Y-93572177D01*
X133648559Y-93726875D01*
X133648556Y-93726879D01*
X133646195Y-93729693D01*
X133644424Y-93732915D01*
X133644423Y-93732916D01*
X133610362Y-93794873D01*
X133545360Y-93913111D01*
X133482072Y-94112622D01*
X133458741Y-94320626D01*
X130416800Y-94320626D01*
X130416800Y-91780626D01*
X133458741Y-91780626D01*
X133459049Y-91784294D01*
X133459049Y-91784297D01*
X133462688Y-91827635D01*
X133476255Y-91989200D01*
X133477269Y-91992736D01*
X133520138Y-92142237D01*
X133533948Y-92190400D01*
X133629623Y-92376563D01*
X133759634Y-92540596D01*
X133762428Y-92542974D01*
X133762429Y-92542975D01*
X133796825Y-92572248D01*
X133919030Y-92676253D01*
X133922231Y-92678042D01*
X133922234Y-92678044D01*
X134000500Y-92721785D01*
X134101740Y-92778366D01*
X134105241Y-92779504D01*
X134105242Y-92779504D01*
X134117313Y-92783426D01*
X134300804Y-92843046D01*
X134376339Y-92852053D01*
X134504982Y-92867393D01*
X134504984Y-92867393D01*
X134508640Y-92867829D01*
X134717331Y-92851771D01*
X134871770Y-92808651D01*
X134915384Y-92796474D01*
X134915386Y-92796473D01*
X134918929Y-92795484D01*
X135041246Y-92733697D01*
X135102471Y-92702770D01*
X135102472Y-92702769D01*
X135105755Y-92701111D01*
X135126994Y-92684517D01*
X135267794Y-92574513D01*
X135267799Y-92574508D01*
X135270692Y-92572248D01*
X135407458Y-92413803D01*
X135469352Y-92304851D01*
X135509028Y-92235009D01*
X135509029Y-92235007D01*
X135510845Y-92231810D01*
X135576913Y-92033203D01*
X135603146Y-91825545D01*
X135603473Y-91802154D01*
X135603535Y-91797699D01*
X135603535Y-91797694D01*
X135603564Y-91795600D01*
X135583139Y-91587291D01*
X135522642Y-91386916D01*
X135424378Y-91202107D01*
X135292089Y-91039905D01*
X135130814Y-90906487D01*
X134946697Y-90806935D01*
X134897150Y-90791598D01*
X134750262Y-90746128D01*
X134750258Y-90746127D01*
X134746749Y-90745041D01*
X134603018Y-90729934D01*
X134542242Y-90723546D01*
X134542240Y-90723546D01*
X134538587Y-90723162D01*
X134330140Y-90742132D01*
X134129348Y-90801229D01*
X133943858Y-90898200D01*
X133940999Y-90900499D01*
X133940994Y-90900502D01*
X133783607Y-91027045D01*
X133783603Y-91027049D01*
X133780736Y-91029354D01*
X133778368Y-91032176D01*
X133778367Y-91032177D01*
X133648559Y-91186875D01*
X133648556Y-91186879D01*
X133646195Y-91189693D01*
X133644424Y-91192915D01*
X133644423Y-91192916D01*
X133623884Y-91230277D01*
X133545360Y-91373111D01*
X133482072Y-91572622D01*
X133458741Y-91780626D01*
X130416800Y-91780626D01*
X130416800Y-89240626D01*
X133458741Y-89240626D01*
X133459049Y-89244294D01*
X133459049Y-89244297D01*
X133461420Y-89272528D01*
X133476255Y-89449200D01*
X133479225Y-89459559D01*
X133526420Y-89624145D01*
X133533948Y-89650400D01*
X133629623Y-89836563D01*
X133759634Y-90000596D01*
X133762428Y-90002974D01*
X133762429Y-90002975D01*
X133796825Y-90032248D01*
X133919030Y-90136253D01*
X133922231Y-90138042D01*
X133922234Y-90138044D01*
X134000500Y-90181785D01*
X134101740Y-90238366D01*
X134300804Y-90303046D01*
X134376339Y-90312053D01*
X134504982Y-90327393D01*
X134504984Y-90327393D01*
X134508640Y-90327829D01*
X134717331Y-90311771D01*
X134838440Y-90277957D01*
X134915384Y-90256474D01*
X134915386Y-90256473D01*
X134918929Y-90255484D01*
X135105755Y-90161111D01*
X135117897Y-90151625D01*
X135267794Y-90034513D01*
X135267799Y-90034508D01*
X135270692Y-90032248D01*
X135407458Y-89873803D01*
X135487600Y-89732729D01*
X135509028Y-89695009D01*
X135509029Y-89695007D01*
X135510845Y-89691810D01*
X135576913Y-89493203D01*
X135603146Y-89285545D01*
X135603564Y-89255600D01*
X135600789Y-89227295D01*
X135583499Y-89050958D01*
X135583498Y-89050954D01*
X135583139Y-89047291D01*
X135522642Y-88846916D01*
X135509390Y-88821991D01*
X135426102Y-88665350D01*
X135424378Y-88662107D01*
X135292089Y-88499905D01*
X135130814Y-88366487D01*
X134946697Y-88266935D01*
X134878385Y-88245789D01*
X134750262Y-88206128D01*
X134750258Y-88206127D01*
X134746749Y-88205041D01*
X134603018Y-88189934D01*
X134542242Y-88183546D01*
X134542240Y-88183546D01*
X134538587Y-88183162D01*
X134330140Y-88202132D01*
X134129348Y-88261229D01*
X133943858Y-88358200D01*
X133940999Y-88360499D01*
X133940994Y-88360502D01*
X133783607Y-88487045D01*
X133783603Y-88487049D01*
X133780736Y-88489354D01*
X133778368Y-88492176D01*
X133778367Y-88492177D01*
X133648559Y-88646875D01*
X133648556Y-88646879D01*
X133646195Y-88649693D01*
X133644424Y-88652915D01*
X133644423Y-88652916D01*
X133572419Y-88783891D01*
X133545360Y-88833111D01*
X133525089Y-88897013D01*
X133489723Y-89008504D01*
X133482072Y-89032622D01*
X133458741Y-89240626D01*
X130416800Y-89240626D01*
X130416800Y-86700626D01*
X133458741Y-86700626D01*
X133459049Y-86704294D01*
X133459049Y-86704297D01*
X133463967Y-86762867D01*
X133476255Y-86909200D01*
X133533948Y-87110400D01*
X133629623Y-87296563D01*
X133759634Y-87460596D01*
X133762428Y-87462974D01*
X133762429Y-87462975D01*
X133796825Y-87492248D01*
X133919030Y-87596253D01*
X133922231Y-87598042D01*
X133922234Y-87598044D01*
X134000500Y-87641785D01*
X134101740Y-87698366D01*
X134300804Y-87763046D01*
X134376339Y-87772053D01*
X134504982Y-87787393D01*
X134504984Y-87787393D01*
X134508640Y-87787829D01*
X134717331Y-87771771D01*
X134881856Y-87725835D01*
X134915384Y-87716474D01*
X134915386Y-87716473D01*
X134918929Y-87715484D01*
X135105755Y-87621111D01*
X135122517Y-87608015D01*
X135267794Y-87494513D01*
X135267799Y-87494508D01*
X135270692Y-87492248D01*
X135407458Y-87333803D01*
X135510845Y-87151810D01*
X135576913Y-86953203D01*
X135603146Y-86745545D01*
X135603564Y-86715600D01*
X135583139Y-86507291D01*
X135522642Y-86306916D01*
X135424378Y-86122107D01*
X135292089Y-85959905D01*
X135130814Y-85826487D01*
X134946697Y-85726935D01*
X134852890Y-85697897D01*
X134750262Y-85666128D01*
X134750258Y-85666127D01*
X134746749Y-85665041D01*
X134599450Y-85649559D01*
X134542242Y-85643546D01*
X134542240Y-85643546D01*
X134538587Y-85643162D01*
X134330140Y-85662132D01*
X134129348Y-85721229D01*
X133943858Y-85818200D01*
X133940999Y-85820499D01*
X133940994Y-85820502D01*
X133783607Y-85947045D01*
X133783603Y-85947049D01*
X133780736Y-85949354D01*
X133778368Y-85952176D01*
X133778367Y-85952177D01*
X133648559Y-86106875D01*
X133648556Y-86106879D01*
X133646195Y-86109693D01*
X133545360Y-86293111D01*
X133482072Y-86492622D01*
X133458741Y-86700626D01*
X130416800Y-86700626D01*
X130416800Y-84160626D01*
X133458741Y-84160626D01*
X133459049Y-84164294D01*
X133459049Y-84164297D01*
X133462336Y-84203442D01*
X133476255Y-84369200D01*
X133533948Y-84570400D01*
X133629623Y-84756563D01*
X133759634Y-84920596D01*
X133762428Y-84922974D01*
X133762429Y-84922975D01*
X133869862Y-85014407D01*
X133919030Y-85056253D01*
X133922231Y-85058042D01*
X133922234Y-85058044D01*
X133994817Y-85098609D01*
X134101740Y-85158366D01*
X134105241Y-85159504D01*
X134105242Y-85159504D01*
X134141479Y-85171278D01*
X134300804Y-85223046D01*
X134376339Y-85232053D01*
X134504982Y-85247393D01*
X134504984Y-85247393D01*
X134508640Y-85247829D01*
X134717331Y-85231771D01*
X134838440Y-85197957D01*
X134915384Y-85176474D01*
X134915386Y-85176473D01*
X134918929Y-85175484D01*
X135105755Y-85081111D01*
X135134752Y-85058456D01*
X135267794Y-84954513D01*
X135267799Y-84954508D01*
X135270692Y-84952248D01*
X135407458Y-84793803D01*
X135510845Y-84611810D01*
X135561191Y-84460465D01*
X135575751Y-84416697D01*
X135575752Y-84416694D01*
X135576913Y-84413203D01*
X135603146Y-84205545D01*
X135603370Y-84189474D01*
X135603535Y-84177699D01*
X135603535Y-84177694D01*
X135603564Y-84175600D01*
X136151160Y-84175600D01*
X136171263Y-84366866D01*
X136172481Y-84370614D01*
X136172481Y-84370615D01*
X136186319Y-84413203D01*
X136230693Y-84549773D01*
X136326853Y-84716327D01*
X136340085Y-84731023D01*
X136359400Y-84781340D01*
X136359400Y-89228294D01*
X136359226Y-89233409D01*
X136355672Y-89285545D01*
X136355155Y-89293121D01*
X136355935Y-89297590D01*
X136366423Y-89357684D01*
X136366998Y-89361578D01*
X136374868Y-89426611D01*
X136376470Y-89430851D01*
X136376472Y-89430858D01*
X136379018Y-89437594D01*
X136382753Y-89451243D01*
X136384772Y-89462815D01*
X136404562Y-89507897D01*
X136411110Y-89522814D01*
X136412597Y-89526459D01*
X136435757Y-89587749D01*
X136442408Y-89597427D01*
X136449291Y-89609794D01*
X136452186Y-89616391D01*
X136452190Y-89616398D01*
X136454011Y-89620546D01*
X136456770Y-89624142D01*
X136456772Y-89624145D01*
X136474205Y-89646864D01*
X136493910Y-89672544D01*
X136496204Y-89675701D01*
X136533325Y-89729712D01*
X136536710Y-89732728D01*
X136536711Y-89732729D01*
X136581165Y-89772336D01*
X136584314Y-89775309D01*
X137818545Y-91009541D01*
X137822039Y-91013281D01*
X137861382Y-91058381D01*
X137868488Y-91063375D01*
X137915003Y-91096066D01*
X137918157Y-91098408D01*
X137969713Y-91138833D01*
X137973841Y-91140697D01*
X137973843Y-91140698D01*
X137980412Y-91143664D01*
X137992705Y-91150676D01*
X137998601Y-91154820D01*
X137998607Y-91154823D01*
X138002316Y-91157430D01*
X138006540Y-91159077D01*
X138006544Y-91159079D01*
X138063366Y-91181232D01*
X138066996Y-91182758D01*
X138126709Y-91209720D01*
X138138252Y-91211859D01*
X138151867Y-91215737D01*
X138162808Y-91220003D01*
X138227785Y-91228558D01*
X138231644Y-91229169D01*
X138296083Y-91241112D01*
X138300611Y-91240851D01*
X138300613Y-91240851D01*
X138360027Y-91237425D01*
X138364356Y-91237300D01*
X139583794Y-91237300D01*
X139588909Y-91237474D01*
X139644097Y-91241237D01*
X139644101Y-91241237D01*
X139648621Y-91241545D01*
X139653090Y-91240765D01*
X139713184Y-91230277D01*
X139717078Y-91229702D01*
X139757192Y-91224848D01*
X139782111Y-91221832D01*
X139786351Y-91220230D01*
X139786358Y-91220228D01*
X139793094Y-91217682D01*
X139806743Y-91213947D01*
X139818315Y-91211928D01*
X139878342Y-91185578D01*
X139881935Y-91184112D01*
X139943249Y-91160943D01*
X139952927Y-91154292D01*
X139965294Y-91147409D01*
X139971891Y-91144514D01*
X139971898Y-91144510D01*
X139976046Y-91142689D01*
X139979642Y-91139930D01*
X139979645Y-91139928D01*
X140004555Y-91120813D01*
X140028044Y-91102790D01*
X140031201Y-91100496D01*
X140085212Y-91063375D01*
X140113009Y-91032177D01*
X140127836Y-91015535D01*
X140130809Y-91012386D01*
X147461041Y-83682155D01*
X147464781Y-83678661D01*
X147506463Y-83642300D01*
X147506464Y-83642299D01*
X147509881Y-83639318D01*
X147524439Y-83618604D01*
X147547566Y-83585697D01*
X147549913Y-83582536D01*
X147590333Y-83530987D01*
X147595164Y-83520288D01*
X147602176Y-83507995D01*
X147606320Y-83502099D01*
X147606323Y-83502093D01*
X147608930Y-83498384D01*
X147610577Y-83494160D01*
X147610579Y-83494156D01*
X147632732Y-83437334D01*
X147634258Y-83433704D01*
X147639201Y-83422757D01*
X147661220Y-83373991D01*
X147663359Y-83362447D01*
X147667237Y-83348833D01*
X147669858Y-83342111D01*
X147671503Y-83337892D01*
X147680058Y-83272915D01*
X147680669Y-83269056D01*
X147692612Y-83204617D01*
X147691593Y-83186935D01*
X147688925Y-83140673D01*
X147688800Y-83136344D01*
X147688800Y-82241340D01*
X147708115Y-82191023D01*
X147721347Y-82176327D01*
X147817507Y-82009773D01*
X147861881Y-81873203D01*
X147875719Y-81830615D01*
X147875719Y-81830614D01*
X147876937Y-81826866D01*
X147897040Y-81635600D01*
X147895466Y-81620626D01*
X148698741Y-81620626D01*
X148699049Y-81624294D01*
X148699049Y-81624297D01*
X148702336Y-81663442D01*
X148716255Y-81829200D01*
X148773948Y-82030400D01*
X148869623Y-82216563D01*
X148999634Y-82380596D01*
X149002428Y-82382974D01*
X149002429Y-82382975D01*
X149036825Y-82412248D01*
X149159030Y-82516253D01*
X149162231Y-82518042D01*
X149162234Y-82518044D01*
X149240500Y-82561785D01*
X149341740Y-82618366D01*
X149540804Y-82683046D01*
X149655500Y-82696723D01*
X149744982Y-82707393D01*
X149744984Y-82707393D01*
X149748640Y-82707829D01*
X149957331Y-82691771D01*
X150078440Y-82657957D01*
X150155384Y-82636474D01*
X150155386Y-82636473D01*
X150158929Y-82635484D01*
X150345755Y-82541111D01*
X150357897Y-82531625D01*
X150507794Y-82414513D01*
X150507799Y-82414508D01*
X150510692Y-82412248D01*
X150647458Y-82253803D01*
X150750845Y-82071810D01*
X150816913Y-81873203D01*
X150843146Y-81665545D01*
X150843370Y-81649474D01*
X150843535Y-81637699D01*
X150843535Y-81637694D01*
X150843564Y-81635600D01*
X150841737Y-81616964D01*
X150823499Y-81430958D01*
X150823498Y-81430954D01*
X150823139Y-81427291D01*
X150762642Y-81226916D01*
X150664378Y-81042107D01*
X150532089Y-80879905D01*
X150370814Y-80746487D01*
X150186697Y-80646935D01*
X150137150Y-80631598D01*
X149990262Y-80586128D01*
X149990258Y-80586127D01*
X149986749Y-80585041D01*
X149843018Y-80569934D01*
X149782242Y-80563546D01*
X149782240Y-80563546D01*
X149778587Y-80563162D01*
X149570140Y-80582132D01*
X149369348Y-80641229D01*
X149183858Y-80738200D01*
X149180999Y-80740499D01*
X149180994Y-80740502D01*
X149023607Y-80867045D01*
X149023603Y-80867049D01*
X149020736Y-80869354D01*
X149018368Y-80872176D01*
X149018367Y-80872177D01*
X148888559Y-81026875D01*
X148888556Y-81026879D01*
X148886195Y-81029693D01*
X148884424Y-81032915D01*
X148884423Y-81032916D01*
X148850362Y-81094873D01*
X148785360Y-81213111D01*
X148722072Y-81412622D01*
X148698741Y-81620626D01*
X147895466Y-81620626D01*
X147876937Y-81444334D01*
X147871400Y-81427291D01*
X147818725Y-81265176D01*
X147817507Y-81261427D01*
X147787749Y-81209884D01*
X147723318Y-81098286D01*
X147723316Y-81098283D01*
X147721347Y-81094873D01*
X147660122Y-81026875D01*
X147595296Y-80954878D01*
X147595293Y-80954875D01*
X147592660Y-80951951D01*
X147482860Y-80872177D01*
X147440257Y-80841224D01*
X147440254Y-80841222D01*
X147437070Y-80838909D01*
X147261377Y-80760685D01*
X147073260Y-80720700D01*
X146880940Y-80720700D01*
X146692823Y-80760685D01*
X146517130Y-80838909D01*
X146513946Y-80841222D01*
X146513943Y-80841224D01*
X146471340Y-80872177D01*
X146361540Y-80951951D01*
X146358907Y-80954875D01*
X146358904Y-80954878D01*
X146294078Y-81026875D01*
X146232853Y-81094873D01*
X146230884Y-81098283D01*
X146230882Y-81098286D01*
X146166451Y-81209884D01*
X146136693Y-81261427D01*
X146135475Y-81265176D01*
X146082801Y-81427291D01*
X146077263Y-81444334D01*
X146057160Y-81635600D01*
X146077263Y-81826866D01*
X146078481Y-81830614D01*
X146078481Y-81830615D01*
X146092319Y-81873203D01*
X146136693Y-82009773D01*
X146232853Y-82176327D01*
X146246085Y-82191023D01*
X146265400Y-82241340D01*
X146265400Y-82833657D01*
X146247807Y-82881995D01*
X146243374Y-82886831D01*
X139338330Y-89791874D01*
X139291710Y-89813614D01*
X139285156Y-89813900D01*
X138667044Y-89813900D01*
X138618706Y-89796307D01*
X138613870Y-89791874D01*
X137804826Y-88982830D01*
X137783086Y-88936210D01*
X137782800Y-88929656D01*
X137782800Y-84781340D01*
X137802115Y-84731023D01*
X137815347Y-84716327D01*
X137911507Y-84549773D01*
X137955881Y-84413203D01*
X137969719Y-84370615D01*
X137969719Y-84370614D01*
X137970937Y-84366866D01*
X137991040Y-84175600D01*
X137970937Y-83984334D01*
X137965400Y-83967291D01*
X137912725Y-83805176D01*
X137911507Y-83801427D01*
X137881749Y-83749884D01*
X137817318Y-83638286D01*
X137817316Y-83638283D01*
X137815347Y-83634873D01*
X137721808Y-83530987D01*
X137689296Y-83494878D01*
X137689293Y-83494875D01*
X137686660Y-83491951D01*
X137576860Y-83412177D01*
X137534257Y-83381224D01*
X137534254Y-83381222D01*
X137531070Y-83378909D01*
X137355377Y-83300685D01*
X137167260Y-83260700D01*
X136974940Y-83260700D01*
X136786823Y-83300685D01*
X136611130Y-83378909D01*
X136607946Y-83381222D01*
X136607943Y-83381224D01*
X136565340Y-83412177D01*
X136455540Y-83491951D01*
X136452907Y-83494875D01*
X136452904Y-83494878D01*
X136420392Y-83530987D01*
X136326853Y-83634873D01*
X136324884Y-83638283D01*
X136324882Y-83638286D01*
X136260451Y-83749884D01*
X136230693Y-83801427D01*
X136229475Y-83805176D01*
X136176801Y-83967291D01*
X136171263Y-83984334D01*
X136151160Y-84175600D01*
X135603564Y-84175600D01*
X135601737Y-84156964D01*
X135583499Y-83970958D01*
X135583498Y-83970954D01*
X135583139Y-83967291D01*
X135522642Y-83766916D01*
X135424378Y-83582107D01*
X135292089Y-83419905D01*
X135130814Y-83286487D01*
X134946697Y-83186935D01*
X134897150Y-83171598D01*
X134750262Y-83126128D01*
X134750258Y-83126127D01*
X134746749Y-83125041D01*
X134603018Y-83109934D01*
X134542242Y-83103546D01*
X134542240Y-83103546D01*
X134538587Y-83103162D01*
X134330140Y-83122132D01*
X134129348Y-83181229D01*
X133943858Y-83278200D01*
X133940999Y-83280499D01*
X133940994Y-83280502D01*
X133783607Y-83407045D01*
X133783603Y-83407049D01*
X133780736Y-83409354D01*
X133778368Y-83412176D01*
X133778367Y-83412177D01*
X133648559Y-83566875D01*
X133648556Y-83566879D01*
X133646195Y-83569693D01*
X133644424Y-83572915D01*
X133644423Y-83572916D01*
X133610362Y-83634873D01*
X133545360Y-83753111D01*
X133482072Y-83952622D01*
X133458741Y-84160626D01*
X130416800Y-84160626D01*
X130416800Y-81620626D01*
X133458741Y-81620626D01*
X133459049Y-81624294D01*
X133459049Y-81624297D01*
X133462336Y-81663442D01*
X133476255Y-81829200D01*
X133533948Y-82030400D01*
X133629623Y-82216563D01*
X133759634Y-82380596D01*
X133762428Y-82382974D01*
X133762429Y-82382975D01*
X133796825Y-82412248D01*
X133919030Y-82516253D01*
X133922231Y-82518042D01*
X133922234Y-82518044D01*
X134000500Y-82561785D01*
X134101740Y-82618366D01*
X134300804Y-82683046D01*
X134415500Y-82696723D01*
X134504982Y-82707393D01*
X134504984Y-82707393D01*
X134508640Y-82707829D01*
X134717331Y-82691771D01*
X134838440Y-82657957D01*
X134915384Y-82636474D01*
X134915386Y-82636473D01*
X134918929Y-82635484D01*
X135105755Y-82541111D01*
X135117897Y-82531625D01*
X135267794Y-82414513D01*
X135267799Y-82414508D01*
X135270692Y-82412248D01*
X135407458Y-82253803D01*
X135510845Y-82071810D01*
X135576913Y-81873203D01*
X135603146Y-81665545D01*
X135603370Y-81649474D01*
X135603535Y-81637699D01*
X135603535Y-81637694D01*
X135603564Y-81635600D01*
X135601737Y-81616964D01*
X135583499Y-81430958D01*
X135583498Y-81430954D01*
X135583139Y-81427291D01*
X135522642Y-81226916D01*
X135424378Y-81042107D01*
X135292089Y-80879905D01*
X135130814Y-80746487D01*
X134946697Y-80646935D01*
X134897150Y-80631598D01*
X134750262Y-80586128D01*
X134750258Y-80586127D01*
X134746749Y-80585041D01*
X134603018Y-80569934D01*
X134542242Y-80563546D01*
X134542240Y-80563546D01*
X134538587Y-80563162D01*
X134330140Y-80582132D01*
X134129348Y-80641229D01*
X133943858Y-80738200D01*
X133940999Y-80740499D01*
X133940994Y-80740502D01*
X133783607Y-80867045D01*
X133783603Y-80867049D01*
X133780736Y-80869354D01*
X133778368Y-80872176D01*
X133778367Y-80872177D01*
X133648559Y-81026875D01*
X133648556Y-81026879D01*
X133646195Y-81029693D01*
X133644424Y-81032915D01*
X133644423Y-81032916D01*
X133610362Y-81094873D01*
X133545360Y-81213111D01*
X133482072Y-81412622D01*
X133458741Y-81620626D01*
X130416800Y-81620626D01*
X130416800Y-80437543D01*
X130434393Y-80389205D01*
X130438826Y-80384369D01*
X132263870Y-78559326D01*
X132310490Y-78537586D01*
X132317044Y-78537300D01*
X133492867Y-78537300D01*
X133541205Y-78554893D01*
X133566925Y-78599442D01*
X133558765Y-78648727D01*
X133545360Y-78673111D01*
X133482072Y-78872622D01*
X133458741Y-79080626D01*
X133459049Y-79084294D01*
X133459049Y-79084297D01*
X133462336Y-79123442D01*
X133476255Y-79289200D01*
X133533948Y-79490400D01*
X133629623Y-79676563D01*
X133759634Y-79840596D01*
X133762428Y-79842974D01*
X133762429Y-79842975D01*
X133855714Y-79922367D01*
X133919030Y-79976253D01*
X133922231Y-79978042D01*
X133922234Y-79978044D01*
X134000500Y-80021785D01*
X134101740Y-80078366D01*
X134300804Y-80143046D01*
X134376339Y-80152053D01*
X134504982Y-80167393D01*
X134504984Y-80167393D01*
X134508640Y-80167829D01*
X134717331Y-80151771D01*
X134838440Y-80117957D01*
X134915384Y-80096474D01*
X134915386Y-80096473D01*
X134918929Y-80095484D01*
X135105755Y-80001111D01*
X135117897Y-79991625D01*
X135267794Y-79874513D01*
X135267799Y-79874508D01*
X135270692Y-79872248D01*
X135407458Y-79713803D01*
X135510845Y-79531810D01*
X135576913Y-79333203D01*
X135603146Y-79125545D01*
X135603564Y-79095600D01*
X135593538Y-78993343D01*
X135583499Y-78890958D01*
X135583498Y-78890954D01*
X135583139Y-78887291D01*
X135522642Y-78686916D01*
X135501846Y-78647804D01*
X135494687Y-78596865D01*
X135521947Y-78553241D01*
X135568244Y-78537300D01*
X137866716Y-78537300D01*
X137910917Y-78551662D01*
X137936765Y-78570441D01*
X138004943Y-78619976D01*
X138004946Y-78619978D01*
X138008130Y-78622291D01*
X138183823Y-78700515D01*
X138355951Y-78737101D01*
X138393489Y-78757484D01*
X138877374Y-79241370D01*
X138899114Y-79287990D01*
X138899400Y-79294544D01*
X138899400Y-87379860D01*
X138880085Y-87430177D01*
X138866853Y-87444873D01*
X138770693Y-87611427D01*
X138743028Y-87696571D01*
X138713377Y-87787829D01*
X138711263Y-87794334D01*
X138710851Y-87798250D01*
X138710851Y-87798252D01*
X138705042Y-87853523D01*
X138691160Y-87985600D01*
X138691572Y-87989520D01*
X138709155Y-88156806D01*
X138711263Y-88176866D01*
X138712481Y-88180614D01*
X138712481Y-88180615D01*
X138733657Y-88245789D01*
X138770693Y-88359773D01*
X138785418Y-88385278D01*
X138864882Y-88522914D01*
X138864884Y-88522917D01*
X138866853Y-88526327D01*
X138869488Y-88529253D01*
X138992904Y-88666322D01*
X138992907Y-88666325D01*
X138995540Y-88669249D01*
X139051171Y-88709667D01*
X139147943Y-88779976D01*
X139147946Y-88779978D01*
X139151130Y-88782291D01*
X139326823Y-88860515D01*
X139514940Y-88900500D01*
X139707260Y-88900500D01*
X139895377Y-88860515D01*
X140071070Y-88782291D01*
X140074254Y-88779978D01*
X140074257Y-88779976D01*
X140171029Y-88709667D01*
X140226660Y-88669249D01*
X140229293Y-88666325D01*
X140229296Y-88666322D01*
X140352712Y-88529253D01*
X140355347Y-88526327D01*
X140357316Y-88522917D01*
X140357318Y-88522914D01*
X140436782Y-88385278D01*
X140451507Y-88359773D01*
X140488543Y-88245789D01*
X140509719Y-88180615D01*
X140509719Y-88180614D01*
X140510937Y-88176866D01*
X140513046Y-88156806D01*
X140530628Y-87989520D01*
X140531040Y-87985600D01*
X140517158Y-87853523D01*
X140511349Y-87798252D01*
X140511349Y-87798250D01*
X140510937Y-87794334D01*
X140508824Y-87787829D01*
X140479172Y-87696571D01*
X140451507Y-87611427D01*
X140355347Y-87444873D01*
X140342115Y-87430177D01*
X140322800Y-87379860D01*
X140322800Y-78995906D01*
X140322974Y-78990791D01*
X140326737Y-78935603D01*
X140326737Y-78935599D01*
X140327045Y-78931079D01*
X140326265Y-78926610D01*
X140315777Y-78866516D01*
X140315202Y-78862622D01*
X140307877Y-78802094D01*
X140307332Y-78797589D01*
X140305730Y-78793349D01*
X140305728Y-78793342D01*
X140303182Y-78786606D01*
X140299447Y-78772957D01*
X140297428Y-78761385D01*
X140295607Y-78757237D01*
X140295606Y-78757233D01*
X140271091Y-78701386D01*
X140269604Y-78697742D01*
X140248046Y-78640692D01*
X140248044Y-78640689D01*
X140246443Y-78636451D01*
X140243876Y-78632716D01*
X140243874Y-78632712D01*
X140239789Y-78626768D01*
X140232909Y-78614407D01*
X140230010Y-78607804D01*
X140230009Y-78607803D01*
X140228188Y-78603654D01*
X140224957Y-78599442D01*
X140188302Y-78551673D01*
X140185988Y-78548488D01*
X140178496Y-78537586D01*
X140159811Y-78510400D01*
X140151443Y-78498224D01*
X140151442Y-78498222D01*
X140148875Y-78494488D01*
X140119677Y-78468473D01*
X140101035Y-78451864D01*
X140097886Y-78448891D01*
X139396705Y-77747709D01*
X139375091Y-77702396D01*
X139368349Y-77638252D01*
X139368349Y-77638250D01*
X139367937Y-77634334D01*
X139365824Y-77627829D01*
X139331790Y-77523086D01*
X139308507Y-77451427D01*
X139243485Y-77338805D01*
X139214318Y-77288286D01*
X139214316Y-77288283D01*
X139212347Y-77284873D01*
X139127155Y-77190257D01*
X139086296Y-77144878D01*
X139086293Y-77144875D01*
X139083660Y-77141951D01*
X139014029Y-77091361D01*
X138931257Y-77031224D01*
X138931254Y-77031222D01*
X138928070Y-77028909D01*
X138752377Y-76950685D01*
X138564260Y-76910700D01*
X138371940Y-76910700D01*
X138183823Y-76950685D01*
X138008130Y-77028909D01*
X138004946Y-77031222D01*
X138004943Y-77031224D01*
X137910917Y-77099538D01*
X137866716Y-77113900D01*
X135570695Y-77113900D01*
X135522357Y-77096307D01*
X135496637Y-77051758D01*
X135505309Y-77001555D01*
X135509028Y-76995009D01*
X135509029Y-76995007D01*
X135510845Y-76991810D01*
X135566435Y-76824701D01*
X135575751Y-76796697D01*
X135575752Y-76796694D01*
X135576913Y-76793203D01*
X135603146Y-76585545D01*
X135603564Y-76555600D01*
X135597892Y-76497751D01*
X135583499Y-76350958D01*
X135583498Y-76350954D01*
X135583139Y-76347291D01*
X135522642Y-76146916D01*
X135424378Y-75962107D01*
X135292089Y-75799905D01*
X135130814Y-75666487D01*
X134946697Y-75566935D01*
X134878385Y-75545789D01*
X134750262Y-75506128D01*
X134750258Y-75506127D01*
X134746749Y-75505041D01*
X134603018Y-75489934D01*
X134542242Y-75483546D01*
X134542240Y-75483546D01*
X134538587Y-75483162D01*
X134528753Y-75484057D01*
X134333796Y-75501799D01*
X134333793Y-75501800D01*
X134330140Y-75502132D01*
X134326615Y-75503169D01*
X134323002Y-75503859D01*
X134322791Y-75502751D01*
X134275776Y-75499794D01*
X134252706Y-75484057D01*
X133563026Y-74794378D01*
X133541286Y-74747758D01*
X133541000Y-74741204D01*
X133541000Y-74700694D01*
X133558593Y-74652356D01*
X133603142Y-74626636D01*
X133653800Y-74635569D01*
X133675134Y-74653984D01*
X133759634Y-74760596D01*
X133762428Y-74762974D01*
X133762429Y-74762975D01*
X133799486Y-74794513D01*
X133919030Y-74896253D01*
X133922231Y-74898042D01*
X133922234Y-74898044D01*
X134000500Y-74941785D01*
X134101740Y-74998366D01*
X134300804Y-75063046D01*
X134376339Y-75072053D01*
X134504982Y-75087393D01*
X134504984Y-75087393D01*
X134508640Y-75087829D01*
X134717331Y-75071771D01*
X134838440Y-75037957D01*
X134915384Y-75016474D01*
X134915386Y-75016473D01*
X134918929Y-75015484D01*
X135004289Y-74972366D01*
X135102471Y-74922770D01*
X135102472Y-74922769D01*
X135105755Y-74921111D01*
X135124317Y-74906609D01*
X135267794Y-74794513D01*
X135267799Y-74794508D01*
X135270692Y-74792248D01*
X135407458Y-74633803D01*
X135475021Y-74514872D01*
X135509028Y-74455009D01*
X135509029Y-74455007D01*
X135510845Y-74451810D01*
X135576913Y-74253203D01*
X135603146Y-74045545D01*
X135603564Y-74015600D01*
X135583139Y-73807291D01*
X135522642Y-73606916D01*
X135424378Y-73422107D01*
X135292089Y-73259905D01*
X135130814Y-73126487D01*
X134946697Y-73026935D01*
X134897150Y-73011598D01*
X134750262Y-72966128D01*
X134750258Y-72966127D01*
X134746749Y-72965041D01*
X134603018Y-72949934D01*
X134542242Y-72943546D01*
X134542240Y-72943546D01*
X134538587Y-72943162D01*
X134489140Y-72947662D01*
X134333796Y-72961799D01*
X134333793Y-72961800D01*
X134330140Y-72962132D01*
X134307488Y-72968799D01*
X134256149Y-72965570D01*
X134233081Y-72949833D01*
X134020226Y-72736978D01*
X133998486Y-72690358D01*
X133998200Y-72683804D01*
X133998200Y-72527656D01*
X134015793Y-72479318D01*
X134060342Y-72453598D01*
X134101687Y-72458528D01*
X134101740Y-72458366D01*
X134300804Y-72523046D01*
X134376339Y-72532053D01*
X134504982Y-72547393D01*
X134504984Y-72547393D01*
X134508640Y-72547829D01*
X134717331Y-72531771D01*
X134838440Y-72497957D01*
X134915384Y-72476474D01*
X134915386Y-72476473D01*
X134918929Y-72475484D01*
X135063493Y-72402459D01*
X135102471Y-72382770D01*
X135102472Y-72382769D01*
X135105755Y-72381111D01*
X135117897Y-72371625D01*
X135267794Y-72254513D01*
X135267799Y-72254508D01*
X135270692Y-72252248D01*
X135407458Y-72093803D01*
X135408534Y-72091908D01*
X135450420Y-72062795D01*
X135469632Y-72060300D01*
X148312272Y-72060300D01*
X148360610Y-72077893D01*
X148386330Y-72122442D01*
X148377397Y-72173100D01*
X148356473Y-72196338D01*
X148279240Y-72252451D01*
X148276607Y-72255375D01*
X148276604Y-72255378D01*
X148264115Y-72269249D01*
X148150553Y-72395373D01*
X148148584Y-72398783D01*
X148148582Y-72398786D01*
X148114184Y-72458366D01*
X148054393Y-72561927D01*
X148053175Y-72565676D01*
X147997516Y-72736978D01*
X147994963Y-72744834D01*
X147994551Y-72748750D01*
X147994551Y-72748752D01*
X147975272Y-72932180D01*
X147974860Y-72936100D01*
X147994963Y-73127366D01*
X148054393Y-73310273D01*
X148150553Y-73476827D01*
X148153193Y-73479759D01*
X148227284Y-73562045D01*
X148246600Y-73612364D01*
X148246600Y-78066021D01*
X148246534Y-78069169D01*
X148243971Y-78130317D01*
X148245141Y-78135304D01*
X148245141Y-78135307D01*
X148254114Y-78173563D01*
X148255405Y-78180529D01*
X148258722Y-78204740D01*
X148261432Y-78224526D01*
X148268892Y-78241763D01*
X148273087Y-78254450D01*
X148277374Y-78272731D01*
X148279844Y-78277224D01*
X148298774Y-78311659D01*
X148301887Y-78318012D01*
X148319527Y-78358775D01*
X148331346Y-78373371D01*
X148338796Y-78384459D01*
X148345945Y-78397463D01*
X148345947Y-78397466D01*
X148347845Y-78400918D01*
X148350417Y-78403897D01*
X148350420Y-78403902D01*
X148353724Y-78407729D01*
X148354635Y-78408784D01*
X148380174Y-78434323D01*
X148385440Y-78440171D01*
X148411584Y-78472456D01*
X148415758Y-78475422D01*
X148415764Y-78475428D01*
X148429674Y-78485313D01*
X148439286Y-78493435D01*
X148586544Y-78640692D01*
X148712957Y-78767105D01*
X148734697Y-78813726D01*
X148731463Y-78843018D01*
X148722072Y-78872622D01*
X148698741Y-79080626D01*
X148699049Y-79084294D01*
X148699049Y-79084297D01*
X148702336Y-79123442D01*
X148716255Y-79289200D01*
X148773948Y-79490400D01*
X148869623Y-79676563D01*
X148999634Y-79840596D01*
X149002428Y-79842974D01*
X149002429Y-79842975D01*
X149095714Y-79922367D01*
X149159030Y-79976253D01*
X149162231Y-79978042D01*
X149162234Y-79978044D01*
X149240500Y-80021785D01*
X149341740Y-80078366D01*
X149540804Y-80143046D01*
X149616339Y-80152053D01*
X149744982Y-80167393D01*
X149744984Y-80167393D01*
X149748640Y-80167829D01*
X149957331Y-80151771D01*
X150078440Y-80117957D01*
X150155384Y-80096474D01*
X150155386Y-80096473D01*
X150158929Y-80095484D01*
X150345755Y-80001111D01*
X150357897Y-79991625D01*
X150507794Y-79874513D01*
X150507799Y-79874508D01*
X150510692Y-79872248D01*
X150647458Y-79713803D01*
X150750845Y-79531810D01*
X150816913Y-79333203D01*
X150843146Y-79125545D01*
X150843564Y-79095600D01*
X150833538Y-78993343D01*
X150823499Y-78890958D01*
X150823498Y-78890954D01*
X150823139Y-78887291D01*
X150762642Y-78686916D01*
X150738065Y-78640692D01*
X150694802Y-78559326D01*
X150664378Y-78502107D01*
X150532089Y-78339905D01*
X150370814Y-78206487D01*
X150333812Y-78186480D01*
X151206301Y-78186480D01*
X151206702Y-78191949D01*
X151215715Y-78253184D01*
X151219141Y-78264209D01*
X151265885Y-78359417D01*
X151273019Y-78369382D01*
X151347820Y-78444051D01*
X151357802Y-78451172D01*
X151453095Y-78497752D01*
X151464109Y-78501156D01*
X151524768Y-78510006D01*
X151530201Y-78510400D01*
X152120441Y-78510400D01*
X152130598Y-78506703D01*
X152133700Y-78501331D01*
X152133700Y-78497140D01*
X152488500Y-78497140D01*
X152492197Y-78507297D01*
X152497569Y-78510399D01*
X153091980Y-78510399D01*
X153097449Y-78509998D01*
X153158684Y-78500985D01*
X153169709Y-78497559D01*
X153264917Y-78450815D01*
X153274882Y-78443681D01*
X153349551Y-78368880D01*
X153356672Y-78358898D01*
X153403252Y-78263605D01*
X153406656Y-78252591D01*
X153415506Y-78191932D01*
X153415900Y-78186499D01*
X153415900Y-77696259D01*
X153412203Y-77686102D01*
X153406831Y-77683000D01*
X152501759Y-77683000D01*
X152491602Y-77686697D01*
X152488500Y-77692069D01*
X152488500Y-78497140D01*
X152133700Y-78497140D01*
X152133700Y-77696259D01*
X152130003Y-77686102D01*
X152124631Y-77683000D01*
X151219560Y-77683000D01*
X151209403Y-77686697D01*
X151206301Y-77692069D01*
X151206301Y-78186480D01*
X150333812Y-78186480D01*
X150186697Y-78106935D01*
X150064698Y-78069170D01*
X149990262Y-78046128D01*
X149990258Y-78046127D01*
X149986749Y-78045041D01*
X149843018Y-78029934D01*
X149782242Y-78023546D01*
X149782240Y-78023546D01*
X149778587Y-78023162D01*
X149570140Y-78042132D01*
X149557297Y-78045912D01*
X149505959Y-78042681D01*
X149482893Y-78026945D01*
X149336426Y-77880478D01*
X149314686Y-77833858D01*
X149314400Y-77827304D01*
X149314400Y-77632986D01*
X149331993Y-77584648D01*
X149376542Y-77558928D01*
X149412837Y-77561467D01*
X149540804Y-77603046D01*
X149616339Y-77612053D01*
X149744982Y-77627393D01*
X149744984Y-77627393D01*
X149748640Y-77627829D01*
X149957331Y-77611771D01*
X150078440Y-77577957D01*
X150155384Y-77556474D01*
X150155386Y-77556473D01*
X150158929Y-77555484D01*
X150345755Y-77461111D01*
X150362517Y-77448015D01*
X150507794Y-77334513D01*
X150507799Y-77334508D01*
X150510692Y-77332248D01*
X150647458Y-77173803D01*
X150750845Y-76991810D01*
X150806435Y-76824701D01*
X150815751Y-76796697D01*
X150815752Y-76796694D01*
X150816913Y-76793203D01*
X150843146Y-76585545D01*
X150843564Y-76555600D01*
X150837892Y-76497751D01*
X150823499Y-76350958D01*
X150823498Y-76350954D01*
X150823139Y-76347291D01*
X150762642Y-76146916D01*
X150664378Y-75962107D01*
X150532089Y-75799905D01*
X150370814Y-75666487D01*
X150186697Y-75566935D01*
X150118385Y-75545789D01*
X149990262Y-75506128D01*
X149990258Y-75506127D01*
X149986749Y-75505041D01*
X149843018Y-75489934D01*
X149782242Y-75483546D01*
X149782240Y-75483546D01*
X149778587Y-75483162D01*
X149570140Y-75502132D01*
X149498849Y-75523114D01*
X149410832Y-75549019D01*
X149359494Y-75545789D01*
X149322242Y-75510316D01*
X149314400Y-75476879D01*
X149314400Y-75092986D01*
X149331993Y-75044648D01*
X149376542Y-75018928D01*
X149412837Y-75021467D01*
X149540804Y-75063046D01*
X149616339Y-75072053D01*
X149744982Y-75087393D01*
X149744984Y-75087393D01*
X149748640Y-75087829D01*
X149957331Y-75071771D01*
X150078440Y-75037957D01*
X150155384Y-75016474D01*
X150155386Y-75016473D01*
X150158929Y-75015484D01*
X150244289Y-74972366D01*
X150342471Y-74922770D01*
X150342472Y-74922769D01*
X150345755Y-74921111D01*
X150364317Y-74906609D01*
X150507794Y-74794513D01*
X150507799Y-74794508D01*
X150510692Y-74792248D01*
X150647458Y-74633803D01*
X150651530Y-74626636D01*
X150692656Y-74554241D01*
X150731829Y-74520901D01*
X150783268Y-74520542D01*
X150811216Y-74538211D01*
X151132994Y-74859989D01*
X151154734Y-74906609D01*
X151154788Y-74919067D01*
X151154663Y-74920651D01*
X151154200Y-74923576D01*
X151154200Y-76287624D01*
X151169291Y-76382906D01*
X151227808Y-76497751D01*
X151269341Y-76539284D01*
X151291081Y-76585904D01*
X151277767Y-76635591D01*
X151275630Y-76638140D01*
X151265528Y-76652302D01*
X151218948Y-76747595D01*
X151215544Y-76758609D01*
X151206694Y-76819268D01*
X151206300Y-76824701D01*
X151206300Y-77314941D01*
X151209997Y-77325098D01*
X151215369Y-77328200D01*
X153402640Y-77328200D01*
X153412797Y-77324503D01*
X153415899Y-77319131D01*
X153415899Y-76824720D01*
X153415498Y-76819251D01*
X153406485Y-76758016D01*
X153403059Y-76746991D01*
X153356316Y-76651786D01*
X153345560Y-76636763D01*
X153348019Y-76635003D01*
X153331196Y-76599004D01*
X153344468Y-76549305D01*
X153352930Y-76539213D01*
X153394392Y-76497751D01*
X153452909Y-76382906D01*
X153468000Y-76287624D01*
X153468000Y-74923576D01*
X153452909Y-74828294D01*
X153416948Y-74757718D01*
X153397081Y-74718726D01*
X153397080Y-74718725D01*
X153394392Y-74713449D01*
X153303251Y-74622308D01*
X153188406Y-74563791D01*
X153128109Y-74554241D01*
X153096042Y-74549162D01*
X153096040Y-74549162D01*
X153093124Y-74548700D01*
X152867652Y-74548700D01*
X152817627Y-74529647D01*
X152801044Y-74514872D01*
X152797895Y-74511899D01*
X151266826Y-72980830D01*
X151245086Y-72934210D01*
X151244800Y-72927656D01*
X151244800Y-72450797D01*
X151262393Y-72402459D01*
X151306942Y-72376739D01*
X151357600Y-72385672D01*
X151373174Y-72397623D01*
X161940574Y-82965022D01*
X161962314Y-83011642D01*
X161962600Y-83018196D01*
X161962600Y-87242406D01*
X161945007Y-87290744D01*
X161931601Y-87303244D01*
X161880940Y-87340051D01*
X161878307Y-87342975D01*
X161878304Y-87342978D01*
X161845096Y-87379860D01*
X161752253Y-87482973D01*
X161750284Y-87486383D01*
X161750282Y-87486386D01*
X161748506Y-87489463D01*
X161656093Y-87649527D01*
X161654875Y-87653276D01*
X161610261Y-87790585D01*
X161596663Y-87832434D01*
X161596251Y-87836350D01*
X161596251Y-87836352D01*
X161580564Y-87985600D01*
X161576560Y-88023700D01*
X161576972Y-88027620D01*
X161593361Y-88183546D01*
X161596663Y-88214966D01*
X161597881Y-88218714D01*
X161597881Y-88218715D01*
X161613549Y-88266935D01*
X161656093Y-88397873D01*
X161658063Y-88401285D01*
X161750282Y-88561014D01*
X161750284Y-88561017D01*
X161752253Y-88564427D01*
X161810177Y-88628759D01*
X161878304Y-88704422D01*
X161878307Y-88704425D01*
X161880940Y-88707349D01*
X161930127Y-88743085D01*
X162033343Y-88818076D01*
X162033346Y-88818078D01*
X162036530Y-88820391D01*
X162212223Y-88898615D01*
X162400340Y-88938600D01*
X162423303Y-88938600D01*
X162471641Y-88956193D01*
X162497361Y-89000742D01*
X162498089Y-89005929D01*
X162501292Y-89036401D01*
X162510319Y-89122283D01*
X162511063Y-89129366D01*
X162570493Y-89312273D01*
X162572463Y-89315685D01*
X162664682Y-89475414D01*
X162664684Y-89475417D01*
X162666653Y-89478827D01*
X162682743Y-89496697D01*
X162792704Y-89618822D01*
X162792707Y-89618825D01*
X162795340Y-89621749D01*
X162798638Y-89624145D01*
X162947743Y-89732476D01*
X162947746Y-89732478D01*
X162950930Y-89734791D01*
X163126623Y-89813015D01*
X163314740Y-89853000D01*
X163507060Y-89853000D01*
X163695177Y-89813015D01*
X163870870Y-89734791D01*
X163874054Y-89732478D01*
X163874057Y-89732476D01*
X164023162Y-89624145D01*
X164026460Y-89621749D01*
X164029093Y-89618825D01*
X164029096Y-89618822D01*
X164139057Y-89496697D01*
X164155147Y-89478827D01*
X164157116Y-89475417D01*
X164157118Y-89475414D01*
X164249337Y-89315685D01*
X164251307Y-89312273D01*
X164310737Y-89129366D01*
X164311482Y-89122283D01*
X164330428Y-88942020D01*
X164330840Y-88938100D01*
X164330428Y-88934180D01*
X164311149Y-88750752D01*
X164311149Y-88750750D01*
X164310737Y-88746834D01*
X164251307Y-88563927D01*
X164227628Y-88522914D01*
X164157118Y-88400786D01*
X164157116Y-88400783D01*
X164155147Y-88397373D01*
X164058428Y-88289955D01*
X164029096Y-88257378D01*
X164029093Y-88257375D01*
X164026460Y-88254451D01*
X163975799Y-88217644D01*
X163947034Y-88174999D01*
X163944800Y-88156806D01*
X163944800Y-83008079D01*
X163944866Y-83004930D01*
X163947429Y-82943784D01*
X163937282Y-82900525D01*
X163935994Y-82893570D01*
X163930664Y-82854654D01*
X163930664Y-82854653D01*
X163929968Y-82849574D01*
X163927934Y-82844874D01*
X163927933Y-82844870D01*
X163922511Y-82832342D01*
X163918313Y-82819648D01*
X163915197Y-82806363D01*
X163914026Y-82801369D01*
X163892627Y-82762444D01*
X163889510Y-82756082D01*
X163873910Y-82720033D01*
X163871873Y-82715325D01*
X163860058Y-82700735D01*
X163852601Y-82689637D01*
X163845457Y-82676641D01*
X163845452Y-82676634D01*
X163843555Y-82673183D01*
X163836765Y-82665317D01*
X163811230Y-82639782D01*
X163805963Y-82633933D01*
X163805874Y-82633823D01*
X163779816Y-82601644D01*
X163761719Y-82588783D01*
X163752108Y-82580660D01*
X150767845Y-69596397D01*
X150765664Y-69594124D01*
X150727691Y-69552828D01*
X150727689Y-69552826D01*
X150724221Y-69549055D01*
X150707093Y-69538435D01*
X150686473Y-69525650D01*
X150680634Y-69521637D01*
X150649342Y-69497885D01*
X150645258Y-69494785D01*
X150627797Y-69487871D01*
X150615861Y-69481868D01*
X150599899Y-69471972D01*
X150557248Y-69459581D01*
X150550547Y-69457286D01*
X150514017Y-69442823D01*
X150509251Y-69440936D01*
X150504153Y-69440400D01*
X150504152Y-69440400D01*
X150500188Y-69439984D01*
X150490577Y-69438973D01*
X150477467Y-69436402D01*
X150459427Y-69431161D01*
X150453450Y-69430722D01*
X150450428Y-69430500D01*
X150450424Y-69430500D01*
X150449064Y-69430400D01*
X150412945Y-69430400D01*
X150405085Y-69429988D01*
X150386036Y-69427986D01*
X150363772Y-69425646D01*
X150351209Y-69427771D01*
X150341891Y-69429347D01*
X150329350Y-69430400D01*
X133935079Y-69430400D01*
X133931930Y-69430334D01*
X133870784Y-69427771D01*
X133827525Y-69437918D01*
X133820576Y-69439205D01*
X133797207Y-69442406D01*
X133781654Y-69444536D01*
X133781653Y-69444536D01*
X133776574Y-69445232D01*
X133771874Y-69447266D01*
X133771870Y-69447267D01*
X133759342Y-69452689D01*
X133746649Y-69456887D01*
X133741915Y-69457997D01*
X133733357Y-69460004D01*
X133733356Y-69460004D01*
X133728369Y-69461174D01*
X133723880Y-69463642D01*
X133689441Y-69482574D01*
X133683088Y-69485687D01*
X133642325Y-69503327D01*
X133627729Y-69515146D01*
X133616641Y-69522596D01*
X133603637Y-69529745D01*
X133603634Y-69529747D01*
X133600182Y-69531645D01*
X133597203Y-69534217D01*
X133597198Y-69534220D01*
X133593371Y-69537524D01*
X133592316Y-69538435D01*
X133566777Y-69563974D01*
X133560929Y-69569240D01*
X133528644Y-69595384D01*
X133525677Y-69599559D01*
X133525676Y-69599560D01*
X133515786Y-69613477D01*
X133507662Y-69623089D01*
X132639196Y-70491556D01*
X132636923Y-70493737D01*
X132595628Y-70531709D01*
X132595626Y-70531711D01*
X132591855Y-70535179D01*
X132589153Y-70539537D01*
X132568450Y-70572927D01*
X132564437Y-70578766D01*
X132537585Y-70614142D01*
X132535697Y-70618911D01*
X132530671Y-70631604D01*
X132524668Y-70643539D01*
X132514772Y-70659501D01*
X132513343Y-70664421D01*
X132502381Y-70702151D01*
X132500086Y-70708853D01*
X132483736Y-70750149D01*
X132483200Y-70755247D01*
X132483200Y-70755248D01*
X132481774Y-70768820D01*
X132479202Y-70781933D01*
X132473961Y-70799973D01*
X132473200Y-70810336D01*
X132473200Y-70846455D01*
X132472788Y-70854315D01*
X132468446Y-70895628D01*
X132469301Y-70900683D01*
X132472147Y-70917509D01*
X132473200Y-70930050D01*
X132473200Y-74979921D01*
X132473134Y-74983069D01*
X132470571Y-75044217D01*
X132471741Y-75049204D01*
X132471741Y-75049207D01*
X132480714Y-75087463D01*
X132482005Y-75094429D01*
X132488032Y-75138426D01*
X132495492Y-75155663D01*
X132499687Y-75168350D01*
X132503974Y-75186631D01*
X132506444Y-75191124D01*
X132525374Y-75225559D01*
X132528487Y-75231912D01*
X132546127Y-75272675D01*
X132557946Y-75287271D01*
X132565396Y-75298359D01*
X132572545Y-75311363D01*
X132572547Y-75311366D01*
X132574445Y-75314818D01*
X132577017Y-75317797D01*
X132577020Y-75317802D01*
X132580324Y-75321629D01*
X132581235Y-75322684D01*
X132606774Y-75348223D01*
X132612040Y-75354071D01*
X132638184Y-75386356D01*
X132642359Y-75389323D01*
X132642360Y-75389324D01*
X132656277Y-75399214D01*
X132665889Y-75407338D01*
X133476015Y-76217464D01*
X133497755Y-76264084D01*
X133494521Y-76293375D01*
X133483185Y-76329113D01*
X133482072Y-76332622D01*
X133458741Y-76540626D01*
X133459049Y-76544294D01*
X133459049Y-76544297D01*
X133468075Y-76651786D01*
X133476255Y-76749200D01*
X133533948Y-76950400D01*
X133535630Y-76953672D01*
X133535630Y-76953673D01*
X133561662Y-77004326D01*
X133568109Y-77055361D01*
X133540244Y-77098599D01*
X133494778Y-77113900D01*
X132018406Y-77113900D01*
X132013291Y-77113726D01*
X131958103Y-77109963D01*
X131958099Y-77109963D01*
X131953579Y-77109655D01*
X131949110Y-77110435D01*
X131889016Y-77120923D01*
X131885122Y-77121498D01*
X131845008Y-77126352D01*
X131820089Y-77129368D01*
X131815849Y-77130970D01*
X131815842Y-77130972D01*
X131809106Y-77133518D01*
X131795457Y-77137253D01*
X131783885Y-77139272D01*
X131779737Y-77141093D01*
X131779733Y-77141094D01*
X131723886Y-77165609D01*
X131720242Y-77167096D01*
X131663192Y-77188654D01*
X131663189Y-77188656D01*
X131658951Y-77190257D01*
X131655216Y-77192824D01*
X131655212Y-77192826D01*
X131649268Y-77196911D01*
X131636907Y-77203791D01*
X131630449Y-77206626D01*
X131626154Y-77208512D01*
X131622555Y-77211273D01*
X131622556Y-77211273D01*
X131574176Y-77248396D01*
X131570990Y-77250711D01*
X131552246Y-77263593D01*
X131516988Y-77287825D01*
X131513972Y-77291210D01*
X131513971Y-77291211D01*
X131474372Y-77335656D01*
X131471399Y-77338805D01*
X129221159Y-79589045D01*
X129217419Y-79592539D01*
X129172319Y-79631882D01*
X129169712Y-79635592D01*
X129134634Y-79685503D01*
X129132292Y-79688657D01*
X129091867Y-79740213D01*
X129090003Y-79744341D01*
X129090002Y-79744343D01*
X129087036Y-79750912D01*
X129080024Y-79763205D01*
X129075880Y-79769101D01*
X129075877Y-79769107D01*
X129073270Y-79772816D01*
X129071623Y-79777040D01*
X129071621Y-79777044D01*
X129049468Y-79833866D01*
X129047942Y-79837496D01*
X129020980Y-79897209D01*
X129018841Y-79908752D01*
X129014963Y-79922367D01*
X129010697Y-79933308D01*
X129010106Y-79937798D01*
X129002144Y-79998275D01*
X129001531Y-80002144D01*
X128989588Y-80066583D01*
X128989849Y-80071111D01*
X128989849Y-80071113D01*
X128993275Y-80130527D01*
X128993400Y-80134856D01*
X128993400Y-134948294D01*
X128993226Y-134953409D01*
X128989773Y-135004062D01*
X128989155Y-135013121D01*
X128028700Y-135013121D01*
X128028700Y-67588400D01*
X128046293Y-67540062D01*
X128090842Y-67514342D01*
X128103900Y-67513200D01*
X169101000Y-67513200D01*
X169149338Y-67530793D01*
G37*
G04 #@! TD.AperFunction*
M02*
