G04 #@! TF.GenerationSoftware,KiCad,Pcbnew,(6.0.8)*
G04 #@! TF.CreationDate,2023-03-23T08:33:06-06:00*
G04 #@! TF.ProjectId,Havoc6295_2_0.kicad_pro,4861766f-6336-4323-9935-5f325f302e6b,rev?*
G04 #@! TF.SameCoordinates,Original*
G04 #@! TF.FileFunction,Copper,L2,Bot*
G04 #@! TF.FilePolarity,Positive*
%FSLAX46Y46*%
G04 Gerber Fmt 4.6, Leading zero omitted, Abs format (unit mm)*
G04 Created by KiCad (PCBNEW (6.0.8)) date 2023-03-23 08:33:06*
%MOMM*%
%LPD*%
G01*
G04 APERTURE LIST*
G04 #@! TA.AperFunction,ComponentPad*
%ADD10C,1.320800*%
G04 #@! TD*
G04 #@! TA.AperFunction,SMDPad,CuDef*
%ADD11R,3.810000X1.930400*%
G04 #@! TD*
G04 #@! TA.AperFunction,SMDPad,CuDef*
%ADD12R,1.500000X1.300000*%
G04 #@! TD*
G04 #@! TA.AperFunction,ViaPad*
%ADD13C,1.016000*%
G04 #@! TD*
G04 #@! TA.AperFunction,ViaPad*
%ADD14C,0.800000*%
G04 #@! TD*
G04 #@! TA.AperFunction,Conductor*
%ADD15C,0.254000*%
G04 #@! TD*
G04 #@! TA.AperFunction,Conductor*
%ADD16C,0.250000*%
G04 #@! TD*
G04 #@! TA.AperFunction,Conductor*
%ADD17C,0.812800*%
G04 #@! TD*
G04 #@! TA.AperFunction,Conductor*
%ADD18C,0.304800*%
G04 #@! TD*
G04 #@! TA.AperFunction,Conductor*
%ADD19C,0.609600*%
G04 #@! TD*
G04 #@! TA.AperFunction,Conductor*
%ADD20C,0.406400*%
G04 #@! TD*
G04 APERTURE END LIST*
D10*
X134531100Y-71475600D03*
X134531100Y-74015600D03*
X134531100Y-76555600D03*
X134531100Y-79095600D03*
X134531100Y-81635600D03*
X134531100Y-84175600D03*
X134531100Y-86715600D03*
X134531100Y-89255600D03*
X134531100Y-91795600D03*
X134531100Y-94335600D03*
X134531100Y-96875600D03*
X134531100Y-99415600D03*
X134531100Y-101955600D03*
X134531100Y-104495600D03*
X134531100Y-107035600D03*
X134531100Y-109575600D03*
X149771100Y-109575600D03*
X149771100Y-107035600D03*
X149771100Y-104495600D03*
X149771100Y-101955600D03*
X149771100Y-99415600D03*
X149771100Y-96875600D03*
X149771100Y-94335600D03*
X149771100Y-91795600D03*
X149771100Y-89255600D03*
X149771100Y-86715600D03*
X149771100Y-84175600D03*
X149771100Y-81635600D03*
X149771100Y-79095600D03*
X149771100Y-76555600D03*
X149771100Y-74015600D03*
X149771100Y-71475600D03*
D11*
X143421100Y-74015600D03*
X143421100Y-76555600D03*
X143421100Y-79095600D03*
X143421100Y-81635600D03*
X143421100Y-84175600D03*
X143421100Y-86715600D03*
X143421100Y-89255600D03*
X143421100Y-91795600D03*
X143421100Y-94335600D03*
X143421100Y-96875600D03*
X143421100Y-99415600D03*
X143421100Y-101955600D03*
X143421100Y-104495600D03*
X143421100Y-107035600D03*
X159931100Y-107035600D03*
X159931100Y-104495600D03*
X159931100Y-101955600D03*
X159931100Y-99415600D03*
X159931100Y-96875600D03*
X159931100Y-94335600D03*
X159931100Y-91795600D03*
X159931100Y-89255600D03*
X159931100Y-86715600D03*
X159931100Y-84175600D03*
X159931100Y-81635600D03*
X159931100Y-79095600D03*
X159931100Y-76555600D03*
X159931100Y-74015600D03*
D12*
X139611100Y-82475600D03*
X139611100Y-84175600D03*
X139611100Y-85875600D03*
X137071100Y-79046600D03*
X137071100Y-80746600D03*
X137071100Y-82446600D03*
X139611100Y-96035600D03*
X139611100Y-94335600D03*
X139611100Y-92635600D03*
D13*
X164757100Y-117576600D03*
X137071100Y-94335600D03*
D14*
X159000000Y-134000000D03*
D13*
X165265100Y-134086600D03*
X138264900Y-137172700D03*
X151066500Y-129971800D03*
X137071100Y-84175600D03*
X146977100Y-81635600D03*
X135864600Y-134772400D03*
X159000000Y-136500000D03*
X161201100Y-141325600D03*
X161442400Y-115176300D03*
X146265900Y-110540800D03*
X145351500Y-109626400D03*
X144437100Y-108712000D03*
X153466800Y-108483400D03*
X153009600Y-109740700D03*
X155181300Y-120256300D03*
X151980900Y-127342900D03*
X157353000Y-118084600D03*
X152552400Y-111455200D03*
X140779500Y-101854000D03*
X136436100Y-120027700D03*
X147408900Y-85852000D03*
X140550900Y-131000500D03*
X140550900Y-114312700D03*
X137350500Y-109855000D03*
X142265400Y-132372100D03*
X138468100Y-77825600D03*
X139611100Y-87985600D03*
X147751800Y-124371100D03*
X147751800Y-111683800D03*
X152895300Y-128257300D03*
X165150800Y-112826800D03*
X148666200Y-129171700D03*
X147751800Y-130086100D03*
X147866100Y-131457700D03*
X149009100Y-135343900D03*
X144322800Y-136258300D03*
X145237200Y-137172700D03*
X143751300Y-138087100D03*
X142494000Y-138087100D03*
X154038300Y-132372100D03*
X154038300Y-133743700D03*
X153123900Y-135686800D03*
X163639500Y-120942100D03*
X167335200Y-112344200D03*
X159867600Y-120027700D03*
X165696900Y-107797600D03*
X147980400Y-100393500D03*
X149123400Y-123228100D03*
X154038300Y-115570000D03*
X152895300Y-125742700D03*
X157353000Y-119341900D03*
X148894800Y-72936100D03*
X156895800Y-123456700D03*
X156438600Y-120256300D03*
X163410900Y-88938100D03*
X162496500Y-88023700D03*
X152552400Y-118313200D03*
X155524200Y-122313700D03*
D15*
X163741100Y-127609600D02*
X163741100Y-122656600D01*
X163741100Y-122656600D02*
X164757100Y-121640600D01*
D16*
X159000000Y-134000000D02*
X165178500Y-134000000D01*
D15*
X164503100Y-130276600D02*
X164503100Y-128244600D01*
X164503100Y-128244600D02*
X163741100Y-127609600D01*
X137071100Y-94335600D02*
X139611100Y-94335600D01*
X164757100Y-121640600D02*
X164757100Y-117576600D01*
X165265100Y-134086600D02*
X165265100Y-131038600D01*
D16*
X165178500Y-134000000D02*
X165265100Y-134086600D01*
D15*
X165265100Y-131038600D02*
X164503100Y-130276600D01*
X143408400Y-96824800D02*
X142722600Y-96139000D01*
X142722600Y-96139000D02*
X139636500Y-96139000D01*
X139636500Y-96139000D02*
X139611100Y-96035600D01*
X143408400Y-96824800D02*
X143421100Y-96875600D01*
D17*
X139611100Y-82475600D02*
X137071100Y-82446600D01*
D18*
X151066500Y-91567000D02*
X150025100Y-90525600D01*
X150025100Y-90525600D02*
X149517100Y-90525600D01*
X151066500Y-129971800D02*
X151066500Y-91567000D01*
X146215100Y-85953600D02*
X146215100Y-82397600D01*
D19*
X148158200Y-80175100D02*
X146977100Y-81635600D01*
D18*
X146215100Y-82397600D02*
X146977100Y-81635600D01*
X138264900Y-137172700D02*
X135864600Y-134772400D01*
X149694900Y-74079100D02*
X149771100Y-74015600D01*
D19*
X148158200Y-75234800D02*
X148158200Y-80175100D01*
D17*
X137071100Y-82446600D02*
X137071100Y-84175600D01*
D18*
X148501100Y-88239600D02*
X146215100Y-85953600D01*
X149517100Y-90525600D02*
X148501100Y-89509600D01*
D19*
X149694900Y-74079100D02*
X148158200Y-75234800D01*
D18*
X148501100Y-89509600D02*
X148501100Y-88239600D01*
D15*
X142608300Y-92595700D02*
X139636500Y-92595700D01*
X139636500Y-92595700D02*
X139611100Y-92635600D01*
X143408400Y-91795600D02*
X142608300Y-92595700D01*
X143408400Y-91795600D02*
X143421100Y-91795600D01*
D17*
X140627100Y-80746600D02*
X137071100Y-80746600D01*
D20*
X141643100Y-81762600D02*
X143294100Y-81762600D01*
D17*
X140627100Y-80746600D02*
X141643100Y-81762600D01*
D20*
X143294100Y-81762600D02*
X143421100Y-81635600D01*
D19*
X148539200Y-93078300D02*
X148539200Y-95402400D01*
X148710650Y-95192850D02*
X149821900Y-96558100D01*
D18*
X143522700Y-99339400D02*
X143421100Y-99415600D01*
X135636000Y-105740200D02*
X141922500Y-99453700D01*
X149694900Y-96824800D02*
X149771100Y-96875600D01*
X148710650Y-95192850D02*
X144437100Y-99339400D01*
X161201100Y-141325600D02*
X161201100Y-138701100D01*
X143294100Y-99453700D02*
X143421100Y-99415600D01*
X134607300Y-109512100D02*
X135636000Y-108483400D01*
D19*
X149821900Y-96558100D02*
X149694900Y-96824800D01*
D18*
X144437100Y-99339400D02*
X143522700Y-99339400D01*
X149694900Y-91795600D02*
X149771100Y-91795600D01*
X148539200Y-95402400D02*
X148710650Y-95192850D01*
X135636000Y-108483400D02*
X135636000Y-105740200D01*
X134607300Y-109512100D02*
X134531100Y-109575600D01*
X161201100Y-138701100D02*
X159000000Y-136500000D01*
D19*
X149694900Y-91795600D02*
X148539200Y-93078300D01*
D18*
X141922500Y-99453700D02*
X143294100Y-99453700D01*
D17*
X139611100Y-84175600D02*
X143421100Y-84175600D01*
D15*
X166611300Y-75222100D02*
X166611300Y-109118400D01*
X161810700Y-70421500D02*
X166611300Y-75222100D01*
X143522700Y-73964800D02*
X143421100Y-74015600D01*
X147066000Y-70421500D02*
X161810700Y-70421500D01*
X162725100Y-113893600D02*
X161442400Y-115176300D01*
X166611300Y-109118400D02*
X162725100Y-113131600D01*
X162725100Y-113131600D02*
X162725100Y-113893600D01*
X143522700Y-73964800D02*
X147066000Y-70421500D01*
X143522700Y-101968300D02*
X143421100Y-101955600D01*
X146265900Y-103911400D02*
X146265900Y-110540800D01*
X144322800Y-101968300D02*
X146265900Y-103911400D01*
X143522700Y-101968300D02*
X144322800Y-101968300D01*
X145351500Y-108483400D02*
X145351500Y-109626400D01*
X144322800Y-104597200D02*
X145694400Y-105968800D01*
X145694400Y-105968800D02*
X145694400Y-108140500D01*
X143522700Y-104597200D02*
X144322800Y-104597200D01*
X145694400Y-108140500D02*
X145351500Y-108483400D01*
X143522700Y-104597200D02*
X143421100Y-104495600D01*
X143522700Y-107111800D02*
X144437100Y-108026200D01*
X143522700Y-107111800D02*
X143421100Y-107035600D01*
X144437100Y-108026200D02*
X144437100Y-108712000D01*
X159067500Y-96939100D02*
X153466800Y-102539800D01*
X159867600Y-96939100D02*
X159067500Y-96939100D01*
X153466800Y-102539800D02*
X153466800Y-108483400D01*
X159867600Y-96939100D02*
X159931100Y-96875600D01*
X159867600Y-89281000D02*
X159067500Y-89281000D01*
X152552400Y-108826300D02*
X153009600Y-109283500D01*
X159867600Y-89281000D02*
X159931100Y-89255600D01*
X153009600Y-109283500D02*
X153009600Y-109740700D01*
X159067500Y-89281000D02*
X152552400Y-95796100D01*
X152552400Y-95796100D02*
X152552400Y-108826300D01*
X164325300Y-87680800D02*
X164325300Y-89281000D01*
X159981900Y-84251800D02*
X159931100Y-84175600D01*
X163410900Y-90195400D02*
X163410900Y-108826300D01*
X155181300Y-120256300D02*
X151980900Y-123456700D01*
X151980900Y-123456700D02*
X151980900Y-127342900D01*
X163410900Y-108826300D02*
X157353000Y-114884200D01*
X159981900Y-84251800D02*
X160896300Y-84251800D01*
X160896300Y-84251800D02*
X164325300Y-87680800D01*
X157353000Y-114884200D02*
X157353000Y-118084600D01*
X164325300Y-89281000D02*
X163410900Y-90195400D01*
X159867600Y-79108300D02*
X159067500Y-79108300D01*
X152552400Y-110540800D02*
X152552400Y-111455200D01*
X152095200Y-86080600D02*
X152095200Y-110083600D01*
X159867600Y-79108300D02*
X159931100Y-79095600D01*
X152095200Y-110083600D02*
X152552400Y-110540800D01*
X159067500Y-79108300D02*
X152095200Y-86080600D01*
X149123400Y-85852000D02*
X147408900Y-85852000D01*
X159067500Y-76593700D02*
X150495000Y-85166200D01*
X159867600Y-76593700D02*
X159067500Y-76593700D01*
X149809200Y-85166200D02*
X149123400Y-85852000D01*
X150495000Y-85166200D02*
X149809200Y-85166200D01*
X140779500Y-101854000D02*
X136436100Y-106197400D01*
X136436100Y-106197400D02*
X136436100Y-120027700D01*
X159867600Y-76593700D02*
X159931100Y-76555600D01*
X140550900Y-114312700D02*
X140550900Y-131000500D01*
X137350500Y-109855000D02*
X142265400Y-114769900D01*
X142265400Y-114769900D02*
X142265400Y-132372100D01*
D19*
X139611100Y-85875600D02*
X139611100Y-87985600D01*
X137247100Y-79046600D02*
X138468100Y-77825600D01*
D20*
X137071100Y-79046600D02*
X137247100Y-79046600D01*
D15*
X147751800Y-111683800D02*
X147751800Y-124371100D01*
X165011100Y-113385600D02*
X165011100Y-112966500D01*
X165011100Y-112966500D02*
X165150800Y-112826800D01*
X163182300Y-119113300D02*
X154038300Y-128257300D01*
X163182300Y-114998500D02*
X163182300Y-119113300D01*
X154038300Y-128257300D02*
X152895300Y-128257300D01*
X163398200Y-114998500D02*
X165011100Y-113385600D01*
X163182300Y-114998500D02*
X163398200Y-114998500D01*
X149694900Y-104597200D02*
X148780500Y-105511600D01*
X148780500Y-105511600D02*
X148780500Y-110083600D01*
X148780500Y-110083600D02*
X150495000Y-111798100D01*
X150495000Y-111798100D02*
X150495000Y-123799600D01*
X150495000Y-123799600D02*
X148666200Y-125628400D01*
X148666200Y-125628400D02*
X148666200Y-129171700D01*
X149694900Y-104597200D02*
X149771100Y-104495600D01*
X150037800Y-112026700D02*
X150037800Y-123571000D01*
X150037800Y-123571000D02*
X147751800Y-125857000D01*
X149694900Y-101968300D02*
X148323300Y-103339900D01*
X148323300Y-110312200D02*
X150037800Y-112026700D01*
X147751800Y-125857000D02*
X147751800Y-130086100D01*
X149694900Y-101968300D02*
X149771100Y-101955600D01*
X148323300Y-103339900D02*
X148323300Y-110312200D01*
X146837400Y-111226600D02*
X146837400Y-130429000D01*
X147180300Y-110883700D02*
X146837400Y-111226600D01*
X145961100Y-101955600D02*
X145961100Y-100685600D01*
X147231100Y-99415600D02*
X149771100Y-99415600D01*
X146837400Y-130429000D02*
X147866100Y-131457700D01*
X147180300Y-103174800D02*
X145961100Y-101955600D01*
X145961100Y-100685600D02*
X147231100Y-99415600D01*
X147180300Y-110883700D02*
X147180300Y-103174800D01*
X133464300Y-100482400D02*
X133464300Y-125171200D01*
X133464300Y-125171200D02*
X143637000Y-135343900D01*
X143637000Y-135343900D02*
X149009100Y-135343900D01*
X134531100Y-99415600D02*
X133464300Y-100482400D01*
X140436600Y-133629400D02*
X140665200Y-133629400D01*
X134493000Y-96939100D02*
X133007100Y-98425000D01*
X143294100Y-136258300D02*
X144322800Y-136258300D01*
X133007100Y-98425000D02*
X133007100Y-126199900D01*
X134493000Y-96939100D02*
X134531100Y-96875600D01*
X140665200Y-133629400D02*
X143294100Y-136258300D01*
X133007100Y-126199900D02*
X140436600Y-133629400D01*
X134493000Y-94424500D02*
X132549900Y-96367600D01*
X132549900Y-96367600D02*
X132549900Y-129400300D01*
X143522700Y-137172700D02*
X145237200Y-137172700D01*
X134493000Y-94424500D02*
X134531100Y-94335600D01*
X141922500Y-135572500D02*
X143522700Y-137172700D01*
X138722100Y-135572500D02*
X141922500Y-135572500D01*
X132549900Y-129400300D02*
X138722100Y-135572500D01*
X132092700Y-94195900D02*
X132092700Y-129628900D01*
X134493000Y-91795600D02*
X134531100Y-91795600D01*
X138493500Y-136029700D02*
X141693900Y-136029700D01*
X141693900Y-136029700D02*
X143751300Y-138087100D01*
X132092700Y-129628900D02*
X138493500Y-136029700D01*
X134493000Y-91795600D02*
X132092700Y-94195900D01*
X134493000Y-89281000D02*
X131635500Y-92138500D01*
X131635500Y-92138500D02*
X131635500Y-131800600D01*
X137922000Y-138087100D02*
X142494000Y-138087100D01*
X134493000Y-89281000D02*
X134531100Y-89255600D01*
X131635500Y-131800600D02*
X137922000Y-138087100D01*
X153238200Y-132372100D02*
X154038300Y-132372100D01*
X131178300Y-132029200D02*
X138150600Y-139001500D01*
X146608800Y-139001500D02*
X153238200Y-132372100D01*
X134493000Y-86766400D02*
X131178300Y-90081100D01*
X138150600Y-139001500D02*
X146608800Y-139001500D01*
X134493000Y-86766400D02*
X134531100Y-86715600D01*
X131178300Y-90081100D02*
X131178300Y-132029200D01*
X134493000Y-84251800D02*
X134531100Y-84175600D01*
X134493000Y-84251800D02*
X130492500Y-88252300D01*
X152552400Y-133743700D02*
X154038300Y-133743700D01*
X146837400Y-139458700D02*
X152552400Y-133743700D01*
X130492500Y-88252300D02*
X130492500Y-132486400D01*
X130492500Y-132486400D02*
X137464800Y-139458700D01*
X137464800Y-139458700D02*
X146837400Y-139458700D01*
X147066000Y-139915900D02*
X151295100Y-135686800D01*
X134493000Y-81737200D02*
X130035300Y-86194900D01*
X134493000Y-81737200D02*
X134531100Y-81635600D01*
X130035300Y-132715000D02*
X137236200Y-139915900D01*
X151295100Y-135686800D02*
X153123900Y-135686800D01*
X137236200Y-139915900D02*
X147066000Y-139915900D01*
X130035300Y-86194900D02*
X130035300Y-132715000D01*
X167335200Y-112344200D02*
X163639500Y-115912900D01*
X163639500Y-115912900D02*
X163639500Y-120942100D01*
X159867600Y-115112800D02*
X159867600Y-120027700D01*
X165696900Y-109283500D02*
X159867600Y-115112800D01*
X165696900Y-107797600D02*
X165696900Y-109283500D01*
X147866100Y-100507800D02*
X147980400Y-100393500D01*
X147866100Y-110540800D02*
X147866100Y-100507800D01*
X149123400Y-111798100D02*
X149123400Y-123228100D01*
X147866100Y-110540800D02*
X149123400Y-111798100D01*
X149809200Y-89281000D02*
X151638000Y-91109800D01*
X151638000Y-91109800D02*
X151638000Y-111798100D01*
X154038300Y-114198400D02*
X154038300Y-115570000D01*
X149809200Y-89281000D02*
X149771100Y-89255600D01*
X151638000Y-111798100D02*
X154038300Y-114198400D01*
X163982400Y-112623600D02*
X163982400Y-113512600D01*
X167068500Y-109537500D02*
X163982400Y-112623600D01*
X162725100Y-114769900D02*
X162725100Y-118884700D01*
X134607300Y-78994000D02*
X134531100Y-79095600D01*
X134607300Y-78994000D02*
X143637000Y-69964300D01*
X162725100Y-118884700D02*
X155867100Y-125742700D01*
X167068500Y-74993500D02*
X167068500Y-109537500D01*
X162039300Y-69964300D02*
X167068500Y-74993500D01*
X163982400Y-113512600D02*
X162725100Y-114769900D01*
X143637000Y-69964300D02*
X162039300Y-69964300D01*
X155867100Y-125742700D02*
X152895300Y-125742700D01*
X163868100Y-109054900D02*
X158496000Y-114427000D01*
X157810200Y-72707500D02*
X162039300Y-72707500D01*
X163868100Y-90424000D02*
X163868100Y-109054900D01*
X158496000Y-118198900D02*
X157353000Y-119341900D01*
X149809200Y-81622900D02*
X149809200Y-80708500D01*
X149809200Y-81622900D02*
X149771100Y-81635600D01*
X162039300Y-72707500D02*
X164782500Y-75450700D01*
X149809200Y-80708500D02*
X157810200Y-72707500D01*
X158496000Y-114427000D02*
X158496000Y-118198900D01*
X164782500Y-75450700D02*
X164782500Y-89509600D01*
X164782500Y-89509600D02*
X163868100Y-90424000D01*
X162496500Y-71793100D02*
X165696900Y-74993500D01*
X164782500Y-90881200D02*
X164782500Y-109512100D01*
X150952200Y-71793100D02*
X162496500Y-71793100D01*
X164782500Y-109512100D02*
X159410400Y-114884200D01*
X159410400Y-119227600D02*
X156895800Y-121742200D01*
X165696900Y-89966800D02*
X164782500Y-90881200D01*
X165696900Y-74993500D02*
X165696900Y-89966800D01*
X149809200Y-72936100D02*
X150952200Y-71793100D01*
X156895800Y-121742200D02*
X156895800Y-123456700D01*
X148894800Y-72936100D02*
X149809200Y-72936100D01*
X159410400Y-114884200D02*
X159410400Y-119227600D01*
X162953700Y-89395300D02*
X162953700Y-108597700D01*
X156438600Y-115112800D02*
X156438600Y-120256300D01*
X163410900Y-88938100D02*
X162953700Y-89395300D01*
X162953700Y-108597700D02*
X156438600Y-115112800D01*
X162496500Y-108369100D02*
X152552400Y-118313200D01*
X162496500Y-88023700D02*
X162496500Y-108369100D01*
X156667200Y-121170700D02*
X155524200Y-122313700D01*
X154038300Y-72250300D02*
X162267900Y-72250300D01*
X149809200Y-76479400D02*
X154038300Y-72250300D01*
X164325300Y-109283500D02*
X158953200Y-114655600D01*
X165239700Y-75222100D02*
X165239700Y-89738200D01*
X158953200Y-114655600D02*
X158953200Y-118999000D01*
X164325300Y-90652600D02*
X164325300Y-109283500D01*
X165239700Y-89738200D02*
X164325300Y-90652600D01*
X156781500Y-121170700D02*
X156667200Y-121170700D01*
X158953200Y-118999000D02*
X156781500Y-121170700D01*
X162267900Y-72250300D02*
X165239700Y-75222100D01*
X149809200Y-76479400D02*
X149771100Y-76555600D01*
G04 #@! TA.AperFunction,Conductor*
G36*
X168946638Y-67429693D02*
G01*
X168972358Y-67474242D01*
X168973500Y-67487300D01*
X168973500Y-142037558D01*
X168955907Y-142085896D01*
X168911358Y-142111616D01*
X168898539Y-142112758D01*
X128358135Y-142240243D01*
X128309744Y-142222801D01*
X128283884Y-142178334D01*
X128282700Y-142165043D01*
X128282700Y-86174779D01*
X129395065Y-86174779D01*
X129395511Y-86179492D01*
X129399466Y-86221336D01*
X129399800Y-86228413D01*
X129399800Y-132636539D01*
X129398825Y-132645369D01*
X129399069Y-132645392D01*
X129398624Y-132650103D01*
X129397592Y-132654719D01*
X129397741Y-132659445D01*
X129399763Y-132723808D01*
X129399800Y-132726170D01*
X129399800Y-132754983D01*
X129400096Y-132757324D01*
X129400097Y-132757343D01*
X129400610Y-132761402D01*
X129401166Y-132768462D01*
X129401867Y-132790749D01*
X129402635Y-132815205D01*
X129403955Y-132819748D01*
X129409429Y-132838591D01*
X129411822Y-132850146D01*
X129414873Y-132874299D01*
X129416615Y-132878700D01*
X129416616Y-132878702D01*
X129432088Y-132917779D01*
X129434383Y-132924482D01*
X129447431Y-132969393D01*
X129449842Y-132973469D01*
X129449843Y-132973472D01*
X129459825Y-132990350D01*
X129465018Y-133000949D01*
X129473981Y-133023588D01*
X129476759Y-133027411D01*
X129501470Y-133061423D01*
X129505358Y-133067343D01*
X129526755Y-133103522D01*
X129529166Y-133107598D01*
X129546379Y-133124811D01*
X129554043Y-133133784D01*
X129568358Y-133153487D01*
X129602461Y-133181699D01*
X129604402Y-133183305D01*
X129609642Y-133188074D01*
X136731350Y-140309782D01*
X136736910Y-140316721D01*
X136737099Y-140316565D01*
X136740109Y-140320204D01*
X136742647Y-140324203D01*
X136746096Y-140327442D01*
X136746097Y-140327443D01*
X136793072Y-140371555D01*
X136794768Y-140373200D01*
X136815106Y-140393538D01*
X136820217Y-140397503D01*
X136825599Y-140402099D01*
X136859694Y-140434117D01*
X136863837Y-140436394D01*
X136863843Y-140436399D01*
X136881035Y-140445850D01*
X136890897Y-140452328D01*
X136910133Y-140467249D01*
X136926753Y-140474441D01*
X136953054Y-140485823D01*
X136959412Y-140488938D01*
X137000397Y-140511469D01*
X137004973Y-140512644D01*
X137004981Y-140512647D01*
X137023984Y-140517526D01*
X137035147Y-140521348D01*
X137053147Y-140529137D01*
X137053149Y-140529138D01*
X137057492Y-140531017D01*
X137080013Y-140534584D01*
X137103689Y-140538334D01*
X137110626Y-140539771D01*
X137155918Y-140551400D01*
X137180266Y-140551400D01*
X137192030Y-140552326D01*
X137211404Y-140555395D01*
X137211408Y-140555395D01*
X137216079Y-140556135D01*
X137262635Y-140551734D01*
X137269713Y-140551400D01*
X146987539Y-140551400D01*
X146996369Y-140552375D01*
X146996392Y-140552131D01*
X147001103Y-140552576D01*
X147005719Y-140553608D01*
X147074807Y-140551437D01*
X147077170Y-140551400D01*
X147105983Y-140551400D01*
X147108324Y-140551104D01*
X147108343Y-140551103D01*
X147112402Y-140550590D01*
X147119462Y-140550034D01*
X147161478Y-140548714D01*
X147161482Y-140548713D01*
X147166205Y-140548565D01*
X147173975Y-140546307D01*
X147189591Y-140541771D01*
X147201146Y-140539378D01*
X147201215Y-140539369D01*
X147225299Y-140536327D01*
X147229700Y-140534585D01*
X147229702Y-140534584D01*
X147268779Y-140519112D01*
X147275482Y-140516817D01*
X147293889Y-140511469D01*
X147320393Y-140503769D01*
X147324469Y-140501358D01*
X147324472Y-140501357D01*
X147341350Y-140491375D01*
X147351949Y-140486182D01*
X147370191Y-140478960D01*
X147370192Y-140478959D01*
X147374588Y-140477219D01*
X147412428Y-140449727D01*
X147418343Y-140445842D01*
X147454522Y-140424445D01*
X147454524Y-140424443D01*
X147458598Y-140422034D01*
X147475811Y-140404821D01*
X147484784Y-140397157D01*
X147500655Y-140385626D01*
X147500654Y-140385626D01*
X147504487Y-140382842D01*
X147534305Y-140346798D01*
X147539074Y-140341558D01*
X151536307Y-136344326D01*
X151582927Y-136322586D01*
X151589481Y-136322300D01*
X152294119Y-136322300D01*
X152342457Y-136339893D01*
X152353052Y-136350789D01*
X152389153Y-136396337D01*
X152540963Y-136525537D01*
X152544164Y-136527326D01*
X152544167Y-136527328D01*
X152586291Y-136550870D01*
X152714976Y-136622789D01*
X152904565Y-136684391D01*
X153014199Y-136697464D01*
X153098851Y-136707558D01*
X153098853Y-136707558D01*
X153102509Y-136707994D01*
X153301267Y-136692700D01*
X153383672Y-136669692D01*
X153489733Y-136640080D01*
X153489737Y-136640078D01*
X153493270Y-136639092D01*
X153496544Y-136637438D01*
X153496547Y-136637437D01*
X153578345Y-136596118D01*
X153671203Y-136549212D01*
X153674101Y-136546948D01*
X153674104Y-136546946D01*
X153825392Y-136428747D01*
X153825397Y-136428742D01*
X153828290Y-136426482D01*
X153958547Y-136275578D01*
X153960363Y-136272381D01*
X153960366Y-136272377D01*
X154055194Y-136105449D01*
X154055196Y-136105446D01*
X154057012Y-136102248D01*
X154119935Y-135913094D01*
X154144920Y-135715320D01*
X154145318Y-135686800D01*
X154125865Y-135488406D01*
X154068248Y-135297568D01*
X153974661Y-135121556D01*
X153963082Y-135107358D01*
X153850991Y-134969922D01*
X153850990Y-134969921D01*
X153848668Y-134967074D01*
X153722172Y-134862427D01*
X153696142Y-134818060D01*
X153704721Y-134767340D01*
X153743895Y-134734001D01*
X153793344Y-134732966D01*
X153818965Y-134741291D01*
X153928599Y-134754364D01*
X154013251Y-134764458D01*
X154013253Y-134764458D01*
X154016909Y-134764894D01*
X154215667Y-134749600D01*
X154298072Y-134726592D01*
X154404133Y-134696980D01*
X154404137Y-134696978D01*
X154407670Y-134695992D01*
X154410944Y-134694338D01*
X154410947Y-134694337D01*
X154518692Y-134639911D01*
X154585603Y-134606112D01*
X154588501Y-134603848D01*
X154588504Y-134603846D01*
X154739792Y-134485647D01*
X154739797Y-134485642D01*
X154742690Y-134483382D01*
X154872947Y-134332478D01*
X154874763Y-134329281D01*
X154874766Y-134329277D01*
X154969594Y-134162349D01*
X154969596Y-134162346D01*
X154971412Y-134159148D01*
X155010174Y-134042625D01*
X155033173Y-133973488D01*
X155033174Y-133973485D01*
X155034335Y-133969994D01*
X155059320Y-133772220D01*
X155059718Y-133743700D01*
X155059513Y-133741607D01*
X155040625Y-133548974D01*
X155040624Y-133548971D01*
X155040265Y-133545306D01*
X154982648Y-133354468D01*
X154980223Y-133349906D01*
X154918866Y-133234512D01*
X154889061Y-133178456D01*
X154834002Y-133110947D01*
X154829872Y-133105883D01*
X154812955Y-133057304D01*
X154831222Y-133009217D01*
X154865597Y-132969393D01*
X154872947Y-132960878D01*
X154874763Y-132957681D01*
X154874766Y-132957677D01*
X154969594Y-132790749D01*
X154969596Y-132790746D01*
X154971412Y-132787548D01*
X155034335Y-132598394D01*
X155059320Y-132400620D01*
X155059718Y-132372100D01*
X155054783Y-132321770D01*
X155040625Y-132177374D01*
X155040624Y-132177371D01*
X155040265Y-132173706D01*
X154982648Y-131982868D01*
X154977523Y-131973228D01*
X154907832Y-131842159D01*
X154889061Y-131806856D01*
X154879419Y-131795033D01*
X154765391Y-131655222D01*
X154765390Y-131655221D01*
X154763068Y-131652374D01*
X154760237Y-131650032D01*
X154760233Y-131650028D01*
X154624049Y-131537367D01*
X154609470Y-131525306D01*
X154599134Y-131519717D01*
X154464849Y-131447110D01*
X154434115Y-131430492D01*
X154243685Y-131371544D01*
X154119764Y-131358520D01*
X154049086Y-131351091D01*
X154049084Y-131351091D01*
X154045431Y-131350707D01*
X153946168Y-131359741D01*
X153850563Y-131368441D01*
X153850562Y-131368441D01*
X153846905Y-131368774D01*
X153843380Y-131369811D01*
X153843377Y-131369812D01*
X153704800Y-131410598D01*
X153655670Y-131425058D01*
X153479009Y-131517414D01*
X153323651Y-131642325D01*
X153317188Y-131650028D01*
X153267085Y-131709738D01*
X153222536Y-131735458D01*
X153209478Y-131736600D01*
X153198217Y-131736600D01*
X153195876Y-131736896D01*
X153195857Y-131736897D01*
X153191790Y-131737411D01*
X153184731Y-131737967D01*
X153142724Y-131739287D01*
X153142721Y-131739288D01*
X153137995Y-131739436D01*
X153114613Y-131746229D01*
X153103066Y-131748620D01*
X153098527Y-131749194D01*
X153078901Y-131751673D01*
X153074505Y-131753413D01*
X153074503Y-131753414D01*
X153035418Y-131768889D01*
X153028715Y-131771184D01*
X153014583Y-131775290D01*
X152983807Y-131784231D01*
X152962842Y-131796630D01*
X152952259Y-131801815D01*
X152929612Y-131810781D01*
X152925784Y-131813562D01*
X152925779Y-131813565D01*
X152891775Y-131838270D01*
X152885854Y-131842159D01*
X152849680Y-131863553D01*
X152849676Y-131863556D01*
X152845601Y-131865966D01*
X152828385Y-131883182D01*
X152819413Y-131890846D01*
X152799713Y-131905158D01*
X152769900Y-131941196D01*
X152765131Y-131946436D01*
X149951525Y-134760042D01*
X149904905Y-134781782D01*
X149855218Y-134768468D01*
X149840078Y-134754400D01*
X149733868Y-134624174D01*
X149731037Y-134621832D01*
X149731033Y-134621828D01*
X149648711Y-134553725D01*
X149580270Y-134497106D01*
X149569934Y-134491517D01*
X149414898Y-134407690D01*
X149404915Y-134402292D01*
X149214485Y-134343344D01*
X149080644Y-134329277D01*
X149019886Y-134322891D01*
X149019884Y-134322891D01*
X149016231Y-134322507D01*
X148941840Y-134329277D01*
X148821363Y-134340241D01*
X148821362Y-134340241D01*
X148817705Y-134340574D01*
X148814180Y-134341611D01*
X148814177Y-134341612D01*
X148700845Y-134374968D01*
X148626470Y-134396858D01*
X148449809Y-134489214D01*
X148394690Y-134533531D01*
X148307236Y-134603846D01*
X148294451Y-134614125D01*
X148251141Y-134665740D01*
X148237885Y-134681538D01*
X148193336Y-134707258D01*
X148180278Y-134708400D01*
X143931381Y-134708400D01*
X143883043Y-134690807D01*
X143878207Y-134686374D01*
X142629468Y-133437635D01*
X142607728Y-133391015D01*
X142621042Y-133341328D01*
X142648736Y-133317339D01*
X142809413Y-133236175D01*
X142809422Y-133236170D01*
X142812703Y-133234512D01*
X142815601Y-133232248D01*
X142815604Y-133232246D01*
X142966892Y-133114047D01*
X142966897Y-133114042D01*
X142969790Y-133111782D01*
X143100047Y-132960878D01*
X143101863Y-132957681D01*
X143101866Y-132957677D01*
X143196694Y-132790749D01*
X143196696Y-132790746D01*
X143198512Y-132787548D01*
X143261435Y-132598394D01*
X143286420Y-132400620D01*
X143286818Y-132372100D01*
X143281883Y-132321770D01*
X143267725Y-132177374D01*
X143267724Y-132177371D01*
X143267365Y-132173706D01*
X143209748Y-131982868D01*
X143204623Y-131973228D01*
X143134932Y-131842159D01*
X143116161Y-131806856D01*
X143106519Y-131795033D01*
X142992494Y-131655226D01*
X142990168Y-131652374D01*
X142987330Y-131650026D01*
X142928165Y-131601080D01*
X142902135Y-131556713D01*
X142900900Y-131543138D01*
X142900900Y-114848361D01*
X142901875Y-114839531D01*
X142901631Y-114839508D01*
X142902076Y-114834797D01*
X142903108Y-114830181D01*
X142900937Y-114761092D01*
X142900900Y-114758730D01*
X142900900Y-114729917D01*
X142900604Y-114727576D01*
X142900603Y-114727557D01*
X142900090Y-114723498D01*
X142899534Y-114716438D01*
X142898214Y-114674422D01*
X142898213Y-114674418D01*
X142898065Y-114669695D01*
X142891271Y-114646309D01*
X142888878Y-114634754D01*
X142886420Y-114615299D01*
X142885827Y-114610601D01*
X142868612Y-114567121D01*
X142866317Y-114560418D01*
X142854589Y-114520052D01*
X142853269Y-114515507D01*
X142840870Y-114494542D01*
X142835685Y-114483959D01*
X142826719Y-114461312D01*
X142823938Y-114457484D01*
X142823935Y-114457479D01*
X142799230Y-114423475D01*
X142795341Y-114417554D01*
X142773947Y-114381380D01*
X142773944Y-114381376D01*
X142771534Y-114377301D01*
X142754318Y-114360085D01*
X142746654Y-114351112D01*
X142735126Y-114335245D01*
X142732342Y-114331413D01*
X142696303Y-114301600D01*
X142691064Y-114296831D01*
X138387053Y-109992820D01*
X138365313Y-109946200D01*
X138365620Y-109930220D01*
X138367233Y-109917456D01*
X138371520Y-109883520D01*
X138371746Y-109867308D01*
X138371889Y-109857098D01*
X138371889Y-109857093D01*
X138371918Y-109855000D01*
X138368231Y-109817394D01*
X138352825Y-109660274D01*
X138352824Y-109660271D01*
X138352465Y-109656606D01*
X138294848Y-109465768D01*
X138277450Y-109433046D01*
X138231066Y-109345812D01*
X138201261Y-109289756D01*
X138183676Y-109268194D01*
X138077591Y-109138122D01*
X138077590Y-109138121D01*
X138075268Y-109135274D01*
X138072437Y-109132932D01*
X138072433Y-109132928D01*
X137929070Y-109014328D01*
X137921670Y-109008206D01*
X137911077Y-109002478D01*
X137863979Y-108977013D01*
X137746315Y-108913392D01*
X137555885Y-108854444D01*
X137431964Y-108841420D01*
X137361286Y-108833991D01*
X137361284Y-108833991D01*
X137357631Y-108833607D01*
X137159105Y-108851674D01*
X137159080Y-108851402D01*
X137110121Y-108843479D01*
X137076505Y-108804544D01*
X137071600Y-108777831D01*
X137071600Y-106491780D01*
X137089193Y-106443442D01*
X137093626Y-106438606D01*
X140641986Y-102890246D01*
X140688606Y-102868506D01*
X140704059Y-102868749D01*
X140758109Y-102875194D01*
X140831073Y-102869580D01*
X140926631Y-102862227D01*
X140976176Y-102876060D01*
X141005237Y-102918504D01*
X141007600Y-102937205D01*
X141007600Y-102968934D01*
X141007820Y-102970956D01*
X141007820Y-102970962D01*
X141013836Y-103026337D01*
X141014355Y-103031116D01*
X141016009Y-103035528D01*
X141016010Y-103035532D01*
X141050637Y-103127899D01*
X141065485Y-103167505D01*
X141068696Y-103171789D01*
X141075225Y-103180501D01*
X141090135Y-103229732D01*
X141075225Y-103270699D01*
X141065485Y-103283695D01*
X141063606Y-103288707D01*
X141063605Y-103288709D01*
X141018616Y-103408718D01*
X141014355Y-103420084D01*
X141013846Y-103424772D01*
X141013845Y-103424775D01*
X141010752Y-103453249D01*
X141007600Y-103482266D01*
X141007600Y-105508934D01*
X141007820Y-105510956D01*
X141007820Y-105510962D01*
X141013836Y-105566337D01*
X141014355Y-105571116D01*
X141016009Y-105575528D01*
X141016010Y-105575532D01*
X141062080Y-105698423D01*
X141065485Y-105707505D01*
X141068696Y-105711789D01*
X141075225Y-105720501D01*
X141090135Y-105769732D01*
X141075225Y-105810699D01*
X141065485Y-105823695D01*
X141063606Y-105828707D01*
X141063605Y-105828709D01*
X141018616Y-105948718D01*
X141014355Y-105960084D01*
X141013846Y-105964772D01*
X141013845Y-105964775D01*
X141010752Y-105993249D01*
X141007600Y-106022266D01*
X141007600Y-108048934D01*
X141007820Y-108050956D01*
X141007820Y-108050962D01*
X141013836Y-108106337D01*
X141014355Y-108111116D01*
X141016009Y-108115528D01*
X141016010Y-108115532D01*
X141050637Y-108207899D01*
X141065485Y-108247505D01*
X141152839Y-108364061D01*
X141269395Y-108451415D01*
X141274407Y-108453294D01*
X141274409Y-108453295D01*
X141401368Y-108500890D01*
X141401372Y-108500891D01*
X141405784Y-108502545D01*
X141410472Y-108503054D01*
X141410475Y-108503055D01*
X141465938Y-108509080D01*
X141465944Y-108509080D01*
X141467966Y-108509300D01*
X143352812Y-108509300D01*
X143401150Y-108526893D01*
X143426870Y-108571442D01*
X143427543Y-108592882D01*
X143415782Y-108697739D01*
X143416090Y-108701407D01*
X143416090Y-108701410D01*
X143428908Y-108854060D01*
X143432462Y-108896386D01*
X143487410Y-109088009D01*
X143578530Y-109265311D01*
X143702353Y-109421537D01*
X143854163Y-109550737D01*
X143857364Y-109552526D01*
X143857367Y-109552528D01*
X143881872Y-109566223D01*
X144028176Y-109647989D01*
X144217765Y-109709591D01*
X144278685Y-109716855D01*
X144324599Y-109740048D01*
X144344717Y-109785234D01*
X144346862Y-109810786D01*
X144401810Y-110002409D01*
X144492930Y-110179711D01*
X144616753Y-110335937D01*
X144768563Y-110465137D01*
X144771764Y-110466926D01*
X144771767Y-110466928D01*
X144846352Y-110508611D01*
X144942576Y-110562389D01*
X144946077Y-110563527D01*
X144946078Y-110563527D01*
X144973232Y-110572350D01*
X145132165Y-110623991D01*
X145193085Y-110631255D01*
X145238999Y-110654448D01*
X145259117Y-110699634D01*
X145261262Y-110725186D01*
X145316210Y-110916809D01*
X145407330Y-111094111D01*
X145531153Y-111250337D01*
X145682963Y-111379537D01*
X145686164Y-111381326D01*
X145686167Y-111381328D01*
X145712633Y-111396119D01*
X145856976Y-111476789D01*
X146046565Y-111538391D01*
X146114519Y-111546494D01*
X146135604Y-111549008D01*
X146181518Y-111572201D01*
X146201900Y-111623679D01*
X146201900Y-130350539D01*
X146200925Y-130359369D01*
X146201169Y-130359392D01*
X146200724Y-130364103D01*
X146199692Y-130368719D01*
X146201022Y-130411052D01*
X146201863Y-130437808D01*
X146201900Y-130440170D01*
X146201900Y-130468983D01*
X146202196Y-130471324D01*
X146202197Y-130471343D01*
X146202710Y-130475402D01*
X146203266Y-130482462D01*
X146204504Y-130521840D01*
X146204735Y-130529205D01*
X146206055Y-130533748D01*
X146211529Y-130552591D01*
X146213922Y-130564146D01*
X146216973Y-130588299D01*
X146218715Y-130592700D01*
X146218716Y-130592702D01*
X146234188Y-130631779D01*
X146236483Y-130638482D01*
X146249531Y-130683393D01*
X146251942Y-130687469D01*
X146251943Y-130687472D01*
X146261925Y-130704350D01*
X146267118Y-130714949D01*
X146273082Y-130730012D01*
X146276081Y-130737588D01*
X146303570Y-130775423D01*
X146307458Y-130781343D01*
X146328855Y-130817522D01*
X146331266Y-130821598D01*
X146348479Y-130838811D01*
X146356143Y-130847784D01*
X146370458Y-130867487D01*
X146404561Y-130895699D01*
X146406502Y-130897305D01*
X146411742Y-130902074D01*
X146830116Y-131320448D01*
X146851856Y-131367068D01*
X146851673Y-131382003D01*
X146844782Y-131443439D01*
X146845090Y-131447107D01*
X146845090Y-131447110D01*
X146854293Y-131556713D01*
X146861462Y-131642086D01*
X146916410Y-131833709D01*
X146918092Y-131836981D01*
X146918092Y-131836982D01*
X146920753Y-131842159D01*
X147007530Y-132011011D01*
X147131353Y-132167237D01*
X147283163Y-132296437D01*
X147286364Y-132298226D01*
X147286367Y-132298228D01*
X147328491Y-132321770D01*
X147457176Y-132393689D01*
X147646765Y-132455291D01*
X147756399Y-132468364D01*
X147841051Y-132478458D01*
X147841053Y-132478458D01*
X147844709Y-132478894D01*
X148043467Y-132463600D01*
X148125872Y-132440592D01*
X148231933Y-132410980D01*
X148231937Y-132410978D01*
X148235470Y-132409992D01*
X148238744Y-132408338D01*
X148238747Y-132408337D01*
X148320545Y-132367018D01*
X148413403Y-132320112D01*
X148416301Y-132317848D01*
X148416304Y-132317846D01*
X148567592Y-132199647D01*
X148567597Y-132199642D01*
X148570490Y-132197382D01*
X148700747Y-132046478D01*
X148702563Y-132043281D01*
X148702566Y-132043277D01*
X148797394Y-131876349D01*
X148797396Y-131876346D01*
X148799212Y-131873148D01*
X148862135Y-131683994D01*
X148887120Y-131486220D01*
X148887518Y-131457700D01*
X148886120Y-131443439D01*
X148868425Y-131262974D01*
X148868424Y-131262971D01*
X148868065Y-131259306D01*
X148810448Y-131068468D01*
X148789249Y-131028597D01*
X148741287Y-130938395D01*
X148716861Y-130892456D01*
X148693372Y-130863655D01*
X148599678Y-130748776D01*
X148582761Y-130700197D01*
X148592568Y-130664103D01*
X148683094Y-130504749D01*
X148683096Y-130504746D01*
X148684912Y-130501548D01*
X148721870Y-130390449D01*
X148746673Y-130315888D01*
X148746674Y-130315885D01*
X148747835Y-130312394D01*
X148756404Y-130244563D01*
X148779917Y-130198812D01*
X148825242Y-130179010D01*
X148827838Y-130178810D01*
X148843567Y-130177600D01*
X148933401Y-130152518D01*
X149032033Y-130124980D01*
X149032037Y-130124978D01*
X149035570Y-130123992D01*
X149038844Y-130122338D01*
X149038847Y-130122337D01*
X149120645Y-130081018D01*
X149213503Y-130034112D01*
X149216401Y-130031848D01*
X149216404Y-130031846D01*
X149367692Y-129913647D01*
X149367697Y-129913642D01*
X149370590Y-129911382D01*
X149500847Y-129760478D01*
X149502663Y-129757281D01*
X149502666Y-129757277D01*
X149597494Y-129590349D01*
X149597496Y-129590346D01*
X149599312Y-129587148D01*
X149659387Y-129406556D01*
X149661073Y-129401488D01*
X149661074Y-129401485D01*
X149662235Y-129397994D01*
X149687220Y-129200220D01*
X149687618Y-129171700D01*
X149687413Y-129169607D01*
X149668525Y-128976974D01*
X149668524Y-128976971D01*
X149668165Y-128973306D01*
X149610548Y-128782468D01*
X149601710Y-128765845D01*
X149518685Y-128609699D01*
X149516961Y-128606456D01*
X149482469Y-128564164D01*
X149393294Y-128454826D01*
X149390968Y-128451974D01*
X149388130Y-128449626D01*
X149328965Y-128400680D01*
X149302935Y-128356313D01*
X149301700Y-128342738D01*
X149301700Y-125922780D01*
X149319293Y-125874442D01*
X149323726Y-125869606D01*
X150277226Y-124916107D01*
X150323846Y-124894367D01*
X150373533Y-124907681D01*
X150403038Y-124949818D01*
X150405600Y-124969281D01*
X150405600Y-129162781D01*
X150388007Y-129211119D01*
X150377527Y-129221381D01*
X150351851Y-129242025D01*
X150223714Y-129394733D01*
X150127679Y-129569421D01*
X150126567Y-129572925D01*
X150126567Y-129572926D01*
X150121040Y-129590349D01*
X150067402Y-129759435D01*
X150066992Y-129763087D01*
X150066992Y-129763089D01*
X150058951Y-129834777D01*
X150045182Y-129957539D01*
X150045490Y-129961207D01*
X150045490Y-129961210D01*
X150049870Y-130013367D01*
X150061862Y-130156186D01*
X150116810Y-130347809D01*
X150118492Y-130351081D01*
X150118492Y-130351082D01*
X150171935Y-130455071D01*
X150207930Y-130525111D01*
X150331753Y-130681337D01*
X150483563Y-130810537D01*
X150486764Y-130812326D01*
X150486767Y-130812328D01*
X150534746Y-130839142D01*
X150657576Y-130907789D01*
X150661077Y-130908927D01*
X150661078Y-130908927D01*
X150701001Y-130921899D01*
X150847165Y-130969391D01*
X150956799Y-130982464D01*
X151041451Y-130992558D01*
X151041453Y-130992558D01*
X151045109Y-130992994D01*
X151243867Y-130977700D01*
X151326272Y-130954692D01*
X151432333Y-130925080D01*
X151432337Y-130925078D01*
X151435870Y-130924092D01*
X151439144Y-130922438D01*
X151439147Y-130922437D01*
X151555515Y-130863655D01*
X151613803Y-130834212D01*
X151616701Y-130831948D01*
X151616704Y-130831946D01*
X151767992Y-130713747D01*
X151767997Y-130713742D01*
X151770890Y-130711482D01*
X151901147Y-130560578D01*
X151902963Y-130557381D01*
X151902966Y-130557377D01*
X151997794Y-130390449D01*
X151997796Y-130390446D01*
X151999612Y-130387248D01*
X152047077Y-130244563D01*
X152061373Y-130201588D01*
X152061374Y-130201585D01*
X152062535Y-130198094D01*
X152087520Y-130000320D01*
X152087918Y-129971800D01*
X152068465Y-129773406D01*
X152010848Y-129582568D01*
X152005722Y-129572926D01*
X151918985Y-129409799D01*
X151917261Y-129406556D01*
X151907619Y-129394733D01*
X151793594Y-129254926D01*
X151791268Y-129252074D01*
X151788431Y-129249727D01*
X151788425Y-129249721D01*
X151754666Y-129221793D01*
X151728635Y-129177426D01*
X151727400Y-129163851D01*
X151727400Y-128421117D01*
X151744993Y-128372779D01*
X151789542Y-128347059D01*
X151811501Y-128346446D01*
X151822482Y-128347755D01*
X151868398Y-128370946D01*
X151888517Y-128416134D01*
X151890662Y-128441686D01*
X151945610Y-128633309D01*
X152036730Y-128810611D01*
X152160553Y-128966837D01*
X152312363Y-129096037D01*
X152315564Y-129097826D01*
X152315567Y-129097828D01*
X152357691Y-129121370D01*
X152486376Y-129193289D01*
X152489877Y-129194427D01*
X152489878Y-129194427D01*
X152504685Y-129199238D01*
X152675965Y-129254891D01*
X152785599Y-129267964D01*
X152870251Y-129278058D01*
X152870253Y-129278058D01*
X152873909Y-129278494D01*
X153072667Y-129263200D01*
X153156749Y-129239724D01*
X153261133Y-129210580D01*
X153261137Y-129210578D01*
X153264670Y-129209592D01*
X153267944Y-129207938D01*
X153267947Y-129207937D01*
X153357340Y-129162781D01*
X153442603Y-129119712D01*
X153445501Y-129117448D01*
X153445504Y-129117446D01*
X153596792Y-128999247D01*
X153596797Y-128999242D01*
X153599690Y-128996982D01*
X153667121Y-128918863D01*
X153712024Y-128893767D01*
X153724047Y-128892800D01*
X153959839Y-128892800D01*
X153968669Y-128893775D01*
X153968692Y-128893531D01*
X153973403Y-128893976D01*
X153978019Y-128895008D01*
X154047107Y-128892837D01*
X154049470Y-128892800D01*
X154078283Y-128892800D01*
X154080624Y-128892504D01*
X154080643Y-128892503D01*
X154084702Y-128891990D01*
X154091762Y-128891434D01*
X154133778Y-128890114D01*
X154133782Y-128890113D01*
X154138505Y-128889965D01*
X154146275Y-128887707D01*
X154161891Y-128883171D01*
X154173446Y-128880778D01*
X154173515Y-128880769D01*
X154197599Y-128877727D01*
X154202000Y-128875985D01*
X154202002Y-128875984D01*
X154241079Y-128860512D01*
X154247782Y-128858217D01*
X154265371Y-128853107D01*
X154292693Y-128845169D01*
X154296769Y-128842758D01*
X154296772Y-128842757D01*
X154313650Y-128832775D01*
X154324249Y-128827582D01*
X154342491Y-128820360D01*
X154342492Y-128820359D01*
X154346888Y-128818619D01*
X154384728Y-128791127D01*
X154390643Y-128787242D01*
X154426822Y-128765845D01*
X154426824Y-128765843D01*
X154430898Y-128763434D01*
X154448111Y-128746221D01*
X154457084Y-128738557D01*
X154472955Y-128727026D01*
X154472954Y-128727026D01*
X154476787Y-128724242D01*
X154506605Y-128688198D01*
X154511374Y-128682958D01*
X162510772Y-120683561D01*
X162557392Y-120661821D01*
X162607079Y-120675135D01*
X162636584Y-120717272D01*
X162638677Y-120745115D01*
X162618182Y-120927839D01*
X162618490Y-120931507D01*
X162618490Y-120931510D01*
X162627086Y-121033882D01*
X162634862Y-121126486D01*
X162689810Y-121318109D01*
X162780930Y-121495411D01*
X162904753Y-121651637D01*
X163056563Y-121780837D01*
X163059764Y-121782626D01*
X163059767Y-121782628D01*
X163117032Y-121814632D01*
X163230576Y-121878089D01*
X163408452Y-121935885D01*
X163448987Y-121967554D01*
X163459682Y-122017870D01*
X163438388Y-122060578D01*
X163347215Y-122151751D01*
X163340280Y-122157307D01*
X163340437Y-122157496D01*
X163336790Y-122160513D01*
X163332797Y-122163047D01*
X163329560Y-122166494D01*
X163285460Y-122213456D01*
X163283815Y-122215152D01*
X163263461Y-122235506D01*
X163259494Y-122240620D01*
X163254901Y-122245998D01*
X163222883Y-122280094D01*
X163220606Y-122284235D01*
X163220605Y-122284237D01*
X163211153Y-122301430D01*
X163204676Y-122311290D01*
X163189750Y-122330533D01*
X163171176Y-122373456D01*
X163168060Y-122379817D01*
X163145531Y-122420797D01*
X163139476Y-122444380D01*
X163135654Y-122455543D01*
X163125983Y-122477892D01*
X163125243Y-122482565D01*
X163125242Y-122482568D01*
X163118666Y-122524089D01*
X163117229Y-122531026D01*
X163105600Y-122576318D01*
X163105600Y-122600666D01*
X163104674Y-122612430D01*
X163100865Y-122636479D01*
X163101311Y-122641192D01*
X163105266Y-122683036D01*
X163105600Y-122690113D01*
X163105600Y-127563604D01*
X163104973Y-127573297D01*
X163100553Y-127607302D01*
X163101130Y-127612005D01*
X163105485Y-127647505D01*
X163105600Y-127648741D01*
X163105600Y-127649583D01*
X163105896Y-127651923D01*
X163110475Y-127688172D01*
X163110508Y-127688440D01*
X163118737Y-127755511D01*
X163120106Y-127766672D01*
X163120528Y-127767748D01*
X163120673Y-127768899D01*
X163149832Y-127842546D01*
X163178677Y-127916171D01*
X163179354Y-127917110D01*
X163179781Y-127918188D01*
X163226279Y-127982187D01*
X163272588Y-128046409D01*
X163273477Y-128047150D01*
X163274158Y-128048087D01*
X163335116Y-128098516D01*
X163553981Y-128280903D01*
X163840542Y-128519704D01*
X163866413Y-128564164D01*
X163867600Y-128577474D01*
X163867600Y-130198139D01*
X163866625Y-130206969D01*
X163866869Y-130206992D01*
X163866424Y-130211703D01*
X163865392Y-130216319D01*
X163866280Y-130244563D01*
X163867563Y-130285408D01*
X163867600Y-130287770D01*
X163867600Y-130316583D01*
X163867896Y-130318924D01*
X163867897Y-130318943D01*
X163868410Y-130323002D01*
X163868966Y-130330062D01*
X163870181Y-130368719D01*
X163870435Y-130376805D01*
X163871755Y-130381348D01*
X163877229Y-130400191D01*
X163879622Y-130411746D01*
X163882673Y-130435899D01*
X163884415Y-130440300D01*
X163884416Y-130440302D01*
X163899888Y-130479379D01*
X163902183Y-130486082D01*
X163915231Y-130530993D01*
X163917642Y-130535069D01*
X163917643Y-130535072D01*
X163927625Y-130551950D01*
X163932818Y-130562549D01*
X163934992Y-130568039D01*
X163941781Y-130585188D01*
X163966940Y-130619816D01*
X163969270Y-130623023D01*
X163973158Y-130628943D01*
X163994555Y-130665122D01*
X163996966Y-130669198D01*
X164014179Y-130686411D01*
X164021843Y-130695384D01*
X164036158Y-130715087D01*
X164072202Y-130744905D01*
X164077442Y-130749674D01*
X164607574Y-131279807D01*
X164629314Y-131326427D01*
X164629600Y-131332981D01*
X164629600Y-133257159D01*
X164612007Y-133305497D01*
X164601521Y-133315764D01*
X164560300Y-133348907D01*
X164559057Y-133349906D01*
X164511937Y-133366500D01*
X159685582Y-133366500D01*
X159637244Y-133348907D01*
X159629698Y-133341619D01*
X159613889Y-133324061D01*
X159613886Y-133324059D01*
X159611253Y-133321134D01*
X159456752Y-133208882D01*
X159453152Y-133207279D01*
X159453150Y-133207278D01*
X159382024Y-133175611D01*
X159282288Y-133131206D01*
X159278441Y-133130388D01*
X159278437Y-133130387D01*
X159177803Y-133108997D01*
X159095487Y-133091500D01*
X158904513Y-133091500D01*
X158822197Y-133108997D01*
X158721563Y-133130387D01*
X158721559Y-133130388D01*
X158717712Y-133131206D01*
X158617976Y-133175611D01*
X158546850Y-133207278D01*
X158546848Y-133207279D01*
X158543248Y-133208882D01*
X158388747Y-133321134D01*
X158260960Y-133463056D01*
X158165473Y-133628444D01*
X158106458Y-133810072D01*
X158106047Y-133813986D01*
X158106046Y-133813989D01*
X158094902Y-133920017D01*
X158086496Y-134000000D01*
X158086908Y-134003920D01*
X158105725Y-134182952D01*
X158106458Y-134189928D01*
X158165473Y-134371556D01*
X158167443Y-134374968D01*
X158242661Y-134505249D01*
X158260960Y-134536944D01*
X158388747Y-134678866D01*
X158543248Y-134791118D01*
X158546848Y-134792721D01*
X158546850Y-134792722D01*
X158582572Y-134808626D01*
X158717712Y-134868794D01*
X158721559Y-134869612D01*
X158721563Y-134869613D01*
X158811112Y-134888647D01*
X158904513Y-134908500D01*
X159095487Y-134908500D01*
X159188888Y-134888647D01*
X159278437Y-134869613D01*
X159278441Y-134869612D01*
X159282288Y-134868794D01*
X159417428Y-134808626D01*
X159453150Y-134792722D01*
X159453152Y-134792721D01*
X159456752Y-134791118D01*
X159611253Y-134678866D01*
X159626449Y-134661990D01*
X159629698Y-134658381D01*
X159675117Y-134634232D01*
X159685582Y-134633500D01*
X164365096Y-134633500D01*
X164413434Y-134651093D01*
X164424028Y-134661988D01*
X164530353Y-134796137D01*
X164682163Y-134925337D01*
X164685364Y-134927126D01*
X164685367Y-134927128D01*
X164727491Y-134950670D01*
X164856176Y-135022589D01*
X165045765Y-135084191D01*
X165155399Y-135097264D01*
X165240051Y-135107358D01*
X165240053Y-135107358D01*
X165243709Y-135107794D01*
X165442467Y-135092500D01*
X165524872Y-135069492D01*
X165630933Y-135039880D01*
X165630937Y-135039878D01*
X165634470Y-135038892D01*
X165637744Y-135037238D01*
X165637747Y-135037237D01*
X165776646Y-134967074D01*
X165812403Y-134949012D01*
X165815301Y-134946748D01*
X165815304Y-134946746D01*
X165966592Y-134828547D01*
X165966597Y-134828542D01*
X165969490Y-134826282D01*
X166099747Y-134675378D01*
X166101563Y-134672181D01*
X166101566Y-134672177D01*
X166196394Y-134505249D01*
X166196396Y-134505246D01*
X166198212Y-134502048D01*
X166251006Y-134343344D01*
X166259973Y-134316388D01*
X166259974Y-134316385D01*
X166261135Y-134312894D01*
X166286120Y-134115120D01*
X166286518Y-134086600D01*
X166282041Y-134040940D01*
X166267425Y-133891874D01*
X166267424Y-133891871D01*
X166267065Y-133888206D01*
X166209448Y-133697368D01*
X166115861Y-133521356D01*
X166068313Y-133463056D01*
X165992194Y-133369726D01*
X165989868Y-133366874D01*
X165974872Y-133354468D01*
X165927865Y-133315580D01*
X165901835Y-133271213D01*
X165900600Y-133257638D01*
X165900600Y-131117066D01*
X165901576Y-131108232D01*
X165901332Y-131108209D01*
X165901777Y-131103496D01*
X165902809Y-131098881D01*
X165900637Y-131029774D01*
X165900600Y-131027412D01*
X165900600Y-130998617D01*
X165899789Y-130992196D01*
X165899235Y-130985150D01*
X165897914Y-130943123D01*
X165897914Y-130943120D01*
X165897765Y-130938395D01*
X165893610Y-130924092D01*
X165890971Y-130915009D01*
X165888578Y-130903454D01*
X165887598Y-130895699D01*
X165885527Y-130879301D01*
X165882045Y-130870505D01*
X165868312Y-130835821D01*
X165866017Y-130829118D01*
X165854290Y-130788755D01*
X165852969Y-130784207D01*
X165850557Y-130780128D01*
X165840575Y-130763250D01*
X165835382Y-130752651D01*
X165828160Y-130734409D01*
X165828159Y-130734408D01*
X165826419Y-130730012D01*
X165798927Y-130692172D01*
X165795042Y-130686257D01*
X165773645Y-130650078D01*
X165773643Y-130650076D01*
X165771234Y-130646002D01*
X165754021Y-130628789D01*
X165746357Y-130619816D01*
X165732042Y-130600113D01*
X165695998Y-130570295D01*
X165690758Y-130565526D01*
X165160626Y-130035393D01*
X165138886Y-129988773D01*
X165138600Y-129982219D01*
X165138600Y-128290596D01*
X165139227Y-128280903D01*
X165143037Y-128251592D01*
X165143037Y-128251591D01*
X165143647Y-128246898D01*
X165138713Y-128206683D01*
X165138600Y-128205462D01*
X165138600Y-128204617D01*
X165133743Y-128166167D01*
X165124095Y-128087528D01*
X165123672Y-128086448D01*
X165123527Y-128085301D01*
X165094415Y-128011773D01*
X165065523Y-127938029D01*
X165064846Y-127937090D01*
X165064419Y-127936012D01*
X165017871Y-127871944D01*
X164971612Y-127807791D01*
X164970723Y-127807050D01*
X164970042Y-127806113D01*
X164909084Y-127755684D01*
X164403658Y-127334496D01*
X164377787Y-127290036D01*
X164376600Y-127276726D01*
X164376600Y-122950980D01*
X164394193Y-122902642D01*
X164398626Y-122897806D01*
X164768846Y-122527587D01*
X165150982Y-122145451D01*
X165157919Y-122139893D01*
X165157763Y-122139704D01*
X165161410Y-122136687D01*
X165165403Y-122134153D01*
X165212740Y-122083744D01*
X165214385Y-122082048D01*
X165234739Y-122061694D01*
X165238706Y-122056580D01*
X165243299Y-122051202D01*
X165272083Y-122020550D01*
X165272083Y-122020549D01*
X165275317Y-122017106D01*
X165287047Y-121995770D01*
X165293526Y-121985907D01*
X165305546Y-121970411D01*
X165308450Y-121966667D01*
X165327024Y-121923743D01*
X165330140Y-121917383D01*
X165350390Y-121880549D01*
X165350391Y-121880547D01*
X165352669Y-121876403D01*
X165358724Y-121852820D01*
X165362546Y-121841657D01*
X165370337Y-121823653D01*
X165370337Y-121823651D01*
X165372217Y-121819308D01*
X165379534Y-121773111D01*
X165380971Y-121766174D01*
X165391422Y-121725469D01*
X165392600Y-121720882D01*
X165392600Y-121696534D01*
X165393526Y-121684770D01*
X165396595Y-121665396D01*
X165396595Y-121665392D01*
X165397335Y-121660721D01*
X165392934Y-121614164D01*
X165392600Y-121607087D01*
X165392600Y-118406782D01*
X165410193Y-118358444D01*
X165421502Y-118347524D01*
X165458592Y-118318547D01*
X165458597Y-118318542D01*
X165461490Y-118316282D01*
X165591747Y-118165378D01*
X165593563Y-118162181D01*
X165593566Y-118162177D01*
X165688394Y-117995249D01*
X165688396Y-117995246D01*
X165690212Y-117992048D01*
X165753135Y-117802894D01*
X165778120Y-117605120D01*
X165778518Y-117576600D01*
X165767165Y-117460817D01*
X165759425Y-117381874D01*
X165759424Y-117381871D01*
X165759065Y-117378206D01*
X165701448Y-117187368D01*
X165607861Y-117011356D01*
X165481868Y-116856874D01*
X165479037Y-116854532D01*
X165479033Y-116854528D01*
X165396711Y-116786425D01*
X165328270Y-116729806D01*
X165152915Y-116634992D01*
X164962485Y-116576044D01*
X164838564Y-116563020D01*
X164767886Y-116555591D01*
X164767884Y-116555591D01*
X164764231Y-116555207D01*
X164664968Y-116564241D01*
X164569363Y-116572941D01*
X164569362Y-116572941D01*
X164565705Y-116573274D01*
X164562180Y-116574311D01*
X164562177Y-116574312D01*
X164374470Y-116629558D01*
X164374164Y-116628519D01*
X164326953Y-116630162D01*
X164286422Y-116598487D01*
X164275000Y-116558645D01*
X164275000Y-116214586D01*
X164292593Y-116166248D01*
X164297963Y-116160490D01*
X164349746Y-116110487D01*
X164928028Y-115552077D01*
X167180174Y-113377325D01*
X167227167Y-113356404D01*
X167241315Y-113356750D01*
X167310151Y-113364958D01*
X167310153Y-113364958D01*
X167313809Y-113365394D01*
X167512567Y-113350100D01*
X167594972Y-113327092D01*
X167701033Y-113297480D01*
X167701037Y-113297478D01*
X167704570Y-113296492D01*
X167707844Y-113294838D01*
X167707847Y-113294837D01*
X167789645Y-113253518D01*
X167882503Y-113206612D01*
X167885401Y-113204348D01*
X167885404Y-113204346D01*
X168036692Y-113086147D01*
X168036697Y-113086142D01*
X168039590Y-113083882D01*
X168169847Y-112932978D01*
X168171663Y-112929781D01*
X168171666Y-112929777D01*
X168266494Y-112762849D01*
X168266496Y-112762846D01*
X168268312Y-112759648D01*
X168299773Y-112665071D01*
X168330073Y-112573988D01*
X168330074Y-112573985D01*
X168331235Y-112570494D01*
X168356220Y-112372720D01*
X168356618Y-112344200D01*
X168337165Y-112145806D01*
X168279548Y-111954968D01*
X168274422Y-111945326D01*
X168187685Y-111782199D01*
X168185961Y-111778956D01*
X168176319Y-111767133D01*
X168062291Y-111627322D01*
X168062290Y-111627321D01*
X168059968Y-111624474D01*
X168057137Y-111622132D01*
X168057133Y-111622128D01*
X167955912Y-111538391D01*
X167906370Y-111497406D01*
X167896034Y-111491817D01*
X167832192Y-111457298D01*
X167731015Y-111402592D01*
X167540585Y-111343644D01*
X167416664Y-111330620D01*
X167345986Y-111323191D01*
X167345984Y-111323191D01*
X167342331Y-111322807D01*
X167243068Y-111331840D01*
X167147463Y-111340541D01*
X167147462Y-111340541D01*
X167143805Y-111340874D01*
X167140280Y-111341911D01*
X167140277Y-111341912D01*
X167006355Y-111381328D01*
X166952570Y-111397158D01*
X166775909Y-111489514D01*
X166763171Y-111499756D01*
X166692082Y-111556913D01*
X166620551Y-111614425D01*
X166492414Y-111767133D01*
X166396379Y-111941821D01*
X166395267Y-111945325D01*
X166395267Y-111945326D01*
X166391002Y-111958770D01*
X166336102Y-112131835D01*
X166335692Y-112135487D01*
X166335692Y-112135489D01*
X166329343Y-112192097D01*
X166313882Y-112329939D01*
X166314190Y-112333607D01*
X166314190Y-112333610D01*
X166319986Y-112402632D01*
X166306499Y-112452272D01*
X166297287Y-112463020D01*
X166235347Y-112522831D01*
X166188353Y-112543752D01*
X166138907Y-112529572D01*
X166111120Y-112490470D01*
X166096211Y-112441089D01*
X166095148Y-112437568D01*
X166087659Y-112423482D01*
X166022251Y-112300469D01*
X166001561Y-112261556D01*
X165944912Y-112192097D01*
X165877891Y-112109922D01*
X165877890Y-112109921D01*
X165875568Y-112107074D01*
X165872737Y-112104732D01*
X165872733Y-112104728D01*
X165790411Y-112036625D01*
X165721970Y-111980006D01*
X165682694Y-111958770D01*
X165648541Y-111920304D01*
X165647104Y-111868885D01*
X165665286Y-111839446D01*
X167462382Y-110042350D01*
X167469321Y-110036790D01*
X167469165Y-110036601D01*
X167472804Y-110033591D01*
X167476803Y-110031053D01*
X167524155Y-109980628D01*
X167525800Y-109978932D01*
X167546138Y-109958594D01*
X167550103Y-109953483D01*
X167554702Y-109948098D01*
X167556485Y-109946200D01*
X167586717Y-109914006D01*
X167588994Y-109909863D01*
X167588999Y-109909857D01*
X167598450Y-109892665D01*
X167604928Y-109882803D01*
X167616947Y-109867308D01*
X167619849Y-109863567D01*
X167638423Y-109820646D01*
X167641539Y-109814285D01*
X167645479Y-109807118D01*
X167664069Y-109773303D01*
X167665244Y-109768727D01*
X167665247Y-109768719D01*
X167670126Y-109749716D01*
X167673948Y-109738553D01*
X167681737Y-109720553D01*
X167681738Y-109720551D01*
X167683617Y-109716208D01*
X167690934Y-109670011D01*
X167692371Y-109663074D01*
X167702822Y-109622369D01*
X167704000Y-109617782D01*
X167704000Y-109593434D01*
X167704926Y-109581670D01*
X167707995Y-109562296D01*
X167707995Y-109562292D01*
X167708735Y-109557621D01*
X167704334Y-109511064D01*
X167704000Y-109503987D01*
X167704000Y-75071966D01*
X167704976Y-75063132D01*
X167704732Y-75063109D01*
X167705177Y-75058396D01*
X167706209Y-75053781D01*
X167704037Y-74984674D01*
X167704000Y-74982312D01*
X167704000Y-74953517D01*
X167703189Y-74947096D01*
X167702635Y-74940050D01*
X167701314Y-74898023D01*
X167701314Y-74898020D01*
X167701165Y-74893295D01*
X167695805Y-74874843D01*
X167694371Y-74869909D01*
X167691978Y-74858354D01*
X167691424Y-74853970D01*
X167688927Y-74834201D01*
X167671712Y-74790721D01*
X167669417Y-74784018D01*
X167657690Y-74743655D01*
X167656369Y-74739107D01*
X167653957Y-74735028D01*
X167643975Y-74718150D01*
X167638782Y-74707551D01*
X167631560Y-74689309D01*
X167631559Y-74689308D01*
X167629819Y-74684912D01*
X167602327Y-74647072D01*
X167598442Y-74641157D01*
X167577045Y-74604978D01*
X167577043Y-74604976D01*
X167574634Y-74600902D01*
X167557421Y-74583689D01*
X167549757Y-74574716D01*
X167538226Y-74558845D01*
X167535442Y-74555013D01*
X167499398Y-74525195D01*
X167494158Y-74520426D01*
X162544151Y-69570418D01*
X162538593Y-69563481D01*
X162538404Y-69563637D01*
X162535387Y-69559990D01*
X162532853Y-69555997D01*
X162482444Y-69508660D01*
X162480748Y-69507015D01*
X162460394Y-69486661D01*
X162455280Y-69482694D01*
X162449902Y-69478101D01*
X162419250Y-69449317D01*
X162419249Y-69449317D01*
X162415806Y-69446083D01*
X162411665Y-69443806D01*
X162411663Y-69443805D01*
X162394470Y-69434353D01*
X162384607Y-69427874D01*
X162369111Y-69415854D01*
X162365367Y-69412950D01*
X162322443Y-69394376D01*
X162316083Y-69391260D01*
X162279249Y-69371010D01*
X162279247Y-69371009D01*
X162275103Y-69368731D01*
X162251520Y-69362676D01*
X162240357Y-69358854D01*
X162222353Y-69351063D01*
X162222351Y-69351063D01*
X162218008Y-69349183D01*
X162213335Y-69348443D01*
X162213332Y-69348442D01*
X162171811Y-69341866D01*
X162164874Y-69340429D01*
X162157084Y-69338429D01*
X162119582Y-69328800D01*
X162095234Y-69328800D01*
X162083470Y-69327874D01*
X162064096Y-69324805D01*
X162064092Y-69324805D01*
X162059421Y-69324065D01*
X162019127Y-69327874D01*
X162012864Y-69328466D01*
X162005787Y-69328800D01*
X143715461Y-69328800D01*
X143706631Y-69327825D01*
X143706608Y-69328069D01*
X143701897Y-69327624D01*
X143697281Y-69326592D01*
X143630044Y-69328705D01*
X143628192Y-69328763D01*
X143625830Y-69328800D01*
X143597017Y-69328800D01*
X143594676Y-69329096D01*
X143594657Y-69329097D01*
X143590598Y-69329610D01*
X143583538Y-69330166D01*
X143541522Y-69331486D01*
X143541518Y-69331487D01*
X143536795Y-69331635D01*
X143532251Y-69332955D01*
X143532252Y-69332955D01*
X143513409Y-69338429D01*
X143501854Y-69340822D01*
X143477701Y-69343873D01*
X143473300Y-69345615D01*
X143473298Y-69345616D01*
X143434221Y-69361088D01*
X143427518Y-69363383D01*
X143413286Y-69367518D01*
X143382607Y-69376431D01*
X143361642Y-69388830D01*
X143351059Y-69394015D01*
X143328412Y-69402981D01*
X143324584Y-69405762D01*
X143324579Y-69405765D01*
X143290575Y-69430470D01*
X143284654Y-69434359D01*
X143248480Y-69455753D01*
X143248476Y-69455756D01*
X143244401Y-69458166D01*
X143227185Y-69475382D01*
X143218213Y-69483046D01*
X143198513Y-69497358D01*
X143168700Y-69533396D01*
X143163931Y-69538636D01*
X135797391Y-76905176D01*
X135750771Y-76926916D01*
X135701084Y-76913602D01*
X135671579Y-76871465D01*
X135671096Y-76834442D01*
X135671464Y-76832910D01*
X135672573Y-76829643D01*
X135673069Y-76826228D01*
X135703082Y-76619224D01*
X135703399Y-76617038D01*
X135705008Y-76555600D01*
X135702185Y-76524871D01*
X135685666Y-76345105D01*
X135685351Y-76341672D01*
X135627038Y-76134909D01*
X135532021Y-75942235D01*
X135403484Y-75770102D01*
X135245730Y-75624276D01*
X135216587Y-75605888D01*
X135066954Y-75511476D01*
X135066948Y-75511473D01*
X135064043Y-75509640D01*
X134864508Y-75430034D01*
X134653807Y-75388123D01*
X134523842Y-75386422D01*
X134442439Y-75385356D01*
X134442438Y-75385356D01*
X134438996Y-75385311D01*
X134435605Y-75385894D01*
X134435601Y-75385894D01*
X134230662Y-75421109D01*
X134230660Y-75421109D01*
X134227270Y-75421692D01*
X134025720Y-75496048D01*
X133841094Y-75605888D01*
X133838505Y-75608159D01*
X133838503Y-75608160D01*
X133682375Y-75745081D01*
X133679577Y-75747535D01*
X133677443Y-75750241D01*
X133677441Y-75750244D01*
X133659608Y-75772866D01*
X133546578Y-75916244D01*
X133446550Y-76106365D01*
X133445530Y-76109650D01*
X133395545Y-76270631D01*
X133382845Y-76311531D01*
X133382440Y-76314951D01*
X133382440Y-76314952D01*
X133378871Y-76345105D01*
X133357594Y-76524871D01*
X133371645Y-76739240D01*
X133424526Y-76947459D01*
X133514466Y-77142554D01*
X133516462Y-77145378D01*
X133636463Y-77315177D01*
X133636466Y-77315181D01*
X133638453Y-77317992D01*
X133640920Y-77320395D01*
X133759970Y-77436368D01*
X133792336Y-77467898D01*
X133970960Y-77587250D01*
X134073060Y-77631116D01*
X134165176Y-77670693D01*
X134165178Y-77670694D01*
X134168342Y-77672053D01*
X134377874Y-77719465D01*
X134501696Y-77724330D01*
X134589094Y-77727764D01*
X134589097Y-77727764D01*
X134592538Y-77727899D01*
X134595943Y-77727405D01*
X134595948Y-77727405D01*
X134801732Y-77697568D01*
X134801737Y-77697567D01*
X134805143Y-77697073D01*
X134808410Y-77695964D01*
X134809942Y-77695596D01*
X134861052Y-77701416D01*
X134896463Y-77738727D01*
X134899607Y-77790070D01*
X134880676Y-77821891D01*
X134782852Y-77919715D01*
X134736232Y-77941455D01*
X134715008Y-77940296D01*
X134657192Y-77928796D01*
X134657189Y-77928796D01*
X134653807Y-77928123D01*
X134523842Y-77926422D01*
X134442439Y-77925356D01*
X134442438Y-77925356D01*
X134438996Y-77925311D01*
X134435605Y-77925894D01*
X134435601Y-77925894D01*
X134230662Y-77961109D01*
X134230660Y-77961109D01*
X134227270Y-77961692D01*
X134025720Y-78036048D01*
X133841094Y-78145888D01*
X133838505Y-78148159D01*
X133838503Y-78148160D01*
X133728935Y-78244249D01*
X133679577Y-78287535D01*
X133677443Y-78290241D01*
X133677441Y-78290244D01*
X133582106Y-78411177D01*
X133546578Y-78456244D01*
X133544975Y-78459291D01*
X133544973Y-78459294D01*
X133448153Y-78643318D01*
X133446550Y-78646365D01*
X133445530Y-78649650D01*
X133389065Y-78831500D01*
X133382845Y-78851531D01*
X133382440Y-78854951D01*
X133382440Y-78854952D01*
X133377188Y-78899323D01*
X133357594Y-79064871D01*
X133357819Y-79068305D01*
X133357819Y-79068307D01*
X133362048Y-79132821D01*
X133371645Y-79279240D01*
X133424526Y-79487459D01*
X133514466Y-79682554D01*
X133516462Y-79685378D01*
X133636463Y-79855177D01*
X133636466Y-79855181D01*
X133638453Y-79857992D01*
X133650988Y-79870203D01*
X133770149Y-79986284D01*
X133792336Y-80007898D01*
X133970960Y-80127250D01*
X134061932Y-80166335D01*
X134165176Y-80210693D01*
X134165178Y-80210694D01*
X134168342Y-80212053D01*
X134377874Y-80259465D01*
X134501696Y-80264330D01*
X134589094Y-80267764D01*
X134589097Y-80267764D01*
X134592538Y-80267899D01*
X134595943Y-80267405D01*
X134595948Y-80267405D01*
X134748518Y-80245283D01*
X134805143Y-80237073D01*
X134870324Y-80214947D01*
X135005308Y-80169126D01*
X135005311Y-80169125D01*
X135008571Y-80168018D01*
X135196009Y-80063048D01*
X135361178Y-79925678D01*
X135498548Y-79760509D01*
X135603518Y-79573071D01*
X135633715Y-79484116D01*
X135666191Y-79388444D01*
X135698388Y-79348327D01*
X135748840Y-79338291D01*
X135793938Y-79363033D01*
X135812600Y-79412616D01*
X135812600Y-79744734D01*
X135812820Y-79746756D01*
X135812820Y-79746762D01*
X135815297Y-79769558D01*
X135819355Y-79806916D01*
X135821009Y-79811328D01*
X135821010Y-79811332D01*
X135843080Y-79870203D01*
X135843080Y-79922997D01*
X135819355Y-79986284D01*
X135818846Y-79990972D01*
X135818845Y-79990975D01*
X135812932Y-80045411D01*
X135812600Y-80048466D01*
X135812600Y-81329182D01*
X135795007Y-81377520D01*
X135750458Y-81403240D01*
X135699800Y-81394307D01*
X135666735Y-81354902D01*
X135665023Y-81349594D01*
X135633191Y-81236726D01*
X135627038Y-81214909D01*
X135532021Y-81022235D01*
X135403484Y-80850102D01*
X135245730Y-80704276D01*
X135242819Y-80702439D01*
X135066954Y-80591476D01*
X135066948Y-80591473D01*
X135064043Y-80589640D01*
X134864508Y-80510034D01*
X134653807Y-80468123D01*
X134523842Y-80466422D01*
X134442439Y-80465356D01*
X134442438Y-80465356D01*
X134438996Y-80465311D01*
X134435605Y-80465894D01*
X134435601Y-80465894D01*
X134230662Y-80501109D01*
X134230660Y-80501109D01*
X134227270Y-80501692D01*
X134025720Y-80576048D01*
X133841094Y-80685888D01*
X133838505Y-80688159D01*
X133838503Y-80688160D01*
X133732738Y-80780914D01*
X133679577Y-80827535D01*
X133677443Y-80830241D01*
X133677441Y-80830244D01*
X133619674Y-80903522D01*
X133546578Y-80996244D01*
X133446550Y-81186365D01*
X133445530Y-81189650D01*
X133395867Y-81349594D01*
X133382845Y-81391531D01*
X133382440Y-81394951D01*
X133382440Y-81394952D01*
X133378871Y-81425105D01*
X133357594Y-81604871D01*
X133371645Y-81819240D01*
X133377793Y-81843447D01*
X133389591Y-81889903D01*
X133384437Y-81941084D01*
X133369879Y-81961588D01*
X129641418Y-85690049D01*
X129634481Y-85695607D01*
X129634637Y-85695796D01*
X129630990Y-85698813D01*
X129626997Y-85701347D01*
X129623760Y-85704794D01*
X129579660Y-85751756D01*
X129578015Y-85753452D01*
X129557661Y-85773806D01*
X129553694Y-85778920D01*
X129549101Y-85784298D01*
X129517083Y-85818394D01*
X129514806Y-85822535D01*
X129514805Y-85822537D01*
X129505353Y-85839730D01*
X129498876Y-85849590D01*
X129483950Y-85868833D01*
X129467621Y-85906568D01*
X129465376Y-85911756D01*
X129462260Y-85918117D01*
X129443860Y-85951587D01*
X129439731Y-85959097D01*
X129438554Y-85963682D01*
X129433676Y-85982680D01*
X129429854Y-85993843D01*
X129425004Y-86005052D01*
X129420183Y-86016192D01*
X129419443Y-86020865D01*
X129419442Y-86020868D01*
X129412866Y-86062389D01*
X129411429Y-86069326D01*
X129399800Y-86114618D01*
X129399800Y-86138966D01*
X129398874Y-86150730D01*
X129395065Y-86174779D01*
X128282700Y-86174779D01*
X128282700Y-73984871D01*
X133357594Y-73984871D01*
X133371645Y-74199240D01*
X133424526Y-74407459D01*
X133514466Y-74602554D01*
X133516462Y-74605378D01*
X133636463Y-74775177D01*
X133636466Y-74775181D01*
X133638453Y-74777992D01*
X133640920Y-74780395D01*
X133733816Y-74870890D01*
X133792336Y-74927898D01*
X133970960Y-75047250D01*
X134061932Y-75086335D01*
X134165176Y-75130693D01*
X134165178Y-75130694D01*
X134168342Y-75132053D01*
X134377874Y-75179465D01*
X134501696Y-75184330D01*
X134589094Y-75187764D01*
X134589097Y-75187764D01*
X134592538Y-75187899D01*
X134595943Y-75187405D01*
X134595948Y-75187405D01*
X134748518Y-75165283D01*
X134805143Y-75157073D01*
X134808413Y-75155963D01*
X135005308Y-75089126D01*
X135005311Y-75089125D01*
X135008571Y-75088018D01*
X135196009Y-74983048D01*
X135361178Y-74845678D01*
X135498548Y-74680509D01*
X135603518Y-74493071D01*
X135633715Y-74404116D01*
X135671463Y-74292913D01*
X135672573Y-74289643D01*
X135703399Y-74077038D01*
X135704372Y-74039906D01*
X135704950Y-74017817D01*
X135704950Y-74017816D01*
X135705008Y-74015600D01*
X135702185Y-73984871D01*
X135685666Y-73805105D01*
X135685351Y-73801672D01*
X135627038Y-73594909D01*
X135532021Y-73402235D01*
X135403484Y-73230102D01*
X135245730Y-73084276D01*
X135216587Y-73065888D01*
X135066954Y-72971476D01*
X135066948Y-72971473D01*
X135064043Y-72969640D01*
X134864508Y-72890034D01*
X134653807Y-72848123D01*
X134523842Y-72846422D01*
X134442439Y-72845356D01*
X134442438Y-72845356D01*
X134438996Y-72845311D01*
X134435605Y-72845894D01*
X134435601Y-72845894D01*
X134230662Y-72881109D01*
X134230660Y-72881109D01*
X134227270Y-72881692D01*
X134025720Y-72956048D01*
X133841094Y-73065888D01*
X133838505Y-73068159D01*
X133838503Y-73068160D01*
X133779579Y-73119835D01*
X133679577Y-73207535D01*
X133677443Y-73210241D01*
X133677441Y-73210244D01*
X133594558Y-73315382D01*
X133546578Y-73376244D01*
X133544975Y-73379291D01*
X133544973Y-73379294D01*
X133485521Y-73492294D01*
X133446550Y-73566365D01*
X133382845Y-73771531D01*
X133382440Y-73774951D01*
X133382440Y-73774952D01*
X133378871Y-73805105D01*
X133357594Y-73984871D01*
X128282700Y-73984871D01*
X128282700Y-71444871D01*
X133357594Y-71444871D01*
X133371645Y-71659240D01*
X133424526Y-71867459D01*
X133514466Y-72062554D01*
X133547964Y-72109952D01*
X133636463Y-72235177D01*
X133636466Y-72235181D01*
X133638453Y-72237992D01*
X133640920Y-72240395D01*
X133759816Y-72356218D01*
X133792336Y-72387898D01*
X133970960Y-72507250D01*
X134051609Y-72541900D01*
X134165176Y-72590693D01*
X134165178Y-72590694D01*
X134168342Y-72592053D01*
X134377874Y-72639465D01*
X134501696Y-72644330D01*
X134589094Y-72647764D01*
X134589097Y-72647764D01*
X134592538Y-72647899D01*
X134595943Y-72647405D01*
X134595948Y-72647405D01*
X134748518Y-72625283D01*
X134805143Y-72617073D01*
X134808413Y-72615963D01*
X135005308Y-72549126D01*
X135005311Y-72549125D01*
X135008571Y-72548018D01*
X135196009Y-72443048D01*
X135361178Y-72305678D01*
X135498548Y-72140509D01*
X135603518Y-71953071D01*
X135633715Y-71864116D01*
X135671463Y-71752913D01*
X135672573Y-71749643D01*
X135703399Y-71537038D01*
X135705008Y-71475600D01*
X135702185Y-71444871D01*
X135685666Y-71265105D01*
X135685351Y-71261672D01*
X135627038Y-71054909D01*
X135532021Y-70862235D01*
X135403484Y-70690102D01*
X135245730Y-70544276D01*
X135216587Y-70525888D01*
X135066954Y-70431476D01*
X135066948Y-70431473D01*
X135064043Y-70429640D01*
X134864508Y-70350034D01*
X134653807Y-70308123D01*
X134523842Y-70306422D01*
X134442439Y-70305356D01*
X134442438Y-70305356D01*
X134438996Y-70305311D01*
X134435605Y-70305894D01*
X134435601Y-70305894D01*
X134230662Y-70341109D01*
X134230660Y-70341109D01*
X134227270Y-70341692D01*
X134025720Y-70416048D01*
X133841094Y-70525888D01*
X133838505Y-70528159D01*
X133838503Y-70528160D01*
X133682172Y-70665259D01*
X133679577Y-70667535D01*
X133677443Y-70670241D01*
X133677441Y-70670244D01*
X133644051Y-70712600D01*
X133546578Y-70836244D01*
X133446550Y-71026365D01*
X133445530Y-71029650D01*
X133406487Y-71155392D01*
X133382845Y-71231531D01*
X133382440Y-71234951D01*
X133382440Y-71234952D01*
X133378871Y-71265105D01*
X133357594Y-71444871D01*
X128282700Y-71444871D01*
X128282700Y-67728726D01*
X128094448Y-67540474D01*
X128072708Y-67493854D01*
X128086022Y-67444167D01*
X128128159Y-67414662D01*
X128147622Y-67412100D01*
X168898300Y-67412100D01*
X168946638Y-67429693D01*
G37*
G04 #@! TD.AperFunction*
G04 #@! TA.AperFunction,Conductor*
G36*
X135781938Y-107338383D02*
G01*
X135800600Y-107387966D01*
X135800600Y-119198259D01*
X135783007Y-119246597D01*
X135772527Y-119256859D01*
X135721451Y-119297925D01*
X135593314Y-119450633D01*
X135497279Y-119625321D01*
X135496167Y-119628825D01*
X135496167Y-119628826D01*
X135481070Y-119676418D01*
X135437002Y-119815335D01*
X135436592Y-119818987D01*
X135436592Y-119818989D01*
X135434189Y-119840413D01*
X135414782Y-120013439D01*
X135415090Y-120017107D01*
X135415090Y-120017110D01*
X135431154Y-120208418D01*
X135431462Y-120212086D01*
X135486410Y-120403709D01*
X135577530Y-120581011D01*
X135701353Y-120737237D01*
X135853163Y-120866437D01*
X135856364Y-120868226D01*
X135856367Y-120868228D01*
X135898491Y-120891770D01*
X136027176Y-120963689D01*
X136216765Y-121025291D01*
X136326399Y-121038364D01*
X136411051Y-121048458D01*
X136411053Y-121048458D01*
X136414709Y-121048894D01*
X136613467Y-121033600D01*
X136746098Y-120996569D01*
X136801933Y-120980980D01*
X136801937Y-120980978D01*
X136805470Y-120979992D01*
X136808744Y-120978338D01*
X136808747Y-120978337D01*
X136890545Y-120937018D01*
X136983403Y-120890112D01*
X136986301Y-120887848D01*
X136986304Y-120887846D01*
X137137592Y-120769647D01*
X137137597Y-120769642D01*
X137140490Y-120767382D01*
X137270747Y-120616478D01*
X137272563Y-120613281D01*
X137272566Y-120613277D01*
X137367394Y-120446349D01*
X137367396Y-120446346D01*
X137369212Y-120443148D01*
X137432135Y-120253994D01*
X137457120Y-120056220D01*
X137457518Y-120027700D01*
X137455761Y-120009777D01*
X137438425Y-119832974D01*
X137438424Y-119832971D01*
X137438065Y-119829306D01*
X137380448Y-119638468D01*
X137375322Y-119628826D01*
X137288585Y-119465699D01*
X137286861Y-119462456D01*
X137277219Y-119450633D01*
X137163194Y-119310826D01*
X137160868Y-119307974D01*
X137148721Y-119297925D01*
X137098865Y-119256680D01*
X137072835Y-119212313D01*
X137071600Y-119198738D01*
X137071600Y-110930188D01*
X137089193Y-110881850D01*
X137133742Y-110856130D01*
X137155704Y-110855517D01*
X137192087Y-110859855D01*
X137325451Y-110875758D01*
X137325453Y-110875758D01*
X137329109Y-110876194D01*
X137361113Y-110873731D01*
X137428199Y-110868570D01*
X137477744Y-110882403D01*
X137487142Y-110890374D01*
X139967363Y-113370595D01*
X139989103Y-113417215D01*
X139975789Y-113466902D01*
X139961310Y-113482375D01*
X139836251Y-113582925D01*
X139708114Y-113735633D01*
X139612079Y-113910321D01*
X139551802Y-114100335D01*
X139529582Y-114298439D01*
X139529890Y-114302107D01*
X139529890Y-114302110D01*
X139545159Y-114483952D01*
X139546262Y-114497086D01*
X139601210Y-114688709D01*
X139602892Y-114691981D01*
X139602892Y-114691982D01*
X139619089Y-114723498D01*
X139692330Y-114866011D01*
X139816153Y-115022237D01*
X139818947Y-115024615D01*
X139818948Y-115024616D01*
X139888939Y-115084183D01*
X139914347Y-115128910D01*
X139915400Y-115141451D01*
X139915400Y-130171059D01*
X139897807Y-130219397D01*
X139887327Y-130229659D01*
X139836251Y-130270725D01*
X139833888Y-130273541D01*
X139833883Y-130273546D01*
X139718501Y-130411052D01*
X139673953Y-130436772D01*
X139623295Y-130427839D01*
X139607721Y-130415888D01*
X134121826Y-124929993D01*
X134100086Y-124883373D01*
X134099800Y-124876819D01*
X134099800Y-110606457D01*
X134117393Y-110558119D01*
X134161942Y-110532399D01*
X134198238Y-110534937D01*
X134308556Y-110570781D01*
X134315692Y-110572350D01*
X134506078Y-110595052D01*
X134513410Y-110595205D01*
X134704573Y-110580496D01*
X134711782Y-110579225D01*
X134896453Y-110527665D01*
X134903286Y-110525014D01*
X135074419Y-110438568D01*
X135080602Y-110434644D01*
X135103084Y-110417079D01*
X135108812Y-110407912D01*
X135108204Y-110403586D01*
X134333393Y-109628774D01*
X134311653Y-109582154D01*
X134313296Y-109576022D01*
X134786789Y-109576022D01*
X134788394Y-109582013D01*
X135357233Y-110150851D01*
X135367032Y-110155420D01*
X135368969Y-110154901D01*
X135370745Y-110152950D01*
X135461201Y-109993718D01*
X135464181Y-109987023D01*
X135524700Y-109805098D01*
X135526323Y-109797953D01*
X135550550Y-109606174D01*
X135550843Y-109601979D01*
X135551183Y-109577699D01*
X135551007Y-109573507D01*
X135532144Y-109381126D01*
X135530718Y-109373930D01*
X135475304Y-109190387D01*
X135472516Y-109183622D01*
X135382500Y-109014328D01*
X135378447Y-109008227D01*
X135373759Y-109002478D01*
X135364475Y-108996943D01*
X135359897Y-108997685D01*
X134791358Y-109566223D01*
X134786789Y-109576022D01*
X134313296Y-109576022D01*
X134324967Y-109532467D01*
X134333393Y-109522426D01*
X134531100Y-109324719D01*
X135105510Y-108750308D01*
X135110079Y-108740509D01*
X135108855Y-108735941D01*
X135104373Y-108732233D01*
X135098301Y-108728138D01*
X134929645Y-108636946D01*
X134922897Y-108634109D01*
X134739735Y-108577411D01*
X134732565Y-108575940D01*
X134541877Y-108555897D01*
X134534564Y-108555846D01*
X134343609Y-108573224D01*
X134336421Y-108574596D01*
X134196232Y-108615856D01*
X134144894Y-108612627D01*
X134107643Y-108577153D01*
X134099800Y-108543716D01*
X134099800Y-108230661D01*
X134117393Y-108182323D01*
X134161942Y-108156603D01*
X134191596Y-108157315D01*
X134302117Y-108182323D01*
X134377874Y-108199465D01*
X134501696Y-108204330D01*
X134589094Y-108207764D01*
X134589097Y-108207764D01*
X134592538Y-108207899D01*
X134595943Y-108207405D01*
X134595948Y-108207405D01*
X134768934Y-108182323D01*
X134805143Y-108177073D01*
X134863348Y-108157315D01*
X135005308Y-108109126D01*
X135005311Y-108109125D01*
X135008571Y-108108018D01*
X135196009Y-108003048D01*
X135361178Y-107865678D01*
X135498548Y-107700509D01*
X135603518Y-107513071D01*
X135654191Y-107363794D01*
X135686388Y-107323677D01*
X135736840Y-107313641D01*
X135781938Y-107338383D01*
G37*
G04 #@! TD.AperFunction*
G04 #@! TA.AperFunction,Conductor*
G36*
X135793938Y-81903033D02*
G01*
X135812600Y-81952616D01*
X135812600Y-83144734D01*
X135812820Y-83146756D01*
X135812820Y-83146762D01*
X135814505Y-83162266D01*
X135819355Y-83206916D01*
X135821009Y-83211328D01*
X135821010Y-83211332D01*
X135868605Y-83338291D01*
X135870485Y-83343305D01*
X135957839Y-83459861D01*
X136074395Y-83547215D01*
X136079407Y-83549094D01*
X136079409Y-83549095D01*
X136107397Y-83559587D01*
X136146483Y-83593029D01*
X136156200Y-83630002D01*
X136156200Y-83710401D01*
X136146898Y-83746629D01*
X136132279Y-83773221D01*
X136131167Y-83776725D01*
X136131167Y-83776726D01*
X136103318Y-83864517D01*
X136072002Y-83963235D01*
X136071592Y-83966887D01*
X136071592Y-83966889D01*
X136063551Y-84038577D01*
X136049782Y-84161339D01*
X136050090Y-84165007D01*
X136050090Y-84165010D01*
X136056138Y-84237038D01*
X136066462Y-84359986D01*
X136121410Y-84551609D01*
X136212530Y-84728911D01*
X136336353Y-84885137D01*
X136488163Y-85014337D01*
X136491364Y-85016126D01*
X136491367Y-85016128D01*
X136533491Y-85039670D01*
X136662176Y-85111589D01*
X136851765Y-85173191D01*
X136961399Y-85186264D01*
X137046051Y-85196358D01*
X137046053Y-85196358D01*
X137049709Y-85196794D01*
X137248467Y-85181500D01*
X137330872Y-85158492D01*
X137436933Y-85128880D01*
X137436937Y-85128878D01*
X137440470Y-85127892D01*
X137443744Y-85126238D01*
X137443747Y-85126237D01*
X137590717Y-85051997D01*
X137618403Y-85038012D01*
X137621301Y-85035748D01*
X137621304Y-85035746D01*
X137772592Y-84917547D01*
X137772597Y-84917542D01*
X137775490Y-84915282D01*
X137905747Y-84764378D01*
X137907563Y-84761181D01*
X137907566Y-84761177D01*
X138002394Y-84594249D01*
X138002396Y-84594246D01*
X138004212Y-84591048D01*
X138050163Y-84452913D01*
X138065973Y-84405388D01*
X138065974Y-84405385D01*
X138067135Y-84401894D01*
X138092120Y-84204120D01*
X138092518Y-84175600D01*
X138073065Y-83977206D01*
X138015448Y-83786368D01*
X138010322Y-83776726D01*
X137994802Y-83747538D01*
X137986000Y-83712234D01*
X137986000Y-83630002D01*
X138003593Y-83581664D01*
X138034803Y-83559587D01*
X138062791Y-83549095D01*
X138062793Y-83549094D01*
X138067805Y-83547215D01*
X138184361Y-83459861D01*
X138217770Y-83415284D01*
X138218786Y-83413929D01*
X138261854Y-83385801D01*
X138312926Y-83391936D01*
X138348106Y-83429466D01*
X138353721Y-83467150D01*
X138352600Y-83477466D01*
X138352600Y-84873734D01*
X138352820Y-84875756D01*
X138352820Y-84875762D01*
X138358277Y-84925989D01*
X138359355Y-84935916D01*
X138361009Y-84940328D01*
X138361010Y-84940332D01*
X138383080Y-84999203D01*
X138383080Y-85051997D01*
X138361552Y-85109424D01*
X138359355Y-85115284D01*
X138358846Y-85119972D01*
X138358845Y-85119975D01*
X138358165Y-85126237D01*
X138352600Y-85177466D01*
X138352600Y-86573734D01*
X138352820Y-86575756D01*
X138352820Y-86575762D01*
X138358080Y-86624177D01*
X138359355Y-86635916D01*
X138361009Y-86640328D01*
X138361010Y-86640332D01*
X138395391Y-86732042D01*
X138410485Y-86772305D01*
X138497839Y-86888861D01*
X138614395Y-86976215D01*
X138722602Y-87016780D01*
X138748997Y-87026675D01*
X138788083Y-87060117D01*
X138797800Y-87097090D01*
X138797800Y-87346021D01*
X138780207Y-87394358D01*
X138770680Y-87405712D01*
X138770675Y-87405719D01*
X138768314Y-87408533D01*
X138766543Y-87411755D01*
X138766542Y-87411756D01*
X138761814Y-87420356D01*
X138672279Y-87583221D01*
X138671167Y-87586725D01*
X138671167Y-87586726D01*
X138659800Y-87622559D01*
X138612002Y-87773235D01*
X138611592Y-87776887D01*
X138611592Y-87776889D01*
X138605557Y-87830693D01*
X138589782Y-87971339D01*
X138590090Y-87975007D01*
X138590090Y-87975010D01*
X138604198Y-88143028D01*
X138606462Y-88169986D01*
X138661410Y-88361609D01*
X138752530Y-88538911D01*
X138876353Y-88695137D01*
X139028163Y-88824337D01*
X139031364Y-88826126D01*
X139031367Y-88826128D01*
X139073491Y-88849670D01*
X139202176Y-88921589D01*
X139391765Y-88983191D01*
X139501399Y-88996264D01*
X139586051Y-89006358D01*
X139586053Y-89006358D01*
X139589709Y-89006794D01*
X139788467Y-88991500D01*
X139902574Y-88959641D01*
X139976933Y-88938880D01*
X139976937Y-88938878D01*
X139980470Y-88937892D01*
X139983744Y-88936238D01*
X139983747Y-88936237D01*
X140086828Y-88884167D01*
X140158403Y-88848012D01*
X140161301Y-88845748D01*
X140161304Y-88845746D01*
X140312592Y-88727547D01*
X140312597Y-88727542D01*
X140315490Y-88725282D01*
X140445747Y-88574378D01*
X140447563Y-88571181D01*
X140447566Y-88571177D01*
X140542394Y-88404249D01*
X140542396Y-88404246D01*
X140544212Y-88401048D01*
X140607135Y-88211894D01*
X140632120Y-88014120D01*
X140632402Y-87993913D01*
X140632489Y-87987698D01*
X140632489Y-87987693D01*
X140632518Y-87985600D01*
X140630761Y-87967677D01*
X140613425Y-87790874D01*
X140613424Y-87790871D01*
X140613065Y-87787206D01*
X140555448Y-87596368D01*
X140550322Y-87586726D01*
X140506470Y-87504253D01*
X140461861Y-87420356D01*
X140452219Y-87408533D01*
X140441324Y-87395175D01*
X140424400Y-87347647D01*
X140424400Y-87097090D01*
X140441993Y-87048752D01*
X140473203Y-87026675D01*
X140499598Y-87016780D01*
X140607805Y-86976215D01*
X140724361Y-86888861D01*
X140811715Y-86772305D01*
X140827677Y-86729728D01*
X140861985Y-86638210D01*
X140895427Y-86599124D01*
X140946169Y-86590678D01*
X140990468Y-86616825D01*
X141007600Y-86664607D01*
X141007600Y-87728934D01*
X141007820Y-87730956D01*
X141007820Y-87730962D01*
X141013836Y-87786335D01*
X141014355Y-87791116D01*
X141016009Y-87795528D01*
X141016010Y-87795532D01*
X141059008Y-87910228D01*
X141065485Y-87927505D01*
X141068696Y-87931789D01*
X141075225Y-87940501D01*
X141090135Y-87989732D01*
X141075225Y-88030699D01*
X141065485Y-88043695D01*
X141063606Y-88048707D01*
X141063605Y-88048709D01*
X141016605Y-88174083D01*
X141014355Y-88180084D01*
X141013846Y-88184772D01*
X141013845Y-88184775D01*
X141007820Y-88240238D01*
X141007600Y-88242266D01*
X141007600Y-90268934D01*
X141007820Y-90270956D01*
X141007820Y-90270962D01*
X141013836Y-90326335D01*
X141014355Y-90331116D01*
X141016009Y-90335528D01*
X141016010Y-90335532D01*
X141050637Y-90427899D01*
X141065485Y-90467505D01*
X141068696Y-90471789D01*
X141075225Y-90480501D01*
X141090135Y-90529732D01*
X141075225Y-90570699D01*
X141065485Y-90583695D01*
X141063606Y-90588707D01*
X141063605Y-90588709D01*
X141032640Y-90671310D01*
X141014355Y-90720084D01*
X141013846Y-90724772D01*
X141013845Y-90724775D01*
X141009130Y-90768181D01*
X141007600Y-90782266D01*
X141007600Y-91846593D01*
X140990007Y-91894931D01*
X140945458Y-91920651D01*
X140894800Y-91911718D01*
X140861985Y-91872990D01*
X140813595Y-91743909D01*
X140813594Y-91743907D01*
X140811715Y-91738895D01*
X140724361Y-91622339D01*
X140607805Y-91534985D01*
X140602793Y-91533106D01*
X140602791Y-91533105D01*
X140475832Y-91485510D01*
X140475828Y-91485509D01*
X140471416Y-91483855D01*
X140466728Y-91483346D01*
X140466725Y-91483345D01*
X140411262Y-91477320D01*
X140411256Y-91477320D01*
X140409234Y-91477100D01*
X138812966Y-91477100D01*
X138810944Y-91477320D01*
X138810938Y-91477320D01*
X138755475Y-91483345D01*
X138755472Y-91483346D01*
X138750784Y-91483855D01*
X138746372Y-91485509D01*
X138746368Y-91485510D01*
X138619409Y-91533105D01*
X138619407Y-91533106D01*
X138614395Y-91534985D01*
X138497839Y-91622339D01*
X138410485Y-91738895D01*
X138408606Y-91743907D01*
X138408605Y-91743909D01*
X138365376Y-91859224D01*
X138359355Y-91875284D01*
X138358846Y-91879972D01*
X138358845Y-91879975D01*
X138352820Y-91935438D01*
X138352600Y-91937466D01*
X138352600Y-93333734D01*
X138352820Y-93335756D01*
X138352820Y-93335762D01*
X138358741Y-93390261D01*
X138359355Y-93395916D01*
X138361009Y-93400328D01*
X138361010Y-93400332D01*
X138383080Y-93459203D01*
X138383080Y-93511997D01*
X138369673Y-93547762D01*
X138359355Y-93575284D01*
X138358846Y-93579970D01*
X138358845Y-93579974D01*
X138353083Y-93633021D01*
X138330372Y-93679176D01*
X138278323Y-93700100D01*
X137900269Y-93700100D01*
X137851931Y-93682507D01*
X137841993Y-93672429D01*
X137795868Y-93615874D01*
X137793037Y-93613532D01*
X137793033Y-93613528D01*
X137710711Y-93545425D01*
X137642270Y-93488806D01*
X137631934Y-93483217D01*
X137523536Y-93424607D01*
X137466915Y-93393992D01*
X137276485Y-93335044D01*
X137135613Y-93320238D01*
X137081886Y-93314591D01*
X137081884Y-93314591D01*
X137078231Y-93314207D01*
X136989676Y-93322266D01*
X136883363Y-93331941D01*
X136883362Y-93331941D01*
X136879705Y-93332274D01*
X136876180Y-93333311D01*
X136876177Y-93333312D01*
X136697542Y-93385888D01*
X136688470Y-93388558D01*
X136511809Y-93480914D01*
X136499071Y-93491156D01*
X136397290Y-93572990D01*
X136356451Y-93605825D01*
X136228314Y-93758533D01*
X136132279Y-93933221D01*
X136072002Y-94123235D01*
X136049782Y-94321339D01*
X136050090Y-94325007D01*
X136050090Y-94325010D01*
X136056138Y-94397038D01*
X136066462Y-94519986D01*
X136121410Y-94711609D01*
X136212530Y-94888911D01*
X136336353Y-95045137D01*
X136488163Y-95174337D01*
X136491364Y-95176126D01*
X136491367Y-95176128D01*
X136533491Y-95199670D01*
X136662176Y-95271589D01*
X136665677Y-95272727D01*
X136665678Y-95272727D01*
X136673548Y-95275284D01*
X136851765Y-95333191D01*
X136961399Y-95346264D01*
X137046051Y-95356358D01*
X137046053Y-95356358D01*
X137049709Y-95356794D01*
X137248467Y-95341500D01*
X137355135Y-95311718D01*
X137436933Y-95288880D01*
X137436937Y-95288878D01*
X137440470Y-95287892D01*
X137443744Y-95286238D01*
X137443747Y-95286237D01*
X137590717Y-95211997D01*
X137618403Y-95198012D01*
X137621301Y-95195748D01*
X137621304Y-95195746D01*
X137772592Y-95077547D01*
X137772597Y-95077542D01*
X137775490Y-95075282D01*
X137807517Y-95038179D01*
X137842921Y-94997163D01*
X137887824Y-94972067D01*
X137899847Y-94971100D01*
X138278323Y-94971100D01*
X138326661Y-94988693D01*
X138353083Y-95038179D01*
X138358845Y-95091226D01*
X138358846Y-95091230D01*
X138359355Y-95095916D01*
X138361009Y-95100328D01*
X138361010Y-95100332D01*
X138383080Y-95159203D01*
X138383080Y-95211997D01*
X138369622Y-95247898D01*
X138359355Y-95275284D01*
X138358846Y-95279972D01*
X138358845Y-95279975D01*
X138353188Y-95332054D01*
X138352600Y-95337466D01*
X138352600Y-96733734D01*
X138352820Y-96735756D01*
X138352820Y-96735762D01*
X138357029Y-96774500D01*
X138359355Y-96795916D01*
X138361009Y-96800328D01*
X138361010Y-96800332D01*
X138405397Y-96918733D01*
X138410485Y-96932305D01*
X138497839Y-97048861D01*
X138614395Y-97136215D01*
X138619407Y-97138094D01*
X138619409Y-97138095D01*
X138746368Y-97185690D01*
X138746372Y-97185691D01*
X138750784Y-97187345D01*
X138755472Y-97187854D01*
X138755475Y-97187855D01*
X138810938Y-97193880D01*
X138810944Y-97193880D01*
X138812966Y-97194100D01*
X140409234Y-97194100D01*
X140411256Y-97193880D01*
X140411262Y-97193880D01*
X140466725Y-97187855D01*
X140466728Y-97187854D01*
X140471416Y-97187345D01*
X140475828Y-97185691D01*
X140475832Y-97185690D01*
X140602791Y-97138095D01*
X140602793Y-97138094D01*
X140607805Y-97136215D01*
X140724361Y-97048861D01*
X140811715Y-96932305D01*
X140852578Y-96823303D01*
X140886020Y-96784217D01*
X140922993Y-96774500D01*
X140932400Y-96774500D01*
X140980738Y-96792093D01*
X141006458Y-96836642D01*
X141007600Y-96849700D01*
X141007600Y-97888934D01*
X141007820Y-97890956D01*
X141007820Y-97890962D01*
X141013836Y-97946335D01*
X141014355Y-97951116D01*
X141016009Y-97955528D01*
X141016010Y-97955532D01*
X141063605Y-98082491D01*
X141065485Y-98087505D01*
X141152839Y-98204061D01*
X141157122Y-98207271D01*
X141157123Y-98207272D01*
X141167997Y-98215422D01*
X141196125Y-98258490D01*
X141190457Y-98308622D01*
X141173948Y-98342395D01*
X141170544Y-98353409D01*
X141161694Y-98414068D01*
X141161300Y-98419501D01*
X141161300Y-99224941D01*
X141164997Y-99235098D01*
X141170369Y-99238200D01*
X145667640Y-99238200D01*
X145677797Y-99234503D01*
X145680899Y-99229131D01*
X145680899Y-98419520D01*
X145680498Y-98414051D01*
X145671485Y-98352816D01*
X145668059Y-98341791D01*
X145651823Y-98308721D01*
X145646313Y-98257577D01*
X145674228Y-98215403D01*
X145685076Y-98207273D01*
X145685078Y-98207271D01*
X145689361Y-98204061D01*
X145776715Y-98087505D01*
X145778595Y-98082491D01*
X145826190Y-97955532D01*
X145826191Y-97955528D01*
X145827845Y-97951116D01*
X145828365Y-97946335D01*
X145834380Y-97890962D01*
X145834380Y-97890956D01*
X145834600Y-97888934D01*
X145834600Y-96865028D01*
X148751395Y-96865028D01*
X148767439Y-97056083D01*
X148768761Y-97063285D01*
X148821610Y-97247592D01*
X148824306Y-97254401D01*
X148911947Y-97424931D01*
X148915913Y-97431086D01*
X148929263Y-97447930D01*
X148938468Y-97453593D01*
X148942876Y-97452942D01*
X149510842Y-96884977D01*
X149515411Y-96875178D01*
X149513806Y-96869187D01*
X148945383Y-96300765D01*
X148935584Y-96296196D01*
X148931112Y-96297394D01*
X148927618Y-96302496D01*
X148835253Y-96470508D01*
X148832366Y-96477244D01*
X148774393Y-96660000D01*
X148772870Y-96667165D01*
X148751498Y-96857695D01*
X148751395Y-96865028D01*
X145834600Y-96865028D01*
X145834600Y-95862266D01*
X145833903Y-95855846D01*
X145828355Y-95804775D01*
X145828354Y-95804772D01*
X145827845Y-95800084D01*
X145809561Y-95751310D01*
X145778595Y-95668709D01*
X145778594Y-95668707D01*
X145776715Y-95663695D01*
X145766975Y-95650699D01*
X145752065Y-95601468D01*
X145766975Y-95560501D01*
X145773504Y-95551789D01*
X145776715Y-95547505D01*
X145791563Y-95507899D01*
X145826190Y-95415532D01*
X145826191Y-95415528D01*
X145827845Y-95411116D01*
X145828365Y-95406337D01*
X145834380Y-95350962D01*
X145834380Y-95350956D01*
X145834600Y-95348934D01*
X145834600Y-93322266D01*
X145834380Y-93320238D01*
X145828355Y-93264775D01*
X145828354Y-93264772D01*
X145827845Y-93260084D01*
X145809561Y-93211310D01*
X145778595Y-93128709D01*
X145778594Y-93128707D01*
X145776715Y-93123695D01*
X145766975Y-93110699D01*
X145752065Y-93061468D01*
X145766975Y-93020501D01*
X145767168Y-93020243D01*
X145776715Y-93007505D01*
X145791563Y-92967899D01*
X145826190Y-92875532D01*
X145826191Y-92875528D01*
X145827845Y-92871116D01*
X145828365Y-92866335D01*
X145834380Y-92810962D01*
X145834380Y-92810956D01*
X145834600Y-92808934D01*
X145834600Y-91785028D01*
X148751395Y-91785028D01*
X148767439Y-91976083D01*
X148768761Y-91983285D01*
X148821610Y-92167592D01*
X148824306Y-92174401D01*
X148911947Y-92344931D01*
X148915913Y-92351086D01*
X148929263Y-92367930D01*
X148938468Y-92373593D01*
X148942876Y-92372942D01*
X149510842Y-91804977D01*
X149515411Y-91795178D01*
X149513806Y-91789187D01*
X148945383Y-91220765D01*
X148935584Y-91216196D01*
X148931112Y-91217394D01*
X148927618Y-91222496D01*
X148835253Y-91390508D01*
X148832366Y-91397244D01*
X148774393Y-91580000D01*
X148772870Y-91587165D01*
X148751498Y-91777695D01*
X148751395Y-91785028D01*
X145834600Y-91785028D01*
X145834600Y-90782266D01*
X145833070Y-90768181D01*
X145828355Y-90724775D01*
X145828354Y-90724772D01*
X145827845Y-90720084D01*
X145809561Y-90671310D01*
X145778595Y-90588709D01*
X145778594Y-90588707D01*
X145776715Y-90583695D01*
X145766975Y-90570699D01*
X145752065Y-90521468D01*
X145766975Y-90480501D01*
X145773504Y-90471789D01*
X145776715Y-90467505D01*
X145791563Y-90427899D01*
X145826190Y-90335532D01*
X145826191Y-90335528D01*
X145827845Y-90331116D01*
X145828365Y-90326335D01*
X145834380Y-90270962D01*
X145834380Y-90270956D01*
X145834600Y-90268934D01*
X145834600Y-88242266D01*
X145834380Y-88240238D01*
X145828355Y-88184775D01*
X145828354Y-88184772D01*
X145827845Y-88180084D01*
X145825596Y-88174083D01*
X145778595Y-88048709D01*
X145778594Y-88048707D01*
X145776715Y-88043695D01*
X145766975Y-88030699D01*
X145752065Y-87981468D01*
X145766975Y-87940501D01*
X145773504Y-87931789D01*
X145776715Y-87927505D01*
X145783192Y-87910228D01*
X145826190Y-87795532D01*
X145826191Y-87795528D01*
X145827845Y-87791116D01*
X145828365Y-87786335D01*
X145834380Y-87730962D01*
X145834380Y-87730956D01*
X145834600Y-87728934D01*
X145834600Y-86689302D01*
X145852193Y-86640964D01*
X145896742Y-86615244D01*
X145947400Y-86624177D01*
X145962974Y-86636128D01*
X147818174Y-88491328D01*
X147839914Y-88537948D01*
X147840200Y-88544502D01*
X147840200Y-89484062D01*
X147840026Y-89489177D01*
X147837869Y-89520821D01*
X147836258Y-89544443D01*
X147837038Y-89548911D01*
X147846695Y-89604244D01*
X147847270Y-89608137D01*
X147854563Y-89668405D01*
X147856163Y-89672638D01*
X147856164Y-89672644D01*
X147858239Y-89678133D01*
X147861974Y-89691783D01*
X147863761Y-89702024D01*
X147865582Y-89706173D01*
X147865585Y-89706182D01*
X147888154Y-89757593D01*
X147889638Y-89761227D01*
X147911106Y-89818041D01*
X147917002Y-89826620D01*
X147923878Y-89838973D01*
X147928058Y-89848496D01*
X147930814Y-89852088D01*
X147930816Y-89852091D01*
X147965012Y-89896656D01*
X147967318Y-89899829D01*
X148001711Y-89949871D01*
X148005096Y-89952887D01*
X148005097Y-89952888D01*
X148046011Y-89989341D01*
X148049160Y-89992314D01*
X149031704Y-90974857D01*
X149035198Y-90978596D01*
X149071624Y-91020352D01*
X149121282Y-91055252D01*
X149124438Y-91057596D01*
X149172221Y-91095063D01*
X149181701Y-91099343D01*
X149193993Y-91106355D01*
X149198783Y-91109721D01*
X149202497Y-91112331D01*
X149206724Y-91113979D01*
X149259048Y-91134380D01*
X149262676Y-91135905D01*
X149290391Y-91148418D01*
X149318012Y-91160889D01*
X149326881Y-91162533D01*
X149328236Y-91162784D01*
X149341849Y-91166662D01*
X149351534Y-91170438D01*
X149356023Y-91171029D01*
X149356027Y-91171030D01*
X149368556Y-91172679D01*
X149378376Y-91173972D01*
X149421736Y-91195354D01*
X149968807Y-91742426D01*
X149990547Y-91789046D01*
X149977233Y-91838733D01*
X149968807Y-91848774D01*
X149771100Y-92046481D01*
X149195805Y-92621777D01*
X149191236Y-92631576D01*
X149192178Y-92635091D01*
X149359492Y-92728601D01*
X149366191Y-92731528D01*
X149548556Y-92790781D01*
X149555692Y-92792350D01*
X149746078Y-92815052D01*
X149753410Y-92815205D01*
X149944573Y-92800496D01*
X149951782Y-92799225D01*
X150136453Y-92747665D01*
X150143286Y-92745014D01*
X150296494Y-92667623D01*
X150347572Y-92661532D01*
X150390615Y-92689698D01*
X150405600Y-92734745D01*
X150405600Y-93219191D01*
X150388007Y-93267529D01*
X150343458Y-93293249D01*
X150302534Y-93289038D01*
X150241718Y-93264775D01*
X150104508Y-93210034D01*
X149893807Y-93168123D01*
X149763842Y-93166422D01*
X149682439Y-93165356D01*
X149682438Y-93165356D01*
X149678996Y-93165311D01*
X149675605Y-93165894D01*
X149675601Y-93165894D01*
X149470662Y-93201109D01*
X149470660Y-93201109D01*
X149467270Y-93201692D01*
X149265720Y-93276048D01*
X149081094Y-93385888D01*
X149078505Y-93388159D01*
X149078503Y-93388160D01*
X148922172Y-93525259D01*
X148919577Y-93527535D01*
X148917443Y-93530241D01*
X148917441Y-93530244D01*
X148832915Y-93637466D01*
X148786578Y-93696244D01*
X148686550Y-93886365D01*
X148622845Y-94091531D01*
X148622440Y-94094951D01*
X148622440Y-94094952D01*
X148618871Y-94125105D01*
X148597594Y-94304871D01*
X148611645Y-94519240D01*
X148664526Y-94727459D01*
X148754466Y-94922554D01*
X148756462Y-94925378D01*
X148876463Y-95095177D01*
X148876466Y-95095181D01*
X148878453Y-95097992D01*
X148880920Y-95100395D01*
X148995483Y-95211997D01*
X149032336Y-95247898D01*
X149210960Y-95367250D01*
X149302141Y-95406425D01*
X149405176Y-95450693D01*
X149405178Y-95450694D01*
X149408342Y-95452053D01*
X149617874Y-95499465D01*
X149741696Y-95504330D01*
X149829094Y-95507764D01*
X149829097Y-95507764D01*
X149832538Y-95507899D01*
X149835943Y-95507405D01*
X149835948Y-95507405D01*
X149988518Y-95485283D01*
X150045143Y-95477073D01*
X150048413Y-95475963D01*
X150245308Y-95409126D01*
X150245311Y-95409125D01*
X150248571Y-95408018D01*
X150293657Y-95382769D01*
X150344426Y-95374501D01*
X150388634Y-95400801D01*
X150405600Y-95448381D01*
X150405600Y-95938378D01*
X150388007Y-95986716D01*
X150343458Y-96012436D01*
X150294633Y-96004527D01*
X150169645Y-95936946D01*
X150162897Y-95934109D01*
X149979735Y-95877411D01*
X149972565Y-95875940D01*
X149781877Y-95855897D01*
X149774564Y-95855846D01*
X149583609Y-95873224D01*
X149576421Y-95874596D01*
X149392489Y-95928730D01*
X149385702Y-95931472D01*
X149215775Y-96020307D01*
X149209664Y-96024307D01*
X149198392Y-96033369D01*
X149192793Y-96042614D01*
X149193488Y-96047106D01*
X149968807Y-96822426D01*
X149990547Y-96869046D01*
X149977233Y-96918733D01*
X149968807Y-96928774D01*
X149771100Y-97126481D01*
X149195805Y-97701777D01*
X149191236Y-97711576D01*
X149192178Y-97715091D01*
X149359492Y-97808601D01*
X149366191Y-97811528D01*
X149548556Y-97870781D01*
X149555692Y-97872350D01*
X149746078Y-97895052D01*
X149753410Y-97895205D01*
X149944573Y-97880496D01*
X149951782Y-97879225D01*
X150136453Y-97827665D01*
X150143286Y-97825014D01*
X150296494Y-97747623D01*
X150347572Y-97741532D01*
X150390615Y-97769698D01*
X150405600Y-97814745D01*
X150405600Y-98299191D01*
X150388007Y-98347529D01*
X150343458Y-98373249D01*
X150302534Y-98369038D01*
X150248621Y-98347529D01*
X150104508Y-98290034D01*
X149893807Y-98248123D01*
X149763842Y-98246422D01*
X149682439Y-98245356D01*
X149682438Y-98245356D01*
X149678996Y-98245311D01*
X149675605Y-98245894D01*
X149675601Y-98245894D01*
X149470662Y-98281109D01*
X149470660Y-98281109D01*
X149467270Y-98281692D01*
X149265720Y-98356048D01*
X149081094Y-98465888D01*
X149078505Y-98468159D01*
X149078503Y-98468160D01*
X148922172Y-98605259D01*
X148919577Y-98607535D01*
X148917443Y-98610241D01*
X148917441Y-98610244D01*
X148806119Y-98751456D01*
X148762377Y-98778524D01*
X148747063Y-98780100D01*
X147309561Y-98780100D01*
X147300731Y-98779125D01*
X147300708Y-98779369D01*
X147295997Y-98778924D01*
X147291381Y-98777892D01*
X147224144Y-98780005D01*
X147222292Y-98780063D01*
X147219930Y-98780100D01*
X147191117Y-98780100D01*
X147188776Y-98780396D01*
X147188757Y-98780397D01*
X147184698Y-98780910D01*
X147177638Y-98781466D01*
X147135622Y-98782786D01*
X147135618Y-98782787D01*
X147130895Y-98782935D01*
X147126351Y-98784255D01*
X147126352Y-98784255D01*
X147107509Y-98789729D01*
X147095954Y-98792122D01*
X147071801Y-98795173D01*
X147067400Y-98796915D01*
X147067398Y-98796916D01*
X147028321Y-98812388D01*
X147021618Y-98814683D01*
X147007386Y-98818818D01*
X146976707Y-98827731D01*
X146955742Y-98840130D01*
X146945159Y-98845315D01*
X146922512Y-98854281D01*
X146918684Y-98857062D01*
X146918679Y-98857065D01*
X146884675Y-98881770D01*
X146878754Y-98885659D01*
X146842580Y-98907053D01*
X146842576Y-98907056D01*
X146838501Y-98909466D01*
X146821285Y-98926682D01*
X146812313Y-98934346D01*
X146792613Y-98948658D01*
X146762800Y-98984696D01*
X146758031Y-98989936D01*
X145809274Y-99938693D01*
X145762654Y-99960433D01*
X145712967Y-99947119D01*
X145683462Y-99904982D01*
X145680900Y-99885519D01*
X145680900Y-99606259D01*
X145677203Y-99596102D01*
X145671831Y-99593000D01*
X141174560Y-99593000D01*
X141164403Y-99596697D01*
X141161301Y-99602069D01*
X141161301Y-100411680D01*
X141161702Y-100417149D01*
X141170715Y-100478384D01*
X141174141Y-100489409D01*
X141190377Y-100522479D01*
X141195887Y-100573623D01*
X141167972Y-100615797D01*
X141157124Y-100623927D01*
X141157122Y-100623929D01*
X141152839Y-100627139D01*
X141065485Y-100743695D01*
X141048578Y-100788796D01*
X141043267Y-100802962D01*
X141009825Y-100842048D01*
X140964992Y-100851353D01*
X140790286Y-100832991D01*
X140790284Y-100832991D01*
X140786631Y-100832607D01*
X140714284Y-100839191D01*
X140591763Y-100850341D01*
X140591762Y-100850341D01*
X140588105Y-100850674D01*
X140584580Y-100851711D01*
X140584577Y-100851712D01*
X140400400Y-100905919D01*
X140396870Y-100906958D01*
X140220209Y-100999314D01*
X140064851Y-101124225D01*
X139936714Y-101276933D01*
X139840679Y-101451621D01*
X139780402Y-101641635D01*
X139779992Y-101645287D01*
X139779992Y-101645289D01*
X139776006Y-101680826D01*
X139758182Y-101839739D01*
X139758490Y-101843407D01*
X139758490Y-101843411D01*
X139765862Y-101931201D01*
X139752375Y-101980841D01*
X139744100Y-101990667D01*
X136042218Y-105692549D01*
X136035281Y-105698107D01*
X136035437Y-105698296D01*
X136031790Y-105701313D01*
X136027797Y-105703847D01*
X136024560Y-105707294D01*
X135980460Y-105754256D01*
X135978815Y-105755952D01*
X135958461Y-105776306D01*
X135954494Y-105781420D01*
X135949901Y-105786798D01*
X135917883Y-105820894D01*
X135915606Y-105825035D01*
X135915605Y-105825037D01*
X135906153Y-105842230D01*
X135899676Y-105852090D01*
X135884750Y-105871333D01*
X135874339Y-105895392D01*
X135866176Y-105914256D01*
X135863060Y-105920617D01*
X135843791Y-105955668D01*
X135840531Y-105961597D01*
X135839354Y-105966182D01*
X135834476Y-105985180D01*
X135830654Y-105996343D01*
X135820983Y-106018692D01*
X135820243Y-106023365D01*
X135820242Y-106023368D01*
X135813666Y-106064889D01*
X135812229Y-106071826D01*
X135800600Y-106117118D01*
X135800600Y-106141466D01*
X135799674Y-106153230D01*
X135795865Y-106177279D01*
X135796311Y-106181992D01*
X135800266Y-106223836D01*
X135800600Y-106230913D01*
X135800600Y-106686633D01*
X135783007Y-106734971D01*
X135738458Y-106760691D01*
X135687800Y-106751758D01*
X135654735Y-106712353D01*
X135653023Y-106707045D01*
X135627973Y-106618225D01*
X135627038Y-106614909D01*
X135532021Y-106422235D01*
X135403484Y-106250102D01*
X135245730Y-106104276D01*
X135242819Y-106102439D01*
X135066954Y-105991476D01*
X135066948Y-105991473D01*
X135064043Y-105989640D01*
X134864508Y-105910034D01*
X134653807Y-105868123D01*
X134523842Y-105866422D01*
X134442439Y-105865356D01*
X134442438Y-105865356D01*
X134438996Y-105865311D01*
X134435605Y-105865894D01*
X134435601Y-105865894D01*
X134230662Y-105901109D01*
X134230660Y-105901109D01*
X134227270Y-105901692D01*
X134207394Y-105909025D01*
X134201028Y-105911373D01*
X134149588Y-105911597D01*
X134110039Y-105878704D01*
X134099800Y-105840821D01*
X134099800Y-105690661D01*
X134117393Y-105642323D01*
X134161942Y-105616603D01*
X134191596Y-105617315D01*
X134302117Y-105642323D01*
X134377874Y-105659465D01*
X134501696Y-105664330D01*
X134589094Y-105667764D01*
X134589097Y-105667764D01*
X134592538Y-105667899D01*
X134595943Y-105667405D01*
X134595948Y-105667405D01*
X134748518Y-105645283D01*
X134805143Y-105637073D01*
X134863348Y-105617315D01*
X135005308Y-105569126D01*
X135005311Y-105569125D01*
X135008571Y-105568018D01*
X135196009Y-105463048D01*
X135361178Y-105325678D01*
X135498548Y-105160509D01*
X135603518Y-104973071D01*
X135672573Y-104769643D01*
X135703399Y-104557038D01*
X135705008Y-104495600D01*
X135685351Y-104281672D01*
X135627038Y-104074909D01*
X135532021Y-103882235D01*
X135403484Y-103710102D01*
X135245730Y-103564276D01*
X135216587Y-103545888D01*
X135066954Y-103451476D01*
X135066948Y-103451473D01*
X135064043Y-103449640D01*
X134864508Y-103370034D01*
X134653807Y-103328123D01*
X134523842Y-103326422D01*
X134442439Y-103325356D01*
X134442438Y-103325356D01*
X134438996Y-103325311D01*
X134435605Y-103325894D01*
X134435601Y-103325894D01*
X134230662Y-103361109D01*
X134230660Y-103361109D01*
X134227270Y-103361692D01*
X134207394Y-103369025D01*
X134201028Y-103371373D01*
X134149588Y-103371597D01*
X134110039Y-103338704D01*
X134099800Y-103300821D01*
X134099800Y-103150661D01*
X134117393Y-103102323D01*
X134161942Y-103076603D01*
X134191596Y-103077315D01*
X134302117Y-103102323D01*
X134377874Y-103119465D01*
X134501696Y-103124330D01*
X134589094Y-103127764D01*
X134589097Y-103127764D01*
X134592538Y-103127899D01*
X134595943Y-103127405D01*
X134595948Y-103127405D01*
X134768934Y-103102323D01*
X134805143Y-103097073D01*
X134863348Y-103077315D01*
X135005308Y-103029126D01*
X135005311Y-103029125D01*
X135008571Y-103028018D01*
X135196009Y-102923048D01*
X135361178Y-102785678D01*
X135498548Y-102620509D01*
X135603518Y-102433071D01*
X135639740Y-102326367D01*
X135671463Y-102232913D01*
X135672573Y-102229643D01*
X135703399Y-102017038D01*
X135705008Y-101955600D01*
X135702185Y-101924871D01*
X135694362Y-101839739D01*
X135685351Y-101741672D01*
X135627038Y-101534909D01*
X135532021Y-101342235D01*
X135403484Y-101170102D01*
X135245730Y-101024276D01*
X135216587Y-101005888D01*
X135066954Y-100911476D01*
X135066948Y-100911473D01*
X135064043Y-100909640D01*
X134864508Y-100830034D01*
X134653807Y-100788123D01*
X134523842Y-100786422D01*
X134442439Y-100785356D01*
X134442438Y-100785356D01*
X134438996Y-100785311D01*
X134435605Y-100785894D01*
X134435601Y-100785894D01*
X134230662Y-100821109D01*
X134230660Y-100821109D01*
X134227270Y-100821692D01*
X134224040Y-100822883D01*
X134220706Y-100823777D01*
X134220249Y-100822073D01*
X134174865Y-100822262D01*
X134135322Y-100789362D01*
X134126179Y-100738741D01*
X134147116Y-100698316D01*
X134257294Y-100588139D01*
X134303914Y-100566400D01*
X134327064Y-100567968D01*
X134377874Y-100579465D01*
X134501696Y-100584330D01*
X134589094Y-100587764D01*
X134589097Y-100587764D01*
X134592538Y-100587899D01*
X134595943Y-100587405D01*
X134595948Y-100587405D01*
X134748518Y-100565283D01*
X134805143Y-100557073D01*
X134808413Y-100555963D01*
X135005308Y-100489126D01*
X135005311Y-100489125D01*
X135008571Y-100488018D01*
X135196009Y-100383048D01*
X135361178Y-100245678D01*
X135498548Y-100080509D01*
X135603518Y-99893071D01*
X135672573Y-99689643D01*
X135703399Y-99477038D01*
X135705008Y-99415600D01*
X135702448Y-99387733D01*
X135688422Y-99235098D01*
X135685351Y-99201672D01*
X135627038Y-98994909D01*
X135623347Y-98987423D01*
X135543943Y-98826411D01*
X135532021Y-98802235D01*
X135403484Y-98630102D01*
X135245730Y-98484276D01*
X135216587Y-98465888D01*
X135066954Y-98371476D01*
X135066948Y-98371473D01*
X135064043Y-98369640D01*
X134864508Y-98290034D01*
X134653807Y-98248123D01*
X134523842Y-98246422D01*
X134442439Y-98245356D01*
X134442438Y-98245356D01*
X134438996Y-98245311D01*
X134435605Y-98245894D01*
X134435601Y-98245894D01*
X134362298Y-98258490D01*
X134245463Y-98278566D01*
X134194845Y-98269412D01*
X134161953Y-98229863D01*
X134162177Y-98178424D01*
X134179555Y-98151278D01*
X134278006Y-98052827D01*
X134324626Y-98031087D01*
X134347775Y-98032655D01*
X134374508Y-98038704D01*
X134374515Y-98038705D01*
X134377874Y-98039465D01*
X134501696Y-98044330D01*
X134589094Y-98047764D01*
X134589097Y-98047764D01*
X134592538Y-98047899D01*
X134595943Y-98047405D01*
X134595948Y-98047405D01*
X134748518Y-98025283D01*
X134805143Y-98017073D01*
X134808413Y-98015963D01*
X135005308Y-97949126D01*
X135005311Y-97949125D01*
X135008571Y-97948018D01*
X135196009Y-97843048D01*
X135361178Y-97705678D01*
X135498548Y-97540509D01*
X135603518Y-97353071D01*
X135657557Y-97193880D01*
X135671463Y-97152913D01*
X135672573Y-97149643D01*
X135703399Y-96937038D01*
X135705008Y-96875600D01*
X135702185Y-96844871D01*
X135691785Y-96731696D01*
X135685351Y-96661672D01*
X135627038Y-96454909D01*
X135532021Y-96262235D01*
X135403484Y-96090102D01*
X135245730Y-95944276D01*
X135242819Y-95942439D01*
X135066954Y-95831476D01*
X135066948Y-95831473D01*
X135064043Y-95829640D01*
X134864508Y-95750034D01*
X134653807Y-95708123D01*
X134523842Y-95706422D01*
X134442439Y-95705356D01*
X134442438Y-95705356D01*
X134438996Y-95705311D01*
X134435605Y-95705894D01*
X134435601Y-95705894D01*
X134329405Y-95724142D01*
X134276133Y-95733296D01*
X134225514Y-95724142D01*
X134192622Y-95684593D01*
X134192846Y-95633154D01*
X134210224Y-95606008D01*
X134298719Y-95517513D01*
X134345339Y-95495773D01*
X134368491Y-95497342D01*
X134377874Y-95499465D01*
X134491353Y-95503924D01*
X134589094Y-95507764D01*
X134589097Y-95507764D01*
X134592538Y-95507899D01*
X134595943Y-95507405D01*
X134595948Y-95507405D01*
X134748518Y-95485283D01*
X134805143Y-95477073D01*
X134808413Y-95475963D01*
X135005308Y-95409126D01*
X135005311Y-95409125D01*
X135008571Y-95408018D01*
X135196009Y-95303048D01*
X135361178Y-95165678D01*
X135498548Y-95000509D01*
X135603518Y-94813071D01*
X135633715Y-94724116D01*
X135671463Y-94612913D01*
X135672573Y-94609643D01*
X135703399Y-94397038D01*
X135705008Y-94335600D01*
X135702185Y-94304871D01*
X135685666Y-94125105D01*
X135685351Y-94121672D01*
X135627038Y-93914909D01*
X135532021Y-93722235D01*
X135403484Y-93550102D01*
X135245730Y-93404276D01*
X135242819Y-93402439D01*
X135066954Y-93291476D01*
X135066948Y-93291473D01*
X135064043Y-93289640D01*
X134864508Y-93210034D01*
X134653807Y-93168123D01*
X134523842Y-93166422D01*
X134442439Y-93165356D01*
X134442438Y-93165356D01*
X134438996Y-93165311D01*
X134435605Y-93165894D01*
X134435601Y-93165894D01*
X134230662Y-93201109D01*
X134230660Y-93201109D01*
X134227270Y-93201692D01*
X134165942Y-93224317D01*
X134114504Y-93224542D01*
X134074955Y-93191649D01*
X134065801Y-93141030D01*
X134086741Y-93100591D01*
X134226223Y-92961109D01*
X134272843Y-92939369D01*
X134295992Y-92940937D01*
X134335241Y-92949818D01*
X134374514Y-92958705D01*
X134374517Y-92958705D01*
X134377874Y-92959465D01*
X134491353Y-92963924D01*
X134589094Y-92967764D01*
X134589097Y-92967764D01*
X134592538Y-92967899D01*
X134595943Y-92967405D01*
X134595948Y-92967405D01*
X134778493Y-92940937D01*
X134805143Y-92937073D01*
X134820721Y-92931785D01*
X135005308Y-92869126D01*
X135005311Y-92869125D01*
X135008571Y-92868018D01*
X135196009Y-92763048D01*
X135361178Y-92625678D01*
X135498548Y-92460509D01*
X135603518Y-92273071D01*
X135672573Y-92069643D01*
X135703399Y-91857038D01*
X135703826Y-91840753D01*
X135704950Y-91797817D01*
X135704950Y-91797816D01*
X135705008Y-91795600D01*
X135702185Y-91764871D01*
X135689481Y-91626622D01*
X135685351Y-91581672D01*
X135627038Y-91374909D01*
X135622442Y-91365588D01*
X135578536Y-91276557D01*
X135532021Y-91182235D01*
X135403484Y-91010102D01*
X135245730Y-90864276D01*
X135216587Y-90845888D01*
X135066954Y-90751476D01*
X135066948Y-90751473D01*
X135064043Y-90749640D01*
X134864508Y-90670034D01*
X134653807Y-90628123D01*
X134523842Y-90626422D01*
X134442439Y-90625356D01*
X134442438Y-90625356D01*
X134438996Y-90625311D01*
X134435605Y-90625894D01*
X134435601Y-90625894D01*
X134230662Y-90661109D01*
X134230660Y-90661109D01*
X134227270Y-90661692D01*
X134210263Y-90667966D01*
X134206192Y-90669468D01*
X134154752Y-90669692D01*
X134115203Y-90636800D01*
X134106050Y-90586181D01*
X134126990Y-90545742D01*
X134246936Y-90425796D01*
X134293556Y-90404056D01*
X134316705Y-90405624D01*
X134343920Y-90411782D01*
X134374514Y-90418705D01*
X134374517Y-90418705D01*
X134377874Y-90419465D01*
X134491353Y-90423924D01*
X134589094Y-90427764D01*
X134589097Y-90427764D01*
X134592538Y-90427899D01*
X134595943Y-90427405D01*
X134595948Y-90427405D01*
X134756982Y-90404056D01*
X134805143Y-90397073D01*
X134808413Y-90395963D01*
X135005308Y-90329126D01*
X135005311Y-90329125D01*
X135008571Y-90328018D01*
X135196009Y-90223048D01*
X135361178Y-90085678D01*
X135498548Y-89920509D01*
X135603518Y-89733071D01*
X135617531Y-89691792D01*
X135671463Y-89532913D01*
X135672573Y-89529643D01*
X135703399Y-89317038D01*
X135705008Y-89255600D01*
X135702185Y-89224871D01*
X135696611Y-89164210D01*
X135685351Y-89041672D01*
X135627038Y-88834909D01*
X135621825Y-88824337D01*
X135559282Y-88697515D01*
X135532021Y-88642235D01*
X135403484Y-88470102D01*
X135245730Y-88324276D01*
X135190631Y-88289511D01*
X135066954Y-88211476D01*
X135066948Y-88211473D01*
X135064043Y-88209640D01*
X134864508Y-88130034D01*
X134653807Y-88088123D01*
X134523842Y-88086422D01*
X134442439Y-88085356D01*
X134442438Y-88085356D01*
X134438996Y-88085311D01*
X134435605Y-88085894D01*
X134435601Y-88085894D01*
X134316322Y-88106390D01*
X134230128Y-88121201D01*
X134179510Y-88112047D01*
X134146618Y-88072498D01*
X134146842Y-88021059D01*
X134164220Y-87993913D01*
X134267650Y-87890483D01*
X134314270Y-87868743D01*
X134337419Y-87870311D01*
X134356641Y-87874661D01*
X134374514Y-87878705D01*
X134374517Y-87878705D01*
X134377874Y-87879465D01*
X134491353Y-87883924D01*
X134589094Y-87887764D01*
X134589097Y-87887764D01*
X134592538Y-87887899D01*
X134595943Y-87887405D01*
X134595948Y-87887405D01*
X134776962Y-87861159D01*
X134805143Y-87857073D01*
X134827888Y-87849352D01*
X135005308Y-87789126D01*
X135005311Y-87789125D01*
X135008571Y-87788018D01*
X135196009Y-87683048D01*
X135361178Y-87545678D01*
X135498548Y-87380509D01*
X135603518Y-87193071D01*
X135633715Y-87104116D01*
X135671463Y-86992913D01*
X135672573Y-86989643D01*
X135703399Y-86777038D01*
X135705008Y-86715600D01*
X135704156Y-86706322D01*
X135691771Y-86571539D01*
X135685351Y-86501672D01*
X135683830Y-86496277D01*
X135660827Y-86414716D01*
X135627038Y-86294909D01*
X135532021Y-86102235D01*
X135403484Y-85930102D01*
X135245730Y-85784276D01*
X135242819Y-85782439D01*
X135066954Y-85671476D01*
X135066948Y-85671473D01*
X135064043Y-85669640D01*
X134864508Y-85590034D01*
X134653807Y-85548123D01*
X134523842Y-85546422D01*
X134442439Y-85545356D01*
X134442438Y-85545356D01*
X134438996Y-85545311D01*
X134435605Y-85545894D01*
X134435601Y-85545894D01*
X134314071Y-85566777D01*
X134260798Y-85575931D01*
X134210179Y-85566777D01*
X134177287Y-85527228D01*
X134177511Y-85475789D01*
X134194889Y-85448643D01*
X134288362Y-85355170D01*
X134334982Y-85333430D01*
X134358133Y-85334998D01*
X134377874Y-85339465D01*
X134501696Y-85344330D01*
X134589094Y-85347764D01*
X134589097Y-85347764D01*
X134592538Y-85347899D01*
X134595943Y-85347405D01*
X134595948Y-85347405D01*
X134748518Y-85325283D01*
X134805143Y-85317073D01*
X134808413Y-85315963D01*
X135005308Y-85249126D01*
X135005311Y-85249125D01*
X135008571Y-85248018D01*
X135196009Y-85143048D01*
X135361178Y-85005678D01*
X135498548Y-84840509D01*
X135603518Y-84653071D01*
X135633715Y-84564116D01*
X135671463Y-84452913D01*
X135672573Y-84449643D01*
X135703399Y-84237038D01*
X135705008Y-84175600D01*
X135702185Y-84144871D01*
X135685666Y-83965105D01*
X135685351Y-83961672D01*
X135627038Y-83754909D01*
X135615240Y-83730984D01*
X135533546Y-83565328D01*
X135532021Y-83562235D01*
X135403484Y-83390102D01*
X135245730Y-83244276D01*
X135242819Y-83242439D01*
X135066954Y-83131476D01*
X135066948Y-83131473D01*
X135064043Y-83129640D01*
X134864508Y-83050034D01*
X134653807Y-83008123D01*
X134523842Y-83006422D01*
X134442439Y-83005356D01*
X134442438Y-83005356D01*
X134438996Y-83005311D01*
X134435605Y-83005894D01*
X134435601Y-83005894D01*
X134291470Y-83030660D01*
X134240851Y-83021506D01*
X134207958Y-82981957D01*
X134208183Y-82930518D01*
X134225560Y-82903373D01*
X134309158Y-82819775D01*
X134355778Y-82798036D01*
X134372145Y-82798393D01*
X134374514Y-82798705D01*
X134377874Y-82799465D01*
X134485206Y-82803682D01*
X134589094Y-82807764D01*
X134589097Y-82807764D01*
X134592538Y-82807899D01*
X134595943Y-82807405D01*
X134595948Y-82807405D01*
X134748518Y-82785283D01*
X134805143Y-82777073D01*
X134808413Y-82775963D01*
X135005308Y-82709126D01*
X135005311Y-82709125D01*
X135008571Y-82708018D01*
X135196009Y-82603048D01*
X135361178Y-82465678D01*
X135498548Y-82300509D01*
X135603518Y-82113071D01*
X135633715Y-82024116D01*
X135666191Y-81928444D01*
X135698388Y-81888327D01*
X135748840Y-81878291D01*
X135793938Y-81903033D01*
G37*
G04 #@! TD.AperFunction*
M02*
