M48
; DRILL file {KiCad (6.0.8)} date Thu Mar 23 08:33:47 2023
; FORMAT={-:-/ absolute / metric / decimal}
; #@! TF.CreationDate,2023-03-23T08:33:47-06:00
; #@! TF.GenerationSoftware,Kicad,Pcbnew,(6.0.8)
; #@! TF.FileFunction,Plated,1,2,PTH
FMAT,2
METRIC
; #@! TA.AperFunction,Plated,PTH,ViaDrill
T1C0.400
; #@! TA.AperFunction,Plated,PTH,ViaDrill
T2C0.610
; #@! TA.AperFunction,Plated,PTH,ComponentDrill
T3C0.813
%
G90
G05
T1
X159.0Y-134.0
T2
X135.865Y-134.772
X136.436Y-120.028
X137.071Y-84.176
X137.071Y-94.336
X137.35Y-109.855
X138.265Y-137.173
X138.468Y-77.826
X139.611Y-87.986
X140.551Y-114.313
X140.551Y-131.0
X140.779Y-101.854
X142.265Y-132.372
X142.494Y-138.087
X143.751Y-138.087
X144.323Y-136.258
X144.437Y-108.712
X145.237Y-137.173
X145.351Y-109.626
X146.266Y-110.541
X146.977Y-81.636
X147.409Y-85.852
X147.752Y-111.684
X147.752Y-124.371
X147.752Y-130.086
X147.866Y-131.458
X147.98Y-100.393
X148.666Y-129.172
X148.895Y-72.936
X149.009Y-135.344
X149.123Y-123.228
X151.066Y-129.972
X151.981Y-127.343
X152.552Y-111.455
X152.552Y-118.313
X152.895Y-125.743
X152.895Y-128.257
X153.01Y-109.741
X153.124Y-135.687
X153.467Y-108.483
X154.038Y-115.57
X154.038Y-132.372
X154.038Y-133.744
X155.181Y-120.256
X155.524Y-122.314
X156.439Y-120.256
X156.896Y-123.457
X157.353Y-118.085
X157.353Y-119.342
X159.0Y-136.5
X159.868Y-120.028
X161.201Y-141.326
X161.442Y-115.176
X162.496Y-88.024
X163.411Y-88.938
X163.639Y-120.942
X164.757Y-117.577
X165.151Y-112.827
X165.265Y-134.087
X165.697Y-107.798
X167.335Y-112.344
T3
X134.531Y-71.476
X134.531Y-74.016
X134.531Y-76.556
X134.531Y-79.096
X134.531Y-81.636
X134.531Y-84.176
X134.531Y-86.716
X134.531Y-89.256
X134.531Y-91.796
X134.531Y-94.336
X134.531Y-96.876
X134.531Y-99.416
X134.531Y-101.956
X134.531Y-104.496
X134.531Y-107.036
X134.531Y-109.576
X149.771Y-71.476
X149.771Y-74.016
X149.771Y-76.556
X149.771Y-79.096
X149.771Y-81.636
X149.771Y-84.176
X149.771Y-86.716
X149.771Y-89.256
X149.771Y-91.796
X149.771Y-94.336
X149.771Y-96.876
X149.771Y-99.416
X149.771Y-101.956
X149.771Y-104.496
X149.771Y-107.036
X149.771Y-109.576
T0
M30
